<svg width="204" height="200" viewBox="0 0 204 200" fill="none" xmlns="http://www.w3.org/2000/svg">
<path d="M162.194 47.6945L111.811 0H0.249023V197.591H162.194V47.6945Z" fill="#EFEBDE"/>
<path d="M36.2365 78.355H126.206C128.193 78.355 129.805 76.8322 129.805 74.9483C129.805 73.0643 128.193 71.5415 126.206 71.5415H36.2365C34.25 71.5415 32.6377 73.0643 32.6377 74.9483C32.6377 76.8322 34.25 78.355 36.2365 78.355Z" fill="#D5D0BB"/>
<path d="M36.2365 51.1011H72.2243C74.2109 51.1011 75.8231 49.5783 75.8231 47.6943C75.8231 45.8104 74.2109 44.2876 72.2243 44.2876H36.2365C34.25 44.2876 32.6377 45.8104 32.6377 47.6943C32.6377 49.5783 34.25 51.1011 36.2365 51.1011Z" fill="#D5D0BB"/>
<path d="M126.206 98.7954H36.2365C34.25 98.7954 32.6377 100.318 32.6377 102.202C32.6377 104.086 34.25 105.609 36.2365 105.609H126.206C128.193 105.609 129.805 104.086 129.805 102.202C129.805 100.318 128.193 98.7954 126.206 98.7954Z" fill="#D5D0BB"/>
<path d="M126.206 126.05H36.2365C34.25 126.05 32.6377 127.573 32.6377 129.457C32.6377 131.34 34.25 132.863 36.2365 132.863H126.206C128.193 132.863 129.805 131.34 129.805 129.457C129.805 127.573 128.193 126.05 126.206 126.05Z" fill="#D5D0BB"/>
<path d="M126.206 153.304H36.2365C34.25 153.304 32.6377 154.827 32.6377 156.71C32.6377 158.594 34.25 160.117 36.2365 160.117H126.206C128.193 160.117 129.805 158.594 129.805 156.71C129.805 154.827 128.193 153.304 126.206 153.304Z" fill="#D5D0BB"/>
<path d="M111.812 0V47.6945H162.195L111.812 0Z" fill="#D5D0BB"/>
<path d="M126.671 167.66L126.646 167.687L119.488 192.519L136.212 176.691L126.671 167.66Z" fill="#EDDCC7"/>
<path d="M195.948 120.142L191.46 115.894C188.671 113.254 184.148 113.254 181.359 115.894L168.468 128.094L178.008 137.125L195.948 120.142Z" fill="#D75A4A"/>
<path d="M178.006 137.125L168.466 128.094L126.672 167.658L136.212 176.689L178.006 137.125Z" fill="#F29C21"/>
<path d="M147 186.959L147.029 186.932L136.211 176.691L119.487 192.519L119.009 194.185L147 186.959Z" fill="#D6C4B1"/>
<path d="M188.826 147.366L201.717 135.163C204.506 132.523 204.506 128.24 201.717 125.6L195.952 120.143L178.012 137.125L188.826 147.366Z" fill="#A34740"/>
<path d="M136.21 176.694L147.027 186.935L188.822 147.371L178.004 137.13L136.21 176.694Z" fill="#E18C25"/>
<path d="M116.465 200C115.544 200 114.622 199.666 113.921 199.002C112.513 197.67 112.513 195.517 113.921 194.185L121.863 186.666C123.27 185.334 125.545 185.334 126.952 186.666C128.359 187.998 128.359 190.151 126.952 191.483L119.009 199.002C118.307 199.666 117.386 200 116.465 200Z" fill="#5E5E5E"/>
</svg>
