<svg width="201" height="200" viewBox="0 0 201 200" fill="none" xmlns="http://www.w3.org/2000/svg">
<g clip-path="url(#clip0_27_3749)">
<path fill-rule="evenodd" clip-rule="evenodd" d="M30.8685 151.941V139.158C30.8685 137.478 31.9185 136.129 33.6576 136.129H34.1389C35.8771 136.129 36.9225 137.48 36.9225 139.158V166.07C36.9225 172.632 33.6803 177.854 28.0303 181.18C25.4421 182.714 22.4878 183.52 19.4795 183.512H18.2787C11.7146 183.512 6.4998 180.268 3.16777 174.622C1.63222 172.034 0.826587 169.079 0.836516 166.07V164.87C0.836516 158.305 4.08027 153.087 9.72558 149.754C12.3133 148.217 15.2692 147.411 18.2787 147.422H19.4795C23.9217 147.422 27.6904 149.144 30.8685 151.941V151.941ZM6.88964 165.469C6.88964 170.209 9.1873 173.773 13.3412 176.047C15.0209 176.966 16.8443 177.459 18.7607 177.459C23.4139 177.459 26.8654 175.264 29.2459 171.321C30.3529 169.487 30.8685 167.48 30.8685 165.346C30.8685 161.237 28.9232 158.03 25.6115 155.648C23.6037 154.204 21.3435 153.48 18.8787 153.48C13.8068 153.48 10.1568 156.042 7.9662 160.594C7.22714 162.133 6.88964 163.766 6.88964 165.469V165.469ZM57.924 147.422H58.7631C65.7771 147.422 71.1115 150.824 74.492 156.947C75.8436 159.396 76.567 162.07 76.567 164.87V166.07C76.567 172.632 73.331 177.861 67.6725 181.181C65.0529 182.718 62.1592 183.512 59.1232 183.512H57.924C51.36 183.512 46.1435 180.268 42.8131 174.622C41.2768 172.034 40.4703 169.079 40.4795 166.07V164.87C40.4795 158.305 43.7365 153.103 49.3678 149.755C51.9857 148.2 54.8818 147.422 57.924 147.422ZM46.5334 165.469C46.5334 170.07 48.7912 173.455 52.6779 175.836C54.5029 176.953 56.5131 177.459 58.6451 177.459C63.192 177.459 66.5529 175.154 68.892 171.316C70.0076 169.487 70.5123 167.477 70.5123 165.346C70.5123 161.067 68.4514 157.798 64.9279 155.43C62.9975 154.13 60.8482 153.48 58.5232 153.48C53.4514 153.48 49.8014 156.042 47.6115 160.594C46.8709 162.133 46.5334 163.766 46.5334 165.469V165.469ZM101.733 153.963C100.819 153.535 99.1084 153.393 98.1209 153.355C93.0631 153.165 89.4037 156.013 87.2568 160.475C86.5154 162.014 86.1771 163.643 86.1771 165.346C86.1771 170.531 88.8998 174.162 93.5279 176.375C95.2185 177.183 97.4014 177.336 99.249 177.336C100.874 177.336 103.171 176.341 104.613 175.655L104.863 175.537H105.983L106.106 175.562C107.483 175.848 108.522 176.721 108.522 178.202V178.802C108.522 182.487 101.786 183.331 99.2154 183.511C90.1451 184.138 83.3615 179.157 80.7756 170.505C80.3264 169.003 80.124 167.511 80.124 165.945V164.748C80.124 158.183 83.3818 152.983 89.0123 149.638C91.6303 148.084 94.5256 147.302 97.567 147.302H98.767C101.994 147.302 104.965 148.219 107.629 150.038L107.848 150.19L107.987 150.418C108.274 150.895 108.522 151.446 108.522 152.013V152.612C108.522 154.158 107.365 154.989 105.97 155.258L105.854 155.278H105.497C104.594 155.278 102.54 154.343 101.733 153.963V153.963ZM121.369 158.062C123.721 155.708 126.08 153.358 128.467 151.042C129.132 150.396 131.65 147.662 132.641 147.662H133.726L133.849 147.687C135.23 147.974 136.265 148.848 136.265 150.333V150.931C136.265 151.944 135.079 153.12 134.425 153.813C133.034 155.287 131.57 156.713 130.147 158.157L122.833 165.582C125.982 168.738 129.128 171.897 132.251 175.077C133.118 175.955 133.977 176.84 134.83 177.73C135.131 178.047 135.575 178.441 135.827 178.879C136.098 179.29 136.265 179.753 136.265 180.248V180.873L136.229 181.017C135.89 182.398 135.013 183.512 133.483 183.512H133.001C131.999 183.512 130.868 182.38 130.182 181.732C128.768 180.399 127.403 178.998 126.017 177.636L121.369 173.073V180.366C121.369 182.045 120.318 183.395 118.581 183.395H118.104C116.365 183.395 115.315 182.045 115.315 180.366V139.275C115.315 137.595 116.366 136.252 118.104 136.252H118.581C120.318 136.252 121.369 137.595 121.369 139.275V158.062V158.062ZM196.82 147.662H197.422C199.237 147.662 200.449 148.885 200.449 150.691C200.449 153.197 198.053 153.838 195.98 153.838C193.262 153.838 190.665 155.484 188.791 157.33C186.454 159.634 185.432 162.585 185.432 165.829V180.484C185.432 182.164 184.383 183.512 182.643 183.512H182.165C180.425 183.512 179.376 182.165 179.376 180.484V164.987C179.376 159.037 182.273 154.179 187.103 150.772C189.987 148.737 193.29 147.662 196.82 147.662V147.662ZM153.794 176.705C155.997 177.475 158.508 177.365 160.769 176.971C161.925 176.48 164.881 175.19 165.969 175.379L166.138 175.408L166.294 175.484C166.958 175.806 167.592 176.262 167.931 176.937C168.723 178.521 168.343 180.113 166.787 181.012L166.269 181.312C160.526 184.626 154.419 184.166 148.694 181.071C145.958 179.591 143.864 177.395 142.319 174.718L141.958 174.092C138.272 167.708 138.769 160.992 142.927 154.921C144.362 152.823 146.238 151.202 148.431 149.934L149.261 149.455C154.669 146.333 160.465 146.547 166.019 149.287C169.005 150.76 171.425 152.956 173.092 155.845L173.392 156.365C174.603 158.463 173.034 160.291 171.415 161.541C169.535 162.991 167.637 164.737 165.836 166.291C161.819 169.759 157.808 173.235 153.794 176.705V176.705ZM148.594 173.054C153.087 169.202 157.58 165.347 162.061 161.479C163.592 160.159 165.271 158.788 166.79 157.4C165.571 155.864 163.535 154.757 161.805 154.097C158.313 152.766 154.87 153.213 151.668 155.062C147.476 157.482 145.691 161.336 145.847 166.132C145.91 168.021 146.418 169.841 147.42 171.448C147.773 172.015 148.168 172.547 148.594 173.054ZM115.924 51.7437H133.788V70.0055H142.82C146.992 70.0055 151.282 69.2625 155.232 67.9242C157.173 67.2656 159.351 66.35 161.266 65.1977C158.744 61.9055 157.457 57.7484 157.079 53.6508C156.563 48.0766 157.688 40.8219 161.46 36.4594L163.338 34.2875L165.576 36.0867C171.209 40.6125 175.947 46.9375 176.783 54.1477C183.566 52.1523 191.531 52.6242 197.51 56.075L199.963 57.4906L198.672 60.0109C193.615 69.8797 183.043 72.9375 172.707 72.3961C157.24 110.919 123.568 129.156 82.7404 129.156C61.6467 129.156 42.2951 121.271 31.2748 102.557L31.0943 102.252L29.4889 98.9851C25.7639 90.7476 24.5264 81.7234 25.3654 72.7062L25.6178 70.0055H40.8943V51.7437H58.7576V33.8797H94.4865V16.0156H115.924V51.7437Z" fill="#364548"/>
<path fill-rule="evenodd" clip-rule="evenodd" d="M173.801 58.5002C174.999 49.1908 168.032 41.8791 163.712 38.4072C158.733 44.1635 157.959 59.2494 165.77 65.601C161.411 69.4729 152.226 72.9822 142.82 72.9822H28.3321C27.4181 82.8002 29.1415 91.8416 33.0782 99.5799L34.3806 101.963C35.2052 103.361 36.1063 104.713 37.0798 106.013C41.7868 106.315 46.1267 106.419 50.097 106.331H50.0985C57.9009 106.16 64.2673 105.238 69.0923 103.566C69.4334 103.46 69.8024 103.49 70.1212 103.652C70.4401 103.813 70.6838 104.091 70.8008 104.429C70.9178 104.766 70.8989 105.136 70.7482 105.46C70.5975 105.784 70.3266 106.036 69.9931 106.164C69.3509 106.388 68.6821 106.595 67.9915 106.793H67.9892C64.1899 107.878 60.1157 108.608 54.8595 108.932C55.172 108.938 54.5345 108.979 54.5329 108.979C54.354 108.991 54.129 109.017 53.9493 109.026C51.8806 109.142 49.6477 109.167 47.3649 109.167C44.8681 109.167 42.4095 109.12 39.6602 108.979L39.5899 109.026C49.129 119.748 64.0446 126.178 82.7415 126.178C122.31 126.178 155.873 108.638 170.735 69.2588C181.279 70.3408 191.413 67.6518 196.022 58.6533C188.68 54.4166 179.238 55.7674 173.801 58.5002" fill="#22A0C8"/>
<path fill-rule="evenodd" clip-rule="evenodd" d="M173.801 58.5002C174.998 49.1908 168.032 41.8791 163.712 38.4072C158.733 44.1635 157.959 59.2494 165.77 65.601C161.411 69.4729 152.226 72.9822 142.82 72.9822H35.1116C34.6445 88.0182 40.2241 99.4314 50.096 106.331H50.0984C57.9007 106.16 64.2671 105.238 69.0921 103.566C69.4332 103.46 69.8022 103.49 70.1211 103.652C70.4399 103.813 70.6836 104.091 70.8006 104.429C70.9176 104.766 70.8988 105.136 70.748 105.46C70.5973 105.784 70.3265 106.036 69.9929 106.164C69.3507 106.388 68.682 106.596 67.9913 106.793H67.989C64.1898 107.878 59.7656 108.702 54.5093 109.026C54.5077 109.026 54.382 108.905 54.3804 108.905C67.8468 115.813 87.3726 115.788 109.759 107.188C134.861 97.5447 158.219 79.1729 174.517 58.1596C174.272 58.2705 174.033 58.3838 173.801 58.5002" fill="#37B1D9"/>
<path fill-rule="evenodd" clip-rule="evenodd" d="M28.5469 84.9111C29.2578 90.1705 30.7969 95.0947 33.0781 99.5799L34.3805 101.963C35.2049 103.361 36.1061 104.713 37.0797 106.013C41.7875 106.315 46.1273 106.419 50.0984 106.331C57.9008 106.16 64.2672 105.238 69.0922 103.566C69.4333 103.46 69.8023 103.49 70.1211 103.652C70.44 103.813 70.6837 104.091 70.8007 104.429C70.9177 104.766 70.8989 105.136 70.7481 105.46C70.5974 105.784 70.3266 106.036 69.993 106.164C69.3508 106.388 68.682 106.596 67.9914 106.793H67.9891C64.1898 107.878 59.7891 108.655 54.5328 108.98C54.3523 108.991 54.0375 108.993 53.8555 109.003C51.7883 109.119 49.5781 109.19 47.2945 109.19C44.7984 109.19 42.2453 109.142 39.4977 109.003C49.0367 119.724 64.0445 126.178 82.7414 126.178C116.616 126.178 146.088 113.321 163.194 84.9111H28.5469Z" fill="#1B81A5"/>
<path fill-rule="evenodd" clip-rule="evenodd" d="M36.1421 84.9111C38.1671 94.1455 43.0335 101.395 50.0983 106.331C57.9007 106.16 64.2671 105.238 69.0921 103.566C69.4332 103.46 69.8022 103.49 70.121 103.652C70.4399 103.813 70.6836 104.091 70.8006 104.429C70.9176 104.766 70.8988 105.136 70.748 105.46C70.5973 105.784 70.3265 106.036 69.9929 106.164C69.3507 106.388 68.6819 106.596 67.9913 106.793H67.989C64.1897 107.878 59.696 108.655 54.439 108.98C67.9046 115.886 87.3741 115.787 109.759 107.188C123.301 101.985 136.335 94.24 148.028 84.9111H36.1421Z" fill="#1D91B4"/>
<path fill-rule="evenodd" clip-rule="evenodd" d="M43.8711 54.721H59.3539V70.2038H43.8711V54.721ZM45.1609 56.0116H46.3828V68.914H45.1609V56.0116ZM47.4578 56.0116H48.7289V68.914H47.4586V56.0116H47.4578ZM49.8031 56.0116H51.0742V68.914H49.8031V56.0116ZM52.15 56.0116H53.4203V68.914H52.15V56.0116ZM54.4961 56.0116H55.7664V68.914H54.4961V56.0116ZM56.8414 56.0116H58.0641V68.914H56.8414V56.0116ZM61.7352 36.8569H77.2188V52.339H61.7344V36.8569H61.7352ZM63.0258 38.1476H64.2469V51.0491H63.0258V38.1476ZM65.3227 38.1476H66.593V51.0491H65.3234V38.1476H65.3227ZM67.668 38.1476H68.9383V51.0491H67.668V38.1476ZM70.0141 38.1476H71.2844V51.0491H70.0141V38.1476ZM72.3602 38.1476H73.6312V51.0491H72.3602V38.1476ZM74.7055 38.1476H75.9289V51.0491H74.7055V38.1476Z" fill="#23A3C2"/>
<path fill-rule="evenodd" clip-rule="evenodd" d="M61.7352 54.7212H77.2187V70.204H61.7344V54.7212H61.7352ZM63.0258 56.0118H64.2469V68.9142H63.0258V56.0118ZM65.3227 56.0118H66.593V68.9142H65.3234V56.0118H65.3227ZM67.668 56.0118H68.9383V68.9142H67.668V56.0118ZM70.0141 56.0118H71.2844V68.9142H70.0141V56.0118ZM72.3602 56.0118H73.6312V68.9142H72.3602V56.0118ZM74.7055 56.0118H75.9289V68.9142H74.7055V56.0118Z" fill="#34BBDE"/>
<path fill-rule="evenodd" clip-rule="evenodd" d="M79.6001 54.7212H95.0829V70.204H79.6001V54.7212ZM80.8899 56.0118H82.111V68.9142H80.8899V56.0118ZM83.1868 56.0118H84.4571V68.9142H83.1868V56.0118ZM85.5329 56.0118H86.8032V68.9142H85.5329V56.0118ZM87.879 56.0118H89.1493V68.9142H87.879V56.0118ZM90.2243 56.0118H91.4962V68.9142H90.2243V56.0118ZM92.5704 56.0118H93.7923V68.9142H92.5704V56.0118V56.0118Z" fill="#23A3C2"/>
<path fill-rule="evenodd" clip-rule="evenodd" d="M79.6001 36.8569H95.0829V52.339H79.6001V36.8569ZM80.8899 38.1476H82.111V51.0491H80.8899V38.1476ZM83.1868 38.1476H84.4571V51.0491H83.1868V38.1476ZM85.5329 38.1476H86.8032V51.0491H85.5329V38.1476ZM87.879 38.1476H89.1493V51.0491H87.879V38.1476ZM90.2243 38.1476H91.4962V51.0491H90.2243V38.1476ZM92.5704 38.1476H93.7923V51.0491H92.5704V38.1476V38.1476ZM97.4642 54.721H112.947V70.2038H97.4642V54.721ZM98.7548 56.0116H99.9759V68.914H98.7548V56.0116ZM101.052 56.0116H102.322V68.914H101.052V56.0116ZM103.397 56.0116H104.667V68.914H103.397V56.0116ZM105.743 56.0116H107.014V68.914H105.743V56.0116ZM108.089 56.0116H109.36V68.914H108.089V56.0116ZM110.435 56.0116H111.657V68.914H110.435V56.0116Z" fill="#34BBDE"/>
<path fill-rule="evenodd" clip-rule="evenodd" d="M97.4639 36.8569H112.947V52.339H97.4639V36.8569ZM98.7545 38.1476H99.9756V51.0491H98.7545V38.1476ZM101.051 38.1476H102.322V51.0491H101.051V38.1476ZM103.397 38.1476H104.667V51.0491H103.397V38.1476ZM105.743 38.1476H107.014V51.0491H105.743V38.1476ZM108.089 38.1476H109.36V51.0491H108.089V38.1476ZM110.435 38.1476H111.657V51.0491H110.435V38.1476Z" fill="#23A3C2"/>
<path fill-rule="evenodd" clip-rule="evenodd" d="M97.4639 18.9922H112.947V34.4766H97.4639V18.9922ZM98.7545 20.282H99.9756V33.1852H98.7545V20.2812V20.282ZM101.051 20.282H102.322V33.1852H101.051V20.2812V20.282ZM103.397 20.282H104.667V33.1852H103.397V20.2812V20.282ZM105.743 20.282H107.014V33.1852H105.743V20.2812V20.282ZM108.089 20.282H109.36V33.1852H108.089V20.2812V20.282ZM110.435 20.282H111.657V33.1852H110.435V20.2812V20.282Z" fill="#34BBDE"/>
<path fill-rule="evenodd" clip-rule="evenodd" d="M115.328 54.7212H130.811V70.204H115.328V54.7212ZM116.617 56.0118H117.84V68.9142H116.618V56.0118H116.617ZM118.914 56.0118H120.185V68.9142H118.915V56.0118H118.914ZM121.261 56.0118H122.532V68.9142H121.261V56.0118ZM123.606 56.0118H124.877V68.9142H123.606V56.0118ZM125.953 56.0118H127.223V68.9142H125.953V56.0118ZM128.298 56.0118H129.52V68.9142H128.298V56.0118Z" fill="#23A3C2"/>
<path fill-rule="evenodd" clip-rule="evenodd" d="M76.2491 95.306C76.8149 95.2985 77.3765 95.4034 77.9014 95.6148C78.4263 95.8261 78.904 96.1396 79.3068 96.5371C79.7095 96.9345 80.0293 97.4081 80.2475 97.9302C80.4657 98.4522 80.578 99.0125 80.5779 99.5783C80.5778 100.144 80.4653 100.704 80.2469 101.226C80.0285 101.748 79.7085 102.222 79.3057 102.619C78.9028 103.016 78.425 103.33 77.9 103.541C77.375 103.752 76.8133 103.857 76.2475 103.849C75.1246 103.834 74.053 103.377 73.2645 102.577C72.476 101.778 72.034 100.7 72.0342 99.5768C72.0344 98.4538 72.4768 97.3761 73.2656 96.5768C74.0544 95.7775 75.1262 95.321 76.2491 95.306Z" fill="#D3ECEC"/>
<path fill-rule="evenodd" clip-rule="evenodd" d="M76.2492 96.5179C76.6399 96.5179 77.0125 96.5913 77.3563 96.7249C77.119 96.8626 76.9338 97.0746 76.8291 97.3281C76.7244 97.5816 76.7061 97.8626 76.7771 98.1275C76.848 98.3925 77.0043 98.6267 77.2216 98.794C77.439 98.9612 77.7054 99.0523 77.9797 99.053C78.4523 99.053 78.8625 98.7913 79.075 98.4038C79.3266 99.0099 79.3766 99.6808 79.2176 100.318C79.0586 100.954 78.699 101.523 78.192 101.94C77.685 102.356 77.0575 102.599 76.402 102.631C75.7466 102.664 75.0981 102.485 74.5522 102.12C74.0064 101.756 73.5922 101.226 73.3708 100.608C73.1495 99.9905 73.1326 99.3179 73.3229 98.6898C73.5131 98.0618 73.9003 97.5115 74.4273 97.1204C74.9542 96.7293 75.593 96.5181 76.2492 96.5179V96.5179ZM0.699219 86.4546H199.392C195.066 85.3577 185.705 83.8749 187.248 78.2046C179.381 87.3077 160.41 84.5913 155.622 80.103C150.291 87.8358 119.252 84.896 117.087 78.8718C110.402 86.7163 89.6906 86.7163 83.0063 78.8718C80.8398 84.896 49.8016 87.8358 44.4695 80.1022C39.682 84.5913 20.7117 87.3077 12.8445 78.2054C14.3883 83.8749 5.02656 85.3577 0.699219 86.4554" fill="#364548"/>
<path fill-rule="evenodd" clip-rule="evenodd" d="M87.6032 126.086C77.0251 121.067 71.2196 114.242 67.9892 106.794C64.0595 107.915 59.3368 108.632 53.8485 108.94C51.7814 109.056 49.6064 109.115 47.3251 109.115C44.6939 109.115 41.9212 109.037 39.0103 108.883C48.711 118.578 60.6446 126.042 82.7415 126.178C84.3728 126.178 85.9915 126.147 87.6032 126.086" fill="#BDD9D7"/>
<path fill-rule="evenodd" clip-rule="evenodd" d="M71.9182 113.667C70.4549 111.68 69.0354 109.183 67.9916 106.792C64.0619 107.915 59.3377 108.632 53.8486 108.94C57.6189 110.987 63.0104 112.883 71.919 113.667" fill="#D3ECEC"/>
</g>
<defs>
<clipPath id="clip0_27_3749">
<rect width="200" height="200" fill="white" transform="translate(0.699219)"/>
</clipPath>
</defs>
</svg>
