<svg width="201" height="200" viewBox="0 0 201 200" fill="none" xmlns="http://www.w3.org/2000/svg">
<path d="M133.491 133.333C151.9 133.333 166.824 118.41 166.824 100C166.824 81.5906 151.9 66.6667 133.491 66.6667C115.081 66.6667 100.157 81.5906 100.157 100C100.157 118.41 115.081 133.333 133.491 133.333Z" fill="#19BCFE"/>
<path fill-rule="evenodd" clip-rule="evenodd" d="M66.8241 200C85.2335 200 100.157 185.076 100.157 166.667C100.157 161.641 100.157 150.53 100.157 133.333C85.1827 133.333 74.0716 133.333 66.8241 133.333C48.4146 133.333 33.4907 148.257 33.4907 166.667C33.4907 185.076 48.4146 200 66.8241 200Z" fill="#09CF83"/>
<path fill-rule="evenodd" clip-rule="evenodd" d="M66.8241 133.333C72.9606 133.333 84.0717 133.333 100.157 133.333V66.6667C84.0717 66.6667 72.9606 66.6667 66.8241 66.6667C48.4146 66.6667 33.4907 81.5906 33.4907 100C33.4907 118.41 48.4146 133.333 66.8241 133.333Z" fill="#A259FF"/>
<path fill-rule="evenodd" clip-rule="evenodd" d="M66.8241 66.6667C72.9606 66.6667 84.0717 66.6667 100.157 66.6667V0C84.0717 0 72.9606 0 66.8241 0C48.4146 0 33.4907 14.9238 33.4907 33.3333C33.4907 51.7428 48.4146 66.6667 66.8241 66.6667Z" fill="#F24E1E"/>
<path fill-rule="evenodd" clip-rule="evenodd" d="M133.491 66.6667H100.157V0H133.491C151.9 0 166.824 14.9238 166.824 33.3333C166.824 51.7428 151.9 66.6667 133.491 66.6667Z" fill="#FF7262"/>
</svg>
