<svg width="200" height="200" viewBox="0 0 200 200" fill="none" xmlns="http://www.w3.org/2000/svg">
<path d="M169.306 98.6626C169.306 94.3429 167.59 90.2001 164.536 87.1456C161.481 84.0911 157.339 82.3751 153.019 82.3751C152.447 82.3745 151.875 82.4037 151.306 82.4626L173.681 16.4751H78.6001L100.944 82.4064C100.619 82.4064 100.288 82.3751 99.9564 82.3751C96.0669 82.3707 92.3043 83.7582 89.3489 86.2868C86.3936 88.8154 84.4407 92.3182 83.8434 96.1615C83.2461 100.005 84.044 103.935 86.0925 107.241C88.1411 110.548 91.3052 113.012 95.0126 114.188C91.5479 120.153 87.234 125.583 82.2064 130.306C75.6618 136.563 67.8864 141.388 59.3751 144.475C54.6064 142.215 50.8768 138.225 48.944 133.314C47.0112 128.404 47.0201 122.942 48.9689 118.038C49.4501 116.913 49.9376 115.775 50.4001 114.638C54.0317 113.782 57.2598 111.707 59.5449 108.757C61.83 105.808 63.0338 102.164 62.9551 98.4341C62.8764 94.704 61.52 91.1139 59.1125 88.2636C56.705 85.4134 53.3923 83.4758 49.7278 82.7745C46.0634 82.0731 42.2693 82.6506 38.9795 84.4104C35.6897 86.1703 33.1035 89.0058 31.653 92.4432C30.2025 95.8806 29.9757 99.7117 31.0103 103.296C32.045 106.881 34.2785 110.002 37.3376 112.138C32.1386 121.564 28.1708 131.62 25.5314 142.056C23.3189 155.4 25.5314 169.556 37.0626 177.563C63.9376 196.194 93.1189 166.013 123.881 158.431C135.031 155.681 147.269 156.125 157.088 150.438C160.635 148.417 163.694 145.641 166.048 142.305C168.401 138.97 169.992 135.157 170.706 131.138C171.36 127.308 171.237 123.386 170.344 119.604C169.452 115.823 167.809 112.259 165.513 109.125C167.963 106.197 169.304 102.499 169.3 98.6814L169.306 98.6626ZM116.25 98.7501V98.6939C116.255 95.891 115.534 93.1345 114.159 90.6923C112.783 88.2501 110.8 86.2053 108.4 84.7564L126.175 48.7501L143.988 85.0876C141.753 86.5726 139.921 88.5877 138.655 90.9532C137.388 93.3187 136.728 95.9608 136.731 98.6439C136.731 98.7626 136.731 98.8814 136.731 99.0001L116.25 98.7501Z" fill="#C63D14"/>
<path d="M173.287 98.6625C173.281 93.9399 171.628 89.3673 168.613 85.7326C165.597 82.0978 161.409 79.6285 156.769 78.75L179.231 12.5H73.056L95.556 78.8812C91.628 79.7592 88.0506 81.7875 85.2802 84.7073C82.5099 87.6271 80.6721 91.306 80.0015 95.2747C79.3309 99.2434 79.8578 103.322 81.515 106.99C83.1722 110.658 85.8846 113.749 89.306 115.869C86.4796 120.068 83.1925 123.938 79.506 127.406C73.7996 132.866 67.0938 137.174 59.756 140.094C56.3124 138.095 53.7021 134.925 52.401 131.161C51.1 127.398 51.1949 123.293 52.6685 119.594L52.9185 119.012L53.381 117.919C57.5465 116.475 61.128 113.712 63.5831 110.05C66.0382 106.388 67.2332 102.026 66.9871 97.6243C66.741 93.2224 65.0672 89.0206 62.2192 85.6551C59.3712 82.2897 55.5041 79.9439 51.2035 78.9731C46.903 78.0022 42.4032 78.4592 38.3856 80.2747C34.368 82.0903 31.0514 85.1655 28.9381 89.0348C26.8247 92.9041 26.0298 97.3566 26.6736 101.718C27.3174 106.08 29.3649 110.113 32.506 113.206C31.831 114.65 31.1185 116.112 30.3873 117.619C26.335 125.069 23.3875 133.07 21.6373 141.369C18.731 158.869 23.4185 172.887 34.831 180.794C40.9575 185.175 48.3055 187.521 55.8373 187.5C69.1623 187.5 82.6435 180.806 95.8373 174.256C105.056 169.243 114.781 165.224 124.85 162.269C128.456 161.381 132.169 160.844 136.1 160.275C144.109 159.635 151.919 157.453 159.1 153.85C163.149 151.537 166.641 148.361 169.327 144.549C172.013 140.736 173.828 136.38 174.644 131.787C175.971 123.986 174.438 115.967 170.325 109.206C172.27 106.032 173.298 102.38 173.294 98.6562L173.287 98.6625ZM165.331 98.6625C165.331 101.098 164.609 103.478 163.256 105.503C161.903 107.528 159.98 109.106 157.73 110.038C155.48 110.97 153.005 111.213 150.616 110.738C148.228 110.263 146.034 109.091 144.312 107.369C142.59 105.647 141.418 103.453 140.943 101.065C140.468 98.6762 140.711 96.2005 141.643 93.9507C142.575 91.7009 144.153 89.7779 146.178 88.425C148.203 87.0721 150.583 86.35 153.019 86.35C156.283 86.3533 159.413 87.6516 161.721 89.9599C164.029 92.2682 165.328 95.398 165.331 98.6625V98.6625ZM168.125 20.4562L148.287 78.9562C147.438 79.1618 146.603 79.4227 145.787 79.7375L126.194 39.7375L106.537 79.5C105.681 79.2035 104.807 78.9654 103.919 78.7875L84.1498 20.4562H168.125ZM99.956 86.35C102.391 86.35 104.772 87.0721 106.796 88.425C108.821 89.7779 110.399 91.7009 111.331 93.9507C112.263 96.2005 112.507 98.6762 112.032 101.065C111.557 103.453 110.384 105.647 108.662 107.369C106.94 109.091 104.746 110.263 102.358 110.738C99.9697 111.213 97.494 110.97 95.2442 110.038C92.9944 109.106 91.0715 107.528 89.7185 105.503C88.3656 103.478 87.6435 101.098 87.6435 98.6625C87.6468 95.398 88.9451 92.2682 91.2534 89.9599C93.5617 87.6516 96.6916 86.3533 99.956 86.35V86.35ZM46.6935 86.4687C49.1298 86.47 51.5109 87.194 53.5355 88.549C55.5601 89.9041 57.1373 91.8293 58.0673 94.081C58.9973 96.3328 59.2384 98.8098 58.7601 101.199C58.2818 103.587 57.1055 105.781 55.3802 107.501C53.6549 109.221 51.4581 110.39 49.0678 110.861C46.6775 111.332 44.2012 111.084 41.9523 110.147C39.7034 109.21 37.783 107.627 36.4342 105.598C35.0853 103.57 34.3686 101.186 34.3748 98.75C34.3781 95.4855 35.6763 92.3557 37.9847 90.0474C40.293 87.7391 43.4228 86.4408 46.6873 86.4375L46.6935 86.4687ZM166.8 130.431C166.182 133.876 164.814 137.144 162.793 140.001C160.773 142.859 158.148 145.238 155.106 146.969C148.794 150.033 141.959 151.876 134.962 152.4C131.012 152.969 126.931 153.556 122.937 154.544C112.306 157.622 102.038 161.841 92.3123 167.125C72.5373 176.944 55.4373 185.425 39.3623 174.269C27.5685 166.094 28.1123 150.969 29.4873 142.681C31.1054 135.139 33.8041 127.871 37.4998 121.1C38.0748 119.919 38.6373 118.756 39.1873 117.606C40.8661 118.277 42.6278 118.719 44.4248 118.919C42.834 124.537 43.2785 130.537 45.6798 135.86C48.0811 141.183 52.2849 145.487 57.5498 148.012L59.081 148.8L60.6998 148.225C69.7291 144.966 77.9781 139.857 84.9185 133.225C89.503 128.912 93.53 124.043 96.906 118.731C101.226 119.388 105.642 118.631 109.496 116.572C113.349 114.514 116.434 111.265 118.29 107.309C120.146 103.354 120.673 98.904 119.793 94.6244C118.913 90.3448 116.672 86.4645 113.406 83.5625L126.144 57.8062L139.012 84.0562C135.351 87.5849 133.151 92.362 132.85 97.4382C132.549 102.514 134.169 107.518 137.387 111.455C140.606 115.391 145.188 117.973 150.223 118.687C155.257 119.4 160.376 118.194 164.562 115.306C166.883 119.991 167.66 125.29 166.781 130.444L166.8 130.431Z" fill="white"/>
</svg>
