<svg width="201" height="200" viewBox="0 0 201 200" fill="none" xmlns="http://www.w3.org/2000/svg">
<path d="M99.471 5.67195C97.7518 5.75854 96.0675 6.18476 94.5167 6.9256L26.9105 39.2285C25.1608 40.0642 23.6234 41.2801 22.4124 42.786C21.2015 44.2919 20.3482 46.049 19.916 47.9269L3.2369 120.487C2.85176 122.159 2.80867 123.89 3.11017 125.579C3.41167 127.268 4.05163 128.879 4.99218 130.318C5.22021 130.67 5.46546 131.01 5.72705 131.339L52.5213 189.52C53.7325 191.025 55.2701 192.241 57.0199 193.076C58.7698 193.911 60.6869 194.345 62.6288 194.344L137.671 194.327C139.612 194.329 141.529 193.897 143.278 193.063C145.028 192.229 146.566 191.015 147.778 189.511L194.555 131.321C195.767 129.815 196.621 128.057 197.054 126.178C197.486 124.3 197.486 122.349 197.054 120.47L180.35 47.9094C179.917 46.0316 179.064 44.2745 177.853 42.7687C176.642 41.2629 175.105 40.047 173.355 39.2113L105.74 6.92532C103.789 5.99345 101.633 5.56247 99.471 5.67195V5.67195Z" fill="#326CE5"/>
<path d="M100.141 30.3652C97.9061 30.3655 96.0941 32.3784 96.0944 34.8614C96.0944 34.8995 96.1021 34.9361 96.1027 34.9737C96.0996 35.3112 96.0833 35.7177 96.0944 36.0112C96.1475 37.4434 96.4596 38.5396 96.6478 39.8591C96.9881 42.6829 97.2731 45.024 97.0974 47.1998C96.9258 48.0202 96.3218 48.7705 95.7831 49.2921L95.6879 51.0042C93.2263 51.2068 90.7819 51.5824 88.373 52.1281C77.8662 54.5139 68.8197 59.9262 61.9325 67.2334C61.4409 66.894 60.9538 66.5481 60.4713 66.1958C59.7486 66.2935 59.0187 66.5165 58.0675 65.9623C56.2566 64.7435 54.6073 63.061 52.6116 61.034C51.6971 60.0645 51.035 59.1412 49.9485 58.2066C49.7019 57.9944 49.3254 57.7074 49.0492 57.4888C48.1998 56.8118 47.1982 56.4585 46.2307 56.4256C44.9867 56.3829 43.7892 56.8694 43.0056 57.8521C41.6123 59.5994 42.0583 62.2702 43.9998 63.818C44.0194 63.8338 44.0404 63.8459 44.0604 63.8614C44.3271 64.0775 44.6538 64.3548 44.899 64.5357C46.0519 65.3871 47.105 65.8228 48.2538 66.4985C50.6739 67.9932 52.6804 69.2321 54.2717 70.7265C54.8931 71.3889 55.0018 72.5562 55.0846 73.0612L56.3814 74.2197C49.4385 84.6684 46.2251 97.5746 48.1243 110.725L46.4296 111.218C45.9828 111.794 45.3516 112.702 44.6915 112.973C42.6094 113.629 40.2662 113.869 37.4374 114.166C36.1093 114.277 34.963 114.21 33.5549 114.477C33.245 114.536 32.8134 114.648 32.4742 114.728L32.4396 114.737C32.4211 114.741 32.3967 114.75 32.379 114.754C29.994 115.33 28.462 117.522 28.9551 119.682C29.4484 121.843 31.7781 123.156 34.1775 122.639C34.1949 122.635 34.2201 122.635 34.2381 122.631C34.2652 122.625 34.289 122.611 34.3158 122.605C34.6506 122.531 35.0695 122.45 35.3622 122.372C36.7465 122.001 37.7489 121.456 38.9937 120.979C41.6709 120.019 43.8885 119.217 46.0492 118.904C46.9511 118.834 47.9021 119.461 48.375 119.726L50.1388 119.423C54.1978 132.007 62.7042 142.179 73.4755 148.561L72.7403 150.325C73.0054 151.01 73.2976 151.937 73.1 152.613C72.3148 154.65 70.9695 156.8 69.4375 159.196C68.6957 160.304 67.9365 161.163 67.2672 162.43C67.107 162.733 66.9031 163.199 66.7484 163.519C65.7084 165.745 66.4712 168.307 68.4691 169.269C70.4795 170.237 72.9747 169.216 74.0546 166.987C74.0562 166.984 74.0618 166.981 74.0631 166.978C74.0643 166.975 74.062 166.972 74.0631 166.97C74.217 166.653 74.435 166.238 74.5648 165.94C75.1381 164.627 75.329 163.501 75.7321 162.231C76.8029 159.542 77.3908 156.72 78.8647 154.962C79.2684 154.48 79.9264 154.295 80.6087 154.112L81.525 152.452C90.9151 156.056 101.426 157.024 111.926 154.64C114.286 154.103 116.605 153.404 118.869 152.547C119.126 153.004 119.605 153.883 119.733 154.104C120.427 154.329 121.183 154.446 121.8 155.357C122.903 157.241 123.657 159.47 124.575 162.162C124.979 163.432 125.178 164.558 125.751 165.871C125.882 166.171 126.099 166.592 126.253 166.909C127.33 169.146 129.834 170.17 131.847 169.2C133.845 168.238 134.608 165.675 133.568 163.45C133.413 163.13 133.2 162.664 133.04 162.361C132.371 161.094 131.612 160.243 130.87 159.136C129.338 156.739 128.067 154.748 127.282 152.711C126.953 151.661 127.337 151.008 127.593 150.325C127.44 150.15 127.112 149.158 126.919 148.691C138.112 142.081 146.369 131.531 150.246 119.345C150.77 119.428 151.68 119.589 151.976 119.648C152.584 119.247 153.144 118.723 154.241 118.809C156.402 119.122 158.619 119.924 161.297 120.884C162.541 121.361 163.544 121.914 164.928 122.285C165.221 122.363 165.64 122.436 165.974 122.51C166.001 122.516 166.025 122.53 166.052 122.536C166.07 122.54 166.095 122.54 166.113 122.544C168.512 123.061 170.842 121.748 171.335 119.587C171.828 117.427 170.296 115.234 167.911 114.659C167.564 114.58 167.072 114.446 166.735 114.382C165.327 114.116 164.181 114.181 162.853 114.071C160.024 113.774 157.681 113.533 155.599 112.878C154.75 112.548 154.146 111.538 153.852 111.122L152.218 110.647C153.065 104.517 152.837 98.1376 151.371 91.7545C149.891 85.3122 147.276 79.4199 143.788 74.2285C144.207 73.8472 144.999 73.1464 145.223 72.94C145.289 72.214 145.232 71.4528 145.984 70.6488C147.575 69.1547 149.582 67.9154 152.002 66.4208C153.151 65.7448 154.212 65.3093 155.365 64.458C155.626 64.2654 155.982 63.9605 156.256 63.7402C158.197 62.1919 158.644 59.5214 157.25 57.7744C155.856 56.0274 153.156 55.8625 151.215 57.4111C150.939 57.63 150.564 57.9155 150.316 58.1288C149.229 59.0635 148.558 59.9865 147.644 60.9563C145.648 62.9832 143.999 64.6743 142.188 65.8934C141.403 66.3499 140.254 66.1922 139.732 66.1612L138.194 67.2594C129.417 58.0569 117.469 52.1732 104.602 51.0302C104.566 50.491 104.519 49.5165 104.507 49.2229C103.98 48.7191 103.344 48.2888 103.184 47.1998C103.008 45.024 103.302 42.6829 103.643 39.8591C103.83 38.5396 104.143 37.4436 104.196 36.0112C104.208 35.6859 104.189 35.2133 104.187 34.8614C104.187 32.3784 102.376 30.3652 100.141 30.3652V30.3652ZM95.074 61.7517L93.8721 82.9784L93.7857 83.0218C93.7049 84.9207 92.1422 86.4369 90.2234 86.4369C89.4374 86.4369 88.7119 86.1846 88.1223 85.7541L88.0877 85.7712L70.6826 73.4328C76.0318 68.173 82.8742 64.2856 90.7594 62.4954C92.1839 62.1738 93.624 61.9256 95.074 61.7517V61.7517ZM105.216 61.7517C114.422 62.8839 122.936 67.0527 129.461 73.4416L112.168 85.702L112.107 85.6763C110.572 86.7972 108.41 86.5191 107.213 85.0192C106.741 84.4307 106.468 83.7066 106.435 82.9524L106.418 82.9441L105.216 61.7517ZM64.3706 81.3617L80.2628 95.5763L80.2454 95.6627C81.68 96.9097 81.8916 99.0736 80.695 100.574C80.2233 101.166 79.5753 101.593 78.8448 101.793L78.8274 101.862L58.4565 107.742C57.4198 98.261 59.6543 89.0452 64.3706 81.3617V81.3617ZM135.799 81.37C138.16 85.1974 139.948 89.4721 141.012 94.1063C142.064 98.6849 142.328 103.255 141.894 107.672L121.42 101.776L121.402 101.689C119.569 101.188 118.442 99.3232 118.869 97.4525C119.035 96.7167 119.432 96.0532 120.002 95.5589L119.993 95.5157L135.799 81.3703V81.37ZM96.881 96.6742H103.392L107.438 101.733L105.986 108.044L100.141 110.854L94.2785 108.036L92.8259 101.724L96.881 96.6742ZM117.753 113.984C118.03 113.971 118.305 113.995 118.575 114.045L118.61 114.002L139.681 117.564C136.597 126.228 130.696 133.733 122.812 138.756L114.632 118.999L114.658 118.965C113.907 117.219 114.659 115.171 116.387 114.339C116.83 114.126 117.292 114.008 117.753 113.984ZM82.3639 114.071C83.9718 114.093 85.4141 115.21 85.7879 116.846C85.9628 117.613 85.8776 118.372 85.5887 119.042L85.6496 119.12L77.5566 138.678C69.9898 133.823 63.9631 126.553 60.7391 117.633L81.6288 114.088L81.6634 114.131C81.8972 114.088 82.134 114.068 82.3639 114.071ZM100.011 122.64C100.588 122.62 101.161 122.741 101.68 122.994C102.388 123.335 102.935 123.872 103.279 124.516H103.357L113.655 143.123C112.303 143.574 110.93 143.958 109.539 144.273C101.664 146.061 93.8131 145.519 86.7046 143.097L96.9762 124.524H96.9936C97.288 123.974 97.7215 123.51 98.251 123.179C98.7804 122.849 99.3873 122.662 100.011 122.639L100.011 122.64Z" fill="white" stroke="white" stroke-width="0.25"/>
</svg>
