<svg width="201" height="201" viewBox="0 0 201 201" fill="none" xmlns="http://www.w3.org/2000/svg">
<g clip-path="url(#clip0_27_3845)">
<path fill-rule="evenodd" clip-rule="evenodd" d="M186.662 95.6094C186.482 95.6455 186.302 96.0421 186.302 96.2583C186.266 97.7001 186.23 101.521 186.23 104.117C186.23 104.189 186.338 104.333 186.446 104.333C186.987 104.369 188.285 104.405 189.402 104.405C190.952 104.405 191.853 104.189 192.358 103.973C193.656 103.324 194.269 101.918 194.269 100.368C194.269 96.8711 191.817 95.5372 188.176 95.5372C187.924 95.5015 187.203 95.5015 186.662 95.6094ZM195.963 111.723C195.963 108.154 193.331 106.171 188.573 106.171C188.357 106.171 186.843 106.135 186.482 106.207C186.374 106.243 186.23 106.316 186.23 106.424C186.23 108.983 186.194 113.057 186.302 114.642C186.374 115.327 186.879 116.301 187.492 116.589C188.14 116.95 189.619 117.022 190.628 117.022C193.476 117.022 195.963 115.436 195.963 111.723ZM179.309 93.627C179.669 93.627 180.751 93.7349 183.527 93.7349C186.158 93.7349 188.249 93.663 190.808 93.663C193.944 93.663 198.27 94.7804 198.27 99.4664C198.27 101.774 196.648 103.612 194.521 104.513C194.413 104.549 194.413 104.621 194.521 104.657C197.549 105.414 200.217 107.289 200.217 110.822C200.217 114.282 198.054 116.481 194.917 117.851C193.007 118.68 190.628 118.968 188.213 118.968C186.374 118.968 181.436 118.752 178.696 118.824C178.408 118.716 178.948 117.418 179.201 117.202C179.85 117.166 180.354 117.13 181.039 116.914C182.013 116.661 182.12 116.373 182.265 114.895C182.337 113.633 182.337 109.163 182.337 105.991C182.337 101.629 182.373 98.6735 182.337 97.2317C182.301 96.1143 181.904 95.7538 181.111 95.5372C180.499 95.4293 179.489 95.285 178.66 95.177C178.48 94.9966 179.092 93.771 179.309 93.627ZM158.509 116.049C159.375 116.733 161.069 117.022 162.583 117.022C164.53 117.022 166.476 116.661 168.35 114.967C170.261 113.237 171.595 110.569 171.595 106.316C171.595 102.242 170.045 98.9258 166.873 96.9794C165.07 95.8617 162.763 95.3932 160.096 95.3932C159.303 95.3932 158.545 95.4293 158.077 95.6455C157.969 95.7177 157.716 96.0421 157.716 96.2222C157.644 96.9433 157.644 102.494 157.644 105.739C157.644 109.091 157.644 113.777 157.716 114.318C157.716 114.859 157.969 115.688 158.509 116.049ZM150.327 93.627C151.012 93.627 153.643 93.7349 154.905 93.7349C157.176 93.7349 158.798 93.627 163.087 93.627C166.692 93.627 169.72 94.6003 171.883 96.4384C174.514 98.7096 175.884 101.846 175.884 105.667C175.884 111.11 173.397 114.246 170.91 116.049C168.423 117.887 165.178 118.968 160.564 118.968C158.113 118.968 153.895 118.896 150.399 118.86H150.363C150.183 118.536 150.651 117.274 150.939 117.238C151.877 117.13 152.129 117.094 152.598 116.914C153.355 116.625 153.499 116.229 153.607 114.895C153.715 112.408 153.679 109.416 153.679 106.027C153.679 103.612 153.715 98.8897 153.643 97.3757C153.535 96.1143 152.994 95.7899 151.913 95.5733C151.372 95.4654 150.651 95.3211 149.642 95.2131C149.498 94.9605 150.146 93.8431 150.327 93.627Z" fill="#8E714E"/>
<path fill-rule="evenodd" clip-rule="evenodd" d="M106.709 117.454C105.808 117.346 105.159 117.202 104.366 116.841C104.258 116.769 104.078 116.409 104.078 116.265C104.006 115.003 104.006 111.398 104.006 108.983C104.006 107.036 103.681 105.342 102.852 104.153C101.879 102.783 100.473 101.99 98.6706 101.99C97.0844 101.99 94.9576 103.071 93.1914 104.585C93.1553 104.621 92.8669 104.874 92.903 104.477C92.903 104.08 92.9752 103.288 93.0113 102.747C93.0473 102.242 92.759 101.99 92.759 101.99C91.6052 102.566 88.361 103.324 87.1715 103.432C86.3064 103.612 86.0902 104.441 86.9914 104.729H87.0274C88.0005 105.018 88.6494 105.342 89.1539 105.667C89.5145 105.955 89.4784 106.352 89.4784 106.676C89.5145 109.38 89.5145 113.525 89.4065 115.796C89.3704 116.697 89.1182 117.021 88.4693 117.166L88.5411 117.13C88.0366 117.238 87.6399 117.346 87.0271 117.418C86.8109 117.634 86.8109 118.788 87.0271 119.04C87.4237 119.04 89.5145 118.932 91.245 118.932C93.6241 118.932 94.8497 119.04 95.4625 119.04C95.7148 118.752 95.787 117.67 95.6426 117.418C94.9576 117.382 94.4531 117.31 93.9846 117.166C93.3357 117.021 93.1553 116.697 93.1192 115.94C93.0473 114.03 93.0473 109.992 93.0473 107.253C93.0473 106.496 93.2635 106.135 93.4797 105.919C94.3087 105.198 95.6426 104.693 96.8322 104.693C97.9856 104.693 98.7428 105.054 99.3195 105.523C100.112 106.171 100.365 107.108 100.473 107.793C100.653 109.344 100.581 112.408 100.581 115.075C100.581 116.517 100.473 116.877 99.9323 117.058C99.6801 117.166 99.0312 117.31 98.274 117.382C98.0217 117.634 98.0939 118.752 98.274 119.004C99.3195 119.004 100.545 118.896 102.348 118.896C104.582 118.896 106.024 119.004 106.601 119.004C106.781 118.788 106.853 117.743 106.709 117.454H106.709ZM116.695 103.684C114.784 103.684 113.594 105.162 113.594 107.469C113.594 109.812 114.64 112.516 117.596 112.516C118.1 112.516 119.038 112.299 119.47 111.795C120.155 111.146 120.624 109.848 120.624 108.478C120.624 105.487 119.145 103.684 116.695 103.684ZM116.442 119.617C115.721 119.617 115.216 119.833 114.892 120.014C113.378 120.987 112.693 121.924 112.693 123.042C112.693 124.087 113.09 124.916 113.955 125.637C115 126.538 116.442 126.971 118.28 126.971C121.957 126.971 123.58 124.988 123.58 123.042C123.58 121.672 122.895 120.771 121.489 120.266C120.479 119.833 118.641 119.617 116.442 119.617ZM116.695 128.989C114.496 128.989 112.909 128.521 111.54 127.475C110.206 126.466 109.629 124.952 109.629 123.907C109.629 123.618 109.701 122.825 110.35 122.104C110.747 121.672 111.612 120.843 113.667 119.437C113.738 119.401 113.774 119.365 113.774 119.293C113.774 119.22 113.702 119.148 113.63 119.113C111.936 118.464 111.431 117.418 111.287 116.841V116.769C111.251 116.553 111.179 116.337 111.504 116.12C111.756 115.94 112.116 115.724 112.513 115.472C113.126 115.111 113.774 114.715 114.171 114.39C114.243 114.318 114.243 114.246 114.243 114.174C114.243 114.102 114.171 114.03 114.099 113.994C111.576 113.164 110.314 111.29 110.314 108.478C110.314 106.64 111.143 104.982 112.621 103.936C113.63 103.143 116.154 102.17 117.812 102.17H117.92C119.614 102.206 120.552 102.566 121.885 103.035C122.606 103.288 123.291 103.395 124.228 103.395C125.634 103.395 126.247 102.963 126.752 102.459C126.788 102.53 126.86 102.711 126.896 103.179C126.932 103.648 126.788 104.333 126.427 104.838C126.139 105.234 125.49 105.523 124.841 105.523H124.661C124.012 105.45 123.724 105.378 123.724 105.378L123.58 105.45C123.543 105.523 123.58 105.594 123.616 105.703L123.652 105.775C123.724 106.099 123.868 107.072 123.868 107.325C123.868 110.281 122.678 111.578 121.417 112.552C120.191 113.453 118.785 114.03 117.199 114.174C117.163 114.174 117.019 114.174 116.695 114.21C116.514 114.21 116.262 114.246 116.226 114.246H116.19C115.901 114.318 115.181 114.678 115.181 115.291C115.181 115.832 115.505 116.481 117.055 116.589C117.379 116.625 117.704 116.625 118.064 116.661C120.119 116.805 122.678 116.986 123.868 117.382C125.526 117.995 126.571 119.473 126.571 121.239C126.571 123.907 124.661 126.394 121.489 127.944C119.939 128.629 118.389 128.989 116.695 128.989ZM137.242 103.864C136.484 103.864 135.799 104.044 135.295 104.405C133.889 105.27 133.168 107.001 133.168 109.524C133.168 114.246 135.547 117.562 138.936 117.562C139.945 117.562 140.738 117.274 141.423 116.697C142.468 115.832 143.009 114.102 143.009 111.687C143.009 107.001 140.666 103.864 137.242 103.864ZM137.891 119.293C131.762 119.293 129.563 114.787 129.563 110.569C129.563 107.613 130.753 105.342 133.132 103.72C134.826 102.675 136.845 102.098 138.647 102.098C143.333 102.098 146.614 105.45 146.614 110.281C146.614 113.561 145.316 116.156 142.829 117.743C141.639 118.535 139.585 119.293 137.89 119.293H137.891ZM73.6538 103.864C72.8966 103.864 72.2119 104.044 71.707 104.405C70.3013 105.27 69.5802 107.001 69.5802 109.524C69.5802 114.246 71.9593 117.562 75.3479 117.562C76.3573 117.562 77.1502 117.274 77.8352 116.697C78.8804 115.832 79.4214 114.102 79.4214 111.687C79.4214 107.001 77.1141 103.864 73.6538 103.864ZM74.3027 119.293C68.1745 119.293 65.9755 114.787 65.9755 110.569C65.9755 107.613 67.1651 105.342 69.5441 103.72C71.2386 102.675 73.2571 102.098 75.0595 102.098C79.7458 102.098 83.0261 105.45 83.0261 110.281C83.0261 113.561 81.7283 116.156 79.2409 117.743C78.0875 118.535 76.0328 119.293 74.3027 119.293ZM33.1003 118.932C33.0281 118.824 32.956 118.5 32.992 118.103C32.992 117.815 33.0642 117.634 33.1003 117.562C33.8571 117.454 34.2538 117.346 34.6861 117.238C35.4072 117.058 35.6956 116.661 35.7317 115.76C35.8399 113.597 35.8399 109.488 35.8038 106.64V106.568C35.8038 106.243 35.8038 105.847 35.4072 105.558C34.8305 105.198 34.1455 104.874 33.2443 104.621C32.9199 104.513 32.7037 104.333 32.7398 104.117C32.7398 103.9 32.956 103.648 33.4248 103.576C34.6143 103.468 37.7141 102.711 38.9398 102.17C39.0119 102.242 39.1202 102.459 39.1202 102.747L39.0841 103.143C39.048 103.54 39.0119 104.009 39.0119 104.477C39.0119 104.621 39.1563 104.729 39.3003 104.729C39.3725 104.729 39.4447 104.693 39.5168 104.657C41.8237 102.855 43.9145 102.206 44.9957 102.206C46.7624 102.206 48.132 103.035 49.1775 104.765C49.2494 104.874 49.3216 104.909 49.4298 104.909C49.502 104.909 49.6099 104.874 49.646 104.802C51.7728 103.179 53.8996 102.206 55.3054 102.206C58.6578 102.206 60.6406 104.693 60.6406 108.911C60.6406 110.1 60.6406 111.65 60.6045 113.057C60.6045 114.318 60.5684 115.472 60.5684 116.301C60.5684 116.481 60.8207 117.058 61.2173 117.166C61.7219 117.418 62.4069 117.526 63.3081 117.67H63.3441C63.4163 117.923 63.272 118.86 63.128 119.04C62.9114 119.04 62.587 119.04 62.2268 119.004C61.5418 118.968 60.5684 118.932 59.4871 118.932C57.2521 118.932 56.0986 118.968 54.9809 119.04C54.9091 118.752 54.873 117.887 54.9809 117.67C55.6298 117.562 55.9543 117.454 56.3509 117.346C57.072 117.13 57.2521 116.805 57.2882 115.868C57.2882 115.183 57.4322 109.344 57.216 107.937C56.9998 106.496 55.9182 104.802 53.5391 104.802C52.6379 104.802 51.2322 105.162 49.8622 106.207C49.7904 106.279 49.7182 106.46 49.7182 106.568V106.604C49.8622 107.361 49.8622 108.226 49.8622 109.56V111.903C49.8622 113.525 49.8261 115.039 49.8622 116.192C49.8622 116.986 50.331 117.166 50.7276 117.31C50.9438 117.346 51.0878 117.382 51.2683 117.418C51.5927 117.49 51.9172 117.562 52.4217 117.67C52.4939 117.815 52.4939 118.283 52.3856 118.68C52.3495 118.896 52.2774 119.004 52.2416 119.04C51.016 119.004 49.7543 118.968 47.9158 118.968C47.3752 118.968 46.4379 119.004 45.6447 119.004C44.9957 119.004 44.3829 119.04 44.0227 119.04C43.9866 118.968 43.9145 118.716 43.9145 118.319C43.9145 117.995 43.9866 117.743 44.0588 117.67C44.2389 117.634 44.3829 117.599 44.5634 117.599C44.9957 117.526 45.3563 117.454 45.7168 117.382C46.3296 117.202 46.5458 116.877 46.5819 116.085C46.6902 114.282 46.7981 109.127 46.5458 107.83C46.1135 105.739 44.9239 104.693 43.0133 104.693C41.8959 104.693 40.4899 105.234 39.3364 106.099C39.1563 106.243 39.0119 106.604 39.0119 106.928V109.055C39.0119 111.65 39.0119 114.895 39.048 116.301C39.0841 116.733 39.2281 117.238 40.0575 117.418C40.2376 117.454 40.5259 117.526 40.8865 117.562L41.5354 117.67C41.6076 117.887 41.5715 118.752 41.4271 119.04C41.0666 119.04 40.6342 119.004 40.1293 119.004C39.3725 118.968 38.3991 118.932 37.3178 118.932C36.0561 118.932 35.1549 118.968 34.4339 119.004C33.9293 118.932 33.5327 118.932 33.1003 118.932Z" fill="#442D22"/>
<path fill-rule="evenodd" clip-rule="evenodd" d="M14.1388 127.584L12.6609 127.079C12.6609 127.079 12.8413 119.545 10.1378 119.004C8.33541 116.914 10.4261 30.3274 16.9145 118.716C16.9145 118.716 14.6798 119.833 14.2831 121.744C13.8504 123.618 14.1388 127.584 14.1388 127.584Z" fill="white"/>
<path fill-rule="evenodd" clip-rule="evenodd" d="M14.1388 127.584L12.6609 127.079C12.6609 127.079 12.8413 119.545 10.1378 119.004C8.33541 116.914 10.4261 30.3274 16.9145 118.716C16.9145 118.716 14.6798 119.833 14.2831 121.744C13.8504 123.618 14.1388 127.584 14.1388 127.584Z" fill="#A6A385"/>
<path fill-rule="evenodd" clip-rule="evenodd" d="M14.9323 120.302C14.9323 120.302 27.8733 111.795 24.8453 94.0954C21.9256 81.2266 15.0402 77.0091 14.2834 75.3869C13.4544 74.2334 12.6611 72.2148 12.6611 72.2148L13.2021 108.01C13.2021 108.046 12.0844 118.968 14.9323 120.302Z" fill="white"/>
<path fill-rule="evenodd" clip-rule="evenodd" d="M14.9323 120.302C14.9323 120.302 27.8733 111.795 24.8453 94.0954C21.9256 81.2266 15.0402 77.0091 14.2834 75.3869C13.4544 74.2334 12.6611 72.2148 12.6611 72.2148L13.2021 108.01C13.2021 108.046 12.0844 118.968 14.9323 120.302Z" fill="#499D4A"/>
<path fill-rule="evenodd" clip-rule="evenodd" d="M11.9041 120.77C11.9041 120.77 -0.243914 112.479 0.477165 97.8804C1.16182 83.2811 9.74125 76.1077 11.3993 74.8099C12.4809 73.6565 12.517 73.2238 12.5891 72.0703C13.346 73.6926 13.202 96.3303 13.3099 98.9978C13.6343 109.271 12.7332 118.824 11.9041 120.77Z" fill="white"/>
<path fill-rule="evenodd" clip-rule="evenodd" d="M11.9041 120.77C11.9041 120.77 -0.243914 112.479 0.477165 97.8804C1.16182 83.2811 9.74125 76.1077 11.3993 74.8099C12.4809 73.6565 12.517 73.2238 12.5891 72.0703C13.346 73.6926 13.202 96.3303 13.3099 98.9978C13.6343 109.271 12.7332 118.824 11.9041 120.77Z" fill="#58AA50"/>
</g>
<defs>
<clipPath id="clip0_27_3845">
<rect width="200" height="200" fill="white" transform="translate(0.446289 0.506836)"/>
</clipPath>
</defs>
</svg>
