<svg width="200" height="201" viewBox="0 0 200 201" fill="none" xmlns="http://www.w3.org/2000/svg">
<path d="M98.8713 161.481C98.1941 161.481 97.562 161.301 96.9751 160.984L90.9706 157.418C90.0677 156.921 90.5192 156.741 90.79 156.65C92.009 156.244 92.2347 156.154 93.4988 155.431C93.6343 155.341 93.8149 155.386 93.9503 155.477L98.5553 158.231C98.7359 158.321 98.9616 158.321 99.097 158.231L117.111 147.802C117.291 147.711 117.381 147.531 117.381 147.305V126.492C117.381 126.267 117.291 126.086 117.111 125.996L99.097 115.612C98.9165 115.522 98.6907 115.522 98.5553 115.612L80.5417 125.996C80.3611 126.086 80.2708 126.312 80.2708 126.492V147.305C80.2708 147.486 80.3611 147.711 80.5417 147.802L85.4627 150.646C88.1264 152 89.7968 150.42 89.7968 148.84V128.298C89.7968 128.027 90.0225 127.756 90.3386 127.756H92.6411C92.9119 127.756 93.1828 127.982 93.1828 128.298V148.84C93.1828 152.407 91.2415 154.483 87.8555 154.483C86.8171 154.483 86.0045 154.483 83.702 153.355L78.9616 150.646C77.7878 149.969 77.0654 148.705 77.0654 147.35V126.538C77.0654 125.183 77.7878 123.919 78.9616 123.242L96.9751 112.813C98.1038 112.181 99.6388 112.181 100.767 112.813L118.781 123.242C119.955 123.919 120.677 125.183 120.677 126.538V147.35C120.677 148.705 119.955 149.969 118.781 150.646L100.767 161.075C100.181 161.346 99.5034 161.481 98.8713 161.481ZM104.424 147.17C96.5237 147.17 94.8984 143.558 94.8984 140.488C94.8984 140.217 95.1241 139.946 95.4401 139.946H97.7878C98.0587 139.946 98.2844 140.127 98.2844 140.398C98.6456 142.79 99.6839 143.964 104.469 143.964C108.262 143.964 109.887 143.106 109.887 141.075C109.887 139.901 109.436 139.043 103.521 138.456C98.6004 137.96 95.5304 136.876 95.5304 132.948C95.5304 129.291 98.6004 127.124 103.747 127.124C109.526 127.124 112.37 129.111 112.731 133.445C112.731 133.58 112.686 133.716 112.596 133.851C112.506 133.942 112.37 134.032 112.235 134.032H109.887C109.661 134.032 109.436 133.851 109.39 133.626C108.849 131.142 107.449 130.33 103.747 130.33C99.5936 130.33 99.097 131.775 99.097 132.858C99.097 134.167 99.6839 134.574 105.282 135.296C110.835 136.018 113.454 137.057 113.454 140.939C113.409 144.912 110.158 147.17 104.424 147.17Z" fill="#539E43"/>
<path d="M42.9797 80.0815C42.9797 79.2688 42.5283 78.5013 41.8059 78.095L22.6637 67.0792C22.3477 66.8986 21.9865 66.8083 21.6253 66.7632H21.4447C21.0836 66.7632 20.7224 66.8986 20.4064 67.0792L1.26415 78.095C0.541799 78.5013 0.090332 79.2688 0.090332 80.0815L0.135479 109.698C0.135479 110.104 0.361212 110.51 0.722386 110.691C1.08356 110.917 1.53503 110.917 1.85105 110.691L13.228 104.19C13.9504 103.783 14.4018 103.016 14.4018 102.203V88.3433C14.4018 87.5307 14.8533 86.7632 15.5757 86.3569L20.4064 83.5578C20.7675 83.332 21.1739 83.2417 21.5802 83.2417C21.9865 83.2417 22.3928 83.332 22.7088 83.5578L27.5395 86.3569C28.2619 86.7632 28.7134 87.5307 28.7134 88.3433V102.203C28.7134 103.016 29.1648 103.783 29.8872 104.19L41.2642 110.691C41.6253 110.917 42.0768 110.917 42.438 110.691C42.7991 110.51 43.0249 110.104 43.0249 109.698L42.9797 80.0815Z" fill="#333333"/>
<path d="M134.989 39.3142C134.628 39.1336 134.176 39.1336 133.86 39.3142C133.499 39.5399 133.273 39.9011 133.273 40.3074V69.6528C133.273 69.9236 133.138 70.1945 132.867 70.3751C132.596 70.5105 132.325 70.5105 132.054 70.3751L127.269 67.6211C126.547 67.2148 125.689 67.2148 124.966 67.6211L105.824 78.6821C105.102 79.0884 104.65 79.8559 104.65 80.6686V102.745C104.65 103.558 105.102 104.325 105.824 104.732L124.966 115.793C125.689 116.199 126.547 116.199 127.269 115.793L146.411 104.732C147.133 104.325 147.585 103.558 147.585 102.745V47.7114C147.585 46.8537 147.133 46.0862 146.411 45.6798L134.989 39.3142ZM133.228 95.4767C133.228 95.7024 133.138 95.883 132.957 95.9733L126.411 99.7656C126.231 99.8559 126.005 99.8559 125.824 99.7656L119.278 95.9733C119.097 95.883 119.007 95.6573 119.007 95.4767V87.892C119.007 87.6663 119.097 87.4857 119.278 87.3954L125.824 83.6031C126.005 83.5128 126.231 83.5128 126.411 83.6031L132.957 87.3954C133.138 87.4857 133.228 87.7114 133.228 87.892V95.4767Z" fill="#333333"/>
<path d="M198.691 87.7113C199.413 87.305 199.819 86.5375 199.819 85.7249V80.3524C199.819 79.5398 199.368 78.7723 198.691 78.366L179.684 67.3502C178.962 66.9438 178.104 66.9438 177.381 67.3502L158.239 78.4111C157.517 78.8174 157.065 79.5849 157.065 80.3976V102.474C157.065 103.287 157.517 104.054 158.239 104.461L177.246 115.296C177.968 115.702 178.826 115.702 179.503 115.296L191.016 108.885C191.377 108.705 191.603 108.298 191.603 107.892C191.603 107.486 191.377 107.079 191.016 106.899L171.783 95.8377C171.422 95.612 171.196 95.2508 171.196 94.8445V87.9371C171.196 87.5307 171.422 87.1244 171.783 86.9438L177.788 83.5127C178.149 83.2869 178.6 83.2869 178.962 83.5127L184.966 86.9438C185.327 87.1696 185.553 87.5307 185.553 87.9371V93.3547C185.553 93.761 185.779 94.1673 186.14 94.3479C186.501 94.5736 186.953 94.5736 187.314 94.3479L198.691 87.7113Z" fill="#333333"/>
<path d="M178.239 86.6732C178.375 86.5829 178.555 86.5829 178.691 86.6732L182.347 88.7951C182.483 88.8854 182.573 89.0208 182.573 89.2014V93.4452C182.573 93.6258 182.483 93.7612 182.347 93.8515L178.691 95.9734C178.555 96.0637 178.375 96.0637 178.239 95.9734L174.582 93.8515C174.447 93.7612 174.356 93.6258 174.356 93.4452V89.2014C174.356 89.0208 174.447 88.8854 174.582 88.7951L178.239 86.6732Z" fill="#539E43"/>
<mask id="mask0_27_3925" style="mask-type:alpha" maskUnits="userSpaceOnUse" x="52" y="67" width="44" height="49">
<path d="M74.9887 67.4405C74.2664 67.0342 73.4086 67.0342 72.6862 67.4405L53.6794 78.4111C52.9571 78.8175 52.5508 79.5849 52.5508 80.3976V102.384C52.5508 103.197 53.0022 103.964 53.6794 104.37L72.6862 115.341C73.4086 115.747 74.2664 115.747 74.9887 115.341L93.9955 104.37C94.7178 103.964 95.1241 103.197 95.1241 102.384V80.3976C95.1241 79.5849 94.6727 78.8175 93.9955 78.4111L74.9887 67.4405Z" fill="white"/>
</mask>
<g mask="url(#mask0_27_3925)">
<path d="M74.9887 67.4405C74.2664 67.0342 73.4086 67.0342 72.6862 67.4405L53.6794 78.4111C52.9571 78.8175 52.5508 79.5849 52.5508 80.3976V102.384C52.5508 103.197 53.0022 103.964 53.6794 104.37L72.6862 115.341C73.4086 115.747 74.2664 115.747 74.9887 115.341L93.9955 104.37C94.7178 103.964 95.1241 103.197 95.1241 102.384V80.3976C95.1241 79.5849 94.6727 78.8175 93.9955 78.4111L74.9887 67.4405Z" fill="url(#paint0_linear_27_3925)"/>
<path d="M94.0405 78.4112L74.9435 67.4406C74.7629 67.3503 74.5372 67.26 74.3566 67.2148L52.957 103.874C53.1376 104.1 53.3634 104.28 53.5891 104.416L72.6861 115.386C73.2279 115.702 73.86 115.793 74.4469 115.612L94.5372 78.8627C94.4017 78.6821 94.2211 78.5467 94.0405 78.4112Z" fill="url(#paint1_linear_27_3925)"/>
<path fill-rule="evenodd" clip-rule="evenodd" d="M94.0855 104.37C94.6273 104.054 95.0336 103.513 95.2142 102.926L74.2661 67.1695C73.7243 67.0792 73.1374 67.1244 72.6408 67.4404L53.6792 78.3659L74.1307 115.657C74.4015 115.612 74.7176 115.522 74.9885 115.386L94.0855 104.37Z" fill="url(#paint2_linear_27_3925)"/>
<path fill-rule="evenodd" clip-rule="evenodd" d="M94.0855 104.37L75.0336 115.341C74.7627 115.476 74.4918 115.567 74.1758 115.612L74.537 116.289L95.6656 104.054V103.783L95.1239 102.88C95.0336 103.512 94.6273 104.054 94.0855 104.37Z" fill="url(#paint3_linear_27_3925)"/>
<path fill-rule="evenodd" clip-rule="evenodd" d="M94.0855 104.37L75.0336 115.341C74.7627 115.476 74.4918 115.567 74.1758 115.612L74.537 116.289L95.6656 104.054V103.783L95.1239 102.88C95.0336 103.512 94.6273 104.054 94.0855 104.37Z" fill="url(#paint4_linear_27_3925)"/>
</g>
<defs>
<linearGradient id="paint0_linear_27_3925" x1="81.5809" y1="75.6186" x2="60.7469" y2="108.354" gradientUnits="userSpaceOnUse">
<stop stop-color="#41873F"/>
<stop offset="0.3288" stop-color="#418B3D"/>
<stop offset="0.6352" stop-color="#419637"/>
<stop offset="0.9319" stop-color="#3FA92D"/>
<stop offset="1" stop-color="#3FAE2A"/>
</linearGradient>
<linearGradient id="paint1_linear_27_3925" x1="70.9515" y1="93.9658" x2="123.127" y2="65.619" gradientUnits="userSpaceOnUse">
<stop offset="0.1376" stop-color="#41873F"/>
<stop offset="0.4032" stop-color="#54A044"/>
<stop offset="0.7136" stop-color="#66B848"/>
<stop offset="0.9081" stop-color="#6CC04A"/>
</linearGradient>
<linearGradient id="paint2_linear_27_3925" x1="51.8563" y1="91.3914" x2="95.8369" y2="91.3914" gradientUnits="userSpaceOnUse">
<stop offset="0.0919165" stop-color="#6CC04A"/>
<stop offset="0.2864" stop-color="#66B848"/>
<stop offset="0.5968" stop-color="#54A044"/>
<stop offset="0.8624" stop-color="#41873F"/>
</linearGradient>
<linearGradient id="paint3_linear_27_3925" x1="51.8563" y1="109.622" x2="95.8369" y2="109.622" gradientUnits="userSpaceOnUse">
<stop offset="0.0919165" stop-color="#6CC04A"/>
<stop offset="0.2864" stop-color="#66B848"/>
<stop offset="0.5968" stop-color="#54A044"/>
<stop offset="0.8624" stop-color="#41873F"/>
</linearGradient>
<linearGradient id="paint4_linear_27_3925" x1="102.244" y1="74.579" x2="91.1024" y2="132.963" gradientUnits="userSpaceOnUse">
<stop stop-color="#41873F"/>
<stop offset="0.3288" stop-color="#418B3D"/>
<stop offset="0.6352" stop-color="#419637"/>
<stop offset="0.9319" stop-color="#3FA92D"/>
<stop offset="1" stop-color="#3FAE2A"/>
</linearGradient>
</defs>
</svg>
