<svg width="201" height="200" viewBox="0 0 201 200" fill="none" xmlns="http://www.w3.org/2000/svg">
<path d="M197.014 119.762C195.851 116.24 192.805 113.787 188.865 113.198C187.008 112.921 184.881 113.039 182.363 113.558C177.975 114.463 174.72 114.808 172.344 114.875C181.312 99.7346 188.603 82.4695 192.801 66.2172C199.589 39.9376 195.962 27.9657 191.723 22.5505C180.506 8.21719 164.14 0.517189 144.396 0.281583C133.863 0.152795 124.617 2.23234 119.794 3.7278C115.303 2.93537 110.474 2.49295 105.407 2.41113C95.9094 2.25961 87.5178 4.33007 80.3473 8.58537C76.3776 7.24295 70.0064 5.35052 62.6488 4.14295C45.3443 1.30204 31.3973 3.51567 21.1958 10.7225C8.84275 19.4483 3.11623 34.6089 4.17532 55.7831C4.51169 62.5058 8.27229 82.9604 14.1935 102.359C17.5965 113.509 21.2253 122.768 24.9791 129.882C30.3026 139.969 35.9988 145.909 42.3935 148.042C45.9776 149.236 52.4897 150.072 59.339 144.368C60.2071 145.419 61.3655 146.464 62.9026 147.435C64.8549 148.666 67.242 149.672 69.6261 150.268C78.2178 152.416 86.2655 151.879 93.1314 148.868C93.1738 150.089 93.2064 151.256 93.2337 152.263C93.2791 153.898 93.3246 155.5 93.3844 156.998C93.7912 167.13 94.4806 175.008 96.5231 180.52C96.6352 180.823 96.7859 181.285 96.945 181.776C97.964 184.895 99.6677 190.118 104.003 194.208C108.491 198.445 113.921 199.744 118.894 199.744C121.387 199.744 123.767 199.417 125.854 198.97C133.294 197.376 141.743 194.947 147.855 186.244C153.634 178.016 156.443 165.625 156.951 146.1C157.017 145.548 157.078 145.02 157.136 144.518L157.257 143.486L158.619 143.606L158.969 143.629C166.547 143.975 175.812 142.368 181.502 139.725C185.998 137.638 200.406 130.032 197.014 119.762" fill="black"/>
<path d="M184.058 121.759C161.528 126.407 159.979 118.779 159.979 118.779C183.766 83.481 193.711 38.6757 185.13 27.7098C161.718 -2.20312 121.191 11.9439 120.515 12.3105L120.297 12.3499C115.846 11.4257 110.865 10.8757 105.266 10.784C95.0717 10.6173 87.3384 13.4567 81.4702 17.9067C81.4702 17.9067 9.17473 -11.8766 12.5376 55.3643C13.2528 69.6689 33.0406 163.601 56.6422 135.229C65.2687 124.854 73.6043 116.082 73.6043 116.082C77.7437 118.832 82.6997 120.236 87.8952 119.732L88.299 119.389C88.1732 120.677 88.2308 121.937 88.4603 123.429C82.38 130.222 84.1672 131.414 72.0126 133.917C59.7134 136.451 66.9384 140.964 71.6558 142.144C77.3747 143.573 90.605 145.599 99.5444 133.085L99.1884 134.513C101.57 136.421 103.243 146.924 102.963 156.446C102.682 165.967 102.495 172.504 104.372 177.611C106.25 182.717 108.12 194.205 124.099 190.782C137.45 187.92 144.369 180.506 145.332 168.138C146.014 159.345 147.56 160.645 147.657 152.784L148.897 149.063C150.327 137.144 149.125 133.298 157.35 135.087L159.35 135.263C165.403 135.538 173.327 134.289 177.978 132.127C187.991 127.48 193.931 119.72 184.057 121.759H184.058" fill="#336791"/>
<path d="M85.7018 61.7616C83.6715 61.479 81.8329 61.7404 80.9026 62.4449C80.3799 62.8411 80.2177 63.3002 80.1738 63.6161C80.0571 64.4533 80.6435 65.379 81.0041 65.8563C82.0238 67.2078 83.5132 68.1366 84.9874 68.3411C85.2011 68.3714 85.4139 68.3851 85.6253 68.3851C88.0836 68.3851 90.3192 66.4707 90.5162 65.0578C90.7624 63.2881 88.1935 62.1086 85.7018 61.7624V61.7616ZM152.962 61.8177C152.768 60.4305 150.3 60.0351 147.958 60.3608C145.618 60.6866 143.35 61.7427 143.54 63.1328C143.691 64.2139 145.643 66.0593 147.954 66.0593C148.15 66.0593 148.347 66.0464 148.545 66.0184C150.087 65.8048 151.219 64.8252 151.757 64.2608C152.575 63.4002 153.05 62.4411 152.962 61.8177" fill="white"/>
<path d="M191.555 121.231C190.696 118.633 187.931 117.798 183.337 118.746C169.697 121.561 164.812 119.611 163.208 118.43C173.81 102.279 182.532 82.7544 187.238 64.5385C189.466 55.9097 190.698 47.8961 190.798 41.3643C190.91 34.1954 189.688 28.9272 187.17 25.709C177.017 12.7355 162.116 5.77642 144.078 5.58551C131.677 5.44611 121.2 8.6196 119.169 9.51202C114.891 8.44838 110.229 7.79536 105.152 7.71202C95.843 7.56126 87.796 9.79005 81.1339 14.3332C78.2399 13.256 70.7612 10.6885 61.6149 9.21505C45.8028 6.6696 33.2377 8.59839 24.271 14.9507C13.5718 22.531 8.63236 36.081 9.58918 55.2234C9.91115 61.6635 13.5808 81.4756 19.3718 100.449C26.9945 125.422 35.2809 139.559 43.999 142.467C45.0195 142.807 46.196 143.045 47.4937 143.045C50.674 143.045 54.5733 141.612 58.6301 136.735C63.5783 130.799 68.6968 125.007 73.9793 119.367C77.4066 121.206 81.1718 122.233 85.0225 122.336C85.0301 122.437 85.0399 122.538 85.049 122.638C84.3862 123.428 83.7371 124.23 83.1021 125.043C80.4339 128.43 79.8786 129.135 71.29 130.904C68.8468 131.408 62.3581 132.745 62.2627 137.294C62.1596 142.264 69.9331 144.351 70.8187 144.572C73.9051 145.345 76.8786 145.726 79.7142 145.726C86.6104 145.726 92.6793 143.459 97.5293 139.073C97.3801 156.79 98.1187 174.248 100.246 179.567C101.988 183.921 106.245 194.563 119.688 194.562C121.661 194.562 123.832 194.332 126.221 193.82C140.252 190.813 146.345 184.611 148.702 170.939C149.963 163.632 152.128 146.185 153.146 136.826C155.295 137.496 158.06 137.803 161.051 137.802C167.287 137.802 174.483 136.477 178.996 134.382C184.066 132.028 193.214 126.251 191.555 121.231V121.231ZM158.141 57.9885C158.095 60.7514 157.715 63.2597 157.312 65.8779C156.878 68.6938 156.429 71.6052 156.316 75.1393C156.205 78.5787 156.635 82.1544 157.05 85.6128C157.889 92.5976 158.751 99.7885 155.416 106.884C154.863 105.903 154.369 104.888 153.939 103.847C153.525 102.842 152.625 101.229 151.379 98.9953C146.531 90.3014 135.179 69.9423 140.99 61.6347C142.721 59.162 147.114 56.6196 158.141 57.9885V57.9885ZM144.775 11.1802C160.937 11.537 173.722 17.5832 182.773 29.1499C189.716 38.0219 182.071 78.3908 159.94 113.217C159.717 112.934 159.494 112.652 159.269 112.371L158.988 112.021C164.707 102.576 163.589 93.2317 162.594 84.9469C162.185 81.5469 161.798 78.3355 161.897 75.3188C161.998 72.1219 162.421 69.3794 162.83 66.7279C163.332 63.4605 163.844 60.0794 163.703 56.0938C163.808 55.6756 163.851 55.1817 163.795 54.5953C163.435 50.7734 159.072 39.3347 150.178 28.9817C145.313 23.3188 138.218 16.9817 128.531 12.7075C132.698 11.8438 138.395 11.0385 144.775 11.1802V11.1802ZM54.3369 133.165C49.8672 138.539 46.7809 137.509 45.7657 137.171C39.1521 134.965 31.4778 120.986 24.7119 98.8196C18.8574 79.6393 15.4362 60.3522 15.1649 54.9438C14.3104 37.8393 18.4566 25.9188 27.4892 19.5128C42.1892 9.08854 66.3574 15.3279 76.0687 18.4923C75.9293 18.6302 75.7839 18.759 75.646 18.8991C59.7096 34.9931 60.0877 62.49 60.1271 64.1711C60.1256 64.8196 60.1801 65.7378 60.2543 67.0006C60.5286 71.6256 61.0392 80.2332 59.6756 89.9809C58.4089 99.0393 61.2013 107.905 67.3354 114.306C67.9649 114.962 68.6266 115.586 69.318 116.176C66.5877 119.1 60.6536 125.567 54.3369 133.165V133.165ZM71.3665 110.443C66.4225 105.284 64.1771 98.1082 65.2051 90.7537C66.6445 80.4567 66.1134 71.4885 65.8278 66.6703C65.7877 65.9961 65.7521 65.4052 65.7316 64.9393C68.0596 62.8749 78.8483 57.0946 86.5422 58.8575C90.0528 59.6613 92.1922 62.0522 93.0816 66.1643C97.6847 87.4544 93.6907 96.3279 90.4816 103.459C89.8203 104.928 89.1953 106.317 88.6619 107.753L88.2483 108.864C87.2013 111.671 86.2271 114.282 85.6233 116.76C80.3672 116.745 75.2543 114.5 71.3665 110.442V110.443ZM72.1733 139.155C70.6384 138.772 69.2581 138.106 68.4483 137.554C69.1248 137.235 70.3286 136.802 72.4165 136.372C82.5203 134.292 84.0809 132.824 87.4884 128.498C88.2695 127.505 89.1551 126.381 90.3816 125.011L90.3831 125.01C92.2096 122.964 93.0453 123.311 94.5604 123.94C95.7884 124.448 96.9847 125.987 97.4695 127.681C97.699 128.481 97.9566 129.999 97.1134 131.181C89.9953 141.148 79.6225 141.02 72.1733 139.155V139.155ZM125.051 188.361C112.691 191.01 108.314 184.703 105.43 177.493C103.569 172.839 102.654 151.849 103.303 128.67C103.311 128.361 103.267 128.064 103.182 127.783C103.106 127.23 102.991 126.682 102.837 126.145C101.872 122.773 99.5195 119.951 96.6975 118.782C95.5763 118.317 93.5187 117.465 91.046 118.098C91.5733 115.925 92.4877 113.471 93.4793 110.814L93.8953 109.697C94.3634 108.437 94.9513 107.132 95.5725 105.75C98.9309 98.2893 103.53 88.0703 98.5384 64.9847C96.6687 56.3378 90.4248 52.115 80.9596 53.0961C75.2854 53.6832 70.0937 55.9726 67.5043 57.2855C66.9475 57.5673 66.4384 57.84 65.9627 58.1052C66.6854 49.3931 69.4157 33.1113 79.6293 22.8097C86.0604 16.3249 94.6248 13.1219 105.06 13.2946C125.62 13.631 138.805 24.1825 146.246 32.9757C152.658 40.5522 156.13 48.1847 157.516 52.3014C147.095 51.2416 140.008 53.2984 136.416 58.4347C128.6 69.6075 140.691 91.2923 146.503 101.714C147.569 103.624 148.488 105.275 148.778 105.976C150.67 110.563 153.12 113.625 154.909 115.86C155.457 116.545 155.989 117.209 156.394 117.789C153.238 118.699 147.569 120.801 148.085 131.31C147.669 136.582 144.706 161.269 143.201 169.991C141.213 181.514 136.973 185.805 125.051 188.362V188.361ZM176.645 129.319C173.418 130.817 168.017 131.94 162.887 132.182C157.22 132.447 154.335 131.547 153.657 130.993C153.338 124.445 155.776 123.76 158.355 123.036C158.76 122.923 159.156 122.811 159.538 122.678C159.775 122.871 160.035 123.063 160.32 123.251C164.874 126.257 172.998 126.581 184.466 124.214L184.592 124.189C183.045 125.635 180.398 127.576 176.645 129.319Z" fill="white"/>
</svg>
