<svg width="1298" height="1404" viewBox="0 0 1298 1404" fill="none" xmlns="http://www.w3.org/2000/svg">
<g clip-path="url(#clip0_49_10)">
<path d="M0.567993 985.34L642.074 1363.57L1294.91 992.29L649.748 614.041L0.567993 985.34Z" fill="#D0993F"/>
<path d="M641.855 1404.44L642.074 1363.57L1294.91 992.29L1294.69 1033.16L641.855 1404.44Z" fill="#CECECE"/>
<path d="M0.348999 1026.22L0.567993 985.34L642.074 1363.57L641.855 1404.44L0.348999 1026.22Z" fill="#B7B7B7"/>
<path d="M605.213 27.7041L601.229 641.795L1246.86 1019.79L1250.16 405.671L605.213 27.7041Z" fill="#2B2B2B"/>
<path d="M1246.86 1019.64L1294.91 992.33L1298.2 378.115L1250.16 405.452L1246.86 1019.64Z" fill="#CECECE"/>
<path d="M1298.2 378.334L700.58 28.2148L653.527 0.0917969L653.04 0.364807L652.571 0.0957947L605.213 27.7038L3.87799 371.383L51.629 399.244L652.744 55.5628L1250.16 405.671L1298.2 378.334Z" fill="#969696"/>
<path d="M652.744 55.5352L649.448 670.03L48.335 1013.5L51.629 399.244L652.744 55.5352Z" fill="#424242"/>
<path d="M48.335 1013.5L0.584991 985.39L3.879 371.164L51.63 399.025L48.335 1013.5Z" fill="#B7B7B7"/>
<path d="M367.821 1109.95L391.42 1110.08L410.4 1100.34L376.332 1081.48L367.821 1109.95Z" fill="#A0712D"/>
<path d="M687.634 927.54L711.23 927.67L730.22 917.93L696.15 899.06L687.634 927.54Z" fill="#A0712D"/>
<path d="M173.543 776.675L172.366 996.09L189.101 986.29L190.276 767.185L173.543 776.675Z" fill="#876E31"/>
<path d="M173.543 776.675L172.366 996.09L155.739 986.11L156.914 767.006L173.543 776.675Z" fill="#AF9446"/>
<path d="M493.264 594.224L492.087 813.651L475.458 803.659L476.633 584.555L493.264 594.224Z" fill="#5BA89A"/>
<path d="M493.264 594.224L492.087 813.651L508.821 803.838L509.996 584.734L493.264 594.224Z" fill="#68B5A6"/>
<path d="M688.801 708.197L687.624 927.62L670.997 917.63L672.172 698.528L688.801 708.197Z" fill="#AF9446"/>
<path d="M688.801 708.197L687.624 927.62L704.36 917.81L705.53 698.707L688.801 708.197Z" fill="#876E31"/>
<path d="M670.997 917.63L492.087 813.651L492.203 792.015L671.112 896.19L670.997 917.63Z" fill="#AF9446"/>
<path d="M492.203 792.015L508.935 782.572L671.214 877.21L671.112 896.19L492.203 792.015Z" fill="#CCAA56"/>
<path d="M671.646 796.58L492.736 692.6L492.852 670.963L671.761 775.134L671.646 796.58Z" fill="#AF9446"/>
<path d="M492.852 670.963L509.584 661.521L671.863 756.156L671.761 775.134L492.852 670.963Z" fill="#CCAA56"/>
<path d="M563.158 959.65L336.642 826.477L337.399 685.285L564.147 775.357L563.158 959.65Z" fill="#AF9446"/>
<path d="M677.702 710.635L676.724 893.04L563.158 959.65L564.147 775.357L677.702 710.635Z" fill="#876E31"/>
<path d="M665.954 743.609L665.769 778.057L575.424 829.61L575.606 795.512L665.954 743.609Z" fill="#DDB864"/>
<path d="M620.724 780.36C623.719 778.613 626.154 780.027 626.136 783.506C626.117 786.995 623.651 791.214 620.657 792.894C617.662 794.575 615.228 793.16 615.246 789.748C615.264 786.336 617.729 782.117 620.724 780.36Z" fill="#876E31"/>
<path d="M665.697 791.372L665.513 825.82L575.167 877.37L575.35 843.28L665.697 791.372Z" fill="#DDB864"/>
<path d="M620.468 828.12C623.463 826.376 625.898 827.79 625.879 831.27C625.861 834.76 623.395 838.99 620.401 840.66C617.406 842.35 614.972 840.92 614.99 837.51C615.008 834.11 617.473 829.88 620.468 828.12Z" fill="#876E31"/>
<path d="M665.441 839.14L665.257 873.58L574.911 925.13L575.094 891.05L665.441 839.14Z" fill="#DDB864"/>
<path d="M620.212 875.9C623.207 874.14 625.642 875.55 625.623 879.04C625.605 882.52 623.139 886.75 620.145 888.43C617.15 890.11 614.716 888.7 614.734 885.28C614.752 881.87 617.217 877.64 620.212 875.9Z" fill="#876E31"/>
<path d="M705.58 698.869L705.72 671.923L369.228 863.15L369.08 890.65L705.58 698.869Z" fill="#876E31"/>
<path d="M369.228 863.15L157.062 739.374L156.912 767.283L369.08 890.65L369.228 863.15Z" fill="#AF9446"/>
<path d="M157.062 739.374L494.121 545.396L705.72 671.923L369.228 863.15L157.062 739.374Z" fill="#DDB864"/>
<path d="M369.08 890.65L367.903 1110.07L351.276 1100.08L352.451 880.97L369.08 890.65Z" fill="#AF9446"/>
<path d="M369.08 890.65L367.904 1110.07L384.638 1100.26L385.82 879.9L369.08 890.65Z" fill="#876E31"/>
<path d="M351.276 1100.08L172.366 996.09L172.482 974.47L351.391 1078.63L351.276 1100.08Z" fill="#AF9446"/>
<path d="M172.482 974.47L189.215 965.02L351.493 1059.66L351.391 1078.63L172.482 974.47Z" fill="#CCAA56"/>
<path d="M351.984 968.1L173.074 864.11L173.19 842.48L352.099 946.64L351.984 968.1Z" fill="#AF9446"/>
<path d="M173.19 842.48L189.923 833.04L352.201 927.67L352.099 946.64L173.19 842.48Z" fill="#CCAA56"/>
<path d="M245.866 778.397L271.513 778.535L335.87 742.02L318.228 731.355L245.866 778.397Z" fill="#9B7C3E"/>
<path d="M345.932 721.285H345.933L345.967 714.88L343.05 715.846L342.211 716.909L287.961 685.22C284.318 683.094 278.338 683.062 274.672 685.139L184.629 736.348L181.214 734.156L181.179 740.657H181.184C181.225 742.011 182.129 743.35 183.905 744.389L239.665 776.801C243.311 778.917 249.29 778.94 252.95 776.843L343.178 725.169C345.033 724.111 345.951 722.696 345.932 721.285Z" fill="#868889"/>
<path d="M183.94 737.86C180.293 735.734 180.309 732.293 183.976 730.206L274.707 678.619C278.373 676.533 284.353 676.565 287.996 678.691L343.247 710.967C346.889 713.093 346.874 716.543 343.213 718.64L252.985 770.314C249.325 772.411 243.346 772.388 239.7 770.272L183.94 737.86Z" fill="#CBD1D3"/>
<path d="M188.809 732.729L279.003 681.445L338.368 716.116L248.63 767.508L188.809 732.729Z" fill="#565A5B"/>
<path d="M217 716.705L289.767 743.946L248.63 767.508L188.809 732.729L217 716.705Z" fill="#686B6B"/>
<path d="M292.69 743.638C289.616 745.375 287.607 747.09 288.225 747.455C288.844 747.811 291.866 746.693 294.942 744.956L295.132 744.842C298.208 743.105 300.204 741.4 299.569 741.044C298.935 740.688 295.899 741.815 292.825 743.553L292.69 743.638Z" fill="#5499DD"/>
<path d="M212.384 753.378C211.03 752.579 211.047 751.302 212.422 750.537C213.797 749.773 216.02 749.785 217.362 750.564C218.705 751.343 218.687 752.62 217.325 753.404C215.962 754.188 213.739 754.176 212.384 753.378Z" fill="#F4F4F4"/>
<path d="M186.776 741.878L186.758 745.119L194.921 749.862L194.938 746.659L186.776 741.878Z" fill="#C2C8CC"/>
<path d="M194.938 746.659L196.056 746.008L187.96 741.237L186.776 741.878L194.938 746.659Z" fill="#AEB4B7"/>
<path d="M196.056 746.008L196.039 749.201L194.921 749.862L194.938 746.659L196.056 746.008Z" fill="#92999B"/>
<path d="M196.978 747.9L196.96 751.141L205.123 755.884L205.14 752.681L196.978 747.9Z" fill="#C2C8CC"/>
<path d="M205.14 752.681L206.257 752.029L198.163 747.249L196.978 747.9L205.14 752.681Z" fill="#AEB4B7"/>
<path d="M206.257 752.029L206.24 755.223L205.123 755.884L205.14 752.681L206.257 752.029Z" fill="#92999B"/>
<path d="M397.216 762.509L429.419 762.682L530.755 706.682L464.353 666.006L397.216 762.509Z" fill="#9B7C3E"/>
<path d="M384.554 709.587L384.43 732.701L465.087 686.894L465.212 663.532L384.554 709.587Z" fill="#494949"/>
<path d="M357.242 728.142L397.347 751.853L498.24 694.145L458.777 670.752L357.242 728.142Z" fill="#424242"/>
<path d="M397.29 762.395L397.347 751.853L498.24 694.145L498.184 704.677L397.29 762.395Z" fill="#2B2B2B"/>
<path d="M397.29 762.395L397.347 751.853L357.242 728.142L357.185 738.684L397.29 762.395Z" fill="#191919"/>
<path d="M309.949 748.992L310.698 609.306L531.854 483.031L531.105 622.717L309.949 748.992Z" fill="#1E1E1E"/>
<path d="M317.167 753.53L317.916 613.844L539.072 487.569L538.323 627.255L317.167 753.53Z" fill="#383636"/>
<path d="M330.854 737.132L331.511 614.67L525.385 503.976L524.728 626.429L330.854 737.132Z" fill="#3369AA"/>
<path d="M405.951 572.166L457.328 664.92L490.049 646.232L438.123 553.799L405.951 572.166Z" fill="#3C84BF"/>
<path d="M367.082 594.367L416.169 688.414L330.935 737.028L331.591 614.727L367.082 594.367Z" fill="#3C84BF"/>
<path d="M309.95 748.83L317.007 753.367L317.916 613.844L310.698 609.306L309.95 748.83Z" fill="#1E1E1E"/>
<path d="M317.916 613.844L539.072 487.569L531.854 483.031L310.698 609.306L317.916 613.844Z" fill="#161616"/>
<path d="M389.582 712.187L389.458 735.311L470.115 689.495L470.241 666.133L389.582 712.187Z" fill="#606060"/>
<path d="M389.458 735.311L384.43 732.701L384.525 715.077L389.582 712.187L389.458 735.311Z" fill="#494949"/>
<path d="M356.941 840.43L375.118 840.52L441.244 803.752L422.574 794.425L356.941 840.43Z" fill="#9B7C3E"/>
<path d="M310.414 803.612L310.359 813.763C310.359 813.763 310.414 815.012 311.969 816.155L352.196 839.59C352.196 839.59 356.336 841.48 361.277 839.58L425.18 803.113C425.18 803.113 427.075 801.874 427.338 800.655L427.476 790.667L310.414 803.612Z" fill="#2A2B29"/>
<path d="M425.281 787.443C428.23 789.193 428.207 792.015 425.23 793.714L362.121 829.8C359.145 831.5 354.287 831.47 351.326 829.75L312.622 807.161C309.662 805.429 309.676 802.636 312.658 800.936L376.364 764.714C379.344 763.023 384.196 763.069 387.144 764.819L425.281 787.443Z" fill="#444743"/>
<path d="M399.477 799.543L399.472 800.525C399.472 800.525 399.465 800.649 399.313 800.762L395.392 802.991C395.392 802.991 394.989 803.17 394.513 802.977L388.36 799.379C388.36 799.379 388.178 799.254 388.153 799.139L388.15 798.167L399.477 799.543Z" fill="#353535"/>
<path d="M388.366 797.863C388.079 798.024 388.079 798.3 388.365 798.464L394.44 802.033C394.727 802.196 395.197 802.199 395.487 802.038L399.259 799.885C399.548 799.725 399.549 799.448 399.262 799.285L393.128 795.706C392.841 795.542 392.372 795.54 392.085 795.71L388.366 797.863Z" fill="#909190"/>
<path d="M390.386 794.3L390.381 795.281C390.381 795.281 390.374 795.405 390.222 795.509L386.3 797.738C386.3 797.738 385.898 797.917 385.421 797.733L379.269 794.126C379.269 794.126 379.087 794.01 379.062 793.886L379.059 792.924L390.386 794.3Z" fill="#353535"/>
<path d="M379.275 792.61C378.988 792.78 378.987 793.047 379.274 793.22L385.349 796.779C385.636 796.943 386.106 796.946 386.396 796.785L390.168 794.642C390.457 794.472 390.458 794.205 390.171 794.032L384.037 790.462C383.75 790.289 383.28 790.296 382.994 790.457L379.275 792.61Z" fill="#3DE83D"/>
<path d="M381.178 789.112L381.173 790.094C381.173 790.094 381.166 790.218 381.015 790.332L377.093 792.56C377.093 792.56 376.69 792.739 376.214 792.546L370.061 788.948C370.061 788.948 369.879 788.823 369.855 788.709L369.851 787.736L381.178 789.112Z" fill="#353535"/>
<path d="M370.067 787.433C369.78 787.593 369.779 787.87 370.066 788.033L376.142 791.602C376.429 791.766 376.898 791.768 377.187 791.608L380.96 789.455C381.249 789.294 381.25 789.018 380.963 788.854L374.83 785.275C374.543 785.112 374.073 785.109 373.785 785.279L370.067 787.433Z" fill="#3DE83D"/>
<path d="M372.35 783.985L372.344 784.966C372.344 784.966 372.338 785.09 372.186 785.194L368.265 787.423C368.265 787.423 367.862 787.602 367.385 787.409L361.233 783.811C361.233 783.811 361.051 783.695 361.026 783.571L361.024 782.608L372.35 783.985Z" fill="#353535"/>
<path d="M361.24 782.295C360.952 782.465 360.952 782.732 361.238 782.905L367.314 786.465C367.6 786.628 368.071 786.631 368.36 786.47L372.132 784.327C372.42 784.157 372.422 783.89 372.135 783.717L366.001 780.147C365.715 779.974 365.244 779.981 364.958 780.142L361.24 782.295Z" fill="#909190"/>
<path d="M391.017 804.226L391.012 805.208C391.012 805.208 391.006 805.331 390.854 805.435L386.932 807.664C386.932 807.664 386.529 807.843 386.053 807.659L379.901 804.052C379.901 804.052 379.719 803.936 379.695 803.812L379.691 802.85L391.017 804.226Z" fill="#353535"/>
<path d="M379.907 802.536C379.619 802.706 379.619 802.983 379.906 803.146L385.982 806.706C386.268 806.879 386.739 806.881 387.027 806.711L390.8 804.568C391.089 804.398 391.09 804.131 390.803 803.967L384.669 800.388C384.382 800.225 383.913 800.222 383.625 800.383L379.907 802.536Z" fill="#909190"/>
<path d="M381.926 798.973L381.921 799.954C381.921 799.954 381.914 800.078 381.763 800.192L377.841 802.42C377.841 802.42 377.439 802.599 376.962 802.406L370.81 798.808C370.81 798.808 370.628 798.683 370.603 798.569L370.6 797.596L381.926 798.973Z" fill="#353535"/>
<path d="M370.816 797.293C370.529 797.453 370.528 797.729 370.815 797.893L376.89 801.462C377.177 801.626 377.647 801.628 377.936 801.468L381.709 799.315C381.998 799.154 381.999 798.878 381.712 798.714L375.578 795.135C375.291 794.972 374.822 794.969 374.535 795.139L370.816 797.293Z" fill="#909190"/>
<path d="M372.718 793.795L372.713 794.777C372.713 794.777 372.707 794.901 372.555 795.005L368.634 797.233C368.634 797.233 368.23 797.412 367.754 797.228L361.601 793.621C361.601 793.621 361.42 793.506 361.396 793.382L361.392 792.419L372.718 793.795Z" fill="#353535"/>
<path d="M361.609 792.105C361.321 792.275 361.32 792.542 361.606 792.715L367.683 796.275C367.97 796.448 368.44 796.45 368.728 796.28L372.501 794.137C372.79 793.967 372.791 793.7 372.505 793.527L366.371 789.958C366.084 789.794 365.614 789.792 365.326 789.952L361.609 792.105Z" fill="#909190"/>
<path d="M363.891 788.658L363.886 789.639C363.886 789.639 363.879 789.763 363.727 789.877L359.806 792.105C359.806 792.105 359.403 792.284 358.926 792.091L352.774 788.493C352.774 788.493 352.591 788.368 352.567 788.254L352.564 787.281L363.891 788.658Z" fill="#353535"/>
<path d="M352.78 786.978C352.493 787.138 352.493 787.414 352.779 787.578L358.854 791.147C359.141 791.311 359.612 791.313 359.901 791.153L363.673 789C363.961 788.839 363.963 788.563 363.676 788.399L357.542 784.82C357.255 784.657 356.785 784.654 356.498 784.824L352.78 786.978Z" fill="#909190"/>
<path d="M382.131 808.925L382.126 809.907C382.126 809.907 382.119 810.03 381.967 810.144L378.046 812.372C378.046 812.372 377.643 812.551 377.167 812.358L371.014 808.76C371.014 808.76 370.832 808.635 370.808 808.521L370.805 807.549L382.131 808.925Z" fill="#353535"/>
<path d="M371.021 807.245C370.733 807.405 370.733 807.682 371.019 807.855L377.094 811.414C377.381 811.578 377.852 811.58 378.141 811.42L381.914 809.267C382.203 809.106 382.204 808.83 381.916 808.666L375.783 805.097C375.496 804.924 375.026 804.921 374.739 805.092L371.021 807.245Z" fill="#909190"/>
<path d="M373.04 803.681L373.035 804.663C373.035 804.663 373.028 804.787 372.876 804.891L368.955 807.119C368.955 807.119 368.553 807.298 368.076 807.115L361.923 803.507C361.923 803.507 361.742 803.392 361.717 803.268L361.714 802.305L373.04 803.681Z" fill="#353535"/>
<path d="M361.929 801.992C361.642 802.162 361.642 802.438 361.928 802.602L368.003 806.161C368.29 806.334 368.761 806.337 369.05 806.167L372.823 804.023C373.112 803.853 373.113 803.586 372.825 803.423L366.692 799.844C366.405 799.68 365.936 799.678 365.648 799.838L361.929 801.992Z" fill="#909190"/>
<path d="M363.832 798.494L363.827 799.476C363.827 799.476 363.821 799.6 363.669 799.713L359.748 801.942C359.748 801.942 359.344 802.121 358.868 801.928L352.715 798.33C352.715 798.33 352.534 798.205 352.509 798.09L352.505 797.118L363.832 798.494Z" fill="#353535"/>
<path d="M352.722 796.814C352.435 796.975 352.434 797.251 352.72 797.415L358.797 800.984C359.083 801.147 359.554 801.15 359.842 800.989L363.614 798.836C363.904 798.676 363.904 798.399 363.617 798.236L357.484 794.657C357.198 794.493 356.727 794.491 356.44 794.661L352.722 796.814Z" fill="#909190"/>
<path d="M355.005 793.366L354.999 794.348C354.999 794.348 354.992 794.472 354.84 794.576L350.919 796.804C350.919 796.804 350.517 796.983 350.04 796.79L343.887 793.192C343.887 793.192 343.705 793.077 343.681 792.953L343.678 791.99L355.005 793.366Z" fill="#353535"/>
<path d="M343.894 791.677C343.606 791.847 343.606 792.114 343.892 792.287L349.968 795.846C350.254 796.01 350.725 796.022 351.014 795.852L354.787 793.708C355.075 793.538 355.077 793.271 354.79 793.098L348.656 789.529C348.369 789.356 347.899 789.363 347.611 789.523L343.894 791.677Z" fill="#909190"/>
<path d="M373.49 813.463L373.485 814.445C373.485 814.445 373.478 814.569 373.326 814.683L369.404 816.911C369.404 816.911 369.002 817.09 368.524 816.897L362.373 813.299C362.373 813.299 362.19 813.174 362.166 813.06L362.163 812.087L373.49 813.463Z" fill="#353535"/>
<path d="M362.379 811.783C362.092 811.944 362.091 812.22 362.378 812.384L368.453 815.943C368.74 816.116 369.21 816.119 369.5 815.959L373.272 813.805C373.56 813.645 373.562 813.369 373.275 813.205L367.141 809.626C366.854 809.463 366.384 809.46 366.097 809.63L362.379 811.783Z" fill="#909190"/>
<path d="M364.398 808.22L364.393 809.202C364.393 809.202 364.387 809.326 364.235 809.43L360.313 811.658C360.313 811.658 359.911 811.837 359.434 811.653L353.282 808.046C353.282 808.046 353.099 807.93 353.075 807.806L353.072 806.844L364.398 808.22Z" fill="#353535"/>
<path d="M353.288 806.53C353.001 806.7 353 806.967 353.287 807.14L359.362 810.7C359.649 810.863 360.119 810.866 360.409 810.705L364.181 808.562C364.469 808.392 364.471 808.125 364.184 807.952L358.05 804.382C357.763 804.209 357.293 804.216 357.006 804.377L353.288 806.53Z" fill="#E02828"/>
<path d="M355.191 803.033L355.186 804.014C355.186 804.014 355.179 804.138 355.027 804.252L351.106 806.48C351.106 806.48 350.703 806.659 350.227 806.466L344.073 802.868C344.073 802.868 343.892 802.743 343.868 802.629L343.864 801.656L355.191 803.033Z" fill="#353535"/>
<path d="M344.08 801.353C343.793 801.513 343.792 801.79 344.078 801.953L350.155 805.513C350.441 805.686 350.911 805.688 351.2 805.528L354.973 803.375C355.262 803.214 355.263 802.938 354.976 802.774L348.843 799.195C348.556 799.032 348.086 799.029 347.798 799.199L344.08 801.353Z" fill="#E02828"/>
<path d="M346.363 797.905L346.357 798.887C346.357 798.887 346.351 799.011 346.199 799.115L337.545 803.834C337.545 803.834 337.142 804.013 336.665 803.829L335.245 797.731C335.245 797.731 335.064 797.616 335.039 797.491L335.036 796.529L346.363 797.905Z" fill="#353535"/>
<path d="M365.092 818.06L365.086 819.042C365.086 819.042 365.08 819.166 364.929 819.27L361.008 821.508C361.008 821.508 360.605 821.678 360.128 821.494L353.975 817.896C353.975 817.896 353.793 817.771 353.769 817.657L353.765 816.684L365.092 818.06Z" fill="#353535"/>
<path d="M353.982 816.371C353.694 816.541 353.693 816.817 353.98 816.981L360.056 820.54C360.342 820.713 360.813 820.716 361.101 820.546L364.874 818.402C365.163 818.242 365.164 817.966 364.877 817.802L358.744 814.223C358.457 814.06 357.987 814.057 357.699 814.227L353.982 816.371Z" fill="#909190"/>
<path d="M356 812.807L355.995 813.798C355.995 813.798 355.989 813.913 355.838 814.026L351.917 816.255C351.917 816.255 351.513 816.434 351.037 816.241L344.884 812.643C344.884 812.643 344.702 812.527 344.678 812.403L344.674 811.441L356 812.807Z" fill="#353535"/>
<path d="M344.89 811.127C344.603 811.288 344.602 811.564 344.889 811.737L350.965 815.297C351.252 815.46 351.722 815.463 352.01 815.302L355.783 813.149C356.072 812.989 356.073 812.722 355.786 812.549L349.653 808.98C349.366 808.806 348.896 808.804 348.608 808.974L344.89 811.127Z" fill="#909190"/>
<path d="M346.793 807.63L346.788 808.611C346.788 808.611 346.781 808.735 346.629 808.839L342.708 811.068C342.708 811.068 342.305 811.247 341.828 811.063L335.677 807.465C335.677 807.465 335.494 807.34 335.47 807.216L335.467 806.254L346.793 807.63Z" fill="#353535"/>
<path d="M335.683 805.94C335.395 806.11 335.394 806.387 335.681 806.55L341.757 810.11C342.044 810.283 342.514 810.285 342.803 810.115L346.575 807.972C346.864 807.811 346.866 807.535 346.579 807.371L340.445 803.792C340.158 803.629 339.688 803.626 339.4 803.796L335.683 805.94Z" fill="#909190"/>
<path d="M337.965 802.492L337.96 803.484C337.96 803.484 337.953 803.598 337.801 803.712L333.88 805.94C333.88 805.94 333.477 806.119 333.001 805.926L326.848 802.328C326.848 802.328 326.666 802.203 326.642 802.088L326.638 801.116L337.965 802.492Z" fill="#353535"/>
<path d="M326.854 800.812L336.767 795.337L338.97 794.062C339.257 793.902 339.728 793.895 340.014 794.068L346.148 797.637C346.435 797.81 346.433 798.077 346.144 798.247L342.373 800.39C342.316 800.419 342.251 800.447 342.184 800.466L333.974 804.987C333.686 805.148 333.215 805.145 332.928 804.982L326.853 801.422C326.566 801.249 326.567 800.973 326.854 800.812Z" fill="#6B84B5"/>
<path d="M415.14 791.344L406.395 796.406L370.949 775.742L379.828 770.575L415.14 791.344Z" fill="#D8D8D8"/>
<path d="M415.14 791.344L402.984 784.197L389.347 786.468L406.395 796.406L415.14 791.344Z" fill="#E5E5E5"/>
<path d="M581.132 704.398L603.285 704.516L666.892 670.047L641.65 655.652L581.132 704.398Z" fill="#9B7C3E"/>
<path d="M576.767 703.459C578.876 704.691 582.34 704.719 584.465 703.5L647.373 667.674C649.496 666.456 649.507 664.463 647.393 663.232L609.857 641.393C607.744 640.171 604.278 640.153 602.156 641.371L539.543 677.19C537.42 678.408 537.411 680.41 539.52 681.641L576.767 703.459Z" fill="#CECECE"/>
<path d="M537.979 673.502L537.947 679.478C537.947 679.478 537.9 680.689 539.413 681.583L577.324 703.739C577.324 703.739 580.575 705.348 584.287 703.604L647.695 667.466C647.695 667.466 649.001 666.748 648.96 665.252L648.99 659.752L537.979 673.502Z" fill="#232323"/>
<path d="M576.799 697.597C578.907 698.838 582.372 698.857 584.496 697.648L647.405 661.812C649.527 660.603 649.538 658.601 647.425 657.379L609.888 635.541C607.776 634.309 604.31 634.291 602.187 635.509L539.575 671.328C537.452 672.546 537.442 674.548 539.552 675.789L576.799 697.597Z" fill="#3F3F3F"/>
<path d="M644.167 661.318L592.6 690.857L551.291 666.749L603.171 636.906L644.167 661.318Z" fill="#475BD1"/>
<path d="M626.775 646.936C627.451 647.34 627.438 647.988 626.746 648.385C626.054 648.791 624.929 648.785 624.246 648.39C623.561 647.996 623.575 647.338 624.273 646.942C624.972 646.545 626.098 646.542 626.775 646.936Z" fill="#0042DD"/>
<path d="M567.845 681.116C569.629 682.165 569.595 683.88 567.769 684.928C565.943 685.977 562.976 685.98 561.174 684.931C559.373 683.883 559.406 682.167 561.25 681.109C563.093 680.061 566.061 680.058 567.845 681.116Z" fill="#0042DD"/>
<path d="M636.669 656.855L574.65 680.381L592.6 690.857L644.167 661.318L636.669 656.855Z" fill="#647CE2"/>
<path d="M634.417 655.546L571.279 678.399L566.051 675.349L629.569 652.642L634.417 655.546Z" fill="#647CE2"/>
<path d="M643.264 666.117L643.247 669.205L635.722 673.55L635.739 670.376L643.264 666.117Z" fill="#0042DD"/>
<path d="M635.722 673.55L635.063 673.184L635.08 670.01L635.739 670.376L635.722 673.55Z" fill="#606060"/>
<path d="M643.264 666.117L642.605 665.751L635.08 670.01L635.739 670.376L643.264 666.117Z" fill="#898989"/>
<path d="M633.542 671.574L633.525 674.672L625.999 679.007L626.016 675.842L633.542 671.574Z" fill="#0042DD"/>
<path d="M625.999 679.007L625.341 678.641L625.358 675.477L626.016 675.842L625.999 679.007Z" fill="#606060"/>
<path d="M633.542 671.574L632.884 671.209L625.358 675.477L626.016 675.842L633.542 671.574Z" fill="#898989"/>
<path d="M1112.42 941.25L1114.06 634.384L945.86 729.059L944.2 1039.28L1112.42 941.25Z" fill="#CECECE"/>
<path d="M945.86 729.059L778.69 632.586L777.03 941.95L944.2 1039.28L945.86 729.059Z" fill="#B5B5B5"/>
<path d="M778.69 632.586L946.9 535.328L1114.06 634.384L945.86 729.059L778.69 632.586Z" fill="#A0A0A0"/>
<path d="M808.58 615.302L946.9 535.328L1084.36 616.781L946.04 694.64L808.58 615.302Z" fill="#828282"/>
<path d="M808.65 603.283L946.96 523.318L1084.42 604.762L946.11 682.62L808.65 603.283Z" fill="#828282"/>
<path d="M808.65 603.283L808.58 615.302L946.04 694.64L946.11 682.62L808.65 603.283Z" fill="#5B5B5B"/>
<path d="M1084.42 604.762L1084.36 616.781L946.04 694.64L946.11 682.62L1084.42 604.762Z" fill="#6D6D6D"/>
<path d="M1114.06 634.384L1098.09 624.919L928.99 719.322L945.86 729.059L1114.06 634.384Z" fill="#494949"/>
<path d="M1103.98 637.19L1092.62 630.456L972.35 697.612L984.35 704.53L1103.98 637.19Z" fill="#A8A8A8"/>
<path d="M965.62 706.784L963.74 705.706L968.59 703.006L970.41 704.093L965.62 706.784Z" fill="#A8A8A8"/>
<path d="M968.4 708.438L966.53 707.36L971.37 704.66L973.19 705.747L968.4 708.438Z" fill="#A8A8A8"/>
<path d="M971.18 710.169L969.31 709.091L974.17 706.391L975.97 707.478L971.18 710.169Z" fill="#A8A8A8"/>
<path d="M959.48 710.325L957.6 709.247L962.45 706.547L964.27 707.634L959.48 710.325Z" fill="#A8A8A8"/>
<path d="M962.26 711.98L960.39 710.902L965.24 708.202L967.05 709.289L962.26 711.98Z" fill="#A8A8A8"/>
<path d="M965.04 713.71L963.17 712.633L968.02 709.932L969.83 711.019L965.04 713.71Z" fill="#A8A8A8"/>
<path d="M953.17 713.751L951.3 712.674L956.15 709.974L957.96 711.06L953.17 713.751Z" fill="#A8A8A8"/>
<path d="M955.96 715.406L954.08 714.328L958.94 711.628L960.74 712.715L955.96 715.406Z" fill="#A8A8A8"/>
<path d="M958.74 717.136L956.87 716.059L961.72 713.359L963.53 714.446L958.74 717.136Z" fill="#A8A8A8"/>
<path d="M1054.6 651.69L1053.2 665.77L1103.98 637.19L1092.62 630.456L1054.6 651.69Z" fill="#BCBCBC"/>
<path d="M1037.32 661.329L1035.66 675.647L1028.96 679.424L1030.5 665.134L1037.32 661.329Z" fill="#BCBCBC"/>
<path d="M985.41 825.371L1072.12 875.64L1159.14 826.074L1072.54 775.844L985.41 825.371Z" fill="#BCBCBC"/>
<path d="M985.41 825.371L985.37 832.62L1072.09 882.89L1072.12 875.64L985.41 825.371Z" fill="#A0A0A0"/>
<path d="M1159.14 826.074L1159.1 833.33L1072.09 882.89L1072.12 875.64L1159.14 826.074Z" fill="#8C8C8C"/>
<path d="M1072.54 775.844L1072.58 767.427L985.45 817.079L985.41 825.371L1072.54 775.844Z" fill="#848484"/>
<path d="M1072.54 775.844L1064.82 771.856L985.45 817.079L985.41 825.371L1072.54 775.844Z" fill="#6D6D6D"/>
<path d="M1073.98 862.12L1134.29 827.77L1059.73 785.65L1000.31 819.418L1073.98 862.12Z" fill="#EAEAEA"/>
<path d="M1073.99 859.53L1134.31 825.179L1059.74 783.048L1000.32 816.825L1073.99 859.53Z" fill="#D8D8D8"/>
<path d="M1074.01 856.9L1134.32 822.548L1059.76 780.427L1000.34 814.194L1074.01 856.9Z" fill="#EAEAEA"/>
<path d="M1074.02 854.31L1134.33 819.946L1059.77 777.825L1000.35 811.592L1074.02 854.31Z" fill="#D8D8D8"/>
<path d="M961.49 952.56L961.28 991.32L1095.74 914.33L1095.94 875.77L961.49 952.56Z" fill="#969696"/>
<path d="M1019.84 936.02L1019.82 941.09L1037.38 931.03L1037.41 925.99L1019.84 936.02Z" fill="#6B6B6B"/>
<path d="M926.88 852.58L926.67 891.33L793.05 812.921L793.26 774.346L926.88 852.58Z" fill="#969696"/>
<path d="M868.7 835.42L868.67 840.48L851.23 830.24L851.25 825.205L868.7 835.42Z" fill="#6B6B6B"/>
<path d="M926.61 902.88L926.4 941.64L792.78 863.23L792.99 824.654L926.61 902.88Z" fill="#969696"/>
<path d="M868.43 885.73L868.4 890.79L850.96 880.55L850.99 875.51L868.43 885.73Z" fill="#6B6B6B"/>
<path d="M926.34 953.19L926.13 991.95L792.51 913.54L792.72 874.96L926.34 953.19Z" fill="#969696"/>
<path d="M868.16 936.04L868.13 941.1L850.69 930.85L850.72 925.82L868.16 936.04Z" fill="#6B6B6B"/>
<path d="M944.17 1039.29L999.23 1039.59L1146.37 960.95L1112.35 941.62L944.17 1039.29Z" fill="#9B7C3E"/>
<path d="M523.203 1106.35L570.646 1106.61L553.775 1089.56L533.372 1089.45L523.203 1106.35Z" fill="#9B7C3E"/>
<path d="M523.567 1038.51L571.01 1038.76L554.139 1021.71L533.736 1021.6L523.567 1038.51Z" fill="#9B7C3E"/>
<path d="M641.196 1106.99L688.644 1107.24L671.768 1090.19L651.37 1090.08L641.196 1106.99Z" fill="#9B7C3E"/>
<path d="M641.56 1039.14L689.007 1039.39L672.132 1022.35L651.734 1022.24L641.56 1039.14Z" fill="#9B7C3E"/>
<path d="M641.479 1107.03L641.698 1088.52L624.688 1078.41L624.586 1097.36L641.479 1107.03Z" fill="#AFAFAF"/>
<path d="M641.494 1107.03L641.581 1088.97L658.189 1078.94L658.087 1097.91L641.494 1107.03Z" fill="#999999"/>
<path d="M523.852 1038.43L524.073 1019.93L507.061 1009.81L506.959 1028.77L523.852 1038.43Z" fill="#AFAFAF"/>
<path d="M523.868 1038.43L523.955 1020.38L540.558 1010.35L540.456 1029.31L523.868 1038.43Z" fill="#999999"/>
<path d="M507.123 1000.09L641.645 1078.85L658.241 1069.07L523.715 990.38L507.123 1000.09Z" fill="#D6D6D6"/>
<path d="M507.113 1000.13L507.057 1010.47L641.581 1088.97L641.635 1078.89L507.113 1000.13Z" fill="#BCBCBC"/>
<path d="M641.591 1088.97L658.188 1078.94L658.241 1069.07L641.645 1078.85L641.591 1088.97Z" fill="#ADADAD"/>
<path d="M523.098 1106.39L523.077 1087.88L540.195 1077.95L540.094 1096.91L523.098 1106.39Z" fill="#AFAFAF"/>
<path d="M523.083 1106.39L523.19 1088.34L506.695 1078.13L506.593 1097.09L523.083 1106.39Z" fill="#999999"/>
<path d="M641.453 1039.06L641.433 1020.56L658.555 1010.63L658.453 1029.58L641.453 1039.06Z" fill="#AFAFAF"/>
<path d="M641.437 1039.06L641.545 1021.01L625.05 1010.81L624.948 1029.77L641.437 1039.06Z" fill="#999999"/>
<path d="M658.597 1000.9L523.234 1078.21L506.747 1068.26L642.106 991.02L658.597 1000.9Z" fill="#D6D6D6"/>
<path d="M658.607 1000.94L658.551 1011.28L523.19 1088.34L523.244 1078.25L658.607 1000.94Z" fill="#BCBCBC"/>
<path d="M523.18 1088.34L506.695 1078.13L506.747 1068.26L523.234 1078.21L523.18 1088.34Z" fill="#ADADAD"/>
<path d="M582.743 1044.33L583.32 914.28L600.313 904.42L599.614 1034.92L582.743 1044.33Z" fill="#C6C6C6"/>
<path d="M582.743 1044.33L583.32 914.28L566.434 904.24L565.734 1034.74L582.743 1044.33Z" fill="#DBDBDB"/>
<path d="M566.435 904.12L583.547 894.5L600.314 904.3L583.321 914.17L566.435 904.12Z" fill="#9B9B9B"/>
<path d="M458.74 908.19L563.767 970.11L670.651 909.33L565.024 847.4L458.74 908.19Z" fill="#F43838"/>
<path d="M458.74 908.19L563.767 970.11L670.651 909.33L565.024 847.4L458.74 908.19Z" fill="#3F3F3F"/>
<path d="M591.462 1049.47L582.743 1044.33L599.614 1034.92L608.321 1039.88L591.462 1049.47Z" fill="#D6D6D6"/>
<path d="M641.479 1107.03L641.698 1088.52L624.688 1078.41L624.586 1097.36L641.479 1107.03Z" fill="#AFAFAF"/>
<path d="M641.494 1107.03L641.581 1088.97L658.189 1078.94L658.087 1097.91L641.494 1107.03Z" fill="#999999"/>
<path d="M523.852 1038.43L524.073 1019.93L507.061 1009.81L506.959 1028.77L523.852 1038.43Z" fill="#AFAFAF"/>
<path d="M523.868 1038.43L523.955 1020.38L540.558 1010.35L540.456 1029.31L523.868 1038.43Z" fill="#999999"/>
<path d="M507.123 1000.09L641.645 1078.85L658.241 1069.07L523.715 990.38L507.123 1000.09Z" fill="#D6D6D6"/>
<path d="M507.113 1000.13L507.057 1010.47L641.581 1088.97L641.635 1078.89L507.113 1000.13Z" fill="#BCBCBC"/>
<path d="M641.591 1088.97L658.188 1078.94L658.241 1069.07L641.645 1078.85L641.591 1088.97Z" fill="#ADADAD"/>
<path d="M523.098 1106.39L523.077 1087.88L540.195 1077.95L540.094 1096.91L523.098 1106.39Z" fill="#AFAFAF"/>
<path d="M523.083 1106.39L523.19 1088.34L506.695 1078.13L506.593 1097.09L523.083 1106.39Z" fill="#999999"/>
<path d="M641.453 1039.06L641.433 1020.56L658.555 1010.63L658.453 1029.58L641.453 1039.06Z" fill="#AFAFAF"/>
<path d="M641.437 1039.06L641.545 1021.01L625.05 1010.81L624.948 1029.77L641.437 1039.06Z" fill="#999999"/>
<path d="M658.597 1000.9L523.234 1078.21L506.747 1068.26L642.106 991.02L658.597 1000.9Z" fill="#D6D6D6"/>
<path d="M658.607 1000.94L658.551 1011.28L523.19 1088.34L523.244 1078.25L658.607 1000.94Z" fill="#BCBCBC"/>
<path d="M523.18 1088.34L506.695 1078.13L506.747 1068.26L523.234 1078.21L523.18 1088.34Z" fill="#ADADAD"/>
<path d="M582.743 1044.33L583.32 914.28L600.313 904.42L599.614 1034.92L582.743 1044.33Z" fill="#C6C6C6"/>
<path d="M582.743 1044.33L583.32 914.28L566.434 904.24L565.734 1034.74L582.743 1044.33Z" fill="#DBDBDB"/>
<path d="M566.435 904.12L583.547 894.5L600.314 904.3L583.321 914.17L566.435 904.12Z" fill="#9B9B9B"/>
<path d="M671.367 775.751L663.09 771.055L556.069 831.97L564.562 836.8L671.367 775.751Z" fill="#CE0F0F"/>
<path d="M564.562 836.8L556.069 831.97L555.355 965.14L563.762 971.13L564.562 836.8Z" fill="#F91C1C"/>
<path d="M458.695 916.62L458.74 908.19L563.768 970.11L563.722 978.54L458.695 916.62Z" fill="#F91C1C"/>
<path d="M671.367 775.751L564.563 836.54L563.768 970.11L670.651 909.33L671.367 775.751Z" fill="#EA1313"/>
<path d="M671.367 775.751L663.09 771.055L556.069 831.97L564.562 836.8L671.367 775.751Z" fill="#232323"/>
<path d="M564.562 836.8L556.069 831.97L555.355 965.14L563.762 971.13L564.562 836.8Z" fill="#2B2B2B"/>
<path d="M458.695 916.62L458.74 908.19L563.768 970.11L563.722 978.54L458.695 916.62Z" fill="#232323"/>
<path d="M563.722 978.54L563.768 970.11L670.651 909.33L670.606 917.75L563.722 978.54Z" fill="#353535"/>
<path d="M671.367 775.751L564.563 836.54L563.768 970.11L670.651 909.33L671.367 775.751Z" fill="#353535"/>
<path d="M431.51 257.044L430.248 492.361L577.582 409.213L578.85 172.772L431.51 257.044Z" fill="#DDDDDD"/>
<path d="M431.51 257.044L422.78 251.755L421.516 487.348L430.248 492.361L431.51 257.044Z" fill="#BCBCBC"/>
<path d="M422.78 251.755L570.911 168.239L578.85 172.772L431.51 257.044L422.78 251.755Z" fill="#AFAFAF"/>
<path d="M482.605 246.175L460.087 259.056L442.584 269.066L441.518 467.877L459.021 458.001L495.571 437.064L496.64 237.786L482.605 246.175Z" fill="#8D93FF"/>
<path d="M554.053 206.534L531.535 219.405L514.031 229.425L512.965 428.226L530.468 418.35L567.019 397.423L568.088 198.135L554.053 206.534Z" fill="#8D93FF"/>
<path d="M484.46 245.07L483.479 428.068L495.571 437.064L496.64 237.786L484.46 245.07Z" fill="#707CE8"/>
<path d="M483.479 428.068L441.607 451.111L441.518 467.877L495.571 437.064L483.479 428.068Z" fill="#6575D6"/>
<path d="M555.926 205.4L554.945 388.398L567.037 397.394L568.106 198.117L555.926 205.4Z" fill="#707CE8"/>
<path d="M554.945 388.398L513.073 411.441L512.983 428.207L567.037 397.394L554.945 388.398Z" fill="#6575D6"/>
<path d="M442.425 298.719L484.037 324.03L483.899 349.651L442.289 324.073L442.425 298.719Z" fill="#A4ADFF"/>
<path d="M442.135 352.687L483.747 377.998L483.61 403.619L441.999 378.041L442.135 352.687Z" fill="#A4ADFF"/>
<path d="M513.77 278.103L555.382 303.414L555.245 329.045L513.634 303.457L513.77 278.103Z" fill="#A4ADFF"/>
<path d="M513.481 332.071L555.093 357.392L554.955 383.013L513.345 357.425L513.481 332.071Z" fill="#A4ADFF"/>
<path d="M854.7 275.785L853.44 511.102L707 426.379L708.27 189.937L854.7 275.785Z" fill="#DDDDDD"/>
<path d="M854.7 275.785L863.48 270.589L862.22 506.183L853.44 511.102L854.7 275.785Z" fill="#BCBCBC"/>
<path d="M863.48 270.589L716.25 185.49L708.27 189.937L854.7 275.785L863.48 270.589Z" fill="#AFAFAF"/>
<path d="M803.72 264.369L826.1 277.49L843.5 287.687L842.43 486.498L825.03 476.425L788.71 455.107L789.78 255.83L803.72 264.369Z" fill="#8D93FF"/>
<path d="M732.7 223.963L755.09 237.075L772.48 247.282L771.41 446.083L754.02 436.02L717.69 414.702L718.76 215.415L732.7 223.963Z" fill="#8D93FF"/>
<path d="M801.88 263.244L800.9 446.242L788.71 455.107L789.78 255.83L801.88 263.244Z" fill="#707CE8"/>
<path d="M800.9 446.242L842.52 469.732L842.43 486.498L788.71 455.107L800.9 446.242Z" fill="#6575D6"/>
<path d="M730.85 222.81L729.87 405.808L717.67 414.674L718.74 215.396L730.85 222.81Z" fill="#707CE8"/>
<path d="M729.87 405.807L771.48 429.298L771.39 446.064L717.67 414.673L729.87 405.807Z" fill="#6575D6"/>
<path d="M843.34 317.34L801.46 342.204L801.32 367.825L843.2 342.694L843.34 317.34Z" fill="#A4ADFF"/>
<path d="M843.05 371.308L801.17 396.172L801.03 421.793L842.92 396.663L843.05 371.308Z" fill="#A4ADFF"/>
<path d="M772.21 295.96L730.33 320.823L730.19 346.444L772.08 321.314L772.21 295.96Z" fill="#A4ADFF"/>
<path d="M771.92 349.928L730.04 374.791L729.9 400.422L771.79 375.282L771.92 349.928Z" fill="#A4ADFF"/>
<path d="M237.465 364.906L236.203 600.223L383.537 517.075L384.805 280.633L237.465 364.906Z" fill="#DDDDDD"/>
<path d="M237.465 364.906L228.735 359.616L227.471 595.21L236.203 600.223L237.465 364.906Z" fill="#BCBCBC"/>
<path d="M228.735 359.616L376.867 276.101L384.805 280.633L237.465 364.906L228.735 359.616Z" fill="#AFAFAF"/>
<path d="M288.56 354.037L266.044 366.918L248.539 376.928L247.473 575.739L264.977 565.853L301.527 544.926L302.595 345.648L288.56 354.037Z" fill="#8D93FF"/>
<path d="M360.008 314.396L337.49 327.267L319.987 337.286L318.921 536.088L336.423 526.211L372.974 505.275L374.043 305.997L360.008 314.396Z" fill="#8D93FF"/>
<path d="M290.416 352.932L289.435 535.93L301.527 544.926L302.595 345.648L290.416 352.932Z" fill="#707CE8"/>
<path d="M289.435 535.93L247.563 558.972L247.473 575.739L301.527 544.926L289.435 535.93Z" fill="#6575D6"/>
<path d="M361.882 313.262L360.901 496.26L372.992 505.256L374.061 305.978L361.882 313.262Z" fill="#707CE8"/>
<path d="M360.901 496.26L319.029 519.302L318.939 536.069L372.992 505.256L360.901 496.26Z" fill="#6575D6"/>
<path d="M248.38 406.581L289.993 431.892L289.856 457.513L248.244 431.935L248.38 406.581Z" fill="#A4ADFF"/>
<path d="M248.091 460.549L289.704 485.86L289.566 511.481L247.955 485.903L248.091 460.549Z" fill="#A4ADFF"/>
<path d="M319.726 385.964L361.338 411.275L361.201 436.897L319.59 411.318L319.726 385.964Z" fill="#A4ADFF"/>
<path d="M319.437 439.932L361.049 465.253L360.912 490.874L319.301 465.287L319.437 439.932Z" fill="#A4ADFF"/>
<path d="M180.415 446.717L183.043 442.108L170.675 435.856C170.018 435.471 169.339 435.134 168.643 434.825L168.624 434.815H168.623C160.52 431.226 149.875 432.322 138.232 438.989C112.823 453.551 91.907 489.26 91.751 518.341C91.671 533.296 97.095 543.744 105.839 548.395H105.84L105.855 548.404C106.041 548.5 106.23 548.597 106.419 548.693L118.689 554.907L120.975 550.906C126.151 550.286 131.779 548.362 137.663 545.029C163.071 530.629 183.988 494.92 184.145 465.677C184.185 458.166 182.849 451.792 180.415 446.717Z" fill="#7F7F7F"/>
<path d="M150.707 445.309C125.298 459.871 104.382 495.58 104.226 524.671C104.07 553.752 124.73 565.758 150.138 551.349C175.546 536.949 196.463 501.24 196.62 471.997C196.776 442.763 176.116 430.747 150.707 445.309Z" fill="#545454"/>
<path d="M150.668 452.506C128.71 465.094 110.634 495.947 110.499 521.082C110.364 546.217 128.22 556.598 150.177 544.143C172.134 531.697 190.211 500.835 190.347 475.566C190.482 450.298 172.626 439.917 150.668 452.506Z" fill="#AFAFAF"/>
<path d="M150.447 493.654C148.226 494.929 146.396 498.045 146.383 500.59C146.369 503.135 148.177 504.184 150.398 502.928C152.621 501.663 154.449 498.546 154.463 495.982C154.477 493.427 152.67 492.379 150.447 493.654Z" fill="#202121"/>
<path d="M148.929 458.749L148.887 466.641L152.309 464.649L152.351 456.775L148.929 458.749Z" fill="#202121"/>
<path d="M148.542 530.961L148.5 538.844L151.922 536.86L151.964 528.978L148.542 530.961Z" fill="#202121"/>
<path d="M114.377 518.119L114.355 522.208L121.437 518.205L121.403 514.125L114.377 518.119Z" fill="#202121"/>
<path d="M179.394 481.274L179.372 485.363L186.454 481.36L186.421 477.28L179.394 481.274Z" fill="#202121"/>
<path d="M150.562 472.284C149.945 472.605 149.432 474.346 149.422 476.157L149.315 496.021C149.306 497.822 149.804 499.007 150.421 498.639C151.038 498.28 151.552 496.5 151.562 494.699L151.667 474.978C151.677 473.176 151.179 471.953 150.562 472.284Z" fill="#202121"/>
<path d="M153.179 495.06C152.609 495.381 152.14 496.179 152.136 496.837L152.131 497.847C152.127 498.495 152.589 498.765 153.157 498.444L163.154 492.816C163.721 492.495 164.188 491.687 164.192 491.039L164.197 490.077C164.201 489.428 163.737 489.149 163.167 489.471L153.179 495.06Z" fill="#202121"/>
<path d="M330.015 740.084V614.256L528.601 499.455V625.274L330.015 740.084Z" fill="#252526"/>
<path d="M330.015 740.084V614.256L528.601 499.455V625.274L330.015 740.084Z" fill="#252526"/>
<path d="M526.399 505.65V621.214C526.399 622.951 524.478 625.48 522.13 626.836L334.907 734.929C332.559 736.285 330.637 735.974 330.637 734.237V618.674C330.637 616.937 332.559 614.408 334.907 613.052L522.13 504.959C524.478 503.603 526.399 503.914 526.399 505.65Z" fill="white"/>
<mask id="mask0_49_10" style="mask-type:alpha" maskUnits="userSpaceOnUse" x="330" y="504" width="197" height="232">
<path d="M526.399 505.65V621.214C526.399 622.951 524.478 625.48 522.13 626.836L334.907 734.929C332.559 736.285 330.637 735.974 330.637 734.237V618.674C330.637 616.937 332.559 614.408 334.907 613.052L522.13 504.959C524.478 503.603 526.399 503.914 526.399 505.65Z" fill="white"/>
</mask>
<g mask="url(#mask0_49_10)">
<path d="M526.399 508.143V618.721L330.637 731.744V621.166L526.399 508.143Z" fill="#33445C"/>
<path d="M399.45 672.666L352.906 699.538C352.594 699.718 352.343 699.676 352.343 699.445V697.887C352.343 697.656 352.594 697.325 352.906 697.144L399.45 670.272C399.762 670.092 400.014 670.133 400.014 670.364V671.922C400.014 672.153 399.762 672.486 399.45 672.666Z" fill="#EE2383"/>
<path d="M385.042 685.553L358.484 700.886C358.172 701.066 357.919 701.026 357.919 700.796V699.237C357.919 699.006 358.172 698.673 358.484 698.494L385.042 683.16C385.354 682.98 385.606 683.021 385.606 683.251V684.811C385.606 685.041 385.354 685.373 385.042 685.553Z" fill="#A4D724"/>
<path d="M397.181 683.115L367.38 700.321C367.067 700.501 366.816 700.459 366.816 700.228V698.669C366.816 698.44 367.067 698.107 367.38 697.927L397.181 680.721C397.493 680.541 397.745 680.583 397.745 680.813V682.371C397.745 682.602 397.493 682.935 397.181 683.115Z" fill="white"/>
<path d="M413.924 678.017L367.38 704.889C367.068 705.069 366.815 705.028 366.815 704.799V703.239C366.815 703.009 367.068 702.676 367.38 702.496L413.924 675.624C414.235 675.444 414.488 675.485 414.488 675.715V677.275C414.488 677.505 414.235 677.837 413.924 678.017Z" fill="#7ED5E7"/>
<path d="M376.81 704.015L358.483 714.596C358.173 714.775 357.92 714.734 357.92 714.504V712.945C357.92 712.714 358.173 712.381 358.483 712.202L376.81 701.621C377.122 701.441 377.374 701.482 377.374 701.713V703.272C377.374 703.502 377.122 703.835 376.81 704.015Z" fill="#A4D724"/>
<path d="M387.903 702.18L358.484 719.165C358.173 719.344 357.919 719.304 357.919 719.074V717.515C357.919 717.285 358.173 716.951 358.484 716.771L387.903 699.786C388.215 699.606 388.469 699.646 388.469 699.877V701.435C388.469 701.666 388.215 702 387.903 702.18Z" fill="white"/>
<path d="M377.521 712.743L367.379 718.599C367.067 718.779 366.814 718.738 366.814 718.507V716.948C366.814 716.718 367.067 716.385 367.379 716.205L377.521 710.35C377.832 710.17 378.085 710.21 378.085 710.441V712C378.085 712.231 377.832 712.564 377.521 712.743Z" fill="white"/>
<path d="M435.575 656.379L389.032 683.251C388.719 683.431 388.467 683.389 388.467 683.16V681.6C388.467 681.37 388.719 681.037 389.032 680.857L435.575 653.985C435.886 653.806 436.14 653.847 436.14 654.076V655.636C436.14 655.866 435.886 656.2 435.575 656.379Z" fill="#A478C3"/>
<path d="M428.565 664.995L401.221 680.782C400.91 680.962 400.657 680.921 400.657 680.69V679.131C400.657 678.9 400.91 678.568 401.221 678.389L428.565 662.602C428.876 662.422 429.129 662.462 429.129 662.692V664.252C429.129 664.482 428.876 664.815 428.565 664.995Z" fill="#EE2383"/>
<path d="M437.086 664.645L417.84 675.756C417.528 675.937 417.276 675.896 417.276 675.666V674.107C417.276 673.876 417.528 673.544 417.84 673.363L437.086 662.252C437.399 662.071 437.651 662.112 437.651 662.343V663.902C437.651 664.132 437.399 664.464 437.086 664.645Z" fill="#A4D724"/>
<path d="M427.546 674.722L381.002 701.595C380.69 701.775 380.438 701.733 380.438 701.504V699.944C380.438 699.713 380.69 699.382 381.002 699.201L427.546 672.329C427.858 672.149 428.11 672.19 428.11 672.42V673.98C428.11 674.209 427.858 674.542 427.546 674.722Z" fill="#EE2383"/>
<path d="M402.41 698.374L382.02 710.146C381.709 710.326 381.456 710.285 381.456 710.055V708.495C381.456 708.264 381.709 707.932 382.02 707.752L402.41 695.98C402.721 695.801 402.974 695.841 402.974 696.072V697.631C402.974 697.861 402.721 698.194 402.41 698.374Z" fill="white"/>
<path d="M469.947 636.534L439.162 654.308C438.851 654.488 438.598 654.446 438.598 654.217V652.657C438.598 652.426 438.851 652.094 439.162 651.914L469.947 634.141C470.258 633.961 470.511 634.001 470.511 634.232V635.792C470.511 636.021 470.258 636.355 469.947 636.534Z" fill="#7ED5E7"/>
<path d="M515.503 614.801L484.72 632.574C484.409 632.753 484.155 632.714 484.155 632.484V630.924C484.155 630.694 484.409 630.36 484.72 630.181L515.503 612.408C515.814 612.228 516.068 612.269 516.068 612.499V614.059C516.068 614.289 515.814 614.621 515.503 614.801Z" fill="#7ED5E7"/>
<path d="M480.102 635.24L433.559 662.112C433.249 662.291 432.994 662.251 432.994 662.02V660.462C432.994 660.231 433.249 659.897 433.559 659.718L480.102 632.846C480.415 632.666 480.667 632.707 480.667 632.938V634.496C480.667 634.727 480.415 635.06 480.102 635.24Z" fill="#A4D724"/>
<path d="M488.842 634.763L442.297 661.635C441.985 661.815 441.733 661.775 441.733 661.544V659.986C441.733 659.755 441.985 659.423 442.297 659.243L488.842 632.37C489.153 632.19 489.406 632.231 489.406 632.462V634.02C489.406 634.25 489.153 634.583 488.842 634.763Z" fill="#EE2383"/>
<path d="M448.691 662.514L431.282 672.566C430.97 672.746 430.717 672.706 430.717 672.475V670.916C430.717 670.685 430.97 670.352 431.282 670.172L448.691 660.121C449.004 659.94 449.256 659.982 449.256 660.212V661.772C449.256 662.002 449.004 662.334 448.691 662.514Z" fill="white"/>
<path d="M438.939 677.283L407.446 695.465C407.134 695.645 406.882 695.604 406.882 695.374V693.815C406.882 693.584 407.134 693.252 407.446 693.072L438.939 674.89C439.25 674.71 439.503 674.751 439.503 674.981V676.541C439.503 676.771 439.25 677.103 438.939 677.283Z" fill="#A478C3"/>
<path d="M386.288 714.005L352.906 733.278C352.594 733.459 352.342 733.418 352.342 733.187V731.628C352.342 731.398 352.594 731.065 352.906 730.885L386.288 711.612C386.6 711.432 386.853 711.473 386.853 711.703V713.262C386.853 713.493 386.6 713.825 386.288 714.005Z" fill="#7ED5E7"/>
<path d="M385.043 719.294L358.483 734.628C358.173 734.807 357.919 734.768 357.919 734.537V732.978C357.919 732.747 358.173 732.414 358.483 732.235L385.043 716.901C385.354 716.721 385.606 716.762 385.606 716.992V718.551C385.606 718.782 385.354 719.114 385.043 719.294Z" fill="white"/>
<path d="M397.18 716.856L367.38 734.061C367.068 734.241 366.815 734.2 366.815 733.97V732.411C366.815 732.181 367.068 731.848 367.38 731.668L397.18 714.463C397.492 714.283 397.745 714.324 397.745 714.554V716.113C397.745 716.343 397.492 716.676 397.18 716.856Z" fill="#A4D724"/>
<path d="M413.924 711.758L367.38 738.63C367.068 738.81 366.815 738.769 366.815 738.538V736.98C366.815 736.75 367.068 736.416 367.38 736.235L413.924 709.363C414.235 709.184 414.488 709.226 414.488 709.456V711.014C414.488 711.245 414.235 711.578 413.924 711.758Z" fill="white"/>
<path d="M436.134 718.375L417.807 728.956C417.496 729.136 417.243 729.095 417.243 728.865V727.306C417.243 727.076 417.496 726.742 417.807 726.563L436.134 715.982C436.445 715.802 436.698 715.844 436.698 716.073V717.632C436.698 717.863 436.445 718.196 436.134 718.375Z" fill="white"/>
<path d="M387.904 735.92L358.484 752.906C358.173 753.085 357.92 753.044 357.92 752.814V751.255C357.92 751.024 358.173 750.691 358.484 750.512L387.904 733.526C388.215 733.346 388.469 733.387 388.469 733.617V735.176C388.469 735.406 388.215 735.74 387.904 735.92Z" fill="#A478C3"/>
<path d="M435.575 690.119L389.032 716.991C388.719 717.171 388.467 717.13 388.467 716.901V715.341C388.467 715.11 388.719 714.778 389.032 714.598L435.575 687.726C435.886 687.547 436.14 687.587 436.14 687.818V689.377C436.14 689.607 435.886 689.94 435.575 690.119Z" fill="#A478C3"/>
<path d="M428.565 698.736L401.221 714.522C400.91 714.702 400.657 714.661 400.657 714.432V712.873C400.657 712.641 400.91 712.309 401.221 712.129L428.565 696.343C428.876 696.163 429.129 696.203 429.129 696.434V697.993C429.129 698.223 428.876 698.556 428.565 698.736Z" fill="#EE2383"/>
<path d="M437.086 698.385L417.84 709.496C417.528 709.677 417.276 709.636 417.276 709.406V707.847C417.276 707.617 417.528 707.284 417.84 707.104L437.086 695.992C437.399 695.811 437.651 695.854 437.651 696.083V697.643C437.651 697.872 437.399 698.204 437.086 698.385Z" fill="white"/>
<path d="M486.87 689.083L440.327 715.955C440.015 716.135 439.762 716.094 439.762 715.864V714.305C439.762 714.075 440.015 713.741 440.327 713.561L486.87 686.69C487.181 686.51 487.434 686.551 487.434 686.781V688.34C487.434 688.571 487.181 688.903 486.87 689.083Z" fill="#EE2383"/>
<path d="M414.326 720.665L391.62 733.775C391.308 733.955 391.055 733.914 391.055 733.684V732.124C391.055 731.894 391.308 731.562 391.62 731.382L414.326 718.272C414.639 718.092 414.891 718.132 414.891 718.363V719.922C414.891 720.152 414.639 720.485 414.326 720.665Z" fill="#7ED5E7"/>
<path d="M413.529 731.427L390.822 744.537C390.51 744.717 390.257 744.676 390.257 744.446V742.886C390.257 742.656 390.51 742.323 390.822 742.143L413.529 729.033C413.841 728.853 414.093 728.894 414.093 729.125V730.684C414.093 730.915 413.841 731.247 413.529 731.427Z" fill="#A4D724"/>
<path d="M402.41 732.114L382.02 743.887C381.709 744.066 381.456 744.025 381.456 743.794V742.237C381.456 742.006 381.709 741.672 382.02 741.492L402.41 729.72C402.721 729.54 402.974 729.582 402.974 729.813V731.371C402.974 731.602 402.721 731.935 402.41 732.114Z" fill="#7ED5E7"/>
<path d="M469.947 670.274L439.162 688.048C438.851 688.227 438.598 688.187 438.598 687.956V686.398C438.598 686.167 438.851 685.835 439.162 685.655L469.947 667.881C470.258 667.702 470.511 667.742 470.511 667.973V669.531C470.511 669.762 470.258 670.094 469.947 670.274Z" fill="#7ED5E7"/>
<path d="M462.381 683.781L442.297 695.377C441.985 695.557 441.731 695.517 441.731 695.287V693.727C441.731 693.497 441.985 693.163 442.297 692.983L462.381 681.387C462.692 681.208 462.944 681.25 462.944 681.48V683.039C462.944 683.27 462.692 683.602 462.381 683.781Z" fill="white"/>
<path d="M407.801 719.862L388.555 730.974C388.243 731.155 387.989 731.115 387.989 730.883V729.324C387.989 729.094 388.243 728.761 388.555 728.581L407.801 717.469C408.113 717.289 408.366 717.329 408.366 717.56V719.119C408.366 719.35 408.113 719.683 407.801 719.862Z" fill="#EE2383"/>
<path d="M433.094 705.26L413.01 716.856C412.699 717.035 412.446 716.994 412.446 716.764V715.205C412.446 714.974 412.699 714.642 413.01 714.462L433.094 702.867C433.405 702.687 433.658 702.727 433.658 702.958V704.518C433.658 704.748 433.405 705.081 433.094 705.26Z" fill="#A4D724"/>
<path d="M384.343 733.406L366.934 743.458C366.622 743.638 366.37 743.596 366.37 743.366V741.806C366.37 741.576 366.622 741.243 366.934 741.064L384.343 731.012C384.656 730.832 384.908 730.873 384.908 731.104V732.663C384.908 732.893 384.656 733.226 384.343 733.406Z" fill="#A478C3"/>
<path d="M438.939 711.024L407.446 729.206C407.134 729.386 406.882 729.345 406.882 729.115V727.556C406.882 727.326 407.134 726.993 407.446 726.813L438.939 708.63C439.25 708.451 439.503 708.493 439.503 708.723V710.281C439.503 710.512 439.25 710.844 438.939 711.024Z" fill="#EE2383"/>
<path d="M521.389 508.288C521.389 509.012 520.594 510.061 519.612 510.628C518.632 511.193 517.835 511.064 517.835 510.34C517.835 509.614 518.632 508.566 519.612 508C520.594 507.433 521.389 507.562 521.389 508.288Z" fill="#8FB847"/>
<path d="M515.875 511.471C515.875 512.196 515.08 513.243 514.099 513.809C513.118 514.376 512.321 514.248 512.321 513.523C512.321 512.797 513.118 511.748 514.099 511.182C515.08 510.615 515.875 510.745 515.875 511.471Z" fill="#F6C313"/>
<path d="M510.361 514.655C510.361 515.38 509.566 516.426 508.585 516.993C507.603 517.56 506.809 517.431 506.809 516.705C506.809 515.979 507.603 514.932 508.585 514.365C509.566 513.798 510.361 513.929 510.361 514.655Z" fill="#EE4F6A"/>
<path d="M343.096 613.974V724.551L330.637 731.744V621.166L343.096 613.974Z" fill="#5379C5"/>
<path d="M338.991 630.373L334.739 632.828C333.78 633.382 332.996 633.254 332.996 632.544V630.473C332.996 629.764 333.78 628.731 334.739 628.177L338.991 625.722C339.952 625.168 340.736 625.296 340.736 626.004V628.076C340.736 628.785 339.952 629.818 338.991 630.373Z" fill="#A3B1E0"/>
<path d="M338.991 636.744L334.739 639.199C333.78 639.752 332.996 639.625 332.996 638.916V636.844C332.996 636.135 333.78 635.102 334.739 634.549L338.991 632.094C339.951 631.539 340.736 631.666 340.736 632.375V634.447C340.736 635.156 339.951 636.189 338.991 636.744Z" fill="#A3B1E0"/>
<path d="M338.993 643.113L334.74 645.568C333.781 646.122 332.997 645.994 332.997 645.286V643.213C332.997 642.504 333.781 641.472 334.74 640.917L338.993 638.462C339.952 637.908 340.737 638.035 340.737 638.744V640.817C340.737 641.525 339.952 642.559 338.993 643.113Z" fill="#A3B1E0"/>
<path d="M338.991 649.486L334.738 651.942C333.779 652.495 332.995 652.368 332.995 651.659V649.588C332.995 648.878 333.779 647.845 334.738 647.292L338.991 644.836C339.952 644.281 340.736 644.408 340.736 645.118V647.19C340.736 647.898 339.952 648.931 338.991 649.486Z" fill="#A3B1E0"/>
<path d="M338.992 655.856L334.74 658.311C333.78 658.865 332.996 658.737 332.996 658.028V655.957C332.996 655.247 333.78 654.214 334.74 653.66L338.992 651.205C339.953 650.65 340.737 650.778 340.737 651.487V653.558C340.737 654.268 339.953 655.301 338.992 655.856Z" fill="#A3B1E0"/>
<path d="M396.692 595.526L350.148 622.398C349.836 622.578 349.585 622.537 349.585 622.306V620.747C349.585 620.517 349.836 620.185 350.148 620.005L396.692 593.133C397.004 592.953 397.257 592.994 397.257 593.224V594.783C397.257 595.014 397.004 595.346 396.692 595.526Z" fill="#EE2383"/>
<path d="M382.285 608.414L355.726 623.747C355.415 623.927 355.161 623.887 355.161 623.656V622.097C355.161 621.867 355.415 621.534 355.726 621.354L382.285 606.021C382.596 605.841 382.849 605.882 382.849 606.112V607.671C382.849 607.901 382.596 608.234 382.285 608.414Z" fill="#A4D724"/>
<path d="M394.423 605.976L364.622 623.181C364.31 623.362 364.058 623.32 364.058 623.089V621.53C364.058 621.3 364.31 620.968 364.622 620.787L394.423 603.582C394.736 603.401 394.987 603.443 394.987 603.673V605.232C394.987 605.463 394.736 605.795 394.423 605.976Z" fill="white"/>
<path d="M411.167 600.877L364.623 627.75C364.311 627.93 364.058 627.889 364.058 627.659V626.099C364.058 625.869 364.311 625.536 364.623 625.356L411.167 598.484C411.478 598.305 411.73 598.345 411.73 598.575V600.135C411.73 600.365 411.478 600.698 411.167 600.877Z" fill="#7ED5E7"/>
<path d="M374.052 626.876L355.725 637.457C355.416 637.636 355.162 637.595 355.162 637.365V635.805C355.162 635.574 355.416 635.242 355.725 635.063L374.052 624.482C374.365 624.302 374.617 624.342 374.617 624.573V626.133C374.617 626.363 374.365 626.695 374.052 626.876Z" fill="#A4D724"/>
<path d="M385.145 625.04L355.726 642.026C355.416 642.205 355.161 642.165 355.161 641.934V640.376C355.161 640.145 355.416 639.811 355.726 639.632L385.145 622.647C385.457 622.467 385.712 622.507 385.712 622.737V624.296C385.712 624.526 385.457 624.86 385.145 625.04Z" fill="white"/>
<path d="M374.763 635.604L364.621 641.459C364.309 641.639 364.057 641.598 364.057 641.368V639.809C364.057 639.578 364.309 639.246 364.621 639.066L374.763 633.21C375.074 633.031 375.328 633.071 375.328 633.302V634.861C375.328 635.091 375.074 635.424 374.763 635.604Z" fill="white"/>
<path d="M432.818 579.24L386.274 606.112C385.962 606.292 385.71 606.25 385.71 606.02V604.461C385.71 604.231 385.962 603.898 386.274 603.717L432.818 576.845C433.129 576.666 433.382 576.707 433.382 576.937V578.496C433.382 578.726 433.129 579.06 432.818 579.24Z" fill="#A478C3"/>
<path d="M425.807 587.855L398.464 603.642C398.152 603.822 397.899 603.781 397.899 603.551V601.991C397.899 601.761 398.152 601.429 398.464 601.249L425.807 585.462C426.119 585.282 426.372 585.322 426.372 585.553V587.112C426.372 587.342 426.119 587.676 425.807 587.855Z" fill="#EE2383"/>
<path d="M434.329 587.505L415.083 598.617C414.77 598.797 414.518 598.756 414.518 598.526V596.967C414.518 596.736 414.77 596.404 415.083 596.224L434.329 585.112C434.641 584.932 434.893 584.973 434.893 585.204V586.763C434.893 586.993 434.641 587.325 434.329 587.505Z" fill="#A4D724"/>
<path d="M424.789 597.583L378.244 624.456C377.932 624.636 377.68 624.594 377.68 624.364V622.804C377.68 622.574 377.932 622.242 378.244 622.062L424.789 595.189C425.101 595.009 425.353 595.05 425.353 595.281V596.84C425.353 597.07 425.101 597.403 424.789 597.583Z" fill="#EE2383"/>
<path d="M411.569 609.785L388.862 622.895C388.551 623.074 388.297 623.034 388.297 622.804V621.245C388.297 621.015 388.551 620.681 388.862 620.501L411.569 607.392C411.882 607.211 412.133 607.253 412.133 607.483V609.042C412.133 609.273 411.882 609.604 411.569 609.785Z" fill="#A478C3"/>
<path d="M399.652 621.234L379.262 633.007C378.951 633.186 378.699 633.145 378.699 632.915V631.356C378.699 631.125 378.951 630.793 379.262 630.613L399.652 618.841C399.963 618.661 400.216 618.701 400.216 618.932V620.492C400.216 620.722 399.963 621.055 399.652 621.234Z" fill="white"/>
<path d="M467.189 559.395L436.404 577.169C436.093 577.348 435.84 577.307 435.84 577.077V575.518C435.84 575.287 436.093 574.954 436.404 574.775L467.189 557.001C467.5 556.822 467.753 556.861 467.753 557.093V558.652C467.753 558.882 467.5 559.215 467.189 559.395Z" fill="#7ED5E7"/>
<path d="M512.746 537.662L481.963 555.434C481.651 555.614 481.398 555.574 481.398 555.344V553.785C481.398 553.554 481.651 553.221 481.963 553.041L512.746 535.268C513.057 535.089 513.31 535.13 513.31 535.36V536.92C513.31 537.15 513.057 537.482 512.746 537.662Z" fill="#7ED5E7"/>
<path d="M477.345 558.101L430.802 584.973C430.491 585.152 430.237 585.112 430.237 584.881V583.322C430.237 583.091 430.491 582.757 430.802 582.578L477.345 555.707C477.657 555.526 477.91 555.567 477.91 555.798V557.357C477.91 557.588 477.657 557.921 477.345 558.101Z" fill="#A4D724"/>
<path d="M486.084 557.623L439.539 584.496C439.228 584.676 438.975 584.635 438.975 584.405V582.846C438.975 582.616 439.228 582.283 439.539 582.103L486.084 555.231C486.396 555.051 486.648 555.092 486.648 555.322V556.88C486.648 557.111 486.396 557.443 486.084 557.623Z" fill="#EE2383"/>
<path d="M445.934 585.375L428.524 595.426C428.213 595.606 427.96 595.566 427.96 595.336V593.776C427.96 593.546 428.213 593.212 428.524 593.033L445.934 582.981C446.247 582.8 446.498 582.842 446.498 583.073V584.632C446.498 584.863 446.247 585.194 445.934 585.375Z" fill="white"/>
<path d="M436.181 600.144L404.689 618.326C404.377 618.506 404.125 618.465 404.125 618.235V616.675C404.125 616.445 404.377 616.113 404.689 615.933L436.181 597.75C436.493 597.57 436.745 597.611 436.745 597.842V599.401C436.745 599.632 436.493 599.964 436.181 600.144Z" fill="#A478C3"/>
<path d="M383.53 636.866L350.149 656.139C349.837 656.319 349.584 656.278 349.584 656.047V654.488C349.584 654.259 349.837 653.926 350.149 653.746L383.53 634.473C383.842 634.293 384.095 634.334 384.095 634.563V636.122C384.095 636.353 383.842 636.686 383.53 636.866Z" fill="#7ED5E7"/>
<path d="M382.285 642.154L355.725 657.489C355.415 657.668 355.161 657.628 355.161 657.397V655.838C355.161 655.608 355.415 655.275 355.725 655.096L382.285 639.761C382.596 639.582 382.849 639.623 382.849 639.853V641.412C382.849 641.643 382.596 641.975 382.285 642.154Z" fill="white"/>
<path d="M394.423 639.716L364.622 656.922C364.31 657.102 364.058 657.061 364.058 656.83V655.272C364.058 655.041 364.31 654.709 364.622 654.529L394.423 637.323C394.735 637.143 394.987 637.184 394.987 637.415V638.973C394.987 639.204 394.735 639.536 394.423 639.716Z" fill="#A4D724"/>
<path d="M411.167 634.618L364.623 661.49C364.311 661.671 364.058 661.63 364.058 661.399V659.84C364.058 659.61 364.311 659.276 364.623 659.096L411.167 632.224C411.478 632.044 411.73 632.086 411.73 632.316V633.875C411.73 634.106 411.478 634.439 411.167 634.618Z" fill="white"/>
<path d="M433.376 641.236L415.05 651.817C414.738 651.997 414.485 651.956 414.485 651.725V650.166C414.485 649.936 414.738 649.603 415.05 649.423L433.376 638.842C433.688 638.662 433.94 638.704 433.94 638.934V640.493C433.94 640.724 433.688 641.056 433.376 641.236Z" fill="white"/>
<path d="M385.146 658.781L355.726 675.766C355.416 675.946 355.162 675.904 355.162 675.674V674.115C355.162 673.885 355.416 673.551 355.726 673.372L385.146 656.386C385.458 656.206 385.711 656.247 385.711 656.478V658.037C385.711 658.267 385.458 658.601 385.146 658.781Z" fill="#A478C3"/>
<path d="M374.763 669.344L364.622 675.199C364.31 675.379 364.057 675.339 364.057 675.108V673.55C364.057 673.319 364.31 672.986 364.622 672.806L374.763 666.951C375.074 666.771 375.327 666.812 375.327 667.043V668.601C375.327 668.832 375.074 669.165 374.763 669.344Z" fill="white"/>
<path d="M432.818 612.98L386.274 639.851C385.962 640.032 385.71 639.991 385.71 639.761V638.202C385.71 637.971 385.962 637.639 386.274 637.458L432.818 610.587C433.129 610.407 433.382 610.447 433.382 610.678V612.237C433.382 612.467 433.129 612.8 432.818 612.98Z" fill="#A478C3"/>
<path d="M425.807 621.596L398.464 637.383C398.152 637.563 397.899 637.522 397.899 637.292V635.733C397.899 635.502 398.152 635.17 398.464 634.99L425.807 619.203C426.119 619.023 426.372 619.063 426.372 619.295V620.854C426.372 621.083 426.119 621.416 425.807 621.596Z" fill="#EE2383"/>
<path d="M434.329 621.245L415.083 632.357C414.77 632.537 414.518 632.497 414.518 632.267V630.708C414.518 630.478 414.77 630.145 415.083 629.964L434.329 618.852C434.641 618.672 434.893 618.714 434.893 618.944V620.503C434.893 620.733 434.641 621.065 434.329 621.245Z" fill="white"/>
<path d="M484.112 611.944L437.569 638.816C437.257 638.995 437.005 638.955 437.005 638.724V637.165C437.005 636.935 437.257 636.602 437.569 636.422L484.112 609.55C484.424 609.37 484.677 609.412 484.677 609.642V611.201C484.677 611.431 484.424 611.764 484.112 611.944Z" fill="#EE2383"/>
<path d="M411.569 643.526L388.862 656.636C388.551 656.816 388.297 656.775 388.297 656.544V654.985C388.297 654.755 388.551 654.422 388.862 654.243L411.569 641.133C411.882 640.952 412.133 640.993 412.133 641.223V642.782C412.133 643.013 411.882 643.345 411.569 643.526Z" fill="#7ED5E7"/>
<path d="M384.347 669.543L354.928 686.528C354.616 686.708 354.364 686.668 354.364 686.437V684.878C354.364 684.649 354.616 684.315 354.928 684.135L384.347 667.15C384.659 666.97 384.911 667.012 384.911 667.241V668.8C384.911 669.031 384.659 669.363 384.347 669.543Z" fill="#EE2383"/>
<path d="M410.771 654.287L388.064 667.398C387.752 667.578 387.5 667.537 387.5 667.306V665.747C387.5 665.516 387.752 665.184 388.064 665.004L410.771 651.894C411.083 651.714 411.336 651.755 411.336 651.985V653.544C411.336 653.775 411.083 654.107 410.771 654.287Z" fill="#A4D724"/>
<path d="M399.652 654.975L379.262 666.747C378.951 666.927 378.699 666.886 378.699 666.655V665.097C378.699 664.866 378.951 664.532 379.262 664.353L399.652 652.58C399.963 652.401 400.216 652.443 400.216 652.674V654.231C400.216 654.462 399.963 654.795 399.652 654.975Z" fill="#7ED5E7"/>
<path d="M467.189 593.134L436.404 610.908C436.093 611.087 435.84 611.048 435.84 610.817V609.258C435.84 609.027 436.093 608.695 436.404 608.516L467.189 590.742C467.5 590.562 467.753 590.602 467.753 590.833V592.391C467.753 592.623 467.5 592.955 467.189 593.134Z" fill="#7ED5E7"/>
<path d="M459.623 606.642L439.539 618.237C439.228 618.417 438.974 618.378 438.974 618.147V616.588C438.974 616.357 439.228 616.023 439.539 615.843L459.623 604.248C459.935 604.068 460.187 604.11 460.187 604.341V605.9C460.187 606.13 459.935 606.462 459.623 606.642Z" fill="white"/>
<path d="M405.044 642.723L385.798 653.835C385.485 654.015 385.232 653.975 385.232 653.744V652.185C385.232 651.954 385.485 651.622 385.798 651.441L405.044 640.33C405.355 640.15 405.609 640.19 405.609 640.42V641.979C405.609 642.211 405.355 642.543 405.044 642.723Z" fill="#EE2383"/>
<path d="M430.336 628.121L410.252 639.716C409.941 639.896 409.688 639.855 409.688 639.625V638.065C409.688 637.834 409.941 637.502 410.252 637.323L430.336 625.727C430.647 625.548 430.9 625.588 430.9 625.819V627.378C430.9 627.608 430.647 627.941 430.336 628.121Z" fill="#A4D724"/>
<path d="M381.586 656.267L364.176 666.318C363.865 666.498 363.613 666.457 363.613 666.226V664.667C363.613 664.436 363.865 664.104 364.176 663.924L381.586 653.873C381.899 653.692 382.15 653.734 382.15 653.964V655.524C382.15 655.754 381.899 656.086 381.586 656.267Z" fill="#A478C3"/>
<path d="M436.181 633.884L404.689 652.067C404.377 652.246 404.125 652.206 404.125 651.975V650.417C404.125 650.186 404.377 649.853 404.689 649.673L436.181 631.491C436.493 631.311 436.745 631.353 436.745 631.583V633.142C436.745 633.372 436.493 633.704 436.181 633.884Z" fill="#EE2383"/>
</g>
</g>
<defs>
<clipPath id="clip0_49_10">
<rect width="1298" height="1404" fill="white"/>
</clipPath>
</defs>
</svg>
