<svg width="1382" height="1173" viewBox="0 0 1382 1173" fill="none" xmlns="http://www.w3.org/2000/svg">
<g clip-path="url(#clip0_49_365)">
<path d="M1382.03 823.82L821.763 1149.31L0.466064 676.372L564.1 349.888L1382.03 823.82Z" fill="#E0E0E0"/>
<path d="M821.763 1172.61V1149.31L0.466003 676.372L0.25 699.533L821.763 1172.61Z" fill="#A0A0A0"/>
<path d="M1382.03 847.12V823.82L821.764 1149.31V1172.61L1382.03 847.12Z" fill="#C9C9C9"/>
<path d="M591.276 15.8232L591.67 365.852L27.77 692.078L27.773 342.039L591.276 15.8232Z" fill="#B7B38F"/>
<path d="M27.7691 692.078L0.466064 676.372V326.266L27.7691 341.991V692.078Z" fill="#A0A0A0"/>
<path d="M1382.3 473.486V823.75L1354.73 839.93V489.796L1382.3 473.486Z" fill="#ADA886"/>
<path d="M691.25 252.939L619.24 210.363V87.7607L691.25 129.667V252.939Z" fill="#E8E8E8"/>
<path d="M814.586 378.511L746.395 339.021V161.73L814.586 201.087V378.511Z" fill="#E8E8E8"/>
<path d="M941.74 452.826L878.216 415.951L869.735 411.016V411.026L869.716 411.016V233.525L941.74 275.44V452.826Z" fill="#E8E8E8"/>
<path d="M1072.71 528.798L996.88 484.899V307.57L1072.71 351.258V528.798Z" fill="#E8E8E8"/>
<path d="M1199.86 602.489L1127.86 560.641V383.753L1199.94 425.62L1199.86 602.489Z" fill="#E8E8E8"/>
<path d="M1327.16 676.228L1255.15 634.38L1255.07 457.722L1327.16 499.589V676.228Z" fill="#E8E8E8"/>
<path d="M691.25 423.56L621.509 383.149L619.24 381.808V210.363L691.25 252.939V423.56Z" fill="#E8E8E8"/>
<path d="M691.25 424.384L621.51 383.149L691.25 423.56V424.384Z" fill="#D0D0D0"/>
<path d="M814.586 495.028L751.368 458.393L746.395 455.461V339.021L814.586 378.521V495.028Z" fill="#E8E8E8"/>
<path d="M814.586 495.632L751.369 458.393L814.586 495.028V495.632Z" fill="#D0D0D0"/>
<path d="M941.74 568.671L930.67 562.289L869.734 526.977V411.026L878.215 415.951L941.74 452.873V568.671Z" fill="#E8E8E8"/>
<path d="M930.67 562.289L869.734 527.13V526.977L930.67 562.289Z" fill="#D0D0D0"/>
<path d="M878.215 415.951L869.734 411.026V411.016L878.215 415.951Z" fill="#D6D6D6"/>
<path d="M1072.71 644.586L996.88 600.649V484.899L1072.71 528.798V644.586Z" fill="#E8E8E8"/>
<path d="M1072.71 644.596L996.88 601.004V600.649L1072.71 644.586V644.596Z" fill="#D0D0D0"/>
<path d="M1199.86 718.27L1127.86 676.544V560.641L1199.86 602.489V718.27Z" fill="#E8E8E8"/>
<path d="M1199.86 718.29L1127.86 676.756V676.545L1199.86 718.27V718.29Z" fill="#D0D0D0"/>
<path d="M1327.16 792.02L1325.12 790.85L1255.15 750.3V634.381L1327.16 676.228V792.02Z" fill="#E8E8E8"/>
<path d="M1325.12 790.85L1255.15 750.49V750.3L1325.12 790.85Z" fill="#D0D0D0"/>
<path d="M1354.73 666.598V692.931L1327.44 677.071V650.815L1354.73 666.598Z" fill="#BFBB95"/>
<path d="M218.936 712.576L141.411 757.61L27.77 692.174L105.759 647.001L218.936 712.576Z" fill="#AFAFAF"/>
<path d="M471.508 768.35L393.985 813.39L280.342 747.95L358.332 702.763L471.508 768.35Z" fill="#AFAFAF"/>
<path d="M715.155 818.9L637.632 863.94L523.991 798.49L601.979 753.31L715.155 818.9Z" fill="#AFAFAF"/>
<path d="M559.485 908.96L481.96 953.99L368.318 888.55L446.309 843.38L559.485 908.96Z" fill="#AFAFAF"/>
<path d="M811.797 964.62L734.273 1009.66L620.636 944.22L698.625 899.04L811.797 964.62Z" fill="#AFAFAF"/>
<path d="M1054.34 1014.39L976.8 1059.43L863.17 993.99L941.15 948.82L1054.34 1014.39Z" fill="#AFAFAF"/>
<path d="M899.87 1105.06L822.348 1150.1L708.706 1084.65L786.69 1039.47L899.87 1105.06Z" fill="#AFAFAF"/>
<path d="M374.07 622.862L296.545 667.891L182.903 602.45L260.893 557.277L374.07 622.862Z" fill="#AFAFAF"/>
<path d="M357.296 703.204L279.773 748.24L166.13 682.802L244.119 637.619L357.296 703.204Z" fill="#C1C1C1"/>
<path d="M601.164 753.59L523.641 798.63L409.999 733.19L487.989 688.015L601.164 753.59Z" fill="#C1C1C1"/>
<path d="M445.944 843.5L368.421 888.53L254.779 823.09L332.767 777.92L445.944 843.5Z" fill="#C1C1C1"/>
<path d="M698.385 899.29L620.859 944.32L507.216 878.87L585.206 833.7L698.385 899.29Z" fill="#C1C1C1"/>
<path d="M942.3 949.79L864.771 994.83L751.129 929.39L829.123 884.21L942.3 949.79Z" fill="#B7B7B7"/>
<path d="M786.259 1039.73L708.735 1084.77L595.091 1019.33L673.082 974.16L786.259 1039.73Z" fill="#C1C1C1"/>
<path d="M332.444 778.02L254.92 823.05L141.279 757.61L219.267 712.441L332.444 778.02Z" fill="#CCCCCC"/>
<path d="M487.623 688.255L410.099 733.29L296.457 667.853L374.446 622.67L487.623 688.255Z" fill="#CCCCCC"/>
<path d="M584.944 833.79L507.419 878.83L393.776 813.38L471.768 768.2L584.944 833.79Z" fill="#CCCCCC"/>
<path d="M828.682 884.33L751.158 929.37L637.512 863.93L715.5 818.74L828.682 884.33Z" fill="#CCCCCC"/>
<path d="M672.848 974.41L595.325 1019.45L481.683 954.01L559.672 908.84L672.848 974.41Z" fill="#CCCCCC"/>
<path d="M925.29 1030.03L847.762 1075.07L734.12 1009.63L812.114 964.46L925.29 1030.03Z" fill="#CCCCCC"/>
<path d="M244.119 637.619L182.985 602.288L105.759 647.001L166.13 682.802L244.119 637.619Z" fill="#CCCCCC"/>
<path d="M847.761 1075.07L899.87 1105.06L977.92 1058.59L925.29 1030.03L847.761 1075.07Z" fill="#BFBFBF"/>
<path d="M450.967 576.817L374.07 622.862L260.894 557.278L337.791 511.232L450.967 576.817Z" fill="#A3A3A3"/>
<path d="M703.541 632.588L626.016 677.618L512.375 612.177L590.364 567.004L703.541 632.588Z" fill="#AFAFAF"/>
<path d="M947.19 683.137L869.668 728.18L756.026 662.736L834.01 617.553L947.19 683.137Z" fill="#AFAFAF"/>
<path d="M791.52 773.2L713.996 818.24L600.351 752.79L678.34 707.622L791.52 773.2Z" fill="#C4C4C4"/>
<path d="M1043.83 828.85L966.31 873.89L852.668 808.45L930.66 763.28L1043.83 828.85Z" fill="#AFAFAF"/>
<path d="M1287.02 879.02L1209.77 923.89L1096.13 858.45L1173.19 813.05L1287.02 879.02Z" fill="#AFAFAF"/>
<path d="M1131.9 969.3L1054.38 1014.33L940.73 948.89L1018.73 903.71L1131.9 969.3Z" fill="#A3A3A3"/>
<path d="M606.103 487.094L528.578 532.133L414.937 466.692L492.926 421.519L606.103 487.094Z" fill="#AFAFAF"/>
<path d="M589.33 567.435L511.804 612.484L398.163 547.043L476.152 501.861L589.33 567.435Z" fill="#C1C1C1"/>
<path d="M833.196 617.831L755.671 662.87L642.032 597.43L720.023 552.256L833.196 617.831Z" fill="#C1C1C1"/>
<path d="M677.977 707.736L600.452 752.77L486.811 687.334L564.801 642.161L677.977 707.736Z" fill="#B7B7B7"/>
<path d="M930.41 763.52L852.888 808.56L739.246 743.12L817.24 697.943L930.41 763.52Z" fill="#B7B7B7"/>
<path d="M1174.33 814.03L1096.81 859.07L983.17 793.63L1061.15 748.45L1174.33 814.03Z" fill="#C1C1C1"/>
<path d="M1018.29 903.97L940.77 949.01L827.12 883.57L905.11 838.4L1018.29 903.97Z" fill="#C1C1C1"/>
<path d="M564.476 642.257L486.953 687.296L374.332 622.44L451.301 576.673L564.476 642.257Z" fill="#D8D8D8"/>
<path d="M719.659 552.486L642.133 597.525L528.49 532.085L606.479 486.911L719.659 552.486Z" fill="#CCCCCC"/>
<path d="M816.972 698.019L739.457 743.06L625.811 677.618L703.8 632.445L816.972 698.019Z" fill="#CCCCCC"/>
<path d="M1060.71 748.56L983.18 793.6L869.543 728.16L947.54 682.984L1060.71 748.56Z" fill="#CCCCCC"/>
<path d="M904.88 838.66L827.36 883.69L713.718 818.25L791.702 773.08L904.88 838.66Z" fill="#D8D8D8"/>
<path d="M1157.32 894.27L1079.8 939.31L966.16 873.87L1044.14 828.7L1157.32 894.27Z" fill="#CCCCCC"/>
<path d="M476.152 501.861L415.017 466.529L337.792 511.233L398.163 547.043L476.152 501.861Z" fill="#CCCCCC"/>
<path d="M1079.8 939.31L1131.9 969.3L1209.96 923.79L1157.32 894.27L1079.8 939.31Z" fill="#BFBFBF"/>
<path d="M858.437 542.779L780.989 587.779L667.458 522.396L745.37 477.271L858.437 542.779Z" fill="#AFAFAF"/>
<path d="M1198.38 738.86L1120.94 783.85L1007.41 718.48L1085.33 673.344L1198.38 738.86Z" fill="#AFAFAF"/>
<path d="M744.335 477.703L666.89 522.694L553.36 457.32L631.271 412.195L744.335 477.703Z" fill="#C1C1C1"/>
<path d="M1085.08 673.593L1007.63 718.58L894.1 653.21L972.02 608.076L1085.08 673.593Z" fill="#B7B7B7"/>
<path d="M971.75 608.153L894.31 653.153L780.778 587.77L858.696 542.645L971.75 608.153Z" fill="#CCCCCC"/>
<path d="M1311.76 804.22L1234.31 849.21L1120.78 783.83L1198.69 738.7L1311.76 804.22Z" fill="#CCCCCC"/>
<path d="M631.271 412.195L570.198 376.892L493.049 421.557L553.36 457.32L631.271 412.195Z" fill="#CCCCCC"/>
<path d="M1234.31 849.21L1286.57 879.28L1365.56 833.4L1311.76 804.22L1234.31 849.21Z" fill="#BFBFBF"/>
<path d="M591.672 47.8591V397.984L564.1 381.798V31.5391L591.672 47.8591Z" fill="#B5B5B5"/>
<path d="M718.825 471.569L691.25 455.384V105.134L718.825 121.444V471.569Z" fill="#B5B5B5"/>
<path d="M842.165 370.146V543.316L814.586 527.13V176.871L842.165 193.181V370.146Z" fill="#B5B5B5"/>
<path d="M969.31 443.693V616.901L941.74 600.716V250.457L969.31 266.767V443.693Z" fill="#B5B5B5"/>
<path d="M1072.71 326.496L1100.29 342.806V692.931L1072.71 676.755V529.008V503.489V326.496Z" fill="#B5B5B5"/>
<path d="M1227.43 766.52L1199.86 750.34V400.073L1227.43 416.392V766.52Z" fill="#B5B5B5"/>
<path d="M1354.73 839.93L1327.16 823.75V473.486L1354.73 489.796V839.93Z" fill="#B5B5B5"/>
<path d="M1354.73 839.7L1382.03 823.81V473.716L1354.73 489.441V839.7Z" fill="#999999"/>
<path d="M619.241 31.5391V381.798L591.67 397.984V47.8591L619.241 31.5391Z" fill="#999999"/>
<path d="M746.395 105.134V455.384L718.816 471.569V121.444L746.395 105.134Z" fill="#999999"/>
<path d="M869.735 176.871V527.13L842.165 543.316V193.181L869.735 176.871Z" fill="#999999"/>
<path d="M996.88 250.457V600.716L969.31 616.901V266.767L996.88 250.457Z" fill="#999999"/>
<path d="M1127.86 326.496V676.755L1100.28 692.931V342.806L1127.86 326.496Z" fill="#999999"/>
<path d="M1255 400.073V750.34L1227.43 766.52V416.392L1255 400.073Z" fill="#999999"/>
<path d="M0.466064 326.266L536.919 15.8231L563.822 -0.0649414L564.098 0.098053L564.367 -0.0649414L591.276 15.8231L1382.03 473.716L1354.73 489.441L564.098 31.5581L27.7691 341.991L0.466064 326.266Z" fill="#D6D6D6"/>
<path d="M564.099 31.5591L564.1 55.6691L1354.73 515.775V489.442L564.099 31.5591Z" fill="#B5B5B5"/>
<path d="M657.827 511.347H674.633L708.055 492.46L682.941 478.277L657.827 511.347Z" fill="#919191"/>
<path d="M624.073 443.358L657.827 462.926L691.438 443.358L657.756 423.79L624.073 443.358Z" fill="#939393"/>
<path d="M624.073 438.892L657.827 458.46L691.438 438.892L657.756 419.315L624.073 438.892Z" fill="#FFE783"/>
<path d="M629.392 438.892L657.815 455.375L686.121 438.892L657.756 422.41L629.392 438.892Z" fill="#919191"/>
<path d="M657.827 511.347V458.46L691.438 438.892V491.77L657.827 511.347Z" fill="#CEB742"/>
<path d="M624.073 491.77V438.892L657.827 458.46V511.347L624.073 491.77Z" fill="#F2D65F"/>
<path d="M657.756 422.41V426.904L633.069 441.02L629.392 438.892L657.756 422.41Z" fill="#777777"/>
<path d="M657.755 426.905L682.042 441.269L686.12 438.893L657.755 422.41V426.905Z" fill="#666666"/>
<path d="M633.069 441.02L657.755 426.904L682.042 441.269L657.815 455.375L633.069 441.02Z" fill="#2FA525"/>
<path d="M669.526 445.14C669.526 446.98 665.597 448.466 660.75 448.466C655.904 448.466 651.975 446.98 651.975 445.14C651.975 443.31 655.904 441.815 660.75 441.815C665.597 441.815 669.526 443.31 669.526 445.14Z" fill="#28821E"/>
<path d="M673.111 431.034C673.111 439.515 666.236 446.396 657.755 446.396C649.275 446.396 642.4 439.515 642.4 431.034C642.4 422.563 649.275 415.683 657.755 415.683C666.236 415.683 673.111 422.563 673.111 431.034Z" fill="url(#paint0_linear_49_365)"/>
<path d="M670.933 419.209C670.933 426.492 665.033 432.386 657.755 432.386C650.478 432.386 644.579 426.492 644.579 419.209C644.579 411.936 650.478 406.033 657.755 406.033C665.033 406.033 670.933 411.936 670.933 419.209Z" fill="url(#paint1_linear_49_365)"/>
<path d="M668.875 407.173C668.875 413.316 663.897 418.289 657.756 418.289C651.615 418.289 646.636 413.316 646.636 407.173C646.636 401.031 651.615 396.057 657.756 396.057C663.897 396.057 668.875 401.031 668.875 407.173Z" fill="url(#paint2_linear_49_365)"/>
<path d="M666.234 396.987C666.234 401.663 662.439 405.468 657.756 405.468C653.073 405.468 649.277 401.663 649.277 396.987C649.277 392.301 653.073 388.506 657.756 388.506C662.439 388.506 666.234 392.301 666.234 396.987Z" fill="url(#paint3_linear_49_365)"/>
<path d="M329.389 242.34L114.012 366.332L105.82 361.665L321.197 237.741L329.389 242.34Z" fill="#8E8E8E"/>
<path d="M329.389 242.341V366.332L114.012 489.844V366.121L329.389 242.341Z" fill="#DDDDDD"/>
<path d="M320.358 255.411V363.677L123.044 476.782V368.746L320.358 255.411Z" fill="#282828"/>
<path d="M114.012 489.844L105.82 485.196V361.665L114.012 366.332V489.844Z" fill="#AFAFAF"/>
<path d="M416.012 445.859C416.012 445.859 412.797 457.885 412.4 469.404C412.4 469.404 410.547 505.943 406.311 515.209C406.311 515.209 404.722 519.32 404.854 522.895C404.854 522.895 396.117 527.792 391.615 519.713C391.615 519.713 396.076 512.967 395.897 508.329C395.897 508.329 390.66 474.674 392.926 454.234L416.012 445.859Z" fill="#E0C599"/>
<path d="M432.429 451.819C432.429 451.819 429.214 463.846 428.817 475.364C428.817 475.364 426.964 511.903 422.727 521.17C422.727 521.17 421.139 525.271 421.271 528.846C421.271 528.846 412.533 533.752 408.032 525.674C408.032 525.674 412.492 518.918 412.314 514.289C412.314 514.289 407.078 480.635 409.342 460.195L432.429 451.819Z" fill="#CEB589"/>
<path d="M388.253 332.236C388.253 332.236 384.334 333.511 381.288 341.589C381.288 341.589 377.846 354.555 375.861 355.753C375.861 355.753 370.697 365.68 350.441 348.47L344.484 354.957C344.484 354.957 361.43 376.537 379.965 369.523C379.965 369.523 387.379 366.073 389.099 358.263L391.748 336.022L388.253 332.236Z" fill="#C43C00"/>
<path d="M403.264 322.165C403.264 322.165 391.086 328.873 390.158 338.676C390.158 338.676 383.539 356.28 389.365 364.224C389.365 364.224 391.748 367.597 395.587 365.882C395.587 365.882 392.851 373.49 391.527 378.742C391.527 378.742 381.628 421.279 390.063 455.442C390.063 455.442 412.533 472.384 435.171 449.481C435.171 449.481 437.422 412.195 431.421 393.662C431.421 393.662 427.537 379.134 426.478 370.529C426.478 370.529 425.339 357.027 428.252 354.516C428.252 354.516 435.657 340.171 434.068 331.872C434.068 331.872 431.419 323.142 421.006 322.175L403.264 322.165Z" fill="#E24000"/>
<path d="M390.158 338.676C390.158 338.676 385.657 327.819 387.246 314.441C387.246 314.441 380.419 299.482 388.533 291.011C388.533 291.011 395.719 290.082 397.705 295.515C397.705 295.515 403.663 308.49 412.93 306.104L406.178 317.354L405.781 320.402C405.781 320.402 392.012 329.141 390.158 338.676Z" fill="#212121"/>
<path d="M388.533 291.011C388.533 291.011 385.437 278.305 399.823 275.918C399.823 275.918 415.533 267.006 425.772 284.658C425.772 284.658 436.893 298.773 431.42 319.079C431.42 319.079 417.828 325.298 411.606 338.676C411.606 338.676 409.095 330.463 410.593 321.197C410.593 321.197 412.975 310.867 412.93 306.104L403.795 307.781L393.733 297.987L388.533 291.011Z" fill="#212121"/>
<path d="M403.264 322.165C403.264 322.165 399.293 325.567 398.036 329.936C398.036 329.936 397.181 339.021 411.443 338.082L413.856 326.161L412.93 306.104L403.264 322.165Z" fill="#CEB589"/>
<path d="M402.886 302.779C402.886 302.779 398.329 298.112 397.356 294.729C397.356 294.729 396.392 291.855 391.455 291.069C391.455 291.069 388.967 307.426 390.644 312.544C390.644 312.544 391.524 322.424 403.263 322.165C403.263 322.165 405.979 321.695 407.468 319.175C407.468 319.175 412.092 311.624 412.929 306.104C412.929 306.104 407.448 307.494 402.886 302.779Z" fill="#EDD29D"/>
<path d="M431.597 415.721L428.288 424.192C428.288 424.192 426.037 430.22 428.288 432.539C428.288 432.539 429.479 434.321 432.061 430.018C432.061 430.018 433.351 427.239 434.444 427.575C434.444 427.575 436.165 430.612 434.444 434.254L432.987 438.097C432.987 438.097 431.449 441.01 433.451 441.805C433.451 441.805 437.29 443.396 440.402 436.707C440.402 436.707 444.108 428.303 442.718 423.071C442.718 423.071 441.924 415.721 440.534 414.197L431.597 415.721Z" fill="#CEB589"/>
<path d="M432.935 329.476C432.935 329.476 453.839 356.413 448.896 385.008C448.896 385.008 443.4 412.195 441.294 415.721C441.294 415.721 435.039 420.752 431.597 415.721C431.597 415.721 433.483 401.069 435.585 396.038C435.585 396.038 439.806 383.878 434.378 367.395C434.378 367.395 428.711 358.445 427.904 352.858C427.904 352.858 429.904 331.92 432.935 329.476Z" fill="#C43C00"/>
<path d="M338.042 345.384L293.117 304.245L294.352 303.105L341.748 343.17L338.042 345.384Z" fill="#876D44"/>
<path d="M350.442 348.47C350.442 348.47 348.456 339.289 344.484 337.44C344.484 337.44 342.631 333.204 335.217 334.431C335.217 334.431 333.452 335.408 334.776 336.903C334.776 336.903 338.218 337.612 338.924 339.558C338.924 339.558 337.776 346.304 332.569 341.34C332.569 341.34 333.187 339.117 332.04 338.676C332.04 338.676 330.098 337.919 330.186 340.219C330.186 340.219 328.664 349.064 344.484 354.957L350.442 348.47Z" fill="#CEB589"/>
<path d="M404.843 522.339C404.843 522.339 408.749 523.661 407.094 526.91C407.094 526.91 395.664 548.49 384.278 545.309C384.278 545.309 376.865 542.396 380.66 535.601C380.66 535.601 385.603 522.933 391.604 519.167C391.604 519.167 395.576 527.437 404.843 522.339Z" fill="#4C3D2C"/>
<path d="M421.27 528.52C421.27 528.52 425.176 529.842 423.521 533.091C423.521 533.091 412.092 554.671 400.706 551.489C400.706 551.489 393.292 548.576 397.087 541.782C397.087 541.782 402.03 529.114 408.032 525.338C408.032 525.338 412.003 533.618 421.27 528.52Z" fill="#68533A"/>
<path d="M395.587 365.881C395.587 365.881 386.584 421.327 395.587 458.508L390.063 455.442C390.063 455.442 378.906 415.328 395.587 365.881Z" fill="#BA3000"/>
<path d="M432.935 329.477C432.935 329.477 427.537 348.642 431.862 357.909C431.862 357.909 433.98 364.089 434.378 367.396C434.378 367.396 428.844 359.432 427.904 352.858C427.904 352.858 428.249 335.562 432.935 329.477Z" fill="#9E2100"/>
<path d="M345.515 353.836C345.515 353.836 360.989 373.442 378.994 368.507C378.994 368.507 384.526 365.143 387.277 358.924L387.96 361.54C387.96 361.54 384.896 367.481 379.501 369.954C379.501 369.954 363.461 377.332 344.484 354.957L345.515 353.836Z" fill="#9E2100"/>
<path d="M259.392 717.88H300.214L284.187 701.862H273.511L259.392 717.88Z" fill="#919191"/>
<path d="M328.134 678.355H354.88L427.418 639.363L390.413 617.495L328.134 678.355Z" fill="#919191"/>
<path d="M191.146 579.27V678.25L259.392 717.88V613.461L191.146 579.27Z" fill="#5D617A"/>
<path d="M259.392 717.88L276.706 707.871V605.45L259.392 613.461V717.88Z" fill="#4B4F63"/>
<path d="M405.052 515.622L399.185 521.208C399.055 521.122 398.927 521.045 398.792 520.969L344.033 489.355C335.687 484.545 322.018 484.526 313.658 489.317L189.167 560.747C188.996 560.842 188.834 560.948 188.669 561.044L182.943 555.591V568.729C182.601 572.121 184.68 575.581 189.186 578.149L244.8 609.906C253.17 614.678 266.847 614.65 275.194 609.83L398.792 538.486C403.159 535.966 405.236 532.602 405.033 529.287L405.052 529.277V515.622Z" fill="#BABABA"/>
<path d="M189.168 546.143C180.808 550.934 180.816 558.773 189.186 563.545L244.8 595.302C253.17 600.084 266.847 600.046 275.194 595.226L398.792 523.882C407.139 519.062 407.139 511.185 398.792 506.365L344.034 474.751C335.687 469.941 322.018 469.921 313.658 474.713L189.168 546.143Z" fill="#DDDDDD"/>
<path d="M328.134 579.27V678.355L397.071 638.616V539.482L328.134 579.27Z" fill="#4B4F63"/>
<path d="M328.134 678.355L293.978 658.644V598.867L328.134 579.27V678.355Z" fill="#5D617A"/>
<path d="M987.01 810.97L986.99 758.75L990.09 756.93V809.23L987.01 810.97Z" fill="#543918"/>
<path d="M987.01 810.97L986.99 758.75L983.88 756.93V809.23L987.01 810.97Z" fill="#82562A"/>
<path d="M1035.03 783.45L1035.01 731.68L1038.1 729.86V781.71L1035.03 783.45Z" fill="#543918"/>
<path d="M1035.03 783.45L1035.01 731.68L1031.9 729.86V781.71L1035.03 783.45Z" fill="#82562A"/>
<path d="M1032.83 723.49L1032.81 674.494L1035.91 672.673V721.76L1032.83 723.49Z" fill="#543918"/>
<path d="M1032.83 723.49L1032.81 674.494L1029.71 672.673V721.76L1032.83 723.49Z" fill="#82562A"/>
<path d="M978.38 758.6C978.38 758.6 980.46 765.87 977.21 769.39C977.21 769.39 968.2 772.48 962.87 766.13V764.37C962.87 764.37 944.25 764.33 938.07 750.77C938.07 750.77 936.86 741.68 957.81 747.13L978.38 758.6Z" fill="#16171C"/>
<path d="M935.19 724.74L988.69 755.88L1045.75 723.19L992.25 692.088L935.19 724.74Z" fill="#CC8C40"/>
<path d="M958.3 771.82C958.3 771.82 960.39 779.09 957.12 782.61C957.12 782.61 948.11 785.7 942.79 779.35V777.58C942.79 777.58 924.17 777.55 917.99 763.99C917.99 763.99 916.79 754.9 937.72 760.35L958.3 771.82Z" fill="#16171C"/>
<path d="M988.69 760.35L1045.75 728.44V723.19L988.69 755.88V760.35Z" fill="#9B6729"/>
<path d="M937.04 695.844C937.04 695.844 951.63 686.405 964.51 690.181L1017.86 723.08C1017.86 723.08 1016.85 728.67 1011.06 731.38C1011.06 731.38 987.51 742.19 971.16 730.09C971.16 730.09 962.26 725.5 956.8 723.38C956.78 723.38 947.02 722.38 943.66 720.05L935.34 724.66L961.31 739.93C961.31 739.93 963.47 768.63 959.35 771.88C959.35 771.88 940.82 771.37 937.04 758.5C937.04 758.5 931.04 704.948 937.04 695.844Z" fill="#353535"/>
<path d="M996.77 605.23C996.77 605.23 992.14 609.513 988.1 607.712C988.1 607.712 977.72 599.173 980.17 578.063C980.17 578.063 989.67 578.839 993.61 584.502C993.61 584.502 997.56 600.113 1002.57 603.955C1002.57 603.955 999.09 606.773 996.77 605.23Z" fill="#DBAB71"/>
<path d="M942.36 786.4L942.33 730.63L945.44 730.7V784.67L942.36 786.4Z" fill="#543918"/>
<path d="M942.36 786.4L942.33 730.63L939.24 728.8V784.67L942.36 786.4Z" fill="#82562A"/>
<path d="M995.63 610.807C995.63 610.807 995.82 606.428 996.77 605.23C996.77 605.23 1009.38 602.997 1010.93 600.333C1010.93 600.333 1012.9 602.604 1013.29 604.943C1013.29 604.943 1009.35 613.893 995.63 610.807Z" fill="#EFC37C"/>
<path d="M979.14 624.53C979.14 624.53 989.31 614.103 997.29 609.858C997.29 609.858 1007.13 612.302 1012.41 605.163C1012.41 605.163 1019.04 603.294 1023.81 604.77C1023.81 604.77 1041.23 623.763 1027.84 657.571C1027.84 657.571 1023.29 676.794 1026.37 696.879C1026.37 696.879 1032.3 717.21 1012.48 726.23C1012.48 726.23 986.21 734.2 975.66 711.033C975.66 711.033 960.22 648.736 979.14 624.53Z" fill="#939393"/>
<path d="M1002.57 603.955C1002.57 603.955 1015.13 605.23 1015.56 588.489C1015.56 588.489 1020.12 576.989 1010.59 567.119C1010.59 567.119 1005.1 553.646 983.04 567.723C983.04 567.723 976.18 568.499 977.55 572.783C977.55 572.783 976.86 577.593 980.17 578.063C980.17 578.063 987.73 584.109 993.39 584.196C993.39 584.196 996.52 601.32 1002.57 603.955Z" fill="#593712"/>
<path d="M961.92 756.87C961.92 756.87 974.12 763.3 980.43 758.67C980.43 758.67 982.61 755.33 980.67 751.21L961.31 739.93L961.92 756.87Z" fill="#353535"/>
<path d="M981.22 625.363C983.77 625.602 986.6 626.733 988.7 629.943C988.7 629.943 1001.57 657.743 985.62 692.758C985.62 692.758 982.98 695.691 978.95 696.572C991.66 664.738 986.3 639.066 981.22 625.363Z" fill="#ADADAD"/>
<path d="M968.28 677.311C969.14 676.286 964.56 633.729 974.8 626.341C974.8 626.341 977.76 625.028 981.22 625.363C986.3 639.067 991.66 664.739 978.95 696.573C976.16 697.186 972.69 696.812 968.96 693.784C968.96 693.784 963.3 692.241 962.96 689.501C962.62 686.75 967.42 678.346 968.28 677.311Z" fill="#D8D8D8"/>
<path d="M1015.33 604.559C1015.33 604.559 1013.54 615.474 993.85 611.957L997.29 609.858C997.29 609.858 1007.81 611.928 1012.41 605.162L1015.33 604.559Z" fill="#D8D8D8"/>
<path d="M958.42 741.77C958.42 741.77 959.87 766.19 956.37 771.55L958.61 771.83L959.54 771.88C959.54 771.88 963.89 768.41 961.5 743.53L958.42 741.77Z" fill="#212121"/>
<path d="M987.01 750.73L986.99 701.728L990.09 699.907V748.99L987.01 750.73Z" fill="#543918"/>
<path d="M987.01 750.73L986.99 701.728L983.88 699.907V748.99L987.01 750.73Z" fill="#82562A"/>
<path d="M1040.35 640.35L982.18 673.986L978.53 671.878L1036.69 638.271L1040.35 640.35Z" fill="#845521"/>
<path d="M1040.36 640.35V688.743L982.19 722.27V673.986L1040.36 640.35Z" fill="#B77E34"/>
<path d="M982.19 722.27L978.53 719.9V671.878L982.19 673.996V722.27Z" fill="#9B6729"/>
<path d="M935.19 724.74V729.36L988.69 760.35V755.88L935.19 724.74Z" fill="#845521"/>
<path d="M864.867 732.99L864.848 680.77L867.953 678.949V731.24L864.867 732.99Z" fill="#898989"/>
<path d="M864.867 732.99L864.847 680.77L861.743 678.949V731.24L864.867 732.99Z" fill="#ADADAD"/>
<path d="M912.89 705.465L912.87 653.699L915.97 651.879V703.731L912.89 705.465Z" fill="#898989"/>
<path d="M912.89 705.465L912.87 653.699L909.76 651.879V703.731L912.89 705.465Z" fill="#ADADAD"/>
<path d="M910.69 645.506L910.67 596.51L913.78 594.689V643.772L910.69 645.506Z" fill="#898989"/>
<path d="M910.69 645.506L910.67 596.51L907.57 594.689V643.772L910.69 645.506Z" fill="#ADADAD"/>
<path d="M856.242 680.617C856.242 680.617 858.331 687.89 855.063 691.407C855.063 691.407 846.055 694.503 840.737 688.149V686.386C840.737 686.386 822.118 686.348 815.937 672.788C815.937 672.788 814.729 663.694 835.668 669.147L856.242 680.617Z" fill="#16171C"/>
<path d="M813.062 646.752L866.553 677.896L923.61 645.209L870.118 614.103L813.062 646.752Z" fill="#7A7A7A"/>
<path d="M836.166 693.832C836.166 693.832 838.246 701.105 834.988 704.622C834.988 704.622 825.98 707.717 820.652 701.364V699.601C820.652 699.601 802.033 699.562 795.852 686.003C795.852 686.003 794.644 676.918 815.583 682.361L836.166 693.832Z" fill="#16171C"/>
<path d="M866.553 682.361L923.61 650.451V645.209L866.553 677.895V682.361Z" fill="#515151"/>
<path d="M814.902 617.859C814.902 617.859 829.497 608.42 842.367 612.196L895.73 645.094C895.73 645.094 894.72 650.69 888.92 653.392C888.92 653.392 865.365 664.202 849.017 652.108C849.017 652.108 840.115 647.518 834.672 645.4C834.652 645.4 824.888 644.394 821.524 642.065L813.197 646.675L839.166 661.95C839.166 661.95 841.341 690.64 837.221 693.898C837.221 693.898 818.678 693.381 814.902 680.511C814.902 680.511 808.894 626.963 814.902 617.859Z" fill="#353535"/>
<path d="M874.632 527.245C874.632 527.245 870.003 531.529 865.969 529.727C865.969 529.727 855.581 521.189 858.025 500.078C858.025 500.078 867.54 500.854 871.469 506.518C871.469 506.518 875.417 522.128 880.429 525.971C880.429 525.971 876.951 528.788 874.632 527.245Z" fill="#DBAB71"/>
<path d="M820.22 708.417L820.201 652.645L823.306 652.712V706.683L820.22 708.417Z" fill="#898989"/>
<path d="M820.221 708.417L820.202 652.645L817.097 650.825V706.683L820.221 708.417Z" fill="#ADADAD"/>
<path d="M873.5 532.823C873.5 532.823 873.692 528.443 874.631 527.245C874.631 527.245 887.25 525.013 888.79 522.349C888.79 522.349 890.77 524.62 891.15 526.958C891.15 526.958 887.21 535.908 873.5 532.823Z" fill="#EFC37C"/>
<path d="M856.999 546.545C856.999 546.545 867.166 536.119 875.149 531.874C875.149 531.874 885 534.318 890.27 527.178C890.27 527.178 896.9 525.31 901.66 526.786C901.66 526.786 919.09 545.779 905.7 579.587C905.7 579.587 901.15 598.81 904.24 618.895C904.24 618.895 910.16 639.23 890.34 648.247C890.34 648.247 864.08 656.22 853.52 633.049C853.52 633.049 838.073 570.751 856.999 546.545Z" fill="#939393"/>
<path d="M880.429 525.971C880.429 525.971 893 527.245 893.42 510.504C893.42 510.504 897.98 499.005 888.45 489.135C888.45 489.135 882.959 475.661 860.899 489.738C860.899 489.738 854.038 490.515 855.409 494.798C855.409 494.798 854.728 499.609 858.025 500.078C858.025 500.078 865.585 506.125 871.249 506.211C871.249 506.211 874.382 523.336 880.429 525.971Z" fill="#593712"/>
<path d="M839.779 678.883C839.779 678.883 851.978 685.313 858.283 680.685C858.283 680.685 860.468 677.35 858.542 673.229L839.166 661.95L839.779 678.883Z" fill="#353535"/>
<path d="M859.078 547.378C861.637 547.618 864.454 548.749 866.563 551.959C866.563 551.959 879.442 579.759 863.477 614.774C863.477 614.774 860.842 617.706 856.817 618.588C869.524 586.754 864.157 561.082 859.078 547.378Z" fill="#ADADAD"/>
<path d="M846.142 599.326C847.004 598.301 842.414 555.744 852.668 548.356C852.668 548.356 855.619 547.043 859.079 547.378C864.157 561.082 869.524 586.754 856.817 618.588C854.019 619.201 850.55 618.827 846.832 615.809C846.832 615.809 841.168 614.256 840.823 611.516C840.478 608.765 845.279 600.361 846.142 599.326Z" fill="#D8D8D8"/>
<path d="M893.18 526.574C893.18 526.574 891.41 537.489 871.708 533.972L875.149 531.874C875.149 531.874 885.68 533.944 890.27 527.178L893.18 526.574Z" fill="#D8D8D8"/>
<path d="M836.291 663.79C836.291 663.79 837.738 688.206 834.23 693.563L836.482 693.841L837.402 693.898C837.402 693.898 841.763 690.43 839.357 665.543L836.291 663.79Z" fill="#212121"/>
<path d="M864.867 672.75L864.848 623.744L867.953 621.923V671.006L864.867 672.75Z" fill="#898989"/>
<path d="M864.867 672.75L864.847 623.744L861.743 621.923V671.006L864.867 672.75Z" fill="#ADADAD"/>
<path d="M918.2 562.366L860.037 596.002L856.386 593.894L914.55 560.287L918.2 562.366Z" fill="#7A7A7A"/>
<path d="M918.22 562.366V610.759L860.056 644.289V596.002L918.22 562.366Z" fill="#515151"/>
<path d="M860.056 644.289L856.386 641.912V593.893L860.056 596.011V644.289Z" fill="#686868"/>
<path d="M813.062 646.752V651.38L866.553 682.361V677.895L813.062 646.752Z" fill="#686868"/>
<path d="M741.402 652.741L741.383 600.524L744.479 598.704V650.997L741.402 652.741Z" fill="#BFAC40"/>
<path d="M741.402 652.741L741.383 600.524L738.278 598.704V650.997L741.402 652.741Z" fill="#DDCB4A"/>
<path d="M789.421 625.219L789.393 573.453L792.497 571.633V623.485L789.421 625.219Z" fill="#BFAC40"/>
<path d="M789.421 625.219L789.393 573.453L786.297 571.633V623.485L789.421 625.219Z" fill="#DDCB4A"/>
<path d="M787.227 565.26L787.198 516.263L790.303 514.443V563.525L787.227 565.26Z" fill="#BFAC40"/>
<path d="M787.227 565.26L787.199 516.263L784.094 514.443V563.525L787.227 565.26Z" fill="#DDCB4A"/>
<path d="M732.778 600.371C732.778 600.371 734.858 607.644 731.6 611.161C731.6 611.161 722.582 614.247 717.264 607.903V606.14C717.264 606.14 698.644 606.102 692.464 592.542C692.464 592.542 691.255 583.448 712.194 588.901L732.778 600.371Z" fill="#16171C"/>
<path d="M689.591 566.505L743.089 597.649L800.135 564.963L746.644 533.857L689.591 566.505Z" fill="#93822F"/>
<path d="M712.692 613.586C712.692 613.586 714.782 620.859 711.514 624.376C711.514 624.376 702.506 627.471 697.188 621.118V619.355C697.188 619.355 678.562 619.316 672.384 605.757C672.384 605.757 671.173 596.663 692.118 602.115L712.692 613.586Z" fill="#16171C"/>
<path d="M743.089 602.115L800.135 570.205V564.963L743.089 597.65V602.115Z" fill="#9E8D36"/>
<path d="M691.438 537.614C691.438 537.614 706.023 528.175 718.892 531.95L772.259 564.838C772.259 564.838 771.243 570.444 765.455 573.147C765.455 573.147 741.891 583.956 725.543 571.862C725.543 571.862 716.641 567.272 711.197 565.154C711.178 565.154 701.413 564.148 698.05 561.82L689.73 566.429L715.701 581.704C715.701 581.704 717.867 610.385 713.746 613.653C713.746 613.653 695.213 613.135 691.438 600.266C691.438 600.266 685.428 546.717 691.438 537.614Z" fill="#353535"/>
<path d="M751.167 447C751.167 447 746.529 451.283 742.495 449.481C742.495 449.481 732.117 440.943 734.561 419.832C734.561 419.832 744.067 420.609 748.005 426.272C748.005 426.272 751.944 441.882 756.965 445.725C756.965 445.725 753.477 448.542 751.167 447Z" fill="#DBAB71"/>
<path d="M696.747 628.171L696.728 572.399L699.832 572.466V626.436L696.747 628.171Z" fill="#BFAC40"/>
<path d="M696.746 628.171L696.727 572.399L693.623 570.569V626.436L696.746 628.171Z" fill="#DDCB4A"/>
<path d="M750.027 452.576C750.027 452.576 750.219 448.197 751.167 446.999C751.167 446.999 763.778 444.767 765.321 442.103C765.321 442.103 767.295 444.374 767.678 446.712C767.678 446.712 763.74 455.662 750.027 452.576Z" fill="#EFC37C"/>
<path d="M733.525 466.309C733.525 466.309 743.693 455.873 751.675 451.628C751.675 451.628 761.526 454.072 766.806 446.933C766.806 446.933 773.428 445.064 778.2 446.54C778.2 446.54 795.612 465.533 782.225 499.341C782.225 499.341 777.683 518.564 780.768 538.649C780.768 538.649 786.69 558.984 766.864 567.991C766.864 567.991 740.607 575.974 730.056 552.803C730.056 552.803 714.609 490.505 733.525 466.309Z" fill="#939393"/>
<path d="M756.965 445.725C756.965 445.725 769.528 447 769.959 430.259C769.959 430.259 774.501 418.759 764.976 408.889C764.976 408.889 759.485 395.416 737.435 409.493C737.435 409.493 730.564 410.269 731.944 414.552C731.944 414.552 731.254 419.363 734.56 419.832C734.56 419.832 742.121 425.879 747.785 425.965C747.785 425.965 750.918 443.09 756.965 445.725Z" fill="#593712"/>
<path d="M716.314 598.637C716.314 598.637 728.504 605.067 734.819 600.438C734.819 600.438 736.994 597.094 735.068 592.983L715.701 581.704L716.314 598.637Z" fill="#353535"/>
<path d="M735.614 467.132C738.163 467.372 740.981 468.503 743.098 471.713C743.098 471.713 755.968 499.513 740.003 534.528C740.003 534.528 737.378 537.46 733.343 538.342C746.05 506.508 740.684 480.836 735.614 467.132Z" fill="#ADADAD"/>
<path d="M722.668 519.081C723.531 518.055 718.95 475.498 729.194 468.1C729.194 468.1 732.155 466.797 735.614 467.132C740.684 480.836 746.05 506.508 733.343 538.342C730.555 538.955 727.086 538.581 723.358 535.553C723.358 535.553 717.695 534.01 717.35 531.27C717.005 528.52 721.815 520.115 722.668 519.081Z" fill="#D8D8D8"/>
<path d="M769.71 446.328C769.71 446.328 767.937 457.243 748.235 453.726L751.675 451.628C751.675 451.628 762.206 453.688 766.806 446.932L769.71 446.328Z" fill="#D8D8D8"/>
<path d="M712.817 583.534C712.817 583.534 714.264 607.961 710.757 613.317L713.009 613.586L713.938 613.653C713.938 613.653 718.289 610.184 715.884 585.297L712.817 583.534Z" fill="#212121"/>
<path d="M741.402 592.504L741.383 543.497L744.479 541.677V590.76L741.402 592.504Z" fill="#BFAC40"/>
<path d="M741.402 592.504L741.383 543.497L738.278 541.677V590.76L741.402 592.504Z" fill="#DDCB4A"/>
<path d="M794.74 482.12L736.572 515.755L732.921 513.647L791.089 480.041L794.74 482.12Z" fill="#BFAC40"/>
<path d="M794.749 482.12V530.513L736.582 564.043V515.755L794.749 482.12Z" fill="#93822F"/>
<path d="M736.582 564.043L732.921 561.666V513.647L736.582 515.755V564.043Z" fill="#DDCB4A"/>
<path d="M689.591 566.506V571.134L743.089 602.115V597.65L689.591 566.506Z" fill="#BAA83E"/>
<path d="M1120 888.05L1119.98 835.83L1123.07 834.01V886.3L1120 888.05Z" fill="#BFAC40"/>
<path d="M1120 888.05L1119.98 835.83L1116.87 834.01V886.3L1120 888.05Z" fill="#DDCB4A"/>
<path d="M1168.02 860.52L1167.99 808.76L1171.09 806.94V858.79L1168.02 860.52Z" fill="#BFAC40"/>
<path d="M1168.02 860.52L1167.99 808.76L1164.89 806.94V858.79L1168.02 860.52Z" fill="#DDCB4A"/>
<path d="M1165.82 800.56L1165.79 751.57L1168.9 749.75V798.83L1165.82 800.56Z" fill="#BFAC40"/>
<path d="M1165.82 800.56L1165.79 751.57L1162.7 749.75V798.83L1165.82 800.56Z" fill="#DDCB4A"/>
<path d="M1111.37 835.67C1111.37 835.67 1113.45 842.95 1110.19 846.47C1110.19 846.47 1101.18 849.55 1095.86 843.21V841.44C1095.86 841.44 1077.24 841.41 1071.06 827.85C1071.06 827.85 1069.85 818.75 1090.8 824.21L1111.37 835.67Z" fill="#16171C"/>
<path d="M1068.18 801.81L1121.68 832.95L1178.73 800.27L1125.24 769.16L1068.18 801.81Z" fill="#93822F"/>
<path d="M1091.29 848.89C1091.29 848.89 1093.38 856.16 1090.11 859.68C1090.11 859.68 1081.1 862.78 1075.78 856.42V854.66C1075.78 854.66 1057.15 854.62 1050.98 841.06C1050.98 841.06 1049.77 831.98 1070.71 837.42L1091.29 848.89Z" fill="#16171C"/>
<path d="M1121.68 837.42L1178.73 805.51V800.27L1121.68 832.95V837.42Z" fill="#9E8D36"/>
<path d="M1070.03 772.92C1070.03 772.92 1084.62 763.48 1097.49 767.25L1150.85 800.15C1150.85 800.15 1149.84 805.75 1144.05 808.45C1144.05 808.45 1120.49 819.26 1104.14 807.16C1104.14 807.16 1095.25 802.58 1089.79 800.46C1089.77 800.46 1080.01 799.45 1076.65 797.12L1068.33 801.73L1094.3 817.01C1094.3 817.01 1096.46 845.69 1092.34 848.96C1092.34 848.96 1073.81 848.44 1070.03 835.57C1070.03 835.57 1064.02 782.02 1070.03 772.92Z" fill="#353535"/>
<path d="M1129.76 682.303C1129.76 682.303 1125.12 686.587 1121.09 684.785C1121.09 684.785 1110.71 676.247 1113.16 655.136C1113.16 655.136 1122.66 655.913 1126.6 661.576C1126.6 661.576 1130.54 677.186 1135.56 681.029C1135.56 681.029 1132.07 683.846 1129.76 682.303Z" fill="#DBAB71"/>
<path d="M1075.34 863.48L1075.32 807.7L1078.43 807.77V861.74L1075.34 863.48Z" fill="#BFAC40"/>
<path d="M1075.34 863.48L1075.32 807.7L1072.22 805.87V861.74L1075.34 863.48Z" fill="#DDCB4A"/>
<path d="M1128.62 687.881C1128.62 687.881 1128.81 683.501 1129.76 682.303C1129.76 682.303 1142.37 680.071 1143.92 677.407C1143.92 677.407 1145.89 679.678 1146.27 682.016C1146.27 682.016 1142.33 690.966 1128.62 687.881Z" fill="#EFC37C"/>
<path d="M1112.12 701.603C1112.12 701.603 1122.3 691.177 1130.27 686.932C1130.27 686.932 1140.12 689.376 1145.4 682.237C1145.4 682.237 1152.03 680.368 1156.8 681.844C1156.8 681.844 1174.21 700.837 1160.82 734.64C1160.82 734.64 1156.28 753.87 1159.36 773.95C1159.36 773.95 1165.29 794.29 1145.46 803.3C1145.46 803.3 1119.2 811.28 1108.65 788.11C1108.65 788.11 1093.2 725.81 1112.12 701.603Z" fill="#939393"/>
<path d="M1135.56 681.029C1135.56 681.029 1148.12 682.304 1148.55 665.563C1148.55 665.563 1153.1 654.063 1143.57 644.193C1143.57 644.193 1138.08 630.72 1116.03 644.797C1116.03 644.797 1109.16 645.573 1110.54 649.857C1110.54 649.857 1109.85 654.667 1113.16 655.137C1113.16 655.137 1120.72 661.183 1126.38 661.27C1126.38 661.27 1129.51 678.394 1135.56 681.029Z" fill="#593712"/>
<path d="M1094.91 833.94C1094.91 833.94 1107.1 840.37 1113.41 835.74C1113.41 835.74 1115.59 832.4 1113.66 828.29L1094.3 817.01L1094.91 833.94Z" fill="#353535"/>
<path d="M1114.21 702.437C1116.76 702.677 1119.58 703.807 1121.69 707.018C1121.69 707.018 1134.56 734.82 1118.6 769.83C1118.6 769.83 1115.97 772.76 1111.94 773.65C1124.65 741.81 1119.28 716.14 1114.21 702.437Z" fill="#ADADAD"/>
<path d="M1101.26 754.39C1102.13 753.36 1097.55 710.803 1107.79 703.415C1107.79 703.415 1110.75 702.102 1114.21 702.437C1119.28 716.14 1124.65 741.81 1111.94 773.65C1109.15 774.26 1105.68 773.89 1101.95 770.86C1101.95 770.86 1096.29 769.32 1095.94 766.57C1095.6 763.82 1100.41 755.41 1101.26 754.39Z" fill="#D8D8D8"/>
<path d="M1148.31 681.633C1148.31 681.633 1146.53 692.548 1126.83 689.031L1130.27 686.932C1130.27 686.932 1140.8 689.002 1145.4 682.237L1148.31 681.633Z" fill="#D8D8D8"/>
<path d="M1091.41 818.85C1091.41 818.85 1092.86 843.27 1089.36 848.62L1091.6 848.89L1092.53 848.96C1092.53 848.96 1096.88 845.49 1094.49 820.6L1091.41 818.85Z" fill="#212121"/>
<path d="M1120 827.81L1119.98 778.8L1123.07 776.98V826.06L1120 827.81Z" fill="#BFAC40"/>
<path d="M1120 827.81L1119.98 778.8L1116.87 776.98V826.06L1120 827.81Z" fill="#DDCB4A"/>
<path d="M1173.34 717.42L1115.17 751.06L1111.52 748.95L1169.68 715.35L1173.34 717.42Z" fill="#BFAC40"/>
<path d="M1173.35 717.42V765.82L1115.18 799.35V751.06L1173.35 717.42Z" fill="#93822F"/>
<path d="M1115.18 799.35L1111.52 796.97V748.95L1115.18 751.06V799.35Z" fill="#DDCB4A"/>
<path d="M1068.18 801.81V806.44L1121.68 837.42V832.95L1068.18 801.81Z" fill="#BAA83E"/>
<path d="M855.773 889.44L855.753 837.23L858.849 835.41V887.7L855.773 889.44Z" fill="#543918"/>
<path d="M855.772 889.44L855.753 837.23L852.648 835.41V887.7L855.772 889.44Z" fill="#82562A"/>
<path d="M903.79 861.92L903.76 810.16L906.87 808.34V860.19L903.79 861.92Z" fill="#543918"/>
<path d="M903.79 861.92L903.76 810.16L900.67 808.34V860.19L903.79 861.92Z" fill="#82562A"/>
<path d="M901.6 801.96L901.57 752.97L904.67 751.15V800.23L901.6 801.96Z" fill="#543918"/>
<path d="M901.6 801.96L901.57 752.97L898.46 751.15V800.23L901.6 801.96Z" fill="#82562A"/>
<path d="M847.148 837.07C847.148 837.07 849.227 844.35 845.969 847.86C845.969 847.86 836.961 850.95 831.633 844.61V842.84C831.633 842.84 813.014 842.81 806.833 829.25C806.833 829.25 805.626 820.15 826.564 825.6L847.148 837.07Z" fill="#16171C"/>
<path d="M803.958 803.21L857.459 834.35L914.51 801.67L861.014 770.56L803.958 803.21Z" fill="#CC8C40"/>
<path d="M827.062 850.29C827.062 850.29 829.151 857.56 825.884 861.08C825.884 861.08 816.876 864.17 811.557 857.82V856.06C811.557 856.06 792.929 856.02 786.757 842.46C786.757 842.46 785.54 833.37 806.488 838.82L827.062 850.29Z" fill="#16171C"/>
<path d="M857.459 838.82L914.51 806.91V801.67L857.459 834.35V838.82Z" fill="#9B6729"/>
<path d="M805.808 774.32C805.808 774.32 820.393 764.88 833.263 768.65L886.63 801.54C886.63 801.54 885.61 807.15 879.825 809.85C879.825 809.85 856.261 820.66 839.913 808.56C839.913 808.56 831.02 803.98 825.568 801.86C825.549 801.86 815.784 800.85 812.42 798.52L804.102 803.13L830.072 818.41C830.072 818.41 832.237 847.09 828.117 850.36C828.117 850.36 809.584 849.84 805.808 836.97C805.808 836.97 799.8 783.42 805.808 774.32Z" fill="#353535"/>
<path d="M865.537 683.693C865.537 683.693 860.899 687.986 856.865 686.185C856.865 686.185 846.487 677.647 848.93 656.536C848.93 656.536 858.436 657.312 862.375 662.976C862.375 662.976 866.313 678.586 871.335 682.429C871.335 682.429 867.846 685.246 865.537 683.693Z" fill="#DBAB71"/>
<path d="M811.126 864.87L811.098 809.1L814.202 809.17V863.14L811.126 864.87Z" fill="#543918"/>
<path d="M811.127 864.87L811.098 809.1L807.993 807.27V863.14L811.127 864.87Z" fill="#82562A"/>
<path d="M864.397 689.28C864.397 689.28 864.589 684.9 865.537 683.693C865.537 683.693 878.148 681.47 879.691 678.806C879.691 678.806 881.665 681.077 882.048 683.415C882.048 683.415 878.11 692.365 864.397 689.28Z" fill="#EFC37C"/>
<path d="M847.896 703.002C847.896 703.002 858.063 692.576 866.046 688.331C866.046 688.331 875.897 690.775 881.177 683.636C881.177 683.636 887.81 681.767 892.57 683.243C892.57 683.243 909.99 702.236 896.6 736.04C896.6 736.04 892.05 755.27 895.14 775.35C895.14 775.35 901.06 795.69 881.234 804.69C881.234 804.69 854.978 812.68 844.427 789.51C844.427 789.51 828.98 727.21 847.896 703.002Z" fill="#939393"/>
<path d="M871.335 682.428C871.335 682.428 883.9 683.693 884.33 666.962C884.33 666.962 888.88 655.462 879.346 645.592C879.346 645.592 873.855 632.119 851.805 646.196C851.805 646.196 844.935 646.972 846.314 651.256C846.314 651.256 845.625 656.066 848.931 656.536C848.931 656.536 856.491 662.582 862.155 662.669C862.155 662.669 865.288 679.793 871.335 682.428Z" fill="#593712"/>
<path d="M830.685 835.34C830.685 835.34 842.874 841.77 849.189 837.14C849.189 837.14 851.365 833.8 849.438 829.69L830.072 818.41L830.685 835.34Z" fill="#353535"/>
<path d="M849.985 703.836C852.534 704.076 855.351 705.206 857.469 708.417C857.469 708.417 870.338 736.22 854.373 771.23C854.373 771.23 851.748 774.16 847.713 775.05C860.42 743.21 855.054 717.54 849.985 703.836Z" fill="#ADADAD"/>
<path d="M837.038 755.78C837.901 754.75 833.32 712.202 843.564 704.804C843.564 704.804 846.525 703.501 849.985 703.836C855.054 717.54 860.42 743.21 847.713 775.05C844.925 775.66 841.456 775.29 837.728 772.26C837.728 772.26 832.065 770.71 831.72 767.97C831.375 765.22 836.185 756.81 837.038 755.78Z" fill="#D8D8D8"/>
<path d="M884.09 683.022C884.09 683.022 882.307 693.947 862.605 690.43L866.045 688.331C866.045 688.331 876.577 690.391 881.176 683.636L884.09 683.022Z" fill="#D8D8D8"/>
<path d="M827.187 820.24C827.187 820.24 828.634 844.66 825.127 850.02L827.379 850.29L828.308 850.36C828.308 850.36 832.659 846.88 830.263 822L827.187 820.24Z" fill="#212121"/>
<path d="M855.773 829.21L855.753 780.2L858.849 778.38V827.46L855.773 829.21Z" fill="#543918"/>
<path d="M855.772 829.21L855.753 780.2L852.648 778.38V827.46L855.772 829.21Z" fill="#82562A"/>
<path d="M909.11 718.82L850.943 752.46L847.292 750.35L905.46 716.74L909.11 718.82Z" fill="#845521"/>
<path d="M909.12 718.82V767.22L850.952 800.75V752.46L909.12 718.82Z" fill="#B77E34"/>
<path d="M850.952 800.75L847.292 798.37V750.35L850.952 752.46V800.75Z" fill="#9B6729"/>
<path d="M803.958 803.21V807.84L857.459 838.82V834.35L803.958 803.21Z" fill="#845521"/>
<path d="M733.631 811.46L733.611 759.24L736.716 757.42V809.72L733.631 811.46Z" fill="#898989"/>
<path d="M733.631 811.46L733.612 759.24L730.507 757.42V809.72L733.631 811.46Z" fill="#ADADAD"/>
<path d="M781.65 783.94L781.631 732.17L784.736 730.35V782.2L781.65 783.94Z" fill="#898989"/>
<path d="M781.65 783.94L781.631 732.17L778.526 730.35V782.2L781.65 783.94Z" fill="#ADADAD"/>
<path d="M779.456 723.98L779.437 674.982L782.532 673.162V722.24L779.456 723.98Z" fill="#898989"/>
<path d="M779.456 723.98L779.436 674.982L776.332 673.162V722.24L779.456 723.98Z" fill="#ADADAD"/>
<path d="M725.006 759.08C725.006 759.08 727.095 766.36 723.828 769.88C723.828 769.88 714.82 772.97 709.502 766.62V764.86C709.502 764.86 690.876 764.82 684.698 751.26C684.698 751.26 683.487 742.17 704.432 747.62L725.006 759.08Z" fill="#16171C"/>
<path d="M681.824 725.22L735.317 756.37L792.373 723.68L738.873 692.577L681.824 725.22Z" fill="#7A7A7A"/>
<path d="M704.931 772.31C704.931 772.31 707.01 779.58 703.752 783.1C703.752 783.1 694.735 786.19 689.417 779.84V778.07C689.417 778.07 670.795 778.04 664.616 764.48C664.616 764.48 663.407 755.38 684.35 760.83L704.931 772.31Z" fill="#16171C"/>
<path d="M735.317 760.83L792.373 728.92V723.68L735.317 756.37V760.83Z" fill="#515151"/>
<path d="M683.667 696.333C683.667 696.333 698.261 686.894 711.13 690.67L764.497 723.56C764.497 723.56 763.481 729.16 757.683 731.87C757.683 731.87 734.129 742.68 717.781 730.57C717.781 730.57 708.878 725.99 703.426 723.87C703.406 723.87 693.651 722.87 690.282 720.54L681.962 725.15L707.93 740.42C707.93 740.42 710.095 769.1 705.975 772.37C705.975 772.37 687.443 771.85 683.667 758.98C683.667 758.98 677.66 705.437 683.667 696.333Z" fill="#353535"/>
<path d="M743.396 605.718C743.396 605.718 738.758 610.002 734.733 608.2C734.733 608.2 724.345 599.662 726.789 578.551C726.789 578.551 736.304 579.327 740.233 584.991C740.233 584.991 744.181 600.601 749.193 604.444C749.193 604.444 745.715 607.261 743.396 605.718Z" fill="#DBAB71"/>
<path d="M688.984 786.89L688.962 731.12L692.061 731.19V785.16L688.984 786.89Z" fill="#898989"/>
<path d="M688.984 786.89L688.962 731.12L685.859 729.29V785.16L688.984 786.89Z" fill="#ADADAD"/>
<path d="M742.265 611.296C742.265 611.296 742.456 606.916 743.395 605.719C743.395 605.719 756.006 603.486 757.559 600.822C757.559 600.822 759.523 603.093 759.916 605.431C759.916 605.431 755.968 614.381 742.265 611.296Z" fill="#EFC37C"/>
<path d="M725.764 625.018C725.764 625.018 735.931 614.592 743.913 610.347C743.913 610.347 753.755 612.791 759.035 605.651C759.035 605.651 765.666 603.783 770.429 605.258C770.429 605.258 787.85 624.251 774.463 658.059C774.463 658.059 769.911 677.282 773.007 697.368C773.007 697.368 778.919 717.7 759.102 726.71C759.102 726.71 732.845 734.69 722.285 711.522C722.285 711.522 706.838 649.224 725.764 625.018Z" fill="#939393"/>
<path d="M749.193 604.444C749.193 604.444 761.756 605.718 762.187 588.977C762.187 588.977 766.739 577.478 757.214 567.608C757.214 567.608 751.723 554.134 729.664 568.211C729.664 568.211 722.802 568.988 724.173 573.271C724.173 573.271 723.483 578.082 726.789 578.551C726.789 578.551 734.35 584.598 740.013 584.684C740.013 584.684 743.147 601.809 749.193 604.444Z" fill="#593712"/>
<path d="M708.543 757.36C708.543 757.36 720.742 763.79 727.047 759.16C727.047 759.16 729.232 755.81 727.296 751.7L707.93 740.42L708.543 757.36Z" fill="#353535"/>
<path d="M727.843 625.852C730.392 626.091 733.219 627.222 735.327 630.432C735.327 630.432 748.206 658.232 732.241 693.247C732.241 693.247 729.606 696.179 725.581 697.061C738.278 665.227 732.921 639.555 727.843 625.852Z" fill="#ADADAD"/>
<path d="M714.906 677.8C715.759 676.765 711.178 634.217 721.422 626.82C721.422 626.82 724.383 625.516 727.843 625.852C732.922 639.555 738.278 665.227 725.581 697.061C722.783 697.674 719.314 697.301 715.596 694.273C715.596 694.273 709.923 692.73 709.588 689.989C709.243 687.239 714.044 678.825 714.906 677.8Z" fill="#D8D8D8"/>
<path d="M761.948 605.038C761.948 605.038 760.175 615.963 740.473 612.446L743.913 610.347C743.913 610.347 754.435 612.407 759.035 605.652L761.948 605.038Z" fill="#D8D8D8"/>
<path d="M705.045 742.25C705.045 742.25 706.502 766.68 702.995 772.04L705.237 772.3L706.167 772.37C706.167 772.37 710.517 768.9 708.121 744.02L705.045 742.25Z" fill="#212121"/>
<path d="M733.631 751.22L733.611 702.217L736.716 700.396V749.48L733.631 751.22Z" fill="#898989"/>
<path d="M733.631 751.22L733.612 702.217L730.507 700.396V749.48L733.631 751.22Z" fill="#ADADAD"/>
<path d="M786.968 640.839L728.801 674.475L725.15 672.366L783.317 638.76L786.968 640.839Z" fill="#7A7A7A"/>
<path d="M786.988 640.839V689.232L728.82 722.76V674.475L786.988 640.839Z" fill="#515151"/>
<path d="M728.82 722.76L725.15 720.39V672.367L728.82 674.475V722.76Z" fill="#686868"/>
<path d="M681.824 725.22V729.85L735.317 760.83V756.37L681.824 725.22Z" fill="#686868"/>
<path d="M610.163 731.21L610.141 678.998L613.244 677.177V729.47L610.163 731.21Z" fill="#BFAC40"/>
<path d="M610.163 731.21L610.141 678.998L607.038 677.177V729.47L610.163 731.21Z" fill="#DDCB4A"/>
<path d="M658.18 703.693L658.158 651.927L661.262 650.106V701.958L658.18 703.693Z" fill="#BFAC40"/>
<path d="M658.18 703.693L658.158 651.927L655.056 650.106V701.958L658.18 703.693Z" fill="#DDCB4A"/>
<path d="M655.984 643.733L655.962 594.736L659.065 592.916V641.998L655.984 643.733Z" fill="#BFAC40"/>
<path d="M655.984 643.733L655.962 594.736L652.86 592.916V641.998L655.984 643.733Z" fill="#DDCB4A"/>
<path d="M601.538 678.835C601.538 678.835 603.62 686.118 600.359 689.634C600.359 689.634 591.349 692.72 586.028 686.376V684.613C586.028 684.613 567.406 684.575 561.228 671.015C561.228 671.015 560.018 661.921 580.961 667.374L601.538 678.835Z" fill="#16171C"/>
<path d="M558.354 644.979L611.846 676.123L668.899 643.436L615.406 612.331L558.354 644.979Z" fill="#93822F"/>
<path d="M581.457 692.059C581.457 692.059 583.539 699.332 580.278 702.849C580.278 702.849 571.267 705.944 565.947 699.591V697.828C565.947 697.828 547.325 697.79 541.145 684.23C541.145 684.23 539.936 675.136 560.879 680.588L581.457 692.059Z" fill="#16171C"/>
<path d="M611.847 680.589L668.9 648.668V643.436L611.847 676.123V680.589Z" fill="#9E8D36"/>
<path d="M560.197 616.087C560.197 616.087 574.785 606.648 587.659 610.423L641.023 643.311C641.023 643.311 640.007 648.917 634.214 651.62C634.214 651.62 610.657 662.429 594.309 650.326C594.309 650.326 585.408 645.745 579.959 643.628C579.939 643.628 570.177 642.622 566.812 640.293L558.493 644.902L584.462 660.177C584.462 660.177 586.628 688.858 582.51 692.126C582.51 692.126 563.973 691.609 560.197 678.739C560.197 678.739 554.19 625.181 560.197 616.087Z" fill="#353535"/>
<path d="M619.926 525.463C619.926 525.463 615.291 529.756 611.258 527.954C611.258 527.954 600.874 519.416 603.32 498.305C603.32 498.305 612.83 499.082 616.763 504.745C616.763 504.745 620.708 520.355 625.723 524.198C625.723 524.198 622.243 527.015 619.926 525.463Z" fill="#DBAB71"/>
<path d="M565.514 706.644L565.492 650.872L568.595 650.939V704.909L565.514 706.644Z" fill="#BFAC40"/>
<path d="M565.514 706.644L565.492 650.872L562.389 649.042V704.909L565.514 706.644Z" fill="#DDCB4A"/>
<path d="M618.791 531.04C618.791 531.04 618.982 526.67 619.926 525.463C619.926 525.463 632.54 523.23 634.085 520.576C634.085 520.576 636.057 522.847 636.444 525.185C636.444 525.185 632.502 534.135 618.791 531.04Z" fill="#EFC37C"/>
<path d="M602.291 544.773C602.291 544.773 612.459 534.346 620.44 530.101C620.44 530.101 630.288 532.545 635.566 525.406C635.566 525.406 642.195 523.537 646.958 525.013C646.958 525.013 664.379 544.006 650.991 577.814C650.991 577.814 646.443 597.037 649.532 617.122C649.532 617.122 655.454 637.457 635.63 646.465C635.63 646.465 609.37 654.447 598.815 631.276C598.815 631.276 583.368 568.979 602.291 544.773Z" fill="#939393"/>
<path d="M625.723 524.198C625.723 524.198 638.29 525.463 638.719 508.732C638.719 508.732 643.267 497.232 633.742 487.362C633.742 487.362 628.249 473.889 606.195 487.966C606.195 487.966 599.329 488.732 600.703 493.025C600.703 493.025 600.016 497.836 603.32 498.306C603.32 498.306 610.88 504.352 616.545 504.439C616.545 504.439 619.678 521.563 625.723 524.198Z" fill="#593712"/>
<path d="M585.075 677.11C585.075 677.11 597.27 683.54 603.578 678.912C603.578 678.912 605.761 675.567 603.831 671.447L584.462 660.177L585.075 677.11Z" fill="#353535"/>
<path d="M604.375 545.606C606.925 545.846 609.747 546.976 611.859 550.187C611.859 550.187 624.731 577.986 608.769 613.002C608.769 613.002 606.135 615.934 602.107 616.815C614.812 584.982 609.448 559.309 604.375 545.606Z" fill="#ADADAD"/>
<path d="M591.435 597.554C592.293 596.519 587.71 553.971 597.957 546.573C597.957 546.573 600.916 545.27 604.375 545.606C609.448 559.309 614.813 584.981 602.108 616.815C599.313 617.428 595.847 617.055 592.121 614.026C592.121 614.026 586.457 612.484 586.114 609.743C585.771 606.993 590.577 598.579 591.435 597.554Z" fill="#D8D8D8"/>
<path d="M638.476 524.792C638.476 524.792 636.702 535.716 617 532.2L620.44 530.101C620.44 530.101 630.968 532.161 635.566 525.405L638.476 524.792Z" fill="#D8D8D8"/>
<path d="M581.579 662.007C581.579 662.007 583.028 686.434 579.523 691.791L581.77 692.059L582.698 692.126C582.698 692.126 587.051 688.647 584.651 663.771L581.579 662.007Z" fill="#212121"/>
<path d="M610.163 670.977L610.141 621.971L613.244 620.15V669.233L610.163 670.977Z" fill="#BFAC40"/>
<path d="M610.163 670.977L610.141 621.971L607.038 620.15V669.233L610.163 670.977Z" fill="#DDCB4A"/>
<path d="M663.5 560.593L605.332 594.229L601.68 592.121L659.847 558.514L663.5 560.593Z" fill="#BFAC40"/>
<path d="M663.513 560.593V608.986L605.346 642.516V594.229L663.513 560.593Z" fill="#93822F"/>
<path d="M605.346 642.516L601.68 640.14V592.12L605.346 594.229V642.516Z" fill="#DDCB4A"/>
<path d="M558.354 644.979V649.608L611.846 680.589V676.123L558.354 644.979Z" fill="#BAA83E"/>
<path d="M988.76 966.52L988.73 914.3L991.84 912.48V964.77L988.76 966.52Z" fill="#BFAC40"/>
<path d="M988.76 966.52L988.73 914.3L985.64 912.48V964.77L988.76 966.52Z" fill="#DDCB4A"/>
<path d="M1036.77 939L1036.75 887.23L1039.86 885.41V937.26L1036.77 939Z" fill="#BFAC40"/>
<path d="M1036.77 939L1036.75 887.23L1033.65 885.41V937.26L1036.77 939Z" fill="#DDCB4A"/>
<path d="M1034.58 879.04L1034.56 830.04L1037.66 828.22V877.3L1034.58 879.04Z" fill="#BFAC40"/>
<path d="M1034.58 879.04L1034.56 830.04L1031.45 828.22V877.3L1034.58 879.04Z" fill="#DDCB4A"/>
<path d="M980.14 914.14C980.14 914.14 982.22 921.42 978.96 924.94C978.96 924.94 969.94 928.02 964.62 921.68V919.92C964.62 919.92 946 919.88 939.82 906.32C939.82 906.32 938.62 897.23 959.55 902.67L980.14 914.14Z" fill="#16171C"/>
<path d="M936.95 880.28L990.44 911.43L1047.49 878.74L994 847.64L936.95 880.28Z" fill="#93822F"/>
<path d="M960.05 927.36C960.05 927.36 962.13 934.64 958.87 938.15C958.87 938.15 949.87 941.24 944.55 934.9V933.13C944.55 933.13 925.92 933.09 919.74 919.53C919.74 919.53 918.53 910.44 939.48 915.89L960.05 927.36Z" fill="#16171C"/>
<path d="M990.44 915.89L1047.49 883.97V878.74L990.44 911.43V915.89Z" fill="#9E8D36"/>
<path d="M938.8 851.39C938.8 851.39 953.38 841.95 966.25 845.73L1019.62 878.62C1019.62 878.62 1018.6 884.22 1012.81 886.92C1012.81 886.92 989.25 897.73 972.9 885.63C972.9 885.63 964 881.05 958.56 878.93C958.54 878.93 948.77 877.93 945.41 875.6L937.09 880.21L963.06 895.48C963.06 895.48 965.23 924.16 961.11 927.43C961.11 927.43 942.57 926.91 938.8 914.04C938.8 914.04 932.79 860.49 938.8 851.39Z" fill="#353535"/>
<path d="M998.53 760.77C998.53 760.77 993.89 765.06 989.85 763.26C989.85 763.26 979.47 754.72 981.92 733.61C981.92 733.61 991.43 734.39 995.36 740.05C995.36 740.05 999.3 755.66 1004.31 759.5C1004.31 759.5 1000.84 762.32 998.53 760.77Z" fill="#DBAB71"/>
<path d="M944.11 941.95L944.09 886.18L947.19 886.24V940.21L944.11 941.95Z" fill="#BFAC40"/>
<path d="M944.11 941.95L944.09 886.18L940.98 884.35V940.21L944.11 941.95Z" fill="#DDCB4A"/>
<path d="M997.39 766.35C997.39 766.35 997.58 761.97 998.53 760.77C998.53 760.77 1011.14 758.54 1012.68 755.88C1012.68 755.88 1014.65 758.15 1015.04 760.49C1015.04 760.49 1011.1 769.44 997.39 766.35Z" fill="#EFC37C"/>
<path d="M980.89 780.08C980.89 780.08 991.05 769.65 999.03 765.41C999.03 765.41 1008.89 767.85 1014.17 760.71C1014.17 760.71 1020.79 758.84 1025.55 760.32C1025.55 760.32 1042.97 779.31 1029.58 813.12C1029.58 813.12 1025.04 832.34 1028.13 852.43C1028.13 852.43 1034.05 872.76 1014.22 881.77C1014.22 881.77 987.97 889.75 977.41 866.58C977.41 866.58 961.96 804.28 980.89 780.08Z" fill="#939393"/>
<path d="M1004.31 759.5C1004.31 759.5 1016.89 760.77 1017.32 744.04C1017.32 744.04 1021.86 732.54 1012.34 722.67C1012.34 722.67 1006.84 709.193 984.79 723.27C984.79 723.27 977.92 724.04 979.29 728.33C979.29 728.33 978.61 733.14 981.92 733.61C981.92 733.61 989.48 739.66 995.14 739.74C995.14 739.74 998.28 756.87 1004.31 759.5Z" fill="#593712"/>
<path d="M963.67 912.4C963.67 912.4 975.86 918.84 982.17 914.21C982.17 914.21 984.35 910.87 982.43 906.75L963.06 895.48L963.67 912.4Z" fill="#353535"/>
<path d="M982.97 780.91C985.52 781.15 988.34 782.28 990.46 785.48C990.46 785.48 1003.33 813.29 987.36 848.31C987.36 848.31 984.73 851.24 980.7 852.12C993.41 820.29 988.04 794.61 982.97 780.91Z" fill="#ADADAD"/>
<path d="M970.03 832.86C970.89 831.82 966.31 789.28 976.55 781.88C976.55 781.88 979.51 780.57 982.97 780.91C988.04 794.61 993.41 820.29 980.7 852.12C977.9 852.73 974.45 852.36 970.72 849.33C970.72 849.33 965.05 847.79 964.71 845.05C964.36 842.3 969.17 833.88 970.03 832.86Z" fill="#D8D8D8"/>
<path d="M1017.07 760.1C1017.07 760.1 1015.3 771.02 995.59 767.5L999.03 765.41C999.03 765.41 1009.57 767.47 1014.17 760.71L1017.07 760.1Z" fill="#D8D8D8"/>
<path d="M960.18 897.31C960.18 897.31 961.62 921.74 958.12 927.1L960.37 927.36L961.3 927.43C961.3 927.43 965.65 923.95 963.24 899.08L960.18 897.31Z" fill="#212121"/>
<path d="M988.76 906.28L988.73 857.28L991.84 855.45V904.54L988.76 906.28Z" fill="#BFAC40"/>
<path d="M988.76 906.28L988.73 857.28L985.64 855.45V904.54L988.76 906.28Z" fill="#DDCB4A"/>
<path d="M1042.1 795.9L983.93 829.53L980.27 827.42L1038.45 793.82L1042.1 795.9Z" fill="#BFAC40"/>
<path d="M1042.11 795.9V844.29L983.94 877.82V829.53L1042.11 795.9Z" fill="#93822F"/>
<path d="M983.94 877.82L980.27 875.43V827.42L983.94 829.53V877.82Z" fill="#DDCB4A"/>
<path d="M936.95 880.28V884.91L990.44 915.89V911.43L936.95 880.28Z" fill="#BAA83E"/>
<path d="M721.815 968.5L721.796 916.29L724.901 914.47V966.76L721.815 968.5Z" fill="#543918"/>
<path d="M721.815 968.5L721.796 916.29L718.691 914.47V966.76L721.815 968.5Z" fill="#82562A"/>
<path d="M769.835 940.98L769.815 889.21L772.92 887.39V939.25L769.835 940.98Z" fill="#543918"/>
<path d="M769.834 940.98L769.815 889.21L766.71 887.39V939.25L769.834 940.98Z" fill="#82562A"/>
<path d="M767.64 881.02L767.621 832.02L770.726 830.2V879.29L767.64 881.02Z" fill="#543918"/>
<path d="M767.64 881.02L767.621 832.02L764.516 830.2V879.29L767.64 881.02Z" fill="#82562A"/>
<path d="M713.191 916.12C713.191 916.12 715.28 923.41 712.012 926.92C712.012 926.92 703.005 930.01 697.686 923.66V921.9C697.686 921.9 679.062 921.86 672.884 908.3C672.884 908.3 671.674 899.21 692.617 904.66L713.191 916.12Z" fill="#16171C"/>
<path d="M670.01 882.27L723.502 913.41L780.557 880.72L727.066 849.62L670.01 882.27Z" fill="#CC8C40"/>
<path d="M693.115 929.35C693.115 929.35 695.194 936.62 691.936 940.14C691.936 940.14 682.924 943.23 677.603 936.88V935.12C677.603 935.12 658.981 935.08 652.802 921.52C652.802 921.52 651.593 912.42 672.536 917.88L693.115 929.35Z" fill="#16171C"/>
<path d="M723.502 917.88L780.558 885.97V880.72L723.502 913.41V917.88Z" fill="#9B6729"/>
<path d="M671.854 853.37C671.854 853.37 686.442 843.94 699.315 847.71L752.681 880.6C752.681 880.6 751.665 886.21 745.868 888.91C745.868 888.91 722.313 899.72 705.965 887.61C705.965 887.61 697.063 883.03 691.62 880.92C691.591 880.92 681.833 879.91 678.469 877.58L670.149 882.19L696.114 897.47C696.114 897.47 698.29 926.15 694.169 929.41C694.169 929.41 675.629 928.9 671.854 916.03C671.854 916.03 665.846 862.48 671.854 853.37Z" fill="#353535"/>
<path d="M731.58 762.75C731.58 762.75 726.952 767.04 722.917 765.24C722.917 765.24 712.53 756.7 714.973 735.59C714.973 735.59 724.489 736.37 728.418 742.03C728.418 742.03 732.366 757.64 737.378 761.49C737.378 761.49 733.899 764.3 731.58 762.75Z" fill="#DBAB71"/>
<path d="M677.17 943.93L677.148 888.16L680.251 888.23V942.2L677.17 943.93Z" fill="#543918"/>
<path d="M677.17 943.93L677.148 888.16L674.045 886.33V942.2L677.17 943.93Z" fill="#82562A"/>
<path d="M730.449 768.34C730.449 768.34 730.641 763.96 731.58 762.75C731.58 762.75 744.201 760.53 745.743 757.86C745.743 757.86 747.717 760.13 748.101 762.47C748.101 762.47 744.162 771.42 730.449 768.34Z" fill="#EFC37C"/>
<path d="M713.948 782.06C713.948 782.06 724.115 771.63 732.097 767.39C732.097 767.39 741.948 769.83 747.219 762.69C747.219 762.69 753.85 760.82 758.613 762.3C758.613 762.3 776.034 781.29 762.647 815.1C762.647 815.1 758.095 834.32 761.191 854.41C761.191 854.41 767.113 874.74 747.286 883.75C747.286 883.75 721.029 891.73 710.469 868.56C710.469 868.56 695.022 806.27 713.948 782.06Z" fill="#939393"/>
<path d="M737.378 761.49C737.378 761.49 749.95 762.75 750.372 746.02C750.372 746.02 754.924 734.52 745.399 724.65C745.399 724.65 739.908 711.177 717.848 725.25C717.848 725.25 710.987 726.03 712.357 730.31C712.357 730.31 711.677 735.12 714.973 735.59C714.973 735.59 722.534 741.64 728.198 741.73C728.198 741.73 731.331 758.85 737.378 761.49Z" fill="#593712"/>
<path d="M696.728 914.4C696.728 914.4 708.926 920.83 715.232 916.2C715.232 916.2 717.417 912.86 715.491 908.74L696.114 897.47L696.728 914.4Z" fill="#353535"/>
<path d="M716.027 782.89C718.586 783.13 721.403 784.26 723.511 787.47C723.511 787.47 736.39 815.27 720.426 850.29C720.426 850.29 717.79 853.22 713.766 854.1C726.472 822.27 721.106 796.6 716.027 782.89Z" fill="#ADADAD"/>
<path d="M703.091 834.84C703.953 833.81 699.363 791.26 709.616 783.86C709.616 783.86 712.568 782.56 716.027 782.89C721.106 796.6 726.472 822.27 713.766 854.1C710.968 854.72 707.499 854.34 703.781 851.31C703.781 851.31 698.117 849.77 697.772 847.03C697.427 844.28 702.228 835.87 703.091 834.84Z" fill="#D8D8D8"/>
<path d="M750.132 762.08C750.132 762.08 748.359 773 728.657 769.49L732.097 767.39C732.097 767.39 742.619 769.45 747.219 762.69L750.132 762.08Z" fill="#D8D8D8"/>
<path d="M693.239 899.3C693.239 899.3 694.686 923.72 691.179 929.08L693.431 929.35L694.351 929.41C694.351 929.41 698.711 925.94 696.306 901.06L693.239 899.3Z" fill="#212121"/>
<path d="M721.815 908.27L721.796 859.26L724.901 857.44V906.52L721.815 908.27Z" fill="#543918"/>
<path d="M721.815 908.27L721.796 859.26L718.691 857.44V906.52L721.815 908.27Z" fill="#82562A"/>
<path d="M775.153 797.88L716.985 831.52L713.334 829.41L771.502 795.8L775.153 797.88Z" fill="#845521"/>
<path d="M775.172 797.88V846.27L717.005 879.8V831.52L775.172 797.88Z" fill="#B77E34"/>
<path d="M717.005 879.8L713.334 877.43V829.41L717.005 831.52V879.8Z" fill="#9B6729"/>
<path d="M670.01 882.27V886.9L723.502 917.88V913.41L670.01 882.27Z" fill="#845521"/>
<path d="M599.681 890.52L599.66 838.3L602.762 836.48V888.77L599.681 890.52Z" fill="#898989"/>
<path d="M599.681 890.52L599.66 838.3L596.556 836.48V888.77L599.681 890.52Z" fill="#ADADAD"/>
<path d="M647.699 863L647.676 811.23L650.78 809.41V861.26L647.699 863Z" fill="#898989"/>
<path d="M647.699 863L647.676 811.23L644.574 809.41V861.26L647.699 863Z" fill="#ADADAD"/>
<path d="M645.503 803.04L645.481 754.04L648.584 752.22V801.3L645.503 803.04Z" fill="#898989"/>
<path d="M645.503 803.04L645.481 754.04L642.379 752.22V801.3L645.503 803.04Z" fill="#ADADAD"/>
<path d="M591.056 838.14C591.056 838.14 593.139 845.42 589.878 848.94C589.878 848.94 580.867 852.02 575.546 845.68V843.92C575.546 843.92 556.924 843.88 550.746 830.32C550.746 830.32 549.536 821.22 570.479 826.68L591.056 838.14Z" fill="#16171C"/>
<path d="M547.872 804.28L601.366 835.43L658.419 802.74L604.925 771.63L547.872 804.28Z" fill="#7A7A7A"/>
<path d="M570.975 851.36C570.975 851.36 573.057 858.64 569.796 862.15C569.796 862.15 560.786 865.25 555.465 858.89V857.13C555.465 857.13 536.843 857.09 530.664 843.53C530.664 843.53 529.455 834.44 550.398 839.89L570.975 851.36Z" fill="#16171C"/>
<path d="M601.366 839.89L658.419 807.98V802.74L601.366 835.43V839.89Z" fill="#515151"/>
<path d="M549.716 775.39C549.716 775.39 564.304 765.95 577.177 769.73L630.543 802.62C630.543 802.62 629.526 808.22 623.733 810.92C623.733 810.92 600.176 821.73 583.828 809.63C583.828 809.63 574.926 805.05 569.477 802.93C569.458 802.93 559.695 801.93 556.331 799.6L548.011 804.21L573.98 819.48C573.98 819.48 576.147 848.16 572.028 851.43C572.028 851.43 553.491 850.91 549.716 838.04C549.716 838.04 543.708 784.49 549.716 775.39Z" fill="#353535"/>
<path d="M609.444 684.776C609.444 684.776 604.81 689.06 600.777 687.258C600.777 687.258 590.393 678.72 592.838 657.609C592.838 657.609 602.348 658.385 606.282 664.049C606.282 664.049 610.227 679.659 615.242 683.502C615.242 683.502 611.761 686.319 609.444 684.776Z" fill="#DBAB71"/>
<path d="M555.032 865.95L555.01 810.18L558.113 810.24V864.21L555.032 865.95Z" fill="#898989"/>
<path d="M555.032 865.95L555.01 810.18L551.907 808.35V864.21L555.032 865.95Z" fill="#ADADAD"/>
<path d="M608.31 690.353C608.31 690.353 608.5 685.974 609.444 684.776C609.444 684.776 622.06 682.543 623.604 679.879C623.604 679.879 625.576 682.151 625.963 684.489C625.963 684.489 622.021 693.439 608.31 690.353Z" fill="#EFC37C"/>
<path d="M591.809 704.076C591.809 704.076 601.977 693.65 609.959 689.405C609.959 689.405 619.806 691.848 625.084 684.709C625.084 684.709 631.713 682.84 636.476 684.316C636.476 684.316 653.897 703.309 640.509 737.12C640.509 737.12 635.961 756.34 639.051 776.43C639.051 776.43 644.972 796.76 625.148 805.77C625.148 805.77 598.888 813.75 588.333 790.58C588.333 790.58 572.886 728.28 591.809 704.076Z" fill="#939393"/>
<path d="M615.242 683.502C615.242 683.502 627.809 684.776 628.238 668.035C628.238 668.035 632.786 656.536 623.261 646.666C623.261 646.666 617.769 633.192 595.713 647.269C595.713 647.269 588.848 648.046 590.221 652.329C590.221 652.329 589.535 657.14 592.838 657.609C592.838 657.609 600.399 663.656 606.063 663.742C606.063 663.742 609.197 680.866 615.242 683.502Z" fill="#593712"/>
<path d="M574.594 836.41C574.594 836.41 586.789 842.84 593.096 838.22C593.096 838.22 595.279 834.87 593.349 830.76L573.98 819.48L574.594 836.41Z" fill="#353535"/>
<path d="M593.893 704.909C596.443 705.149 599.265 706.28 601.377 709.49C601.377 709.49 614.25 737.29 598.288 772.3C598.288 772.3 595.655 775.24 591.626 776.12C604.331 744.28 598.967 718.61 593.893 704.909Z" fill="#ADADAD"/>
<path d="M580.954 756.86C581.811 755.82 577.228 713.27 587.475 705.877C587.475 705.877 590.434 704.574 593.893 704.909C598.967 718.61 604.331 744.28 591.626 776.12C588.831 776.73 585.365 776.36 581.64 773.33C581.64 773.33 575.975 771.79 575.632 769.05C575.289 766.3 580.095 757.88 580.954 756.86Z" fill="#D8D8D8"/>
<path d="M627.994 684.096C627.994 684.096 626.221 695.02 606.519 691.503L609.96 689.405C609.96 689.405 620.486 691.465 625.084 684.709L627.994 684.096Z" fill="#D8D8D8"/>
<path d="M571.097 821.31C571.097 821.31 572.547 845.74 569.041 851.09L571.289 851.36L572.216 851.43C572.216 851.43 576.57 847.96 574.169 823.07L571.097 821.31Z" fill="#212121"/>
<path d="M599.681 830.28L599.66 781.27L602.762 779.45V828.54L599.681 830.28Z" fill="#898989"/>
<path d="M599.681 830.28L599.66 781.27L596.556 779.45V828.54L599.681 830.28Z" fill="#ADADAD"/>
<path d="M653.019 719.9L594.852 753.53L591.199 751.42L649.367 717.82L653.019 719.9Z" fill="#7A7A7A"/>
<path d="M653.031 719.9V768.29L594.864 801.82V753.53L653.031 719.9Z" fill="#515151"/>
<path d="M594.864 801.82L591.199 799.44V751.42L594.864 753.53V801.82Z" fill="#686868"/>
<path d="M547.872 804.28V808.91L601.366 839.89V835.43L547.872 804.28Z" fill="#686868"/>
<path d="M476.211 810.27L476.189 758.06L479.292 756.23V808.53L476.211 810.27Z" fill="#BFAC40"/>
<path d="M476.21 810.27L476.189 758.06L473.086 756.23V808.53L476.21 810.27Z" fill="#DDCB4A"/>
<path d="M524.229 782.75L524.207 730.98L527.31 729.16V781.02L524.229 782.75Z" fill="#BFAC40"/>
<path d="M524.228 782.75L524.206 730.98L521.104 729.16V781.02L524.228 782.75Z" fill="#DDCB4A"/>
<path d="M522.033 722.79L522.011 673.794L525.114 671.974V721.06L522.033 722.79Z" fill="#BFAC40"/>
<path d="M522.033 722.79L522.011 673.794L518.908 671.974V721.06L522.033 722.79Z" fill="#DDCB4A"/>
<path d="M467.586 757.89C467.586 757.89 469.668 765.18 466.407 768.69C466.407 768.69 457.397 771.78 452.076 765.43V763.67C452.076 763.67 433.454 763.63 427.275 750.07C427.275 750.07 426.066 740.98 447.009 746.43L467.586 757.89Z" fill="#16171C"/>
<path d="M424.401 724.04L477.895 755.18L534.948 722.49L481.454 691.388L424.401 724.04Z" fill="#93822F"/>
<path d="M447.505 771.12C447.505 771.12 449.588 778.39 446.327 781.91C446.327 781.91 437.316 785 431.995 778.65V776.89C431.995 776.89 413.373 776.85 407.194 763.29C407.194 763.29 405.984 754.19 426.928 759.65L447.505 771.12Z" fill="#16171C"/>
<path d="M477.895 759.65L534.948 727.73V722.49L477.895 755.18V759.65Z" fill="#9E8D36"/>
<path d="M426.246 695.145C426.246 695.145 440.833 685.706 453.706 689.481L507.071 722.37C507.071 722.37 506.055 727.98 500.262 730.68C500.262 730.68 476.706 741.49 460.357 729.38C460.357 729.38 451.456 724.8 446.007 722.69C445.987 722.69 436.225 721.68 432.86 719.35L424.541 723.96L450.51 739.23C450.51 739.23 452.677 767.92 448.557 771.18C448.557 771.18 430.021 770.67 426.246 757.8C426.246 757.8 420.238 704.239 426.246 695.145Z" fill="#353535"/>
<path d="M485.973 604.521C485.973 604.521 481.339 608.814 477.307 607.012C477.307 607.012 466.922 598.474 469.368 577.363C469.368 577.363 478.877 578.139 482.812 583.803C482.812 583.803 486.756 599.413 491.772 603.256C491.772 603.256 488.29 606.073 485.973 604.521Z" fill="#DBAB71"/>
<path d="M431.562 785.7L431.54 729.93L434.643 730V783.97L431.562 785.7Z" fill="#BFAC40"/>
<path d="M431.562 785.7L431.54 729.93L428.438 728.1V783.97L431.562 785.7Z" fill="#DDCB4A"/>
<path d="M484.84 610.107C484.84 610.107 485.03 605.728 485.973 604.52C485.973 604.52 498.589 602.297 500.134 599.633C500.134 599.633 502.106 601.904 502.493 604.243C502.493 604.243 498.551 613.193 484.84 610.107Z" fill="#EFC37C"/>
<path d="M468.338 623.83C468.338 623.83 478.507 613.404 486.489 609.159C486.489 609.159 496.336 611.602 501.614 604.463C501.614 604.463 508.244 602.595 513.006 604.07C513.006 604.07 530.427 623.063 517.04 656.871C517.04 656.871 512.492 676.094 515.58 696.18C515.58 696.18 521.501 716.51 501.678 725.52C501.678 725.52 475.418 733.5 464.862 710.333C464.862 710.333 449.416 648.036 468.338 623.83Z" fill="#939393"/>
<path d="M491.772 603.256C491.772 603.256 504.339 604.52 504.768 587.789C504.768 587.789 509.316 576.29 499.79 566.419C499.79 566.419 494.298 552.946 472.243 567.023C472.243 567.023 465.378 567.79 466.751 572.083C466.751 572.083 466.064 576.893 469.368 577.363C469.368 577.363 476.929 583.41 482.593 583.496C482.593 583.496 485.726 600.62 491.772 603.256Z" fill="#593712"/>
<path d="M451.124 756.17C451.124 756.17 463.318 762.6 469.626 757.97C469.626 757.97 471.809 754.62 469.878 750.5L450.51 739.23L451.124 756.17Z" fill="#353535"/>
<path d="M470.424 624.663C472.973 624.903 475.795 626.034 477.907 629.234C477.907 629.234 490.779 657.044 474.817 692.059C474.817 692.059 472.184 694.991 468.155 695.873C480.86 664.039 475.497 638.367 470.424 624.663Z" fill="#ADADAD"/>
<path d="M457.483 676.612C458.34 675.577 453.758 633.029 464.004 625.631C464.004 625.631 466.963 624.328 470.423 624.663C475.496 638.367 480.86 664.039 468.155 695.873C465.361 696.486 461.895 696.112 458.169 693.084C458.169 693.084 452.505 691.541 452.161 688.801C451.819 686.051 456.624 677.637 457.483 676.612Z" fill="#D8D8D8"/>
<path d="M504.524 603.85C504.524 603.85 502.75 614.774 483.048 611.257L486.489 609.159C486.489 609.159 497.015 611.219 501.614 604.463L504.524 603.85Z" fill="#D8D8D8"/>
<path d="M447.627 741.07C447.627 741.07 449.077 765.49 445.571 770.85L447.818 771.12L448.746 771.18C448.746 771.18 453.1 767.71 450.699 742.83L447.627 741.07Z" fill="#212121"/>
<path d="M476.211 750.03L476.189 701.028L479.292 699.208V748.29L476.211 750.03Z" fill="#BFAC40"/>
<path d="M476.21 750.03L476.189 701.028L473.086 699.208V748.29L476.21 750.03Z" fill="#DDCB4A"/>
<path d="M529.548 639.651L471.38 673.287L467.729 671.178L525.896 637.572L529.548 639.651Z" fill="#BFAC40"/>
<path d="M529.561 639.651V688.044L471.393 721.57V673.286L529.561 639.651Z" fill="#93822F"/>
<path d="M471.393 721.57L467.729 719.2V671.178L471.393 673.286V721.57Z" fill="#DDCB4A"/>
<path d="M424.401 724.04V728.66L477.895 759.65V755.18L424.401 724.04Z" fill="#BAA83E"/>
<path d="M854.805 1045.58L854.786 993.36L857.89 991.54V1043.83L854.805 1045.58Z" fill="#BFAC40"/>
<path d="M854.805 1045.58L854.785 993.36L851.681 991.54V1043.83L854.805 1045.58Z" fill="#DDCB4A"/>
<path d="M902.82 1018.05L902.8 966.29L905.91 964.47V1016.32L902.82 1018.05Z" fill="#BFAC40"/>
<path d="M902.82 1018.05L902.8 966.29L899.7 964.47V1016.32L902.82 1018.05Z" fill="#DDCB4A"/>
<path d="M900.63 958.1L900.61 909.1L903.71 907.28V956.36L900.63 958.1Z" fill="#BFAC40"/>
<path d="M900.63 958.1L900.61 909.1L897.51 907.28V956.36L900.63 958.1Z" fill="#DDCB4A"/>
<path d="M846.18 993.2C846.18 993.2 848.269 1000.48 845.001 1004C845.001 1004 835.994 1007.08 830.675 1000.74V998.98C830.675 998.98 812.046 998.94 805.875 985.38C805.875 985.38 804.658 976.28 825.606 981.73L846.18 993.2Z" fill="#16171C"/>
<path d="M803 959.34L856.491 990.49L913.55 957.8L860.047 926.69L803 959.34Z" fill="#93822F"/>
<path d="M826.104 1006.42C826.104 1006.42 828.184 1013.69 824.926 1017.21C824.926 1017.21 815.908 1020.3 810.59 1013.95V1012.19C810.59 1012.19 791.971 1012.15 785.79 998.59C785.79 998.59 784.582 989.5 805.521 994.95L826.104 1006.42Z" fill="#16171C"/>
<path d="M856.491 994.95L913.55 963.03V957.8L856.491 990.49V994.95Z" fill="#9E8D36"/>
<path d="M804.84 930.45C804.84 930.45 819.425 921.01 832.305 924.79L885.67 957.67C885.67 957.67 884.66 963.28 878.858 965.98C878.858 965.98 855.303 976.79 838.955 964.69C838.955 964.69 830.053 960.11 824.6 957.99C824.581 957.99 814.826 956.98 811.452 954.66L803.135 959.26L829.104 974.54C829.104 974.54 831.27 1003.22 827.149 1006.49C827.149 1006.49 808.616 1005.97 804.84 993.1C804.84 993.1 798.832 939.55 804.84 930.45Z" fill="#353535"/>
<path d="M864.57 839.82C864.57 839.82 859.931 844.12 855.907 842.32C855.907 842.32 845.519 833.78 847.963 812.67C847.963 812.67 857.478 813.44 861.407 819.11C861.407 819.11 865.355 834.72 870.367 838.56C870.367 838.56 866.889 841.38 864.57 839.82Z" fill="#DBAB71"/>
<path d="M810.159 1021.01L810.14 965.23L813.235 965.3V1019.27L810.159 1021.01Z" fill="#BFAC40"/>
<path d="M810.159 1021.01L810.14 965.23L807.035 963.4V1019.27L810.159 1021.01Z" fill="#DDCB4A"/>
<path d="M863.438 845.41C863.438 845.41 863.63 841.03 864.569 839.82C864.569 839.82 877.18 837.6 878.733 834.94C878.733 834.94 880.697 837.21 881.09 839.55C881.09 839.55 877.142 848.5 863.438 845.41Z" fill="#EFC37C"/>
<path d="M846.937 859.13C846.937 859.13 857.105 848.71 865.087 844.46C865.087 844.46 874.929 846.91 880.209 839.77C880.209 839.77 886.84 837.9 891.6 839.37C891.6 839.37 909.02 858.37 895.64 892.18C895.64 892.18 891.09 911.4 894.18 931.48C894.18 931.48 900.1 951.82 880.276 960.83C880.276 960.83 854.019 968.81 843.459 945.64C843.459 945.64 828.011 883.34 846.937 859.13Z" fill="#939393"/>
<path d="M870.367 838.56C870.367 838.56 882.93 839.82 883.36 823.09C883.36 823.09 887.91 811.59 878.388 801.72C878.388 801.72 872.897 788.25 850.837 802.33C850.837 802.33 843.976 803.09 845.347 807.39C845.347 807.39 844.657 812.2 847.963 812.67C847.963 812.67 855.523 818.71 861.187 818.8C861.187 818.8 864.32 835.92 870.367 838.56Z" fill="#593712"/>
<path d="M829.717 991.46C829.717 991.46 841.916 997.9 848.221 993.26C848.221 993.26 850.406 989.93 848.47 985.81L829.104 974.54L829.717 991.46Z" fill="#353535"/>
<path d="M849.016 859.97C851.565 860.21 854.392 861.34 856.501 864.54C856.501 864.54 869.37 892.35 853.415 927.36C853.415 927.36 850.78 930.3 846.755 931.18C859.452 899.34 854.095 873.67 849.016 859.97Z" fill="#ADADAD"/>
<path d="M836.08 911.92C836.933 910.88 832.352 868.33 842.596 860.94C842.596 860.94 845.557 859.63 849.016 859.97C854.095 873.67 859.452 899.34 846.755 931.18C843.957 931.79 840.488 931.42 836.77 928.39C836.77 928.39 831.097 926.85 830.761 924.11C830.416 921.35 835.217 912.94 836.08 911.92Z" fill="#D8D8D8"/>
<path d="M883.12 839.15C883.12 839.15 881.349 850.08 861.647 846.56L865.087 844.46C865.087 844.46 875.609 846.52 880.209 839.77L883.12 839.15Z" fill="#D8D8D8"/>
<path d="M826.219 976.37C826.219 976.37 827.676 1000.8 824.168 1006.15L826.411 1006.42L827.34 1006.49C827.34 1006.49 831.7 1003.01 829.295 978.13L826.219 976.37Z" fill="#212121"/>
<path d="M854.805 985.34L854.786 936.33L857.89 934.51V983.59L854.805 985.34Z" fill="#BFAC40"/>
<path d="M854.805 985.34L854.785 936.33L851.681 934.51V983.59L854.805 985.34Z" fill="#DDCB4A"/>
<path d="M908.14 874.96L849.975 908.59L846.324 906.48L904.49 872.88L908.14 874.96Z" fill="#BFAC40"/>
<path d="M908.16 874.96V923.35L849.994 956.88V908.59L908.16 874.96Z" fill="#93822F"/>
<path d="M849.994 956.88L846.324 954.49V906.48L849.994 908.59V956.88Z" fill="#DDCB4A"/>
<path d="M803 959.34V963.97L856.491 994.95V990.49L803 959.34Z" fill="#BAA83E"/>
<path d="M449.593 168.563C433.444 177.868 420.23 200.79 420.23 219.505C420.23 238.22 433.444 245.877 449.593 236.524C465.742 227.161 478.955 204.24 478.955 185.572C478.955 166.905 465.742 159.249 449.593 168.563Z" fill="#202121"/>
<path d="M436.3 242.149L428.932 238.584L423.844 222.571L439.272 179.459L469.107 165.947L476.273 169.435L436.3 242.149Z" fill="#202121"/>
<path d="M457.048 172.176C440.898 181.48 427.685 204.402 427.685 223.117C427.685 241.833 440.898 249.489 457.048 240.137C473.196 230.774 486.41 207.852 486.41 189.185C486.41 170.518 473.196 162.861 457.048 172.176Z" fill="#363837"/>
<path d="M457.048 174.935C442.21 183.483 430.069 204.546 430.069 221.747C430.069 238.939 442.21 245.972 457.048 237.376C471.886 228.781 484.026 207.718 484.026 190.565C484.026 173.412 471.886 166.378 457.048 174.935Z" fill="#5E5E5E"/>
<path d="M457.048 202.888C455.489 203.789 454.215 206.003 454.215 207.804C454.215 209.606 455.489 210.353 457.048 209.443C458.606 208.542 459.88 206.328 459.88 204.527C459.88 202.735 458.606 201.987 457.048 202.888Z" fill="#202121"/>
<path d="M455.469 177.992V181.662L458.626 179.823V176.21L455.469 177.992Z" fill="#202121"/>
<path d="M455.469 233.333V237.003L458.626 235.163V231.55L455.469 233.333Z" fill="#202121"/>
<path d="M431.779 217.579V221.249L434.934 219.409V215.787L431.779 217.579Z" fill="#202121"/>
<path d="M478.955 195.318V198.988L482.112 197.148V193.535L478.955 195.318Z" fill="#202121"/>
<path d="M457.215 204.048L469.29 187.125L458.999 205.418L457.215 204.048Z" fill="#202121"/>
<path d="M566.909 460.99H583.715L617.138 442.103L592.024 427.92L566.909 460.99Z" fill="#919191"/>
<path d="M533.156 393L566.909 412.578L600.521 393L566.838 373.432L533.156 393Z" fill="#939393"/>
<path d="M533.156 388.535L566.909 408.103L600.521 388.535L566.838 368.967L533.156 388.535Z" fill="#FFE783"/>
<path d="M538.474 388.535L566.898 405.017L595.203 388.535L566.838 372.053L538.474 388.535Z" fill="#919191"/>
<path d="M566.909 460.99V408.103L600.521 388.535V441.422L566.909 460.99Z" fill="#CEB742"/>
<path d="M533.156 441.422V388.535L566.909 408.103V460.99L533.156 441.422Z" fill="#F2D65F"/>
<path d="M566.838 372.053V376.557L542.152 390.672L538.474 388.535L566.838 372.053Z" fill="#777777"/>
<path d="M566.838 376.557L591.125 390.912L595.203 388.535L566.838 372.053V376.557Z" fill="#666666"/>
<path d="M542.152 390.672L566.838 376.557L591.124 390.912L566.898 405.017L542.152 390.672Z" fill="#2FA525"/>
<path d="M578.609 394.792C578.609 396.623 574.68 398.118 569.834 398.118C564.987 398.118 561.058 396.623 561.058 394.792C561.058 392.953 564.987 391.467 569.834 391.467C574.68 391.467 578.609 392.953 578.609 394.792Z" fill="#28821E"/>
<path d="M582.194 380.687C582.194 389.167 575.319 396.038 566.838 396.038C558.358 396.038 551.483 389.167 551.483 380.687C551.483 372.206 558.358 365.326 566.838 365.326C575.319 365.326 582.194 372.206 582.194 380.687Z" fill="url(#paint4_linear_49_365)"/>
<path d="M580.016 368.852C580.016 376.135 574.116 382.038 566.838 382.038C559.561 382.038 553.662 376.135 553.662 368.852C553.662 361.578 559.561 355.675 566.838 355.675C574.116 355.675 580.016 361.578 580.016 368.852Z" fill="url(#paint5_linear_49_365)"/>
<path d="M577.958 356.816C577.958 362.959 572.979 367.942 566.838 367.942C560.698 367.942 555.719 362.959 555.719 356.816C555.719 350.674 560.698 345.7 566.838 345.7C572.979 345.7 577.958 350.674 577.958 356.816Z" fill="url(#paint6_linear_49_365)"/>
<path d="M575.317 346.63C575.317 351.316 571.52 355.11 566.838 355.11C562.156 355.11 558.359 351.316 558.359 346.63C558.359 341.944 562.156 338.149 566.838 338.149C571.52 338.149 575.317 341.944 575.317 346.63Z" fill="url(#paint7_linear_49_365)"/>
<path d="M203.351 778.68H220.157L253.58 759.79L228.466 745.61L203.351 778.68Z" fill="#919191"/>
<path d="M169.597 710.697L203.351 730.27L236.962 710.697L203.28 691.12L169.597 710.697Z" fill="#939393"/>
<path d="M169.597 706.222L203.351 725.8L236.962 706.222L203.28 686.654L169.597 706.222Z" fill="#FFE783"/>
<path d="M174.916 706.222L203.339 722.7L231.644 706.222L203.28 689.74L174.916 706.222Z" fill="#919191"/>
<path d="M203.351 778.68V725.8L236.963 706.222V759.11L203.351 778.68Z" fill="#CEB742"/>
<path d="M169.597 759.11V706.222L203.351 725.8V778.68L169.597 759.11Z" fill="#F2D65F"/>
<path d="M203.28 689.74V694.244L178.594 708.359L174.916 706.222L203.28 689.74Z" fill="#777777"/>
<path d="M203.28 694.244L227.567 708.599L231.644 706.222L203.28 689.74V694.244Z" fill="#666666"/>
<path d="M178.594 708.359L203.28 694.244L227.566 708.599L203.339 722.7L178.594 708.359Z" fill="#2FA525"/>
<path d="M215.051 712.48C215.051 714.32 211.122 715.81 206.275 715.81C201.429 715.81 197.5 714.32 197.5 712.48C197.5 710.64 201.429 709.155 206.275 709.155C211.122 709.155 215.051 710.64 215.051 712.48Z" fill="#28821E"/>
<path d="M218.636 698.374C218.636 706.855 211.761 713.73 203.28 713.73C194.799 713.73 187.925 706.855 187.925 698.374C187.925 689.893 194.799 683.022 203.28 683.022C211.761 683.022 218.636 689.893 218.636 698.374Z" fill="url(#paint8_linear_49_365)"/>
<path d="M216.458 686.549C216.458 693.822 210.557 699.725 203.28 699.725C196.003 699.725 190.103 693.822 190.103 686.549C190.103 679.266 196.003 673.373 203.28 673.373C210.557 673.373 216.458 679.266 216.458 686.549Z" fill="url(#paint9_linear_49_365)"/>
<path d="M214.399 674.503C214.399 680.646 209.421 685.629 203.28 685.629C197.139 685.629 192.16 680.646 192.16 674.503C192.16 668.37 197.139 663.387 203.28 663.387C209.421 663.387 214.399 668.37 214.399 674.503Z" fill="url(#paint10_linear_49_365)"/>
<path d="M211.759 664.316C211.759 669.002 207.963 672.797 203.28 672.797C198.598 672.797 194.801 669.002 194.801 664.316C194.801 659.64 198.598 655.836 203.28 655.836C207.963 655.836 211.759 659.64 211.759 664.316Z" fill="url(#paint11_linear_49_365)"/>
<path d="M112.434 728.32H129.24L162.663 709.442L137.548 695.25L112.434 728.32Z" fill="#919191"/>
<path d="M78.6799 660.34L112.434 679.908L146.045 660.34L112.363 640.762L78.6799 660.34Z" fill="#939393"/>
<path d="M78.6799 655.875L112.434 675.443L146.045 655.875L112.363 636.297L78.6799 655.875Z" fill="#FFE783"/>
<path d="M83.999 655.874L112.422 672.357L140.727 655.874L112.363 639.392L83.999 655.874Z" fill="#919191"/>
<path d="M112.434 728.32V675.443L146.045 655.875V708.752L112.434 728.32Z" fill="#CEB742"/>
<path d="M78.6799 708.752V655.875L112.434 675.443V728.32L78.6799 708.752Z" fill="#F2D65F"/>
<path d="M112.363 639.392V643.887L87.677 658.002L83.999 655.875L112.363 639.392Z" fill="#777777"/>
<path d="M112.363 643.886L136.649 658.241L140.727 655.874L112.363 639.392V643.886Z" fill="#666666"/>
<path d="M87.677 658.002L112.363 643.886L136.649 658.241L112.422 672.357L87.677 658.002Z" fill="#2FA525"/>
<path d="M124.133 662.123C124.133 663.962 120.204 665.448 115.357 665.448C110.511 665.448 106.583 663.962 106.583 662.123C106.583 660.283 110.511 658.797 115.357 658.797C120.204 658.797 124.133 660.283 124.133 662.123Z" fill="#28821E"/>
<path d="M127.719 648.017C127.719 656.498 120.843 663.378 112.363 663.378C103.882 663.378 97.0071 656.498 97.0071 648.017C97.0071 639.536 103.882 632.665 112.363 632.665C120.843 632.665 127.719 639.536 127.719 648.017Z" fill="url(#paint12_linear_49_365)"/>
<path d="M125.539 636.191C125.539 643.465 119.64 649.368 112.363 649.368C105.085 649.368 99.186 643.465 99.186 636.191C99.186 628.918 105.085 623.015 112.363 623.015C119.64 623.015 125.539 628.918 125.539 636.191Z" fill="url(#paint13_linear_49_365)"/>
<path d="M123.482 624.155C123.482 630.288 118.504 635.271 112.363 635.271C106.221 635.271 101.243 630.288 101.243 624.155C101.243 618.013 106.221 613.03 112.363 613.03C118.504 613.03 123.482 618.013 123.482 624.155Z" fill="url(#paint14_linear_49_365)"/>
<path d="M120.841 613.96C120.841 618.646 117.045 622.44 112.363 622.44C107.68 622.44 103.884 618.646 103.884 613.96C103.884 609.283 107.68 605.489 112.363 605.489C117.045 605.489 120.841 609.283 120.841 613.96Z" fill="url(#paint15_linear_49_365)"/>
</g>
<defs>
<linearGradient id="paint0_linear_49_365" x1="642.4" y1="431.044" x2="673.111" y2="431.044" gradientUnits="userSpaceOnUse">
<stop stop-color="#50D000"/>
<stop offset="1" stop-color="#266A00"/>
</linearGradient>
<linearGradient id="paint1_linear_49_365" x1="646.342" y1="412.626" x2="669.169" y2="425.805" gradientUnits="userSpaceOnUse">
<stop stop-color="#50D000"/>
<stop offset="1" stop-color="#266A00"/>
</linearGradient>
<linearGradient id="paint2_linear_49_365" x1="648.125" y1="401.615" x2="667.387" y2="412.737" gradientUnits="userSpaceOnUse">
<stop stop-color="#50D000"/>
<stop offset="1" stop-color="#266A00"/>
</linearGradient>
<linearGradient id="paint3_linear_49_365" x1="650.412" y1="392.742" x2="665.1" y2="401.222" gradientUnits="userSpaceOnUse">
<stop stop-color="#50D000"/>
<stop offset="1" stop-color="#266A00"/>
</linearGradient>
<linearGradient id="paint4_linear_49_365" x1="551.483" y1="380.687" x2="582.194" y2="380.687" gradientUnits="userSpaceOnUse">
<stop stop-color="#50D000"/>
<stop offset="1" stop-color="#266A00"/>
</linearGradient>
<linearGradient id="paint5_linear_49_365" x1="555.425" y1="362.268" x2="578.252" y2="375.447" gradientUnits="userSpaceOnUse">
<stop stop-color="#50D000"/>
<stop offset="1" stop-color="#266A00"/>
</linearGradient>
<linearGradient id="paint6_linear_49_365" x1="557.206" y1="351.258" x2="576.469" y2="362.379" gradientUnits="userSpaceOnUse">
<stop stop-color="#50D000"/>
<stop offset="1" stop-color="#266A00"/>
</linearGradient>
<linearGradient id="paint7_linear_49_365" x1="559.495" y1="342.394" x2="574.183" y2="350.874" gradientUnits="userSpaceOnUse">
<stop stop-color="#50D000"/>
<stop offset="1" stop-color="#266A00"/>
</linearGradient>
<linearGradient id="paint8_linear_49_365" x1="187.925" y1="698.374" x2="218.636" y2="698.374" gradientUnits="userSpaceOnUse">
<stop stop-color="#50D000"/>
<stop offset="1" stop-color="#266A00"/>
</linearGradient>
<linearGradient id="paint9_linear_49_365" x1="191.866" y1="679.956" x2="214.693" y2="693.135" gradientUnits="userSpaceOnUse">
<stop stop-color="#50D000"/>
<stop offset="1" stop-color="#266A00"/>
</linearGradient>
<linearGradient id="paint10_linear_49_365" x1="193.648" y1="668.945" x2="212.911" y2="680.067" gradientUnits="userSpaceOnUse">
<stop stop-color="#50D000"/>
<stop offset="1" stop-color="#266A00"/>
</linearGradient>
<linearGradient id="paint11_linear_49_365" x1="195.936" y1="660.081" x2="210.624" y2="668.561" gradientUnits="userSpaceOnUse">
<stop stop-color="#50D000"/>
<stop offset="1" stop-color="#266A00"/>
</linearGradient>
<linearGradient id="paint12_linear_49_365" x1="97.0081" y1="648.017" x2="127.719" y2="648.017" gradientUnits="userSpaceOnUse">
<stop stop-color="#50D000"/>
<stop offset="1" stop-color="#266A00"/>
</linearGradient>
<linearGradient id="paint13_linear_49_365" x1="100.949" y1="629.598" x2="123.776" y2="642.778" gradientUnits="userSpaceOnUse">
<stop stop-color="#50D000"/>
<stop offset="1" stop-color="#266A00"/>
</linearGradient>
<linearGradient id="paint14_linear_49_365" x1="102.731" y1="618.588" x2="121.994" y2="629.709" gradientUnits="userSpaceOnUse">
<stop stop-color="#50D000"/>
<stop offset="1" stop-color="#266A00"/>
</linearGradient>
<linearGradient id="paint15_linear_49_365" x1="105.018" y1="609.724" x2="119.706" y2="618.204" gradientUnits="userSpaceOnUse">
<stop stop-color="#50D000"/>
<stop offset="1" stop-color="#266A00"/>
</linearGradient>
<clipPath id="clip0_49_365">
<rect width="1382" height="1173" fill="white"/>
</clipPath>
</defs>
</svg>
