<svg width="1336" height="1312" viewBox="0 0 1336 1312" fill="none" xmlns="http://www.w3.org/2000/svg">
<mask id="mask0_49_1404" style="mask-type:alpha" maskUnits="userSpaceOnUse" x="-1" y="0" width="1337" height="1312">
<path d="M1333.33 997.615C1347.19 909.95 1271.96 665.964 1211.58 536.971C1151.2 407.978 990.347 274.485 737.119 166.491C483.89 58.4968 0 1 0 1V1310.93C0 1310.93 949.763 1313.43 1045.28 1288.93C1140.8 1264.43 1319.47 1085.28 1333.33 997.615Z" fill="#C4C4C4" stroke="black"/>
</mask>
<g mask="url(#mask0_49_1404)">
<g clip-path="url(#clip0_49_1404)">
<path d="M0.897339 -17.9865H1352.5V1341.79H0.897339V-17.9865Z" fill="#E3DEDB"/>
<path d="M0.897339 -17.9865H393.896V1030.17H0.897339V-17.9865Z" fill="#C8BEB7"/>
<path d="M959.503 -17.9865H1352.5V1030.17H959.503V-17.9865Z" fill="#C8BEB7"/>
<path d="M0.897339 1023.38H1352.5V1341.79H0.897339V1023.38Z" fill="#6C5D53"/>
<path d="M0.897339 1064.89H1352.5V1341.79H0.897339V1064.89" fill="#AC9D93"/>
<path d="M2.08057 144.4H306.765L316.046 154.807L318.264 1077.81H2.08057V144.4Z" fill="#808080"/>
<path d="M0.897339 144.4H306.765V1077.84H0.897339V144.4Z" fill="#ECECEC"/>
<path d="M60.5265 973.713H148.117L148.979 1032.25L138.666 1041.29H45.722V980.305L60.5265 973.713" fill="#1A1A1A"/>
<path d="M148.117 973.713L138.539 980.403L138.666 1041.29L148.979 1032.25L148.117 973.713Z" fill="#333333"/>
<path d="M45.6979 980.403H138.539V1041.31H45.6979V980.403Z" fill="#4D4D4D"/>
<path d="M45.895 990.921H138.371V994.284H45.895V990.921Z" fill="#E6E6E6"/>
<path d="M45.7012 980.403V988.943H51.0339V984.477H57.7385V980.403H45.7012Z" fill="#E6E6E6"/>
<path d="M138.486 980.403V988.943H133.154V984.477H126.449V980.403H138.486Z" fill="#E6E6E6"/>
<path d="M79.7726 1002.82H106.186V1018.49H79.7726V1002.82Z" fill="#E6E6E6"/>
<path d="M84.7285 1006.88H101.23V1014.43H84.7285V1006.88Z" fill="#4D4D4D"/>
<path d="M27.8412 179.442H281.753V1045.3H27.8412V179.442Z" fill="#483E37"/>
<path d="M36.8698 193.821H281.753V1045.3H36.8698V193.821Z" fill="#917C6F"/>
<path d="M52.1457 831.452L51.4141 813.628L153.027 813.467L154.21 740.981L249.987 741.483L252.782 867.262L52.5187 863.295L52.1457 831.452" fill="#6C5D53"/>
<path d="M27.8384 874.723L46.1619 867.697L280.423 867.009L280.641 874.723H27.8384Z" fill="#6C5D53"/>
<path d="M27.3168 874.723H281.7V903.489H27.3168V874.723Z" fill="#ECECEC"/>
<path d="M38.6478 846.088H144.263V872.351H38.6478V846.088Z" fill="#93A7AC"/>
<path d="M45.9435 851.258H115.031V867.858H45.9435V851.258Z" fill="#DBE2E3"/>
<path d="M131.802 851.655C136.008 851.655 139.42 855.089 139.42 859.319C139.42 863.548 136.008 866.979 131.802 866.979C127.6 866.979 124.189 863.548 124.189 859.319C124.189 855.089 127.6 851.655 131.802 851.655Z" fill="#DBE2E3"/>
<path d="M38.6478 846.088L52.1069 841.384L153.372 841.225L144.263 846.088H38.6478" fill="#6F8A91"/>
<path d="M153.372 841.225L153.625 866.389L144.263 872.351V846.088L153.372 841.225" fill="#53676C"/>
<path d="M38.6478 819.822H144.263V846.088H38.6478V819.822Z" fill="#93A7AC"/>
<path d="M45.9435 824.992H115.031V841.593H45.9435V824.992Z" fill="#DBE2E3"/>
<path d="M131.802 825.393C136.008 825.393 139.42 828.824 139.42 833.053C139.42 837.282 136.008 840.716 131.802 840.716C127.6 840.716 124.189 837.282 124.189 833.053C124.189 828.824 127.6 825.393 131.802 825.393Z" fill="#DBE2E3"/>
<path d="M38.6478 819.823L52.1069 815.118L153.372 814.96L144.263 819.823H38.6478" fill="#6F8A91"/>
<path d="M153.372 814.959L153.625 840.12L144.263 846.088V819.822L153.372 814.959" fill="#53676C"/>
<path d="M151.038 744.732H182.59V873.153H151.038V744.732Z" fill="#93A7AC"/>
<path d="M156.437 753.599H176.381V837.606H156.437V753.599Z" fill="#DBE2E3"/>
<path d="M175.899 857.998C175.899 863.113 171.777 867.259 166.694 867.259C161.611 867.259 157.494 863.113 157.494 857.998C157.494 852.886 161.611 848.744 166.694 848.744C171.777 848.744 175.899 852.886 175.899 857.998Z" fill="#DBE2E3"/>
<path d="M182.59 744.732L190.748 747.991L191.136 869.432L182.59 873.153V744.732Z" fill="#6F8A91"/>
<path d="M191.135 744.732H222.691V873.153H191.135V744.732Z" fill="#93A7AC"/>
<path d="M196.535 753.599H216.478V837.606H196.535V753.599Z" fill="#DBE2E3"/>
<path d="M215.996 857.998C215.996 863.113 211.875 867.259 206.792 867.259C201.709 867.259 197.591 863.113 197.591 857.998C197.591 852.886 201.709 848.744 206.792 848.744C211.875 848.744 215.996 852.886 215.996 857.998Z" fill="#DBE2E3"/>
<path d="M222.691 744.732L230.846 747.991L231.233 869.432L222.691 873.153V744.732" fill="#6F8A91"/>
<path d="M230.001 745.288L261.419 742.333L273.312 870.194L241.895 873.153L230.001 745.288" fill="#93A7AC"/>
<path d="M236.2 753.615L256.059 751.745L263.838 835.385L243.979 837.255L236.2 753.615Z" fill="#DBE2E3"/>
<path d="M265.245 855.737C265.717 860.829 262 865.341 256.938 865.816C251.877 866.291 247.393 862.554 246.917 857.459C246.446 852.37 250.163 847.858 255.224 847.379C260.286 846.904 264.77 850.645 265.245 855.737" fill="#DBE2E3"/>
<path d="M261.419 742.333L269.842 744.81L281.475 865.692L273.312 870.194L261.419 742.333" fill="#6F8A91"/>
<path d="M269.811 1035.87L247.421 975.894L60.4069 976.281L60.8716 1034.76L269.811 1035.87" fill="#7B5A53"/>
<path d="M27.8412 1045.17L36.979 1037.01L281.682 1034.62L281.303 1046.03L27.8412 1045.17" fill="#6C5D53"/>
<path d="M27.8412 179.442L36.8698 193.821H281.754V179.442H27.8412Z" fill="#6C5D53"/>
<path d="M26.8527 329.794H283.728V356.471H26.8527V329.794Z" fill="#ECECEC"/>
<path d="M26.8843 509.23H283.358V537.996H26.8843V509.23Z" fill="#ECECEC"/>
<path d="M27.7394 691.712H281.88V720.475H27.7394V691.712Z" fill="#ECECEC"/>
<path d="M28.7179 509.172L37.444 500.963L281.426 498.001L281.521 509.172H28.7179Z" fill="#6C5D53"/>
<path d="M240.761 370.568L281.426 498.001L62.4413 496.218L64.9048 373.817L206.289 376.873L240.761 370.568" fill="#6C5D53"/>
<path d="M50.1112 373.517H82.6199V505.83H50.1112V373.517Z" fill="#AC9393"/>
<path d="M55.6724 382.656H76.225V469.204H55.6724V382.656" fill="#E3DEDB"/>
<path d="M75.7248 490.216C75.7248 495.487 71.48 499.757 66.243 499.757C61.0087 499.757 56.7601 495.487 56.7601 490.216C56.7601 484.952 61.0087 480.679 66.243 480.679C71.48 480.679 75.7248 484.952 75.7248 490.216Z" fill="#E3DEDB"/>
<path d="M82.6199 373.517L91.026 376.873L91.5504 497.94L82.6199 505.83V373.517" fill="#916F6F"/>
<path d="M88.7311 373.517H121.24V505.83H88.7311V373.517Z" fill="#AC9393"/>
<path d="M94.2922 382.656H114.841V469.204H94.2922V382.656Z" fill="#E3DEDB"/>
<path d="M114.344 490.216C114.344 495.487 110.1 499.757 104.862 499.757C99.6248 499.757 95.38 495.487 95.38 490.216C95.38 484.952 99.6248 480.679 104.862 480.679C110.1 480.679 114.344 484.952 114.344 490.216Z" fill="#E3DEDB"/>
<path d="M121.24 373.517L129.645 376.873L130.166 497.94L121.24 505.83V373.517" fill="#916F6F"/>
<path d="M127.346 373.517H159.855V505.83H127.346V373.517Z" fill="#AC9393"/>
<path d="M132.908 382.656H153.46V469.204H132.908V382.656" fill="#E3DEDB"/>
<path d="M152.96 490.216C152.96 495.487 148.715 499.757 143.477 499.757C138.24 499.757 133.995 495.487 133.995 490.216C133.995 484.952 138.24 480.679 143.477 480.679C148.715 480.679 152.96 484.952 152.96 490.216Z" fill="#E3DEDB"/>
<path d="M159.855 373.517L168.26 376.873L168.782 497.94L159.855 505.83V373.517" fill="#916F6F"/>
<path d="M165.374 373.517H197.883V505.83H165.374V373.517Z" fill="#AC9393"/>
<path d="M170.935 382.656H191.484V469.204H170.935V382.656Z" fill="#E3DEDB"/>
<path d="M190.988 490.216C190.988 495.487 186.739 499.757 181.506 499.757C176.268 499.757 172.023 495.487 172.023 490.216C172.023 484.952 176.268 480.679 181.506 480.679C186.739 480.679 190.988 484.952 190.988 490.216Z" fill="#E3DEDB"/>
<path d="M197.883 373.517L206.289 376.873L206.81 497.94L197.883 505.83V373.517" fill="#916F6F"/>
<path d="M200.238 377.156L231.804 369.334L263.271 497.802L231.705 505.627L200.238 377.156Z" fill="#AC9393"/>
<path d="M207.813 384.691L227.766 379.744L248.346 463.782L228.397 468.729L207.813 384.691Z" fill="#E3DEDB"/>
<path d="M252.863 484.302C254.116 489.417 251.007 494.59 245.925 495.851C240.839 497.111 235.7 493.984 234.447 488.871C233.194 483.752 236.302 478.583 241.388 477.322C246.47 476.062 251.609 479.189 252.863 484.302Z" fill="#E3DEDB"/>
<path d="M231.804 369.334L240.761 370.568L270.06 487.992L263.271 497.802L231.804 369.334Z" fill="#916F6F"/>
<path d="M28.5421 691.712L37.2671 682.684L281.126 682.262L281.344 691.712H28.5421Z" fill="#6C5D53"/>
<path d="M60.4068 976.281H148L148.863 1034.82L138.546 1043.86H45.6021V982.877L60.4068 976.281" fill="#1A1A1A"/>
<path d="M148.001 976.281L138.42 982.974L138.546 1043.86L148.863 1034.82L148.001 976.281" fill="#333333"/>
<path d="M45.5779 982.974H138.42V1043.88H45.5779V982.974Z" fill="#4D4D4D"/>
<path d="M45.7787 993.492H138.251V996.855H45.7787V993.492Z" fill="#E6E6E6"/>
<path d="M45.5815 982.974V991.514H50.9139V987.045H57.6188V982.974H45.5815Z" fill="#E6E6E6"/>
<path d="M138.371 982.974V991.514H133.035V987.045H126.329V982.974H138.371Z" fill="#E6E6E6"/>
<path d="M79.6526 1005.39H106.068V1021.06H79.6526V1005.39Z" fill="#E6E6E6"/>
<path d="M84.6085 1009.45H101.11V1017H84.6085V1009.45Z" fill="#4D4D4D"/>
<path d="M159.827 975.894H247.421L248.283 1034.43L237.967 1043.47H145.022V982.486L159.827 975.894Z" fill="#1A1A1A"/>
<path d="M247.421 975.894L237.84 982.587L237.967 1043.47L248.283 1034.43L247.421 975.894" fill="#333333"/>
<path d="M144.998 982.587H237.84V1043.5H144.998V982.587Z" fill="#4D4D4D"/>
<path d="M145.199 993.101H237.672V996.468H145.199V993.101Z" fill="#E6E6E6"/>
<path d="M145.002 982.587V991.123H150.334V986.658H157.039V982.587H145.002Z" fill="#E6E6E6"/>
<path d="M237.791 982.587V991.123H232.455V986.658H225.75V982.587H237.791Z" fill="#E6E6E6"/>
<path d="M179.073 1005H205.489V1020.67H179.073V1005Z" fill="#E6E6E6"/>
<path d="M184.033 1009.06H200.534V1016.62H184.033V1009.06Z" fill="#4D4D4D"/>
<path d="M32.0762 594.063H162.689V625.596H32.0762V594.063Z" fill="#AC9393"/>
<path d="M40.4631 600.398H119.212V620.312H40.4631V600.398Z" fill="#E3DEDB"/>
<path d="M150.106 610.165C150.106 615.499 145.805 619.826 140.5 619.826C135.196 619.826 130.898 615.499 130.898 610.165C130.898 604.827 135.196 600.5 140.5 600.5C145.805 600.5 150.106 604.827 150.106 610.165Z" fill="#E3DEDB"/>
<path d="M32.0762 625.596H162.689V657.132H32.0762V625.596Z" fill="#DE8787"/>
<path d="M40.4631 631.935H119.212V651.852H40.4631V631.935Z" fill="#F4D7D7"/>
<path d="M150.106 641.701C150.106 647.036 145.805 651.366 140.5 651.366C135.196 651.366 130.898 647.036 130.898 641.701C130.898 636.363 135.196 632.036 140.5 632.036C145.805 632.036 150.106 636.363 150.106 641.701Z" fill="#F4D7D7"/>
<path d="M32.0762 657.132H162.689V688.669H32.0762V657.132Z" fill="#916F6F"/>
<path d="M40.4631 663.468H119.212V683.388H40.4631V663.468Z" fill="#E3DBDB"/>
<path d="M150.106 673.238C150.106 678.576 145.805 682.903 140.5 682.903C135.196 682.903 130.898 678.576 130.898 673.238C130.898 667.903 135.196 663.572 140.5 663.572C145.805 663.572 150.106 667.903 150.106 673.238Z" fill="#E3DBDB"/>
<path d="M50.249 260.126H239.54L259.054 318.879L51.1212 316.429L50.249 260.126" fill="#6C5D53"/>
<path d="M28.454 329.794L37.1799 318.751L281.039 318.235L281.257 329.794H28.454Z" fill="#6C5D53"/>
<path d="M50.249 260.126H137.839L138.701 318.663L128.388 327.705H35.4442V266.718L50.249 260.126Z" fill="#1A1A1A"/>
<path d="M137.839 260.126L128.258 266.822L128.388 327.705L138.701 318.663L137.839 260.126" fill="#333333"/>
<path d="M35.42 266.822H128.258V327.728H35.42V266.822Z" fill="#4D4D4D"/>
<path d="M35.6165 277.337H128.089V280.703H35.6165V277.337Z" fill="#E6E6E6"/>
<path d="M35.42 266.822V275.355H40.7554V270.89H47.4611V266.822H35.42Z" fill="#E6E6E6"/>
<path d="M128.209 266.822V275.355H122.876V270.89H116.171V266.822H128.209Z" fill="#E6E6E6"/>
<path d="M69.4948 289.236H95.9078V304.91H69.4948V289.236Z" fill="#E6E6E6"/>
<path d="M74.4507 293.294H90.9522V300.853H74.4507V293.294Z" fill="#4D4D4D"/>
<path d="M151.946 260.126H239.54L240.403 318.663L230.086 327.705H137.142V266.718L151.946 260.126" fill="#1A1A1A"/>
<path d="M239.54 260.126L229.959 266.822L230.086 327.705L240.402 318.663L239.54 260.126Z" fill="#333333"/>
<path d="M137.117 266.822H229.959V327.728H137.117V266.822Z" fill="#4D4D4D"/>
<path d="M137.318 277.337H229.791V280.703H137.318V277.337Z" fill="#E6E6E6"/>
<path d="M137.121 266.822V275.355H142.454V270.89H149.159V266.822H137.121" fill="#E6E6E6"/>
<path d="M229.91 266.822V275.355H224.573V270.89H217.869V266.822H229.91Z" fill="#E6E6E6"/>
<path d="M171.192 289.236H197.608V304.91H171.192V289.236Z" fill="#E6E6E6"/>
<path d="M176.148 293.294H192.652V300.853H176.148V293.294" fill="#4D4D4D"/>
<path d="M162.689 556.359H195.198V688.669H162.689V556.359Z" fill="#AC9393"/>
<path d="M168.25 565.495H188.799V652.047H168.25V565.495Z" fill="#E3DEDB"/>
<path d="M188.303 673.062C188.303 678.33 184.058 682.599 178.82 682.599C173.583 682.599 169.338 678.33 169.338 673.062C169.338 667.792 173.583 663.522 178.82 663.522C184.058 663.522 188.303 667.792 188.303 673.062Z" fill="#E3DEDB"/>
<path d="M195.198 556.359L203.603 559.716L204.124 680.78L195.198 688.669V556.359Z" fill="#916F6F"/>
<path d="M200.713 556.359H233.222V688.669H200.713V556.359Z" fill="#AC9393"/>
<path d="M206.275 565.495H226.827V652.047H206.275V565.495Z" fill="#E3DEDB"/>
<path d="M226.327 673.062C226.327 678.33 222.082 682.599 216.844 682.599C211.607 682.599 207.362 678.33 207.362 673.062C207.362 667.792 211.607 663.522 216.844 663.522C222.082 663.522 226.327 667.792 226.327 673.062Z" fill="#E3DEDB"/>
<path d="M233.222 556.359L241.627 559.716L242.152 680.78L233.222 688.669V556.359" fill="#916F6F"/>
<path d="M240.571 556.359H273.08V688.669H240.571V556.359Z" fill="#AC9393"/>
<path d="M246.133 565.495H266.685V652.047H246.133V565.495Z" fill="#E3DEDB"/>
<path d="M266.185 673.062C266.185 678.33 261.94 682.599 256.703 682.599C251.465 682.599 247.22 678.33 247.22 673.062C247.22 667.792 251.465 663.522 256.703 663.522C261.94 663.522 266.185 667.792 266.185 673.062Z" fill="#E3DEDB"/>
<path d="M273.081 556.359L281.486 559.716L282.007 680.78L273.081 688.669V556.359" fill="#916F6F"/>
<path d="M480.457 1079.48C480.457 1079.48 444.5 1117.63 443.02 1121.1C441.541 1124.57 443.512 1136.46 455.829 1138.45C468.14 1140.43 726.248 1139.94 726.248 1139.94C726.248 1139.94 742.01 1139.44 740.53 1125.56C739.051 1111.69 700.633 1078.98 700.633 1078.98C700.633 1078.98 687.827 1076.5 679.453 1076.01C671.078 1075.51 494.247 1076.5 494.247 1076.5C494.247 1076.5 487.352 1075.02 480.457 1079.48" fill="#917C6F"/>
<path d="M221.934 1093.57L1244.38 1092.58L1313.34 1199.1H153.959L221.934 1093.57" fill="#917C6F"/>
<path d="M0.897339 1099.22H1352.5V1104.65H0.897339V1099.22" fill="#91716F"/>
<path d="M0.897339 1132.53H1352.5V1137.96H0.897339V1132.53" fill="#91716F"/>
<path d="M0.897339 1176.09H1352.5V1181.51H0.897339V1176.09" fill="#91716F"/>
<path d="M0.897339 1229.89H1352.5V1235.32H0.897339V1229.89Z" fill="#91716F"/>
<path d="M0.897339 1283.7H1352.5V1289.13H0.897339V1283.7Z" fill="#91716F"/>
<path d="M582.09 1020.63H593.497V1040.29H582.09V1020.63Z" fill="#4D4D4D"/>
<path d="M566.982 965.049C561.799 965.049 557.62 969.245 557.62 974.462V981.647C557.62 982.614 557.769 983.544 558.038 984.42H514.646V990.692C536.046 989.559 556.778 991.066 577.773 991.066C576.789 992.555 576.216 994.341 576.216 996.269V1015.59C576.216 1020.81 580.395 1025.01 585.578 1025.01H590.009C595.196 1025.01 599.371 1020.81 599.371 1015.59V996.269C599.371 994.341 598.795 992.555 597.818 991.066H608.605C613.792 991.066 617.96 986.863 617.96 981.647V974.462C617.96 969.245 613.792 965.049 608.605 965.049H566.982Z" fill="#333333"/>
<path d="M514.72 984.373H527.408V995.029H514.72V984.373Z" fill="#808080"/>
<path d="M575.849 1032.69H599.739V1054.25H575.849V1032.69Z" fill="#333333"/>
<path d="M581.985 1064.19C581.985 1064.19 576.408 1081.19 575.539 1085.04C574.673 1088.9 575.717 1101.51 575.717 1101.51L583.381 1100.98C583.381 1100.98 583.202 1089.77 583.202 1088.2C583.202 1086.62 596.813 1064.03 596.813 1064.03L581.985 1064.19" fill="#4D4D4D"/>
<path d="M559.875 1053.26H617.751V1066.39H559.875V1053.26Z" fill="#333333"/>
<path d="M559.875 1053.26C559.875 1053.26 480.805 1080.84 473.141 1089.25C465.481 1097.66 468.787 1107.82 468.787 1107.82L474.361 1107.29C474.361 1107.29 472.444 1100.28 475.578 1097.13C502.224 1082.24 554.119 1069.1 554.119 1069.1L559.875 1066.39V1053.26" fill="#4D4D4D"/>
<path d="M566.312 1059.81C566.312 1059.81 523.816 1098.36 522.775 1100.98C521.73 1103.61 521.555 1120.43 521.555 1120.43L529.043 1120.08C529.043 1120.08 529.043 1109.75 530.263 1107.64C531.479 1105.54 578.329 1066.47 578.329 1066.47C578.329 1066.47 578.501 1050.53 566.312 1059.81" fill="#4D4D4D"/>
<path d="M617.751 1053.26C617.751 1053.26 696.818 1080.84 704.481 1089.25C712.145 1097.66 708.835 1107.82 708.835 1107.82L703.262 1107.29C703.262 1107.29 705.179 1100.28 702.042 1097.13C675.398 1082.24 623.5 1069.1 623.5 1069.1L617.751 1066.39V1053.26Z" fill="#4D4D4D"/>
<path d="M611.311 1059.81C611.311 1059.81 653.803 1098.36 654.848 1100.98C655.893 1103.61 656.068 1120.43 656.068 1120.43L648.58 1120.08C648.58 1120.08 648.58 1109.75 647.36 1107.64C646.14 1105.54 599.297 1066.47 599.297 1066.47C599.297 1066.47 599.119 1050.53 611.311 1059.81Z" fill="#4D4D4D"/>
<path d="M485.988 1112.16C485.988 1116.99 482.099 1120.9 477.306 1120.9C472.511 1120.9 468.622 1116.99 468.622 1112.16C468.622 1107.34 472.511 1103.43 477.306 1103.43C482.099 1103.43 485.988 1107.34 485.988 1112.16Z" fill="#1A1A1A"/>
<path d="M539.429 1123.81C539.429 1128.63 535.547 1132.54 530.751 1132.54C525.952 1132.54 522.067 1128.63 522.067 1123.81C522.067 1118.99 525.952 1115.07 530.751 1115.07C535.547 1115.07 539.429 1118.99 539.429 1123.81Z" fill="#1A1A1A"/>
<path d="M660.638 1126.26C660.638 1131.09 656.752 1134.99 651.957 1134.99C647.161 1134.99 643.276 1131.09 643.276 1126.26C643.276 1121.44 647.161 1117.52 651.957 1117.52C656.752 1117.52 660.638 1121.44 660.638 1126.26Z" fill="#1A1A1A"/>
<path d="M714.976 1109.09C714.976 1113.92 711.083 1117.83 706.291 1117.83C701.496 1117.83 697.61 1113.92 697.61 1109.09C697.61 1104.27 701.496 1100.36 706.291 1100.36C711.083 1100.36 714.976 1104.27 714.976 1109.09Z" fill="#1A1A1A"/>
<path d="M592.975 1103.05C592.975 1107.58 589.325 1111.25 584.823 1111.25C580.321 1111.25 576.671 1107.58 576.671 1103.05C576.671 1098.52 580.321 1094.84 584.823 1094.84C589.325 1094.84 592.975 1098.52 592.975 1103.05Z" fill="#1A1A1A"/>
<path d="M521.956 715.363C521.956 715.363 547.753 711.659 584.631 712.394C621.512 713.125 648.523 715.363 648.523 715.363C652.284 715.541 655.317 718.412 655.317 722.197C655.317 722.197 666.647 790.311 666.647 824.766C666.647 859.221 665.908 928.438 665.908 928.438C665.908 932.225 652.287 935.767 648.523 935.767H521.956C518.191 935.767 507.033 930.985 507.033 927.197C507.033 927.197 503.488 860.724 503.468 826.047C503.451 791.37 515.162 722.197 515.162 722.197C515.583 718.436 518.191 715.363 521.956 715.363" fill="#6C5353"/>
<path d="M531.725 749.716C531.725 749.716 553.533 746.582 584.698 747.202C615.867 747.822 638.696 749.716 638.696 749.716C641.87 749.865 644.435 752.291 644.435 755.493C644.435 755.493 654.009 813.052 654.009 842.169C654.009 871.292 653.386 929.789 653.386 929.789C653.386 932.99 641.874 935.983 638.696 935.983H531.725C528.547 935.983 519.118 931.942 519.118 928.744C519.118 928.744 516.119 872.563 516.105 843.257C516.088 813.948 525.99 755.493 525.99 755.493C526.343 752.311 528.547 749.716 531.725 749.716" fill="#916F6F"/>
<path d="M582.1 769.262H588.011C603.84 769.262 616.582 782.082 616.582 798.005V867.383C616.582 883.303 603.84 896.123 588.011 896.123H582.1C566.271 896.123 553.533 883.303 553.533 867.383V798.005C553.533 782.082 566.271 769.262 582.1 769.262" fill="#AC9393"/>
<path d="M537.522 905.043H632.589C638.049 905.043 642.443 909.464 642.443 914.954C642.443 920.447 638.049 924.865 632.589 924.865H537.522C532.066 924.865 527.674 920.447 527.674 914.954C527.674 909.464 532.066 905.043 537.522 905.043Z" fill="#AC9393"/>
<path d="M528.372 665.079C528.372 665.079 526.977 660.526 543.348 657.371C559.72 654.217 615.621 655.093 627.288 657.021C638.955 658.949 641.918 664.728 641.918 664.728L642.143 715.625L528.413 715.41L528.372 665.079" fill="#916F6F"/>
<path d="M545.023 667.05H627.005C631.187 667.05 634.561 670.44 634.561 674.65V692.827C634.561 697.04 631.187 700.427 627.005 700.427H545.023C540.838 700.427 537.471 697.04 537.471 692.827V674.65C537.471 670.44 540.838 667.05 545.023 667.05Z" fill="#AC9393"/>
<path d="M603.203 705.141C577.743 705.141 547.399 705.199 539.682 705.313C531.523 705.441 529.939 715.363 529.939 715.363L640.758 715.625C637.274 710.193 634.776 705.728 631.814 705.377C630.705 705.246 618.479 705.141 603.203 705.141Z" fill="#483737"/>
<path d="M483.814 871.117C480.535 871.117 477.893 873.776 477.893 877.079V905.461H476.676C474.648 905.461 473.017 907.099 473.017 909.134V913.343C473.017 915.382 474.648 917.023 476.676 917.023H477.893V973.788C477.893 977.087 480.535 979.746 483.814 979.746C487.096 979.746 489.738 977.087 489.738 973.788V972.736H531.88C533.906 972.736 535.533 971.098 535.533 969.06C535.533 967.017 533.906 965.38 531.88 965.38H489.738V917.023H490.955C492.98 917.023 494.615 915.382 494.615 913.343V909.134C494.615 907.099 492.98 905.461 490.955 905.461H489.738V877.079C489.738 873.776 487.096 871.117 483.814 871.117" fill="#483737"/>
<path d="M686.3 871.117C689.583 871.117 692.221 873.776 692.221 877.079V905.461H693.438C695.463 905.461 697.098 907.099 697.098 909.134V913.343C697.098 915.382 695.463 917.023 693.438 917.023H692.221V973.788C692.221 977.087 689.583 979.746 686.3 979.746C683.021 979.746 680.379 977.087 680.379 973.788V972.736H638.234C636.209 972.736 634.578 971.098 634.578 969.06C634.578 967.017 636.209 965.38 638.234 965.38H680.379V917.023H679.159C677.134 917.023 675.503 915.382 675.503 913.343V909.134C675.503 907.099 677.134 905.461 679.159 905.461H680.379V877.079C680.379 873.776 683.021 871.117 686.3 871.117" fill="#483737"/>
<path d="M510.211 935.279H659.9C663.566 935.279 666.519 938.248 666.519 941.938V966.293C666.519 969.983 663.566 972.955 659.9 972.955H510.211C506.545 972.955 503.593 969.983 503.593 966.293V941.938C503.593 938.248 506.545 935.279 510.211 935.279Z" fill="#483737"/>
<path d="M510.211 935.275C506.545 935.275 503.596 938.251 503.596 941.941V966.293C503.596 969.983 506.545 972.955 510.211 972.955H659.9C663.566 972.955 666.519 969.983 666.519 966.293V941.941C666.519 938.251 663.566 935.275 659.9 935.275H650.4V945.682C650.4 950.895 646.224 955.094 641.041 955.094H527.749C522.566 955.094 518.39 950.895 518.39 945.682V935.275H510.211" fill="#6C5353"/>
<path d="M1159.64 1139.1H1165.26C1169.03 1139.1 1172.06 1142.14 1172.06 1145.93V1158.03C1172.06 1161.82 1169.03 1164.86 1165.26 1164.86H1159.64C1155.88 1164.86 1152.84 1161.82 1152.84 1158.03V1145.93C1152.84 1142.14 1155.88 1139.1 1159.64 1139.1Z" fill="#333333"/>
<path d="M863.92 875.313H888.339V899.84H863.92V875.313Z" fill="#6C5353"/>
<path d="M324.406 1121.19H326.05C329.236 1121.19 331.801 1123.77 331.801 1126.97V1131.85C331.801 1135.05 329.236 1137.63 326.05 1137.63H324.406C321.22 1137.63 318.655 1135.05 318.655 1131.85V1126.97C318.655 1123.77 321.22 1121.19 324.406 1121.19Z" fill="#6C5353"/>
<path d="M311.848 868.037H340.95V1125.73H311.848V868.037Z" fill="#AC9393"/>
<path d="M311.738 859.585H888.093V878.11H311.738V859.585Z" fill="#6C5353"/>
<path d="M296.754 1153.86H298.669C302.337 1153.86 305.287 1156.84 305.287 1160.53V1166.15C305.287 1169.84 302.337 1172.82 298.669 1172.82H296.754C293.087 1172.82 290.137 1169.84 290.137 1166.15V1160.53C290.137 1156.84 293.087 1153.86 296.754 1153.86" fill="#6C5353"/>
<path d="M282.291 862.156H315.828V1159.11H282.291V862.156Z" fill="#C8B7B7"/>
<path d="M282.306 862.17H315.815V880.91H282.306V862.17Z" fill="#916F6F"/>
<path d="M1159.64 1139.1H1165.26C1169.03 1139.1 1172.06 1142.14 1172.06 1145.93V1158.03C1172.06 1161.82 1169.03 1164.86 1165.26 1164.86H1159.64C1155.88 1164.86 1152.84 1161.82 1152.84 1158.03V1145.93C1152.84 1142.14 1155.88 1139.1 1159.64 1139.1Z" fill="#333333"/>
<path d="M817.697 1117.49H820.163C822.735 1117.49 824.804 1119.57 824.804 1122.16V1130.44C824.804 1133.03 822.735 1135.11 820.163 1135.11H817.697C815.122 1135.11 813.049 1133.03 813.049 1130.44V1122.16C813.049 1119.57 815.122 1117.49 817.697 1117.49Z" fill="#333333"/>
<path d="M837.462 1138.57H843.086C846.851 1138.57 849.88 1141.62 849.88 1145.4V1157.51C849.88 1161.29 846.851 1164.34 843.086 1164.34H837.462C833.701 1164.34 830.671 1161.29 830.671 1157.51V1145.4C830.671 1141.62 833.701 1138.57 837.462 1138.57Z" fill="#333333"/>
<path d="M814.91 896.123H1145.03L1176.45 909.771V1141.91H830.695L814.91 1116.58V896.123Z" fill="#916F6F"/>
<path d="M830.894 909.771H1176.45V1141.91H830.894V909.771Z" fill="#C8B7B7"/>
<path d="M814.91 896.123L830.894 909.771H1176.45L1145.03 896.123H814.91" fill="#483737"/>
<path d="M877.888 862.48H911.673V904.76H877.888V862.48Z" fill="#C8B7B7"/>
<path d="M877.969 862.443H911.591V876.523H877.969V862.443Z" fill="#6C5353"/>
<path d="M158.409 824.032H1240.49L1321.09 837.663L1320.95 849.084L158.409 846.809L134.108 837.663L158.409 824.032" fill="#E9C6AF"/>
<path d="M134.108 837.663H1321.09V862.527H134.108V837.663Z" fill="#AC9393"/>
<path d="M134.108 849.06H1321.09V862.527H134.108V849.06Z" fill="#916F6F"/>
<path d="M865.264 827.641C865.264 829.66 855.397 831.294 843.221 831.294C831.045 831.294 821.181 829.66 821.181 827.641C821.181 825.622 831.045 823.988 843.221 823.988C855.397 823.988 865.264 825.622 865.264 827.641Z" fill="#DEAA87"/>
<path d="M894.027 827.634L888.076 828.5L927.302 837.613L969.946 830.573L894.027 827.634" fill="#DEAA87"/>
<path d="M1039.61 824.962L1022.4 825.012L1038.04 834.303H1108.85L1092.22 824.517L1039.61 824.962" fill="#DEAA87"/>
<path d="M1049.25 752.059L1117.1 751.856L1124.26 759.904L1102.19 823.321L1028 824.163L1022.05 819.162L1049.25 752.059" fill="#999999"/>
<path d="M1053.77 759.695H1124.28L1101.79 823.465L1027.99 824.291L1053.77 759.695Z" fill="#666666"/>
<path d="M1049.25 752.058L1053.77 759.695H1124.28L1117.1 751.856L1049.25 752.058" fill="#808080"/>
<path d="M1039.67 817.305L1094.8 817.801L1102.19 823.321V830.475H1045.37L1039.61 824.962L1039.67 817.305" fill="#333333"/>
<path d="M1045.31 823.499H1102.22V830.495H1045.31V823.499Z" fill="#4D4D4D"/>
<path d="M1049.62 817.332L1054.3 820.925H1083.85L1088.66 798.5L1056.51 798.625L1049.62 817.332" fill="#333333"/>
<path d="M1056.52 798.625L1049.62 817.332L1054.3 820.928L1056.52 798.625Z" fill="#4D4D4D"/>
<path d="M1039.67 817.305L1039.61 824.962L1045.31 830.495V823.499L1039.67 817.305" fill="#666666"/>
<path d="M827.345 815.313V827.142H827.564C827.952 828.686 835.066 829.899 843.71 829.899C852.354 829.899 859.458 828.686 859.845 827.142H859.95V815.313H827.345" fill="#C8BEB7"/>
<path d="M859.98 815.172C859.98 816.766 852.687 818.06 843.686 818.06C834.688 818.06 827.392 816.766 827.392 815.172C827.392 813.578 834.688 812.287 843.686 812.287C852.687 812.287 859.98 813.578 859.98 815.172Z" fill="#AC9D93"/>
<path d="M856.364 815.172C856.364 815.819 850.686 816.341 843.686 816.341C836.687 816.341 831.008 815.819 831.008 815.172C831.008 814.525 836.687 814.006 843.686 814.006C850.686 814.006 856.364 814.525 856.364 815.172Z" fill="#917C6F"/>
<path d="M850.804 817.642L850.989 829.595C850.989 829.595 853.237 829.41 853.449 829.289C853.668 829.164 853.668 829.164 853.668 829.164L853.398 817.443C853.398 817.443 852.28 817.686 850.804 817.642Z" fill="#FFF6D5"/>
<path d="M829.755 803.161V814.99H829.977C830.364 816.53 837.479 817.743 846.123 817.747C854.763 817.743 861.867 816.53 862.251 814.99H862.359V803.161H829.755" fill="#C8BEB7"/>
<path d="M862.386 803.016C862.386 804.61 855.093 805.901 846.096 805.901C837.098 805.901 829.805 804.61 829.805 803.016C829.805 801.422 837.098 800.131 846.096 800.131C855.093 800.131 862.386 801.422 862.386 803.016Z" fill="#AC9D93"/>
<path d="M858.777 803.016C858.777 803.663 853.098 804.189 846.096 804.189C839.093 804.189 833.418 803.663 833.418 803.016C833.418 802.373 839.093 801.847 846.096 801.847C853.098 801.847 858.777 802.373 858.777 803.016Z" fill="#917C6F"/>
<path d="M853.213 805.486L853.399 817.443C853.399 817.443 855.646 817.254 855.862 817.13C856.074 817.005 856.074 817.005 856.074 817.005L855.808 805.288C855.808 805.288 854.689 805.534 853.213 805.486" fill="#FFF6D5"/>
<path d="M342.955 242.167H729.686V274.53H342.955V242.167Z" fill="#FFEEAA"/>
<path d="M342.668 244.685H359.734V274.819H342.668V244.685Z" fill="#6C5353"/>
<path d="M712.906 244.685H729.976V274.819H712.906V244.685Z" fill="#6C5353"/>
<path d="M338.196 241.881H734.444V263.607H338.196V241.881Z" fill="#333333"/>
<path d="M338.051 255.196H734.444V263.607H338.051V255.196Z" fill="#666666"/>
<path d="M379.482 -17.9864H385.882V244.655H379.482V-17.9864Z" fill="#333333"/>
<path d="M681.424 -17.9864H687.824V244.655H681.424V-17.9864Z" fill="#333333"/>
<path d="M872.169 242.167H1258.9V274.53H872.169V242.167Z" fill="#FFEEAA"/>
<path d="M871.883 244.685H888.948V274.819H871.883V244.685Z" fill="#6C5353"/>
<path d="M1242.12 244.685H1259.19V274.819H1242.12V244.685Z" fill="#6C5353"/>
<path d="M867.414 241.881H1263.66V263.607H867.414V241.881" fill="#333333"/>
<path d="M867.266 255.196H1263.66V263.607H867.266V255.196Z" fill="#666666"/>
<path d="M908.694 -17.9864H915.096V244.655H908.694V-17.9864Z" fill="#333333"/>
<path d="M1210.64 -17.9864H1217.04V244.655H1210.64V-17.9864Z" fill="#333333"/>
<path d="M481.829 386.869H813.905V565.512H481.829V386.869Z" fill="#666666"/>
<path d="M491.707 396.318H804.028V555.092H491.707V396.318" fill="#333333"/>
<path d="M491.69 403.971H797.78V555.116H491.69V403.971Z" fill="#808080"/>
<path d="M797.935 403.961L804.038 395.637V554.86H798.245L797.935 403.961" fill="#4D4D4D"/>
<path d="M491.707 396.318L500.162 403.938L500.334 555.055H491.707V396.318Z" fill="#4D4D4D"/>
<path d="M815.193 401.575H1128.66V565.566H815.193V401.575Z" fill="#F9F9F9"/>
<path d="M824.504 409.619H1119.35V550.9H824.504V409.619Z" fill="#999999"/>
<path d="M824.487 416.086H1105.08V550.007H824.487V416.086" fill="#CCCCCC"/>
<path d="M1105.08 416.996L1119.35 409.619V550.677H1105.8L1105.08 416.996Z" fill="#808080"/>
<path d="M1019.46 492.42L1028.65 491.17L1028.52 550.65H1019.05L1019.46 492.42Z" fill="#333333"/>
<path d="M1028.65 491.17H1119.35V550.677H1028.65V491.17" fill="#4D4D4D"/>
<path d="M1028.81 501.442H1119.16V504.731H1028.81V501.442Z" fill="#E6E6E6"/>
<path d="M1119.35 491.17V499.507H1114.14V495.147H1107.59V491.17H1119.35Z" fill="#E6E6E6"/>
<path d="M1028.7 491.17V499.507H1033.91V495.147H1040.46V491.17H1028.7Z" fill="#E6E6E6"/>
<path d="M1060.26 513.072H1086.06V528.382H1060.26V513.072Z" fill="#E6E6E6"/>
<path d="M1065.1 517.031H1081.22V524.415H1065.1V517.031Z" fill="#4D4D4D"/>
<path d="M925.938 492.42L935.128 491.17L935 550.65H925.527L925.938 492.42" fill="#333333"/>
<path d="M935.128 491.17H1025.83V550.677H935.128V491.17Z" fill="#4D4D4D"/>
<path d="M935.293 501.442H1025.64V504.731H935.293V501.442Z" fill="#E6E6E6"/>
<path d="M1025.83 491.17V499.507H1020.61V495.147H1014.07V491.17H1025.83Z" fill="#E6E6E6"/>
<path d="M935.172 491.17V499.507H940.385V495.147H946.936V491.17H935.172" fill="#E6E6E6"/>
<path d="M966.732 513.072H992.539V528.382H966.732V513.072Z" fill="#E6E6E6"/>
<path d="M971.574 517.031H987.696V524.415H971.574V517.031Z" fill="#4D4D4D"/>
<path d="M831.254 492.42L840.444 491.17L840.319 550.65H830.843L831.254 492.42Z" fill="#333333"/>
<path d="M840.444 491.17H931.151V550.677H840.444V491.17Z" fill="#4D4D4D"/>
<path d="M840.609 501.442H930.956V504.731H840.609V501.442Z" fill="#E6E6E6"/>
<path d="M931.148 491.17V499.507H925.938V495.147H919.386V491.17H931.148Z" fill="#E6E6E6"/>
<path d="M840.495 491.17V499.507H845.705V495.147H852.253V491.17H840.495" fill="#E6E6E6"/>
<path d="M872.051 513.072H897.855V528.382H872.051V513.072Z" fill="#E6E6E6"/>
<path d="M876.891 517.031H893.016V524.415H876.891V517.031Z" fill="#4D4D4D"/>
<path d="M522.441 555.112L543.544 485.97L658.158 490.021H660.914L668.035 555.729L522.441 555.112Z" fill="#4D4D4D"/>
<path d="M543.695 485.994L651.172 485.967L658.289 490.021V555.706H543.695V485.994Z" fill="#B3B3B3"/>
<path d="M543.672 485.97H651.172V555.729H543.672V485.97" fill="#F9F9F9"/>
<path d="M543.702 488.656H651.067V491.382H543.702V488.656Z" fill="#E6E6E6"/>
<path d="M543.702 494.206H651.067V496.929H543.702V494.206Z" fill="#E6E6E6"/>
<path d="M543.702 499.76H651.067V502.479H543.702V499.76Z" fill="#E6E6E6"/>
<path d="M543.702 505.307H651.067V508.033H543.702V505.307Z" fill="#E6E6E6"/>
<path d="M543.702 510.858H651.067V513.581H543.702V510.858Z" fill="#E6E6E6"/>
<path d="M543.702 516.411H651.067V519.131H543.702V516.411Z" fill="#E6E6E6"/>
<path d="M543.702 521.958H651.067V524.681H543.702V521.958Z" fill="#E6E6E6"/>
<path d="M543.702 527.512H651.067V530.232H543.702V527.512Z" fill="#E6E6E6"/>
<path d="M543.702 533.059H651.067V535.779H543.702V533.059Z" fill="#E6E6E6"/>
<path d="M543.702 538.609H651.067V541.333H543.702V538.609Z" fill="#E6E6E6"/>
<path d="M543.702 544.16H651.067V546.879H543.702V544.16Z" fill="#E6E6E6"/>
<path d="M543.702 549.71H651.067V552.43H543.702V549.71Z" fill="#E6E6E6"/>
<path d="M775.636 485.994L668.163 485.967L661.042 490.021V555.706H775.636V485.994" fill="#B3B3B3"/>
<path d="M668.163 485.97H775.659V555.729H668.163V485.97Z" fill="#F9F9F9"/>
<path d="M668.267 488.656H775.626V491.382H668.267V488.656Z" fill="#E6E6E6"/>
<path d="M668.267 494.206H775.626V496.929H668.267V494.206Z" fill="#E6E6E6"/>
<path d="M668.267 499.76H775.626V502.479H668.267V499.76Z" fill="#E6E6E6"/>
<path d="M668.267 505.307H775.626V508.033H668.267V505.307Z" fill="#E6E6E6"/>
<path d="M668.267 510.858H775.626V513.581H668.267V510.858Z" fill="#E6E6E6"/>
<path d="M668.267 516.411H775.626V519.131H668.267V516.411Z" fill="#E6E6E6"/>
<path d="M668.267 521.958H775.626V524.681H668.267V521.958Z" fill="#E6E6E6"/>
<path d="M668.267 527.512H775.626V530.232H668.267V527.512Z" fill="#E6E6E6"/>
<path d="M668.267 533.059H775.626V535.779H668.267V533.059Z" fill="#E6E6E6"/>
<path d="M668.267 538.609H775.626V541.333H668.267V538.609Z" fill="#E6E6E6"/>
<path d="M668.267 544.16H775.626V546.879H668.267V544.16Z" fill="#E6E6E6"/>
<path d="M668.267 549.71H775.626V552.43H668.267V549.71Z" fill="#E6E6E6"/>
<path d="M830.806 932.091H1176.44V941.2H830.806V932.091Z" fill="#6C5353"/>
<path d="M830.894 1106.05H1176.53V1141.91H830.894V1106.05Z" fill="#6C5353"/>
<path d="M814.91 1116.58L830.894 1141.91V1106.05L814.964 1088.41L814.91 1116.58Z" fill="#6C5353"/>
<path d="M481.829 565.512L521.339 580.596L1096.66 579.895L1128.66 565.549L481.829 565.512" fill="#917C6F"/>
<path d="M894.357 818.875L894.317 820.298L897.377 820.719L896.983 825.713L894.064 826.3L894.027 827.634L927.73 835.698L969.946 830.573L970.044 821.309L908.36 816.776L894.357 818.875Z" fill="#535D6C"/>
<path d="M908.36 816.776L894.357 818.875L894.317 820.298L897.377 820.719L897.367 820.833L931.471 826.876L968.716 822.734L968.484 829.528L927.821 834.158L894.061 826.367L894.027 827.634L926.841 835.486C927.707 835.493 928.573 835.493 929.452 835.493L969.946 830.573L970.044 821.312L908.36 816.776Z" fill="#B7B7C8"/>
<path d="M923.323 814.609L894.357 818.876L930.861 825.144L969.097 821.241L923.323 814.609" fill="#AFAFE9"/>
<path d="M896.983 825.713L931.266 832.507L964.437 828.827L964.352 823.152L931.471 826.876L897.367 820.833L896.983 825.713" fill="#CCCCCC"/>
<path d="M931.471 826.876L931.266 832.507L964.437 828.827L964.352 823.152L931.471 826.876Z" fill="white"/>
<path d="M931.744 825.022L931.471 826.876L894.317 820.298L894.357 818.875L930.861 825.144L931.744 825.022" fill="#5F5FD3"/>
<path d="M927.821 834.158L927.73 835.698L894.027 827.634L894.064 826.299L927.821 834.158" fill="#9393AC"/>
<path d="M798.616 755.054L798.346 755.54L794.73 778.068L798.036 777.05L801.477 755.476L798.616 755.054" fill="#A2DC84"/>
<path d="M809.272 778.611C809.272 780.353 800.931 781.765 790.639 781.765C780.347 781.765 772.006 780.353 772.006 778.611C772.006 776.872 780.347 775.46 790.639 775.46C800.931 775.46 809.272 776.872 809.272 778.611Z" fill="#483737"/>
<path d="M789.621 737.567H801.986V799.208H789.621V737.567Z" fill="#F9F9F9"/>
<path d="M789.621 737.567H793.055V799.208H789.621V737.567Z" fill="#D38D5F"/>
<path d="M794.73 738.572H800.877V739.842H794.73V738.572Z" fill="#E9C6AF"/>
<path d="M797.315 741.578H800.877V742.848H797.315V741.578Z" fill="#E9C6AF"/>
<path d="M794.73 744.86H800.877V746.131H794.73V744.86Z" fill="#E9C6AF"/>
<path d="M797.315 747.863H800.877V749.133H797.315V747.863Z" fill="#E9C6AF"/>
<path d="M794.73 751.334H800.877V752.604H794.73V751.334Z" fill="#E9C6AF"/>
<path d="M797.315 754.34H800.877V755.607H797.315V754.34Z" fill="#E9C6AF"/>
<path d="M794.73 757.585H800.877V758.856H794.73V757.585Z" fill="#E9C6AF"/>
<path d="M797.315 760.588H800.877V761.858H797.315V760.588Z" fill="#E9C6AF"/>
<path d="M794.73 763.874H800.877V765.141H794.73V763.874Z" fill="#E9C6AF"/>
<path d="M797.315 766.876H800.877V768.147H797.315V766.876Z" fill="#E9C6AF"/>
<path d="M794.73 770.347H800.877V771.618H794.73V770.347Z" fill="#E9C6AF"/>
<path d="M797.315 773.35H800.877V774.621H797.315V773.35Z" fill="#E9C6AF"/>
<path d="M794.73 776.801H800.877V778.072H794.73V776.801Z" fill="#E9C6AF"/>
<path d="M797.315 779.804H800.877V781.074H797.315V779.804Z" fill="#E9C6AF"/>
<path d="M794.73 783.086H800.877V784.356H794.73V783.086Z" fill="#E9C6AF"/>
<path d="M797.315 786.092H800.877V787.363H797.315V786.092Z" fill="#E9C6AF"/>
<path d="M794.73 789.563H800.877V790.83H794.73V789.563Z" fill="#E9C6AF"/>
<path d="M797.315 792.566H800.877V793.836H797.315V792.566Z" fill="#E9C6AF"/>
<path d="M775.481 761.7L776.963 761.05C778.022 760.591 779.242 761.077 779.703 762.138L795.37 798.48C795.829 799.545 795.343 800.772 794.285 801.234L792.802 801.884C791.744 802.342 790.521 801.857 790.066 800.795L774.399 764.453C773.94 763.388 774.422 762.158 775.481 761.7" fill="#333333"/>
<path d="M775.481 761.7C774.422 762.158 773.94 763.388 774.399 764.453L790.066 800.795C790.528 801.857 791.744 802.342 792.799 801.884L793.486 801.581L776.165 761.4L775.481 761.7" fill="#1A1A1A"/>
<path d="M774.648 757.723C773.213 758.347 772.451 760.045 772.805 761.845C772.805 761.912 772.822 761.976 772.842 762.044C772.852 762.077 772.852 762.108 772.866 762.138L772.879 762.168C772.933 762.384 773.007 762.603 773.098 762.809C773.192 763.028 773.3 763.23 773.422 763.425L778.035 774.129C778.187 774.479 778.537 774.658 778.83 774.533L783.99 772.279C784.28 772.157 784.388 771.77 784.236 771.419L779.619 760.706C779.562 760.487 779.488 760.271 779.4 760.062C779.306 759.847 779.194 759.638 779.073 759.439L779.07 759.432C779.033 759.338 778.972 759.253 778.905 759.186C777.836 757.696 776.087 757.097 774.648 757.723" fill="#333333"/>
<path d="M778.76 774.56L784.057 772.248L784.677 773.69L779.383 776.006L778.76 774.56" fill="#FFEEAA"/>
<path d="M774.483 757.808C773.149 758.495 772.471 760.126 772.805 761.845C772.805 761.912 772.822 761.976 772.842 762.044C772.849 762.077 772.852 762.108 772.865 762.138L772.879 762.165C772.933 762.384 773.007 762.603 773.098 762.809C773.192 763.028 773.3 763.23 773.422 763.425L778.035 774.129C778.187 774.479 778.537 774.658 778.83 774.533L781.24 773.478L774.483 757.808" fill="#1A1A1A"/>
<path d="M777.88 764.834C778.365 764.619 778.925 764.841 779.134 765.333L785.031 779.008C785.24 779.497 785.018 780.06 784.536 780.269C784.051 780.481 783.491 780.259 783.282 779.773L777.385 766.091C777.176 765.603 777.395 765.043 777.88 764.834" fill="white"/>
<path d="M790.642 760.032L794.326 752.001L796.543 760.554L790.844 825.309L784.944 824.783L790.642 760.032Z" fill="#FF8080"/>
<path d="M794.326 752.001L790.878 759.523L796.405 760.015L794.326 752.001Z" fill="white"/>
<path d="M794.326 752.001L792.465 756.059L795.445 756.322L794.326 752.001Z" fill="#333333"/>
<path d="M790.878 759.523L790.636 760.066L788.361 784.485L791.606 783.174L793.756 759.793L790.878 759.523" fill="#CD8080"/>
<path d="M783.69 764.305L786.656 755.981L789.614 764.305V829.309H783.69V764.305Z" fill="#87CDDE"/>
<path d="M786.656 755.981L783.882 763.776H789.429L786.656 755.981Z" fill="white"/>
<path d="M786.656 755.981L785.159 760.184H788.149L786.656 755.981Z" fill="#333333"/>
<path d="M783.69 764.305L783.882 763.776L786.848 763.786L787.107 781.361L783.66 780.649L783.69 764.305" fill="#87AADE"/>
<path d="M798.191 763.143L799.765 763.523C800.887 763.79 801.575 764.915 801.308 766.044L792.172 804.573C791.903 805.706 790.784 806.393 789.665 806.124L788.091 805.746C786.969 805.477 786.281 804.354 786.548 803.225L795.687 764.693C795.953 763.564 797.069 762.876 798.191 763.143" fill="#333333"/>
<path d="M798.191 763.142C797.069 762.876 795.953 763.564 795.687 764.693L786.548 803.225C786.281 804.354 786.969 805.476 788.088 805.746L788.816 805.925L798.922 763.318L798.191 763.142" fill="#1A1A1A"/>
<path d="M799.9 759.456C798.376 759.095 796.755 759.995 795.964 761.643C795.926 761.7 795.9 761.761 795.876 761.828C795.866 761.859 795.846 761.886 795.839 761.919L795.832 761.946C795.744 762.159 795.677 762.374 795.623 762.597C795.569 762.826 795.536 763.055 795.512 763.284L792.826 774.627C792.735 774.998 792.914 775.359 793.22 775.43L798.693 776.744C799 776.818 799.317 776.579 799.404 776.208L802.097 764.848C802.181 764.639 802.252 764.423 802.303 764.197C802.36 763.972 802.394 763.739 802.417 763.503V763.496C802.441 763.395 802.441 763.294 802.431 763.2C802.464 761.367 801.423 759.826 799.9 759.459V759.456" fill="#333333"/>
<path d="M793.15 775.412L798.764 776.757L798.4 778.291L792.782 776.943L793.15 775.412Z" fill="#FFEEAA"/>
<path d="M799.718 759.425C798.242 759.169 796.725 760.069 795.964 761.643C795.927 761.7 795.9 761.761 795.876 761.828C795.866 761.858 795.846 761.882 795.839 761.919L795.832 761.946C795.745 762.158 795.677 762.374 795.623 762.593C795.569 762.822 795.536 763.051 795.512 763.284L792.826 774.627C792.735 774.998 792.914 775.355 793.22 775.429L795.775 776.046L799.718 759.425" fill="#1A1A1A"/>
<path d="M798.245 767.099C798.761 767.223 799.074 767.736 798.949 768.251L795.512 782.756C795.387 783.275 794.875 783.588 794.363 783.467C793.851 783.342 793.537 782.827 793.655 782.311L797.099 767.81C797.217 767.294 797.733 766.974 798.245 767.099" fill="white"/>
<path d="M812.197 830.526C812.197 832.544 802.333 834.182 790.157 834.182C777.981 834.182 768.117 832.544 768.117 830.526C768.117 828.51 777.981 826.872 790.157 826.872C802.333 826.872 812.197 828.51 812.197 830.526Z" fill="#DEAA87"/>
<path d="M772.006 778.348V829.595H772.04C772.02 829.653 772.006 829.713 772.006 829.771C772.006 830.606 773.964 831.409 777.462 831.998C780.957 832.595 785.698 832.925 790.639 832.925C795.586 832.925 800.321 832.591 803.816 831.998C807.314 831.409 809.272 830.606 809.272 829.771C809.265 829.713 809.248 829.653 809.221 829.595H809.272V778.348C809.272 778.348 807.391 781.718 790.022 781.135C772.657 780.552 772.006 778.348 772.006 778.348" fill="#7B5A53"/>
<path d="M809.241 819.563C809.241 819.563 798.717 822.414 791.266 822.539C784.007 822.66 772.498 819.846 772.006 819.667V829.595H772.04C772.02 829.653 772.006 829.713 772.006 829.771C772.003 831.513 780.347 832.925 790.639 832.925C800.931 832.925 809.275 831.51 809.272 829.771C809.265 829.713 809.248 829.653 809.221 829.595H809.272V819.573L809.241 819.563Z" fill="#6C5353"/>
<path d="M772.006 778.348V783.693C772.006 783.693 783.845 786.341 792.209 786.321C800.486 786.301 806.535 784.687 809.272 783.211V778.348C809.272 778.348 807.391 781.718 790.022 781.135C772.657 780.552 772.006 778.348 772.006 778.348" fill="#916F6F"/>
<path d="M895.769 808.533L895.726 809.948L898.786 810.369L898.395 815.37L895.473 815.95L895.439 817.288L929.143 825.353L971.355 820.23L971.456 810.966L909.765 806.43L895.769 808.533Z" fill="#535D6C"/>
<path d="M909.765 806.43L895.769 808.533L895.726 809.948L898.786 810.37L898.776 810.491L932.883 816.533L970.129 812.385L969.893 819.186L929.227 823.813L895.473 816.021L895.439 817.288L928.25 825.14C929.116 825.144 929.985 825.144 930.861 825.144L971.355 820.23L971.456 810.966L909.765 806.43" fill="#B7B7C8"/>
<path d="M924.735 804.266L895.769 808.533L932.273 814.801L970.506 810.895L924.735 804.266Z" fill="#AFAFE9"/>
<path d="M898.395 815.371L932.678 822.158L965.848 818.485L965.761 812.803L932.883 816.533L898.775 810.491L898.395 815.371" fill="#CCCCCC"/>
<path d="M932.883 816.533L932.678 822.158L965.849 818.485L965.761 812.803L932.883 816.533" fill="white"/>
<path d="M933.156 814.676L932.883 816.533L895.726 809.948L895.769 808.533L932.273 814.801L933.156 814.676" fill="#5F5FD3"/>
<path d="M929.227 823.812L929.143 825.353L895.439 817.288L895.473 815.95L929.227 823.812Z" fill="#9393AC"/>
<path d="M620.221 831.89C620.221 834.182 608.838 836.039 594.795 836.039C580.749 836.039 569.365 834.182 569.365 831.89C569.365 829.595 580.749 827.739 594.795 827.739C608.838 827.739 620.221 829.595 620.221 831.89Z" fill="#DEAA87"/>
<path d="M612.221 790.348C612.221 791.703 603.88 792.798 593.585 792.798C583.293 792.798 574.952 791.703 574.952 790.348C574.952 788.997 583.293 787.898 593.585 787.898C603.88 787.898 612.221 788.997 612.221 790.348Z" fill="#6C5D53"/>
<path d="M612.393 798.679C614.368 798.696 618.479 798.713 619.854 798.861C619.12 798.784 619.891 798.942 620.528 799.784C621.162 800.63 621.906 801.924 622.543 803.444C623.814 806.474 624.636 810.41 624.04 813.686C623.41 817.15 622.051 819.209 620.892 820.446C619.827 821.582 619.21 821.831 619.093 821.878L612.221 822.212V798.996L612.363 799.006L612.393 798.679ZM574.952 790.143V829.986H574.983C574.962 830.03 574.952 830.077 574.952 830.125C574.949 830.775 576.914 831.398 580.408 831.857C583.903 832.318 588.641 832.578 593.585 832.578C598.529 832.578 603.27 832.318 606.765 831.857C610.256 831.398 612.221 830.775 612.221 830.125C612.211 830.077 612.194 830.03 612.167 829.986H612.221V826.185L620.171 825.794L620.494 825.653C620.494 825.653 622.136 824.908 623.767 823.169C625.391 821.433 627.154 818.596 627.919 814.39C628.717 809.992 627.669 805.47 626.176 801.907C625.432 800.125 624.569 798.595 623.672 797.398C622.776 796.205 622.095 795.117 620.272 794.921C618.193 794.696 614.176 794.679 612.221 794.679V790.143C612.221 790.143 610.334 792.765 592.972 792.31C575.603 791.858 574.952 790.143 574.952 790.143" fill="#C8BEB7"/>
<path d="M612.187 823.425C612.187 823.425 601.542 825.38 594.09 825.464C586.831 825.545 575.444 823.617 574.952 823.499V830.293H574.989C574.966 830.337 574.952 830.374 574.952 830.414C574.949 831.607 583.337 833.451 593.632 833.451C603.924 833.451 612.225 831.607 612.221 830.414C612.214 830.374 612.191 830.337 612.167 830.293H612.221V823.435L612.187 823.425" fill="#917C6F"/>
<path d="M574.952 790.143V798.568C574.952 798.568 585.315 801.183 593.673 801.159C601.956 801.139 609.657 800.088 612.393 798.679L612.221 790.143C612.221 790.143 610.381 792.832 593.012 792.276C575.65 791.72 574.952 790.143 574.952 790.143Z" fill="#E3DEDB"/>
<path d="M287.874 827.493L267.671 837.832L483.093 837.657L503.468 826.047L287.874 827.493" fill="#DEAA87"/>
<path d="M279.578 815.782L500.779 815.404C500.779 815.404 504.398 816.415 504.816 820.264C505.234 824.112 500.779 826.047 500.779 826.047L435.724 835.105L310.204 835.203L279.317 835.18L272.901 824.931L279.631 822.478L279.578 815.782" fill="#E6E6E6"/>
<path d="M500.779 815.408L435.829 823.573L433.49 835.109H435.724L500.779 826.05C500.779 826.05 505.234 824.116 504.816 820.267C504.398 816.415 500.779 815.408 500.779 815.408" fill="#808080"/>
<path d="M255.165 690.694C255.165 690.694 256.576 688.955 257.966 688.588C259.353 688.227 427.208 687.068 428.576 687.755C429.941 688.443 430.622 689.643 430.966 692.049C431.282 694.273 441.928 802.15 443.489 818.565C443.741 821.15 442.528 822.323 439.273 822.778C437.278 823.014 271.574 822.778 271.574 822.778L255.165 690.694" fill="#E6E6E6"/>
<path d="M428.576 687.755C425.206 688.527 425.756 690.694 425.756 690.694L422.985 696.898C422.985 696.898 421.004 704.312 421.004 706.742C421.004 709.168 418.588 732.964 418.588 735.39C418.588 737.82 439.273 822.778 439.273 822.778C442.525 822.323 443.741 821.15 443.488 818.569C441.928 802.15 431.282 694.273 430.966 692.049C430.622 689.643 429.941 688.443 428.576 687.755" fill="#B3B3B3"/>
<path d="M255.165 690.694H425.756L439.273 822.778H271.574L255.165 690.694Z" fill="#666666"/>
<path d="M275.805 823.755H434.764C437.099 823.755 438.986 825.653 438.986 828.005V830.95C438.986 833.302 437.099 835.203 434.764 835.203H275.805C273.464 835.203 271.58 833.302 271.58 830.95V828.005C271.58 825.653 273.464 823.755 275.805 823.755Z" fill="#666666"/>
<path d="M283.39 819.809H309.577C311.281 819.809 312.653 821.191 312.653 822.903V823.513C312.653 825.225 311.281 826.606 309.577 826.606H283.39C281.686 826.606 280.313 825.225 280.313 823.513V822.903C280.313 821.191 281.686 819.809 283.39 819.809Z" fill="#333333"/>
<path d="M398.074 819.809H424.263C425.971 819.809 427.343 821.191 427.343 822.903V823.513C427.343 825.225 425.971 826.606 424.263 826.606H398.074C396.373 826.606 394.998 825.225 394.998 823.513V822.903C394.998 821.191 396.373 819.809 398.074 819.809Z" fill="#333333"/>
<path d="M362.305 742.232C364.519 755.867 356.499 768.531 344.397 770.519C332.294 772.508 320.689 763.068 318.475 749.437C316.261 735.805 324.276 723.141 336.381 721.152C348.481 719.164 360.091 728.6 362.305 742.232" fill="#C8B7B7"/>
</g>
</g>
<defs>
<clipPath id="clip0_49_1404">
<rect width="1348" height="1348" fill="white" transform="translate(0 -18)"/>
</clipPath>
</defs>
</svg>
