<svg width="151" height="196" viewBox="0 0 151 196" fill="none" xmlns="http://www.w3.org/2000/svg">
<path d="M106.404 0.000488281H5.16452C2.34592 0.000488281 0.0610352 2.28537 0.0610352 6.71909V191.861C0.0610352 193.064 2.34592 195.349 5.16452 195.349H144.958C147.776 195.349 150.061 193.064 150.061 191.861V45.2726C150.061 42.8447 149.737 42.0633 149.165 41.4877L108.574 0.897C107.998 0.324907 107.217 0.000488281 106.404 0.000488281Z" fill="#E9E9E0"/>
<path d="M108.201 0.5271V41.8608H149.534L108.201 0.5271Z" fill="#D9D7CA"/>
<path d="M144.958 195.349H5.16452C2.34592 195.349 0.0610352 193.064 0.0610352 190.245V136.046H150.061V190.245C150.061 193.064 147.776 195.349 144.958 195.349Z" fill="#0096E6"/>
<path d="M59.6417 181.308C58.337 182.578 56.858 183.534 55.208 184.169C53.558 184.804 51.7754 185.121 49.8673 185.121C47.7673 185.121 45.8382 184.741 44.0731 183.977C42.308 183.213 40.7661 182.086 39.4475 180.59C38.1289 179.093 37.0928 177.22 36.3463 174.963C35.5998 172.706 35.2266 170.097 35.2266 167.142C35.2266 164.188 35.5998 161.585 36.3463 159.346C37.0928 157.103 38.1289 155.236 39.4475 153.743C40.7661 152.25 42.3149 151.113 44.0975 150.332C45.8801 149.55 47.8021 149.163 49.8673 149.163C51.7754 149.163 53.558 149.481 55.208 150.115C56.858 150.75 58.337 151.706 59.6417 152.976L55.6824 156.506C54.887 155.582 54.008 154.915 53.0347 154.504C52.0615 154.092 51.0568 153.883 50.0068 153.883C48.8312 153.883 47.7115 154.103 46.644 154.549C45.5766 154.996 44.6242 155.749 43.7835 156.813C42.9428 157.877 42.2801 159.251 41.8056 160.94C41.3312 162.628 41.0731 164.69 41.0417 167.139C41.0731 169.525 41.3207 171.558 41.7812 173.243C42.2417 174.928 42.8766 176.303 43.6894 177.37C44.5021 178.438 45.4231 179.212 46.4556 179.707C47.4882 180.203 48.5766 180.447 49.7242 180.447C50.8719 180.447 51.9428 180.238 52.944 179.826C53.9452 179.414 54.8591 178.744 55.6859 177.824L59.6417 181.308Z" fill="white"/>
<path d="M87.7334 175.249C87.7334 176.519 87.4717 177.754 86.945 178.947C86.4182 180.14 85.6822 181.19 84.7264 182.093C83.7706 182.997 82.5985 183.722 81.1961 184.263C79.7938 184.804 78.2101 185.072 76.4275 185.072C75.6636 185.072 74.8787 185.031 74.0659 184.954C73.2531 184.877 72.4368 184.738 71.6101 184.549C70.7834 184.361 69.995 184.096 69.2485 183.761C68.502 183.426 67.8601 183.021 67.3159 182.543L68.3171 178.441C68.7636 178.696 69.3252 178.943 70.0089 179.181C70.6927 179.418 71.3973 179.641 72.1299 179.847C72.8624 180.053 73.5915 180.22 74.3241 180.349C75.0566 180.478 75.7368 180.541 76.3752 180.541C78.3148 180.541 79.8008 180.088 80.8334 179.181C81.8659 178.274 82.3822 176.931 82.3822 175.151C82.3822 174.07 82.0194 173.149 81.2868 172.385C80.5543 171.621 79.6403 170.931 78.545 170.31C77.4496 169.689 76.2636 169.071 74.9903 168.45C73.7171 167.829 72.5275 167.097 71.4148 166.256C70.302 165.415 69.381 164.421 68.6485 163.277C67.9159 162.133 67.5531 160.703 67.5531 158.986C67.5531 157.431 67.8392 156.046 68.4113 154.839C68.9834 153.632 69.7543 152.603 70.7241 151.762C71.6938 150.921 72.8241 150.276 74.1113 149.829C75.3985 149.383 76.7589 149.163 78.1892 149.163C79.6508 149.163 81.1299 149.299 82.6229 149.568C84.1159 149.836 85.3229 150.276 86.2473 150.879C86.0555 151.291 85.8357 151.744 85.581 152.24C85.3264 152.735 85.0857 153.192 84.8659 153.621C84.6461 154.05 84.4543 154.41 84.2938 154.696C84.1334 154.982 84.0392 155.142 84.0078 155.174C83.8159 155.079 83.6031 154.954 83.3624 154.793C83.1217 154.633 82.7834 154.476 82.3368 154.315C81.8903 154.155 81.3043 154.047 80.5717 153.981C79.8392 153.914 78.9008 153.932 77.7566 154.029C77.1182 154.096 76.5182 154.274 75.9427 154.577C75.3671 154.881 74.8613 155.25 74.4148 155.697C73.9682 156.143 73.6194 156.642 73.3648 157.2C73.1101 157.758 72.9845 158.292 72.9845 158.798C72.9845 160.068 73.3473 161.093 74.0799 161.875C74.8124 162.656 75.7194 163.336 76.7973 163.926C77.8752 164.515 79.0543 165.088 80.3275 165.642C81.6008 166.197 82.7834 166.877 83.8822 167.669C84.981 168.461 85.8915 169.458 86.6241 170.648C87.3566 171.838 87.7334 173.372 87.7334 175.249Z" fill="white"/>
<path d="M113.582 175.249C113.582 176.519 113.321 177.754 112.794 178.947C112.267 180.14 111.531 181.19 110.576 182.093C109.62 182.997 108.448 183.722 107.045 184.263C105.643 184.804 104.059 185.072 102.277 185.072C101.513 185.072 100.728 185.031 99.915 184.954C99.1023 184.877 98.286 184.738 97.4592 184.549C96.6325 184.361 95.8441 184.096 95.0976 183.761C94.3511 183.426 93.7092 183.021 93.165 182.543L94.1662 178.441C94.6127 178.696 95.1744 178.943 95.8581 179.181C96.5418 179.418 97.2464 179.641 97.979 179.847C98.7116 180.053 99.4406 180.22 100.173 180.349C100.906 180.478 101.586 180.541 102.224 180.541C104.164 180.541 105.65 180.088 106.682 179.181C107.715 178.274 108.231 176.931 108.231 175.151C108.231 174.07 107.869 173.149 107.136 172.385C106.403 171.621 105.489 170.931 104.394 170.31C103.299 169.689 102.113 169.071 100.839 168.45C99.5662 167.829 98.3767 167.097 97.2639 166.256C96.1511 165.415 95.2302 164.421 94.4976 163.277C93.765 162.133 93.4023 160.703 93.4023 158.986C93.4023 157.431 93.6883 156.046 94.2604 154.839C94.8325 153.632 95.6034 152.603 96.5732 151.762C97.543 150.921 98.6732 150.276 99.9604 149.829C101.248 149.383 102.608 149.163 104.038 149.163C105.5 149.163 106.979 149.299 108.472 149.568C109.965 149.836 111.172 150.276 112.096 150.879C111.905 151.291 111.685 151.744 111.43 152.24C111.176 152.735 110.935 153.192 110.715 153.621C110.495 154.05 110.303 154.41 110.143 154.696C109.982 154.982 109.888 155.142 109.857 155.174C109.665 155.079 109.452 154.954 109.212 154.793C108.971 154.633 108.632 154.476 108.186 154.315C107.739 154.155 107.153 154.047 106.421 153.981C105.688 153.914 104.75 153.932 103.606 154.029C102.967 154.096 102.367 154.274 101.792 154.577C101.216 154.881 100.71 155.25 100.264 155.697C99.8174 156.143 99.4685 156.642 99.2139 157.2C98.9592 157.758 98.8336 158.292 98.8336 158.798C98.8336 160.068 99.1964 161.093 99.929 161.875C100.662 162.656 101.569 163.336 102.646 163.926C103.724 164.515 104.903 165.088 106.177 165.642C107.45 166.197 108.632 166.877 109.731 167.669C110.83 168.461 111.741 169.458 112.473 170.648C113.206 171.838 113.582 173.372 113.582 175.249Z" fill="white"/>
<path d="M45.4101 66.279V52.3255C45.4101 50.4034 46.9729 48.8371 48.8985 48.8371C50.8276 48.8371 52.3869 47.2743 52.3869 45.3487C52.3869 43.4231 50.8276 41.8604 48.8985 41.8604C43.1287 41.8604 38.4334 46.5557 38.4334 52.3255V66.279C38.4334 70.1266 35.3043 73.2557 31.4566 73.2557C29.5276 73.2557 27.9683 74.8185 27.9683 76.7441C27.9683 78.6697 29.5276 80.2324 31.4566 80.2324C35.3043 80.2324 38.4334 83.3615 38.4334 87.2092V101.163C38.4334 106.932 43.1287 111.628 48.8985 111.628C50.8276 111.628 52.3869 110.065 52.3869 108.139C52.3869 106.214 50.8276 104.651 48.8985 104.651C46.9729 104.651 45.4101 103.085 45.4101 101.163V87.2092C45.4101 83.0231 43.5194 79.3045 40.5892 76.7441C43.5194 74.1836 45.4101 70.465 45.4101 66.279Z" fill="#0096E6"/>
<path d="M115.177 73.2557C111.33 73.2557 108.201 70.1266 108.201 66.279V52.3255C108.201 46.5557 103.505 41.8604 97.7354 41.8604C95.8064 41.8604 94.2471 43.4231 94.2471 45.3487C94.2471 47.2743 95.8064 48.8371 97.7354 48.8371C99.661 48.8371 101.224 50.4034 101.224 52.3255V66.279C101.224 70.465 103.115 74.1836 106.045 76.7441C103.115 79.3045 101.224 83.0231 101.224 87.2092V101.163C101.224 103.085 99.661 104.651 97.7354 104.651C95.8064 104.651 94.2471 106.214 94.2471 108.139C94.2471 110.065 95.8064 111.628 97.7354 111.628C103.505 111.628 108.201 106.932 108.201 101.163V87.2092C108.201 83.3615 111.33 80.2324 115.177 80.2324C117.106 80.2324 118.666 78.6697 118.666 76.7441C118.666 74.8185 117.106 73.2557 115.177 73.2557Z" fill="#0096E6"/>
</svg>
