<svg width="200" height="200" viewBox="0 0 200 200" fill="none" xmlns="http://www.w3.org/2000/svg">
<path d="M132.089 0H28.4394C25.5536 0 23.2144 2.33929 23.2144 6.87857V196.429C23.2144 197.661 25.5536 200 28.4394 200H171.561C174.447 200 176.786 197.661 176.786 196.429V46.35C176.786 43.8643 176.454 43.0643 175.868 42.475L134.311 0.917857C133.722 0.332143 132.922 0 132.089 0Z" fill="#E9E9E0"/>
<path d="M133.929 0.539307V42.8572H176.247L133.929 0.539307Z" fill="#D9D7CA"/>
<path d="M171.561 200H28.4394C25.5536 200 23.2144 197.661 23.2144 194.775V139.286H176.786V194.775C176.786 197.661 174.447 200 171.561 200Z" fill="#EC6630"/>
<path d="M62.3391 153.3V189.286H56.4784V173.075H40.9034V189.286H34.9463V153.3H40.9034V169.071H56.4784V153.3H62.3391Z" fill="white"/>
<path d="M96.8107 153.3V157.304H86.0714V189.286H80.1642V157.304H69.4214V153.3H96.8107Z" fill="white"/>
<path d="M131.089 153.3H137.047V189.286H131.089V164.529L123.032 184.546H117.857L109.75 164.529V189.286H103.793V153.3H109.75L120.443 177.911L131.089 153.3Z" fill="white"/>
<path d="M152.036 153.3V184.843H168.589V189.286H146.079V153.3H152.036Z" fill="white"/>
<path d="M82.8823 58.1892C81.4859 56.7927 79.2288 56.7927 77.8323 58.1892L56.4038 79.6177C55.0073 81.0142 55.0073 83.2713 56.4038 84.6677L77.8323 106.096C78.5288 106.793 79.4431 107.143 80.3573 107.143C81.2716 107.143 82.1859 106.793 82.8823 106.096C84.2788 104.7 84.2788 102.443 82.8823 101.046L63.9788 82.1427L82.8823 63.2392C84.2788 61.8427 84.2788 59.5856 82.8823 58.1892Z" fill="#EC6630"/>
<path d="M147.168 79.6177L125.739 58.1892C124.343 56.7927 122.086 56.7927 120.689 58.1892C119.293 59.5856 119.293 61.8427 120.689 63.2392L139.593 82.1427L120.689 101.046C119.293 102.443 119.293 104.7 120.689 106.096C121.386 106.793 122.3 107.143 123.214 107.143C124.129 107.143 125.043 106.793 125.739 106.096L147.168 84.6677C148.564 83.2713 148.564 81.0142 147.168 79.6177Z" fill="#EC6630"/>
</svg>
