<svg width="1379" height="1243" viewBox="0 0 1379 1243" fill="none" xmlns="http://www.w3.org/2000/svg">
<g clip-path="url(#clip0_49_892)">
<path d="M0.413086 827.07L670.917 1216.58L1378.33 807.922L704.959 417.875L0.413086 827.07Z" fill="#868789"/>
<path d="M669.768 1243.21V1215.37L1378.33 807.922L1378.59 835.6L669.768 1243.21Z" fill="#4C4C4C"/>
<path d="M0.413086 854.34V826.51L669.768 1215.37V1243.21L0.413086 854.34Z" fill="#666666"/>
<path d="M672.487 18.7744L672.02 436.953L1345.71 826.7L1345.7 408.505L672.487 18.7744Z" fill="#D1B56B"/>
<path d="M1345.71 826.7L1378.33 807.922V389.658L1345.71 408.449V826.7Z" fill="#775552"/>
<path d="M1378.33 389.658L737.427 18.7749L705.288 -0.206055L704.959 -0.0200653L704.634 -0.202057L672.487 18.7749L0.413086 408.477L33.0331 427.271L704.959 37.5689L1345.71 408.449L1378.33 389.658Z" fill="#D3D3D3"/>
<path d="M704.959 37.5527V456.007L33.0332 845.51V427.219L704.959 37.5527Z" fill="#F8F6C6"/>
<path d="M33.0331 845.51L0.413086 826.54V408.274L33.0331 427.069V845.51Z" fill="#775552"/>
<path d="M151.952 437.655V619.102L265.212 554.381V372.065L151.952 437.655Z" fill="#DDDDDD"/>
<path d="M151.952 437.655L145.199 433.609V615.272L151.952 619.102V437.655Z" fill="#BCBCBC"/>
<path d="M145.199 433.609L259.073 368.6L265.212 372.065L151.952 437.654L145.199 433.609Z" fill="#AFAFAF"/>
<path d="M256.426 391.229L191.502 428.826L174.193 438.852L160.738 446.642V599.938L174.193 592.25L256.426 545.26V391.229Z" fill="#6AB3EF"/>
<path d="M201.855 422.832V576.421L215.31 568.732V415.042L201.855 422.832Z" fill="#458DB5"/>
<path d="M160.699 515.051L256.387 460.6L256.465 476.116L160.858 530.567L160.699 515.051Z" fill="#458DB5"/>
<path d="M170.437 441.027L183.49 502.084L160.897 514.861V446.48L170.437 441.027Z" fill="#7CC6F7"/>
<path d="M178.616 436.287L191.988 497.247L200.334 492.5L187.261 431.284L178.616 436.287Z" fill="#7CC6F7"/>
<path d="M224.941 494.115L238.133 555.821L215.3 568.732V499.625L224.941 494.115Z" fill="#7CC6F7"/>
<path d="M233.207 489.327L246.72 550.932L255.154 546.132L241.943 484.271L233.207 489.327Z" fill="#7CC6F7"/>
<path d="M465.753 233.595V415.042L579.014 350.321V168.005L465.753 233.595Z" fill="#DDDDDD"/>
<path d="M465.753 233.595L458.997 229.549V411.212L465.753 415.042V233.595Z" fill="#BCBCBC"/>
<path d="M458.997 229.549L572.871 164.54L579.014 168.005L465.753 233.595L458.997 229.549Z" fill="#AFAFAF"/>
<path d="M570.226 187.169L505.302 224.765L487.992 234.792L474.538 242.582V395.878L487.992 388.189L570.226 341.2V187.169Z" fill="#6AB3EF"/>
<path d="M515.656 218.773V372.357L529.111 364.673V210.978L515.656 218.773Z" fill="#458DB5"/>
<path d="M474.501 310.992L570.189 256.54L570.266 272.056L474.659 326.508L474.501 310.992Z" fill="#458DB5"/>
<path d="M484.239 236.967L497.292 298.024L474.696 310.801V242.42L484.239 236.967Z" fill="#7CC6F7"/>
<path d="M492.415 232.228L505.789 293.188L514.135 288.44L501.062 227.225L492.415 232.228Z" fill="#7CC6F7"/>
<path d="M538.74 290.055L551.934 351.762L529.099 364.673V295.566L538.74 290.055Z" fill="#7CC6F7"/>
<path d="M547.009 285.267L560.52 346.872L568.956 342.072L555.744 280.211L547.009 285.267Z" fill="#7CC6F7"/>
<path d="M1242.92 437.655V619.102L1129.66 554.381V372.065L1242.92 437.655Z" fill="#DDDDDD"/>
<path d="M1242.92 437.655L1249.67 433.609V615.272L1242.92 619.102V437.655Z" fill="#BCBCBC"/>
<path d="M1249.67 433.609L1135.8 368.6L1129.66 372.065L1242.92 437.654L1249.67 433.609Z" fill="#AFAFAF"/>
<path d="M1138.45 391.229L1203.37 428.826L1220.68 438.852L1234.13 446.642V599.938L1220.68 592.25L1138.45 545.26V391.229Z" fill="#6AB3EF"/>
<path d="M1193.02 422.832V576.421L1179.56 568.732V415.042L1193.02 422.832Z" fill="#458DB5"/>
<path d="M1234.17 515.051L1138.48 460.6L1138.41 476.116L1234.01 530.567L1234.17 515.051Z" fill="#458DB5"/>
<path d="M1224.43 441.027L1211.38 502.084L1233.97 514.861V446.48L1224.43 441.027Z" fill="#7CC6F7"/>
<path d="M1216.25 436.287L1202.88 497.247L1194.54 492.5L1207.61 431.284L1216.25 436.287Z" fill="#7CC6F7"/>
<path d="M1169.93 494.115L1156.74 555.821L1179.57 568.732V499.625L1169.93 494.115Z" fill="#7CC6F7"/>
<path d="M1161.66 489.327L1148.15 550.932L1139.72 546.132L1152.93 484.271L1161.66 489.327Z" fill="#7CC6F7"/>
<path d="M929.12 233.595V415.042L815.859 350.321V168.005L929.12 233.595Z" fill="#DDDDDD"/>
<path d="M929.12 233.595L935.87 229.549V411.212L929.12 415.042V233.595Z" fill="#BCBCBC"/>
<path d="M935.87 229.549L821.998 164.54L815.859 168.005L929.12 233.595L935.87 229.549Z" fill="#AFAFAF"/>
<path d="M824.643 187.169L889.57 224.765L906.88 234.792L920.33 242.582V395.878L906.88 388.189L824.643 341.2V187.169Z" fill="#6AB3EF"/>
<path d="M879.22 218.773V372.357L865.762 364.673V210.978L879.22 218.773Z" fill="#458DB5"/>
<path d="M920.37 310.992L824.684 256.54L824.607 272.056L920.21 326.508L920.37 310.992Z" fill="#458DB5"/>
<path d="M910.63 236.967L897.58 298.024L920.17 310.801V242.42L910.63 236.967Z" fill="#7CC6F7"/>
<path d="M902.45 232.228L889.08 293.188L880.74 288.44L893.81 227.225L902.45 232.228Z" fill="#7CC6F7"/>
<path d="M856.129 290.055L842.938 351.762L865.77 364.673V295.566L856.129 290.055Z" fill="#7CC6F7"/>
<path d="M847.864 285.267L834.349 346.872L825.917 342.072L839.128 280.211L847.864 285.267Z" fill="#7CC6F7"/>
<path d="M172.194 707.95L292.68 777.008L353.076 742.479L340.076 734.579L185.523 699.977L172.194 707.95Z" fill="#897A5D"/>
<path d="M353.076 742.478V858.29L292.681 892.82V777.008L353.076 742.478Z" fill="#B7A680"/>
<path d="M172.194 707.949V823.05L292.681 892.82V777.008L172.194 707.949Z" fill="#E0CFA4"/>
<path d="M297.757 782.453V802.152L348 773.376V753.458L297.757 782.453Z" fill="#897A5D"/>
<path d="M319.342 778.46V781.231L326.41 777.182V774.378L319.342 778.46Z" fill="#1A2733"/>
<path d="M297.757 809.014V828.71L348 799.941V780.019L297.757 809.014Z" fill="#897A5D"/>
<path d="M319.342 805.021V807.792L326.41 803.743V800.943L319.342 805.021Z" fill="#1A2733"/>
<path d="M297.757 835.58V855.28L348 826.5V806.578L297.757 835.58Z" fill="#897A5D"/>
<path d="M319.342 831.58V834.35L326.41 830.31V827.5L319.342 831.58Z" fill="#1A2733"/>
<path d="M297.757 862.14V881.84L348 853.06V833.14L297.757 862.14Z" fill="#897A5D"/>
<path d="M319.342 858.14V860.91L326.41 856.87V854.06L319.342 858.14Z" fill="#1A2733"/>
<path d="M172.194 692.275L292.68 761.869L533.96 622.953L412.839 552.831L172.194 692.275Z" fill="#CCCCCC"/>
<path d="M172.194 683.779V692.275L292.681 761.869V753.369L172.194 683.779Z" fill="#969696"/>
<path d="M533.96 622.953V753.369L529.354 755.937V625.602L533.96 622.953Z" fill="#1A2733"/>
<path d="M529.355 755.937L517.758 748.853V689.443L469.133 660.277L529.355 625.602V755.937Z" fill="#223542"/>
<path d="M450.976 670.709L517.758 709.718V722.017L439.98 677.043L450.976 670.709Z" fill="#006FD9"/>
<path d="M454.429 668.741L517.758 705.851V709.718L450.976 670.709L454.429 668.741Z" fill="#0086F4"/>
<path d="M179.286 696.275V703.676L292.681 769.72V761.869L179.286 696.275Z" fill="#1A2733"/>
<path d="M292.681 769.72L342.125 741.265V733.402L292.681 761.869V769.72Z" fill="#293D4C"/>
<path d="M348.524 605.566L469.007 674.625L529.407 640.096L516.403 632.196L361.853 597.593L348.524 605.566Z" fill="#897A5D"/>
<path d="M529.407 640.096V755.901L469.007 790.43V674.625L529.407 640.096Z" fill="#B7A680"/>
<path d="M348.524 605.566V720.666L469.007 790.43V674.625L348.524 605.566Z" fill="#E0CFA4"/>
<path d="M474.083 680.07V699.77L524.331 670.994V651.072L474.083 680.07Z" fill="#897A5D"/>
<path d="M495.673 676.073V678.845L502.741 674.799V671.996L495.673 676.073Z" fill="#1A2733"/>
<path d="M474.083 706.63V726.329L524.331 697.553V677.635L474.083 706.63Z" fill="#897A5D"/>
<path d="M495.673 702.638V705.409L502.741 701.36V698.556L495.673 702.638Z" fill="#1A2733"/>
<path d="M474.083 733.19V752.89L524.331 724.118V704.196L474.083 733.19Z" fill="#897A5D"/>
<path d="M495.673 729.198V731.969L502.741 727.92V725.12L495.673 729.198Z" fill="#1A2733"/>
<path d="M474.083 759.755V779.455L524.331 750.679V730.756L474.083 759.755Z" fill="#897A5D"/>
<path d="M495.673 755.759V758.53L502.741 754.48V751.681L495.673 755.759Z" fill="#1A2733"/>
<path d="M292.681 761.869V753.369L533.96 614.452V622.953L292.681 761.869Z" fill="#545454"/>
<path d="M172.194 683.779L292.68 753.369L533.96 614.453L412.839 544.331L172.194 683.779Z" fill="#727272"/>
<path d="M417.664 642.363V646.396L337.78 692.559V688.684L417.664 642.363Z" fill="#E0E0E0"/>
<path d="M417.664 642.364L337.78 688.684L296.852 665.524L377.689 618.887L417.664 642.364Z" fill="#EFEFEF"/>
<path d="M337.78 692.559L296.852 669.557V665.523L337.78 688.684V692.559Z" fill="#CCCCCC"/>
<path d="M381.519 627.777L366.868 636.314L362.766 633.957L377.641 625.57L381.519 627.777Z" fill="#383634"/>
<path d="M346.049 648.328L331.397 656.861L327.291 654.508L342.17 646.117L346.049 648.328Z" fill="#383634"/>
<path d="M365.537 637.057L355.511 642.916L351.409 640.558L361.658 634.845L365.537 637.057Z" fill="#383634"/>
<path d="M321.834 662.4L311.808 668.263L307.705 665.905L317.955 660.192L321.834 662.4Z" fill="#383634"/>
<path d="M354.233 643.626L347.53 647.521L343.428 645.168L350.354 641.418L354.233 643.626Z" fill="#383634"/>
<path d="M329.831 657.799L323.128 661.694L319.026 659.336L325.952 655.587L329.831 657.799Z" fill="#383634"/>
<path d="M387.975 632.013L380.968 636.188L376.866 633.831L384.096 629.806L387.975 632.013Z" fill="#383634"/>
<path d="M379.535 636.923L372.532 641.094L368.43 638.74L375.656 634.715L379.535 636.923Z" fill="#383634"/>
<path d="M352.5 652.564L337.849 661.097L333.747 658.74L348.621 650.353L352.5 652.564Z" fill="#383634"/>
<path d="M370.913 642.023L361.962 647.151L357.86 644.794L367.034 639.816L370.913 642.023Z" fill="#383634"/>
<path d="M324.763 668.58L318.259 672.499L314.157 670.142L320.88 666.368L324.763 668.58Z" fill="#383634"/>
<path d="M360.684 647.862L352.098 652.796L348.305 650.532L356.805 645.655L360.684 647.862Z" fill="#383634"/>
<path d="M336.282 662.03L332.253 664.428L328.151 662.071L332.403 659.823L336.282 662.03Z" fill="#383634"/>
<path d="M330.659 665.325L326.626 667.719L322.523 665.365L326.78 663.114L330.659 665.325Z" fill="#383634"/>
<path d="M359.43 656.711L354.062 659.819L349.96 657.462L355.551 654.504L359.43 656.711Z" fill="#383634"/>
<path d="M352.5 660.651L347.132 663.755L343.03 661.397L348.621 658.44L352.5 660.651Z" fill="#383634"/>
<path d="M375.04 643.232L391.022 633.957L394.901 636.164L378.919 645.439L368.893 651.302L364.79 648.945L375.04 643.232Z" fill="#383634"/>
<path d="M335.215 670.786L325.189 676.649L321.087 674.292L331.336 668.579L335.215 670.786Z" fill="#383634"/>
<path d="M367.614 652.012L360.911 655.907L356.809 653.55L363.735 649.801L367.614 652.012Z" fill="#383634"/>
<path d="M345.627 664.631L336.51 670.076L332.408 667.719L341.748 662.424L345.627 664.631Z" fill="#383634"/>
<path d="M401.835 640.433L387.18 648.966L383.078 646.612L397.956 638.222L401.835 640.433Z" fill="#383634"/>
<path d="M366.361 660.98L351.709 669.517L347.607 667.159L362.482 658.772L366.361 660.98Z" fill="#383634"/>
<path d="M385.849 649.708L365.164 661.677L361.285 659.446L381.97 647.5L385.849 649.708Z" fill="#383634"/>
<path d="M342.145 675.055L332.119 680.914L328.017 678.561L338.267 672.848L342.145 675.055Z" fill="#383634"/>
<path d="M350.143 670.45L343.44 674.345L339.338 671.987L346.264 668.242L350.143 670.45Z" fill="#383634"/>
<path d="M352.764 625.326V627.866L317.435 648.32V645.744L352.557 625.326H352.764Z" fill="#D8E5E1"/>
<path d="M329.377 611.742L352.764 625.326L317.435 645.744L293.963 632.11L329.377 611.742Z" fill="#BCC9C6"/>
<path d="M294.393 632.354L292.064 631.003V625.018L294.393 623.785V632.354Z" fill="#BCC9C6"/>
<path d="M329.377 603.769V612.213L294.393 632.354V623.87L329.377 603.769Z" fill="#CAD8D5"/>
<path d="M261.689 642.66V547.146L356.375 492.743V588.257L261.689 642.66Z" fill="#DAEAE7"/>
<path d="M266.258 624.207V549.893L351.794 501.033V575.346L266.258 624.207Z" fill="#416172"/>
<path d="M323.505 517.189L302.605 603.367L351.794 575.269V501.033L323.505 517.189Z" fill="#527584"/>
<path d="M261.689 547.146L258.714 545.369V635.94C258.714 635.94 258.458 641.722 261.689 642.66V547.146Z" fill="#D3D3D3"/>
<path d="M258.714 545.369L353.596 491.133L356.375 492.743L261.689 547.146L258.714 545.369Z" fill="#C6C6C6"/>
<path d="M317.435 602.162V604.917L305.665 611.709V608.954L317.435 602.162Z" fill="#B2C1BE"/>
<path d="M317.435 648.32L292.064 633.287V631.003L317.435 645.744V648.32Z" fill="#909996"/>
<path d="M502.741 593.191L477.086 590.955L437.245 567.872C431.638 564.622 422.476 564.646 416.885 567.925L390.491 583.4L372.755 581.85V596.956C372.609 599.212 374.013 601.493 376.971 603.193L437.456 637.986C443.072 641.22 452.286 641.252 457.926 638.059L498.493 615.102C501.386 613.462 502.798 611.279 502.737 609.1H502.741V593.191Z" fill="#AAAAAA"/>
<path d="M376.922 575.646C371.331 578.921 371.351 584.248 376.971 587.482L437.456 622.275C443.072 625.505 452.286 625.537 457.926 622.348L498.493 599.387C504.133 596.197 504.161 590.927 498.554 587.677L437.245 552.161C431.638 548.911 422.476 548.936 416.885 552.214L376.922 575.646Z" fill="#C9C9C9"/>
<path d="M374.679 577.35L446.293 592.209L497.945 563.733L418.974 551.2L374.679 577.35Z" fill="#919191"/>
<path d="M377.214 577.874L444.971 616.319L488.844 591.13L468.954 579.716L377.214 577.874Z" fill="#768AB7"/>
<path d="M374.679 574.993L446.293 589.852L497.945 561.376L418.974 548.842L374.679 574.993Z" fill="#777777"/>
<path d="M446.293 592.209V589.852L497.945 561.376V563.733L446.293 592.209Z" fill="#636363"/>
<path d="M374.679 577.35V574.993L446.293 589.852V592.209L374.679 577.35Z" fill="#515151"/>
<path d="M485.538 593.028L465.53 581.602L468.955 579.716L488.844 591.129L485.538 593.028Z" fill="#5E7296"/>
<path d="M389.395 566.306C389.395 566.306 415.241 581.039 481.586 570.396L446.293 589.852L374.679 574.993L389.395 566.306Z" fill="#848484"/>
<path d="M469.519 604.727L476.668 608.809L498.144 596.352L490.995 592.27L469.519 604.727Z" fill="#545454"/>
<path d="M493.089 595.824H492.508C492.492 595.812 492.476 595.804 492.46 595.792C491.628 595.317 490.273 595.317 489.441 595.792C489.425 595.804 489.408 595.812 489.392 595.824H488.824V596.652C488.824 596.66 488.824 596.664 488.824 596.672C488.832 596.989 489.043 597.305 489.457 597.544C490.301 598.035 491.656 598.035 492.476 597.544C492.886 597.305 493.084 596.989 493.089 596.672V595.824Z" fill="#BC4D1D"/>
<path d="M489.441 594.939C488.609 595.418 488.617 596.205 489.457 596.696C490.301 597.183 491.656 597.183 492.476 596.696C493.3 596.205 493.291 595.418 492.46 594.939C491.628 594.465 490.273 594.465 489.441 594.939Z" fill="#DD6022"/>
<path d="M488.203 598.498H487.623C487.607 598.49 487.591 598.478 487.574 598.47C486.743 597.991 485.387 597.991 484.556 598.47C484.539 598.478 484.523 598.49 484.507 598.498H483.939V599.326C483.939 599.334 483.939 599.342 483.939 599.35C483.947 599.663 484.158 599.979 484.572 600.223C485.412 600.71 486.771 600.71 487.591 600.223C488 599.979 488.199 599.663 488.203 599.35V598.498Z" fill="#196ABA"/>
<path d="M484.556 597.617C483.724 598.092 483.732 598.883 484.572 599.37C485.412 599.857 486.771 599.857 487.591 599.37C488.414 598.883 488.406 598.092 487.574 597.617C486.743 597.143 485.387 597.143 484.556 597.617Z" fill="#237BE5"/>
<path d="M483.245 601.407H482.665C482.649 601.399 482.632 601.387 482.616 601.379C481.784 600.904 480.425 600.904 479.597 601.379C479.581 601.387 479.565 601.399 479.549 601.407H478.981V602.235C478.981 602.243 478.981 602.251 478.981 602.259C478.989 602.576 479.2 602.888 479.614 603.131C480.453 603.618 481.813 603.618 482.632 603.131C483.038 602.888 483.241 602.576 483.241 602.259H483.245V601.407Z" fill="#D6D00D"/>
<path d="M479.597 600.526C478.765 601.001 478.774 601.792 479.614 602.279C480.453 602.766 481.813 602.766 482.632 602.279C483.452 601.792 483.444 601.001 482.616 600.526C481.784 600.052 480.425 600.052 479.597 600.526Z" fill="#EFEF0F"/>
<path d="M478.356 604.085H477.78C477.763 604.073 477.747 604.065 477.731 604.053C476.899 603.578 475.54 603.578 474.712 604.053C474.696 604.065 474.68 604.073 474.663 604.085H474.095V604.913C474.095 604.921 474.095 604.929 474.095 604.933V604.937C474.099 605.25 474.314 605.566 474.728 605.806C475.568 606.297 476.928 606.297 477.747 605.806C478.153 605.566 478.356 605.25 478.356 604.937V604.085Z" fill="#54B52C"/>
<path d="M474.712 603.205C473.88 603.68 473.888 604.467 474.728 604.958C475.568 605.445 476.928 605.445 477.747 604.958C478.567 604.467 478.559 603.68 477.731 603.205C476.899 602.726 475.54 602.726 474.712 603.205Z" fill="#5BD12F"/>
<path d="M462.828 613.56C463.566 613.986 464.771 613.99 465.506 613.564L469.912 611.016C470.647 610.59 470.651 609.888 469.92 609.454L469.044 608.93C468.309 608.5 467.108 608.492 466.37 608.922L461.955 611.495C461.217 611.925 461.221 612.623 461.955 613.053L462.828 613.56Z" fill="#3A3A3A"/>
<path d="M454.039 618.432C454.774 618.858 455.983 618.862 456.717 618.432L461.124 615.888C461.858 615.462 461.862 614.756 461.132 614.322L460.251 613.803C459.521 613.369 458.32 613.365 457.581 613.795L453.167 616.367C452.428 616.793 452.433 617.495 453.167 617.925L454.039 618.432Z" fill="#3A3A3A"/>
<path d="M196.851 689.557V648.681L240.623 674.004V714.879L196.851 689.557Z" fill="#353534"/>
<path d="M240.623 674.004L293.8 643.613V684.493L240.623 714.879V674.004Z" fill="#212121"/>
<path d="M293.8 643.613L249.667 617.568L196.851 648.681L240.623 674.004L293.8 643.613Z" fill="#5E5E5E"/>
<path d="M234.141 670.296L251.566 680.245L287.26 659.864L269.292 649.615L234.141 670.296Z" fill="#5E5E5E"/>
<path d="M283.701 644.068L248.762 623.447L206.95 648.076L241.603 668.125L283.701 644.068Z" fill="#7C7C7C"/>
<path d="M244.692 672.389L253.167 677.229L270.528 667.317L261.789 662.331L244.692 672.389Z" fill="#212121"/>
<path d="M251.332 674.178L252.41 674.795L254.618 673.533L253.507 672.9L251.332 674.178Z" fill="#D65D21"/>
<path d="M254.105 672.551L255.184 673.164L257.392 671.906L256.28 671.273L254.105 672.551Z" fill="#EAE411"/>
<path d="M256.896 670.949L257.974 671.562L260.182 670.304L259.07 669.667L256.896 670.949Z" fill="#56C11E"/>
<path d="M259.677 669.317L260.755 669.934L262.963 668.672L261.851 668.039L259.677 669.317Z" fill="#2E68E8"/>
<path d="M251.566 680.245V682.565L240.623 676.536V674.004L251.566 680.245Z" fill="#353534"/>
<path d="M287.26 659.864V662.124L251.566 682.565V680.245L287.26 659.864Z" fill="#3F3F3F"/>
<path d="M246.999 707.978V697.578L282.26 677.408V687.585L246.999 707.978Z" fill="#666666"/>
<path d="M249.169 704.663V698.791L280.235 680.922V686.664L249.169 704.663Z" fill="#212121"/>
<path d="M251.359 700.394L281.081 717.35L307.543 701.976L277.967 685.191L251.359 700.394Z" fill="#DDDDDD"/>
<path d="M318.924 707.742L325.883 706.521L352.581 691.167C353.653 690.551 355.405 690.551 356.477 691.167L369.773 698.812L373.169 698.215V701.039C373.169 701.498 373.21 701.587 373.043 701.896V701.9C372.918 702.135 372.69 702.358 372.366 702.549L339.679 721.457C338.607 722.074 336.855 722.078 335.779 721.465L319.732 712.299C319.192 711.991 318.924 711.589 318.924 711.183V707.742Z" fill="#A1BEC6"/>
<path d="M352.581 687.86C353.653 687.244 355.405 687.244 356.477 687.86L372.366 696.994C373.437 697.61 373.437 698.625 372.366 699.242L339.679 718.149C338.607 718.77 336.854 718.774 335.779 718.162L319.732 708.992C318.657 708.379 318.653 707.373 319.728 706.756L352.581 687.86Z" fill="#D9F3F9"/>
<path d="M369.534 698.73L353.405 689.504L323.591 706.537L339.861 715.958L369.534 698.73Z" fill="#2F80A3"/>
<path d="M365.586 704.107L368.061 702.703C368.187 702.634 368.3 702.626 368.385 702.67C368.398 702.679 368.41 702.683 368.422 702.695L368.694 702.873L368.531 703.019V703.186C368.531 703.486 368.32 703.851 368.065 704.001L366.275 705.044L365.565 705.681L365.257 705.482C365.168 705.434 365.115 705.328 365.115 705.178V704.914C365.115 704.618 365.326 704.253 365.586 704.107Z" fill="#848484"/>
<path d="M368.389 702.914C368.649 702.768 368.86 702.894 368.86 703.19V703.397C368.86 703.697 368.649 704.062 368.393 704.212L365.91 705.657C365.655 705.807 365.444 705.685 365.444 705.389V705.125C365.444 704.829 365.655 704.464 365.914 704.318L368.389 702.914Z" fill="#364E56"/>
<path d="M360.944 706.756L363.419 705.356C363.545 705.287 363.658 705.279 363.744 705.324C363.756 705.332 363.768 705.336 363.78 705.344L364.052 705.527L363.89 705.669V705.839C363.89 706.139 363.679 706.504 363.423 706.655L361.634 707.697L360.924 708.334L360.615 708.136C360.526 708.087 360.473 707.981 360.473 707.831V707.568C360.473 707.267 360.684 706.906 360.944 706.756Z" fill="#848484"/>
<path d="M363.748 705.567C364.007 705.421 364.218 705.543 364.218 705.843V706.05C364.218 706.35 364.007 706.716 363.752 706.866L361.268 708.31C361.013 708.46 360.802 708.339 360.802 708.042V707.779C360.802 707.478 361.013 707.117 361.273 706.967L363.748 705.567Z" fill="#364E56"/>
<path d="M356.83 709.243L359.301 707.844C359.426 707.771 359.54 707.762 359.625 707.807L359.629 707.811C359.641 707.815 359.654 707.823 359.662 707.831L359.938 708.01L359.775 708.156V708.326C359.775 708.623 359.564 708.992 359.305 709.142L357.515 710.185L356.805 710.822L356.497 710.623C356.412 710.574 356.355 710.469 356.355 710.315V710.055C356.355 709.755 356.57 709.39 356.83 709.243Z" fill="#848484"/>
<path d="M359.629 708.054C359.889 707.908 360.104 708.03 360.104 708.33V708.537C360.104 708.837 359.893 709.202 359.633 709.353L357.154 710.797C356.895 710.947 356.684 710.825 356.684 710.525V710.265C356.684 709.965 356.899 709.6 357.158 709.454L359.629 708.054Z" fill="#364E56"/>
<path d="M327.433 711.751H327.705C327.786 711.67 327.891 711.593 328.013 711.52C328.784 711.078 330.046 711.078 330.817 711.52C330.943 711.593 331.044 711.67 331.129 711.751H331.393V712.299C331.405 712.603 331.215 712.912 330.813 713.143C330.038 713.589 328.776 713.589 328.009 713.143C327.624 712.92 327.433 712.628 327.433 712.335V711.751Z" fill="#AFAFAF"/>
<path d="M330.817 710.939C331.592 711.381 331.588 712.112 330.813 712.562C330.038 713.009 328.776 713.009 328.009 712.562C327.238 712.112 327.242 711.381 328.013 710.939C328.784 710.497 330.046 710.497 330.817 710.939Z" fill="#476370"/>
<path d="M365.927 694.624C366.125 694.738 366.125 694.928 365.927 695.042C365.724 695.16 365.399 695.16 365.204 695.042C365.005 694.928 365.005 694.738 365.204 694.624C365.403 694.51 365.728 694.51 365.927 694.624Z" fill="#9B9B9B"/>
<path d="M366.896 695.156C367.095 695.27 367.095 695.456 366.896 695.574C366.693 695.688 366.369 695.688 366.17 695.574C365.975 695.456 365.975 695.27 366.174 695.156C366.373 695.042 366.697 695.042 366.896 695.156Z" fill="#9B9B9B"/>
<path d="M364.64 693.894C364.876 694.032 364.896 694.243 364.685 694.368C364.47 694.49 364.105 694.478 363.865 694.344L360.806 692.571C360.566 692.433 360.55 692.218 360.765 692.092C360.976 691.971 361.35 691.979 361.585 692.117L364.64 693.894Z" fill="#476370"/>
<path d="M355.819 690.887C355.819 690.887 338.904 700.508 335.26 713.297L323.591 706.537L353.405 689.504L355.819 690.887Z" fill="#3B9BBC"/>
<path d="M1237.63 707.982L1117.14 777.041L1056.75 742.511L1069.75 734.611L1224.3 700.009L1237.63 707.982Z" fill="#897A5D"/>
<path d="M1056.75 742.511V858.32L1117.14 892.85V777.04L1056.75 742.511Z" fill="#B7A680"/>
<path d="M1237.63 707.981V823.08L1117.14 892.85V777.04L1237.63 707.981Z" fill="#E0CFA4"/>
<path d="M1112.07 782.485V802.184L1061.82 773.408V753.49L1112.07 782.485Z" fill="#897A5D"/>
<path d="M1090.48 778.493V781.264L1083.41 777.215V774.411L1090.48 778.493Z" fill="#1A2733"/>
<path d="M1112.07 809.046V828.75L1061.82 799.973V780.051L1112.07 809.046Z" fill="#897A5D"/>
<path d="M1090.48 805.053V807.824L1083.41 803.775V800.975L1090.48 805.053Z" fill="#1A2733"/>
<path d="M1112.07 835.61V855.31L1061.82 826.53V806.611L1112.07 835.61Z" fill="#897A5D"/>
<path d="M1090.48 831.61V834.38L1083.41 830.34V827.54L1090.48 831.61Z" fill="#1A2733"/>
<path d="M1112.07 862.17V881.87L1061.82 853.09V833.18L1112.07 862.17Z" fill="#897A5D"/>
<path d="M1090.48 858.17V860.95L1083.41 856.9V854.1L1090.48 858.17Z" fill="#1A2733"/>
<path d="M1237.63 692.308L1117.14 761.902L875.865 622.985L996.99 552.863L1237.63 692.308Z" fill="#CCCCCC"/>
<path d="M1237.63 683.811V692.308L1117.14 761.902V753.401L1237.63 683.811Z" fill="#969696"/>
<path d="M875.865 622.985V753.401L880.47 755.97V625.635L875.865 622.985Z" fill="#1A2733"/>
<path d="M880.47 755.97L892.07 748.885V689.475L940.69 660.31L880.47 625.635V755.97Z" fill="#223542"/>
<path d="M958.85 670.742L892.07 709.751V722.049L969.84 677.076L958.85 670.742Z" fill="#006FD9"/>
<path d="M955.4 668.774L892.07 705.884V709.75L958.85 670.742L955.4 668.774Z" fill="#0086F4"/>
<path d="M1230.54 696.312V703.709L1117.14 769.753V761.902L1230.54 696.312Z" fill="#1A2733"/>
<path d="M1117.14 769.753L1067.7 741.298V733.434L1117.14 761.902V769.753Z" fill="#293D4C"/>
<path d="M1061.3 605.599L940.82 674.657L880.42 640.128L893.42 632.228L1047.97 597.626L1061.3 605.599Z" fill="#897A5D"/>
<path d="M880.42 640.128V755.933L940.82 790.462V674.657L880.42 640.128Z" fill="#B7A680"/>
<path d="M1061.3 605.599V720.698L940.82 790.462V674.657L1061.3 605.599Z" fill="#E0CFA4"/>
<path d="M935.74 680.103V699.802L885.49 671.026V651.104L935.74 680.103Z" fill="#897A5D"/>
<path d="M914.15 676.106V678.881L907.08 674.832V672.028L914.15 676.106Z" fill="#1A2733"/>
<path d="M935.74 706.663V726.362L885.49 697.586V677.668L935.74 706.663Z" fill="#897A5D"/>
<path d="M914.15 702.671V705.442L907.08 701.392V698.589L914.15 702.671Z" fill="#1A2733"/>
<path d="M935.74 733.223V752.922L885.49 724.151V704.228L935.74 733.223Z" fill="#897A5D"/>
<path d="M914.15 729.231V732.002L907.08 727.953V725.153L914.15 729.231Z" fill="#1A2733"/>
<path d="M935.74 759.788V779.487L885.49 750.711V730.789L935.74 759.788Z" fill="#897A5D"/>
<path d="M914.15 755.791V758.562L907.08 754.513V751.714L914.15 755.791Z" fill="#1A2733"/>
<path d="M1117.14 761.902V753.401L875.865 614.485V622.985L1117.14 761.902Z" fill="#545454"/>
<path d="M1237.63 683.811L1117.14 753.401L875.865 614.485L996.99 544.363L1237.63 683.811Z" fill="#727272"/>
<path d="M992.16 642.396V646.43L1072.05 692.592V688.717L992.16 642.396Z" fill="#E0E0E0"/>
<path d="M992.16 642.396L1072.05 688.717L1112.97 665.557L1032.14 618.92L992.16 642.396Z" fill="#EFEFEF"/>
<path d="M1072.05 692.592L1112.97 669.59V665.557L1072.05 688.717V692.592Z" fill="#CCCCCC"/>
<path d="M1028.3 627.809L1042.96 636.346L1047.06 633.989L1032.18 625.602L1028.3 627.809Z" fill="#383634"/>
<path d="M1063.78 648.361L1078.43 656.894L1082.53 654.54L1067.65 646.149L1063.78 648.361Z" fill="#383634"/>
<path d="M1044.29 637.089L1054.31 642.948L1058.42 640.591L1048.17 634.878L1044.29 637.089Z" fill="#383634"/>
<path d="M1087.99 662.432L1098.02 668.295L1102.12 665.938L1091.87 660.225L1087.99 662.432Z" fill="#383634"/>
<path d="M1055.59 643.658L1062.3 647.553L1066.4 645.2L1059.47 641.451L1055.59 643.658Z" fill="#383634"/>
<path d="M1079.99 657.831L1086.7 661.726L1090.8 659.369L1083.87 655.619L1079.99 657.831Z" fill="#383634"/>
<path d="M1021.85 632.045L1028.86 636.22L1032.96 633.863L1025.73 629.838L1021.85 632.045Z" fill="#383634"/>
<path d="M1030.29 636.955L1037.29 641.126L1041.39 638.773L1034.17 634.748L1030.29 636.955Z" fill="#383634"/>
<path d="M1057.32 652.592L1071.98 661.129L1076.08 658.772L1061.2 650.385L1057.32 652.592Z" fill="#383634"/>
<path d="M1038.91 642.059L1047.86 647.184L1051.96 644.826L1042.79 639.847L1038.91 642.059Z" fill="#383634"/>
<path d="M1085.06 668.612L1091.57 672.531L1095.67 670.174L1088.94 666.4L1085.06 668.612Z" fill="#383634"/>
<path d="M1049.14 647.894L1057.73 652.828L1061.52 650.564L1053.02 645.687L1049.14 647.894Z" fill="#383634"/>
<path d="M1073.54 662.063L1077.57 664.461L1081.67 662.103L1077.42 659.856L1073.54 662.063Z" fill="#383634"/>
<path d="M1079.17 665.358L1083.2 667.752L1087.3 665.399L1083.04 663.147L1079.17 665.358Z" fill="#383634"/>
<path d="M1050.39 656.744L1055.76 659.852L1059.86 657.494L1054.27 654.536L1050.39 656.744Z" fill="#383634"/>
<path d="M1057.32 660.683L1062.69 663.787L1066.79 661.43L1061.2 658.472L1057.32 660.683Z" fill="#383634"/>
<path d="M1034.79 643.265L1018.8 633.989L1014.92 636.196L1030.91 645.472L1040.93 651.335L1045.03 648.977L1034.79 643.265Z" fill="#383634"/>
<path d="M1074.61 670.819L1084.64 676.682L1088.74 674.325L1078.49 668.612L1074.61 670.819Z" fill="#383634"/>
<path d="M1042.21 652.045L1048.91 655.94L1053.02 653.583L1046.09 649.834L1042.21 652.045Z" fill="#383634"/>
<path d="M1064.19 664.664L1073.32 670.109L1077.42 667.752L1068.08 662.457L1064.19 664.664Z" fill="#383634"/>
<path d="M1007.99 640.465L1022.65 648.998L1026.75 646.644L1011.87 638.253L1007.99 640.465Z" fill="#383634"/>
<path d="M1043.46 661.012L1058.12 669.549L1062.22 667.191L1047.34 658.804L1043.46 661.012Z" fill="#383634"/>
<path d="M1023.98 649.741L1044.66 661.71L1048.54 659.479L1027.85 647.534L1023.98 649.741Z" fill="#383634"/>
<path d="M1067.68 675.087L1077.71 680.946L1081.81 678.593L1071.56 672.88L1067.68 675.087Z" fill="#383634"/>
<path d="M1059.68 670.482L1066.38 674.377L1070.49 672.02L1063.56 668.275L1059.68 670.482Z" fill="#383634"/>
<path d="M1057.06 625.359V627.899L1092.39 648.353V645.776L1057.27 625.359H1057.06Z" fill="#D8E5E1"/>
<path d="M1080.45 611.774L1057.06 625.359L1092.39 645.776L1115.86 632.143L1080.45 611.774Z" fill="#BCC9C6"/>
<path d="M1115.43 632.386L1117.76 631.035V625.05L1115.43 623.817V632.386Z" fill="#BCC9C6"/>
<path d="M1080.45 603.801V612.245L1115.43 632.386V623.902L1080.45 603.801Z" fill="#CAD8D5"/>
<path d="M1148.14 642.692V547.179L1053.45 492.776V588.289L1148.14 642.692Z" fill="#DAEAE7"/>
<path d="M1143.57 624.239V549.926L1058.03 501.065V575.378L1143.57 624.239Z" fill="#416172"/>
<path d="M1086.32 517.222L1107.22 603.399L1058.03 575.301V501.065L1086.32 517.222Z" fill="#527584"/>
<path d="M1148.14 547.179L1151.11 545.402V635.973C1151.11 635.973 1151.37 641.755 1148.14 642.692V547.179Z" fill="#D3D3D3"/>
<path d="M1151.11 545.401L1056.23 491.165L1053.45 492.776L1148.14 547.179L1151.11 545.401Z" fill="#C6C6C6"/>
<path d="M1092.39 602.195V604.95L1104.16 611.742V608.987L1092.39 602.195Z" fill="#B2C1BE"/>
<path d="M1092.39 648.353L1117.76 633.32V631.035L1092.39 645.776V648.353Z" fill="#909996"/>
<path d="M907.08 593.223L932.74 590.988L972.58 567.905C978.19 564.654 987.35 564.679 992.94 567.957L1019.33 583.433L1037.07 581.883V596.989C1037.22 599.245 1035.81 601.525 1032.85 603.225L972.37 638.018C966.75 641.252 957.54 641.284 951.9 638.091L911.33 615.134C908.44 613.495 907.03 611.312 907.09 609.133H907.08V593.223Z" fill="#AAAAAA"/>
<path d="M1032.9 575.679C1038.49 578.953 1038.47 584.281 1032.85 587.515L972.37 622.308C966.75 625.537 957.54 625.57 951.9 622.381L911.33 599.419C905.69 596.23 905.66 590.959 911.27 587.709L972.58 552.194C978.19 548.944 987.35 548.968 992.94 552.247L1032.9 575.679Z" fill="#C9C9C9"/>
<path d="M1035.15 577.383L963.53 592.242L911.88 563.766L990.85 551.232L1035.15 577.383Z" fill="#919191"/>
<path d="M1032.61 577.906L964.85 616.351L920.98 591.162L940.87 579.748L1032.61 577.906Z" fill="#768AB7"/>
<path d="M1035.15 575.026L963.53 589.884L911.88 561.409L990.85 548.875L1035.15 575.026Z" fill="#777777"/>
<path d="M963.53 592.242V589.884L911.88 561.409V563.766L963.53 592.242Z" fill="#636363"/>
<path d="M1035.15 577.383V575.026L963.53 589.884V592.242L1035.15 577.383Z" fill="#515151"/>
<path d="M924.29 593.061L944.29 581.635L940.87 579.748L920.98 591.162L924.29 593.061Z" fill="#5E7296"/>
<path d="M1020.43 566.339C1020.43 566.339 994.58 581.071 928.24 570.429L963.53 589.884L1035.15 575.026L1020.43 566.339Z" fill="#848484"/>
<path d="M940.31 604.759L933.16 608.841L911.68 596.384L918.83 592.302L940.31 604.759Z" fill="#545454"/>
<path d="M916.74 595.857H917.32C917.33 595.845 917.35 595.836 917.37 595.824C918.2 595.349 919.55 595.349 920.38 595.824C920.4 595.836 920.42 595.845 920.43 595.857H921V596.684C921 596.693 921 596.697 921 596.705C920.99 597.021 920.78 597.338 920.36 597.577C919.52 598.068 918.17 598.068 917.34 597.577C916.94 597.338 916.74 597.021 916.74 596.705V595.857Z" fill="#BC4D1D"/>
<path d="M920.38 594.976C921.22 595.45 921.21 596.238 920.36 596.729C919.52 597.215 918.17 597.215 917.34 596.729C916.53 596.238 916.53 595.45 917.37 594.976C918.2 594.497 919.55 594.497 920.38 594.976Z" fill="#DD6022"/>
<path d="M921.62 598.531H922.2C922.22 598.522 922.23 598.51 922.25 598.502C923.08 598.023 924.44 598.023 925.27 598.502C925.29 598.51 925.3 598.522 925.32 598.531H925.89V599.358C925.89 599.366 925.89 599.374 925.89 599.383C925.88 599.695 925.67 600.012 925.25 600.255C924.41 600.742 923.05 600.742 922.23 600.255C921.82 600.012 921.62 599.695 921.62 599.383V598.531Z" fill="#196ABA"/>
<path d="M925.27 597.65C926.1 598.125 926.09 598.916 925.25 599.403C924.41 599.89 923.05 599.89 922.23 599.403C921.41 598.916 921.42 598.125 922.25 597.65C923.08 597.175 924.44 597.175 925.27 597.65Z" fill="#237BE5"/>
<path d="M926.58 601.44H927.16C927.18 601.432 927.19 601.419 927.21 601.411C928.04 600.937 929.4 600.937 930.23 601.411C930.24 601.419 930.26 601.432 930.28 601.44H930.84V602.267C930.84 602.276 930.84 602.284 930.84 602.292C930.84 602.608 930.62 602.921 930.21 603.164C929.37 603.651 928.01 603.651 927.19 603.164C926.79 602.921 926.58 602.608 926.58 602.292V601.44Z" fill="#D6D00D"/>
<path d="M930.23 600.559C931.06 601.034 931.05 601.825 930.21 602.312C929.37 602.803 928.01 602.803 927.19 602.312C926.37 601.825 926.38 601.034 927.21 600.559C928.04 600.084 929.4 600.084 930.23 600.559Z" fill="#EFEF0F"/>
<path d="M931.46 604.117H932.05C932.06 604.105 932.08 604.097 932.09 604.085C932.93 603.61 934.28 603.61 935.11 604.085C935.13 604.097 935.14 604.105 935.16 604.117H935.73V604.945C935.73 604.953 935.73 604.961 935.73 604.965V604.97C935.72 605.282 935.51 605.598 935.1 605.838C934.26 606.329 932.9 606.329 932.08 605.838C931.67 605.598 931.47 605.282 931.47 604.97H931.46V604.117Z" fill="#54B52C"/>
<path d="M935.11 603.237C935.94 603.712 935.94 604.499 935.1 604.99C934.26 605.477 932.9 605.477 932.08 604.99C931.26 604.499 931.27 603.712 932.09 603.237C932.93 602.758 934.28 602.758 935.11 603.237Z" fill="#5BD12F"/>
<path d="M947 613.592C946.26 614.018 945.05 614.022 944.31 613.596L939.91 611.048C939.17 610.622 939.17 609.92 939.9 609.485L940.78 608.962C941.52 608.532 942.72 608.524 943.45 608.954L947.87 611.526C948.6 611.956 948.6 612.654 947.87 613.084L947 613.592Z" fill="#3A3A3A"/>
<path d="M955.79 618.465C955.05 618.891 953.84 618.895 953.1 618.465L948.7 615.921C947.96 615.495 947.96 614.789 948.69 614.354L949.57 613.835C950.3 613.401 951.51 613.397 952.24 613.827L956.66 616.399C957.4 616.825 957.39 617.527 956.66 617.957L955.79 618.465Z" fill="#3A3A3A"/>
<path d="M1212.97 689.589V648.713L1169.2 674.036V714.912L1212.97 689.589Z" fill="#353534"/>
<path d="M1169.2 674.036L1116.02 643.646V684.525L1169.2 714.912V674.036Z" fill="#212121"/>
<path d="M1116.02 643.646L1160.16 617.601L1212.97 648.714L1169.2 674.037L1116.02 643.646Z" fill="#5E5E5E"/>
<path d="M1175.68 670.328L1158.26 680.277L1122.56 659.896L1140.53 649.647L1175.68 670.328Z" fill="#5E5E5E"/>
<path d="M1126.12 644.1L1161.06 623.48L1202.87 648.109L1168.22 668.157L1126.12 644.1Z" fill="#7C7C7C"/>
<path d="M1165.13 672.422L1156.66 677.262L1139.3 667.35L1148.03 662.363L1165.13 672.422Z" fill="#212121"/>
<path d="M1158.49 674.211L1157.41 674.828L1155.21 673.566L1156.32 672.933L1158.49 674.211Z" fill="#D65D21"/>
<path d="M1155.72 672.584L1154.64 673.197L1152.43 671.939L1153.54 671.306L1155.72 672.584Z" fill="#EAE411"/>
<path d="M1152.93 670.981L1151.85 671.594L1149.64 670.336L1150.75 669.699L1152.93 670.981Z" fill="#56C11E"/>
<path d="M1150.15 669.351L1149.07 669.967L1146.86 668.705L1147.97 668.072L1150.15 669.351Z" fill="#2E68E8"/>
<path d="M1158.26 680.277V682.598L1169.2 676.569V674.037L1158.26 680.277Z" fill="#353534"/>
<path d="M1122.56 659.897V662.157L1158.26 682.598V680.277L1122.56 659.897Z" fill="#3F3F3F"/>
<path d="M1162.83 708.01V697.611L1127.56 677.441V687.617L1162.83 708.01Z" fill="#666666"/>
<path d="M1160.66 704.695V698.824L1129.59 680.955V686.696L1160.66 704.695Z" fill="#212121"/>
<path d="M1158.47 700.427L1128.74 717.383L1102.28 702.009L1131.86 685.223L1158.47 700.427Z" fill="#DDDDDD"/>
<path d="M1090.9 707.775L1083.94 706.553L1057.24 691.2C1056.17 690.583 1054.42 690.583 1053.35 691.2L1040.05 698.844L1036.66 698.247V701.071C1036.66 701.53 1036.62 701.619 1036.78 701.928C1036.91 702.167 1037.13 702.39 1037.46 702.581L1070.15 721.489C1071.22 722.106 1072.97 722.11 1074.05 721.497L1090.09 712.331C1090.63 712.023 1090.9 711.621 1090.9 711.215V707.775Z" fill="#A1BEC6"/>
<path d="M1057.24 687.893C1056.17 687.276 1054.42 687.276 1053.35 687.893L1037.46 697.026C1036.39 697.643 1036.39 698.657 1037.46 699.274L1070.15 718.182C1071.22 718.803 1072.97 718.807 1074.05 718.194L1090.09 709.024C1091.17 708.412 1091.17 707.405 1090.1 706.789L1057.24 687.893Z" fill="#D9F3F9"/>
<path d="M1040.29 698.763L1056.42 689.536L1086.23 706.574L1069.96 715.991L1040.29 698.763Z" fill="#2F80A3"/>
<path d="M1044.24 704.139L1041.76 702.735C1041.64 702.666 1041.52 702.658 1041.44 702.703C1041.43 702.711 1041.41 702.719 1041.4 702.727L1041.13 702.906L1041.29 703.052V703.218C1041.29 703.518 1041.5 703.883 1041.76 704.038L1043.55 705.076L1044.26 705.713L1044.57 705.515C1044.66 705.466 1044.71 705.36 1044.71 705.21V704.946C1044.71 704.65 1044.5 704.285 1044.24 704.139Z" fill="#848484"/>
<path d="M1041.44 702.947C1041.18 702.801 1040.96 702.926 1040.96 703.223V703.429C1040.96 703.73 1041.18 704.095 1041.43 704.245L1043.91 705.69C1044.17 705.84 1044.38 705.718 1044.38 705.422V705.158C1044.38 704.862 1044.17 704.497 1043.91 704.351L1041.44 702.947Z" fill="#364E56"/>
<path d="M1048.88 706.788L1046.41 705.388C1046.28 705.319 1046.17 705.311 1046.08 705.356C1046.07 705.364 1046.06 705.368 1046.04 705.376L1045.77 705.559L1045.94 705.701V705.871C1045.94 706.172 1046.15 706.537 1046.4 706.687L1048.19 707.73L1048.9 708.367L1049.21 708.168C1049.3 708.119 1049.35 708.014 1049.35 707.864V707.6C1049.35 707.3 1049.14 706.938 1048.88 706.788Z" fill="#848484"/>
<path d="M1046.08 705.6C1045.82 705.454 1045.61 705.576 1045.61 705.876V706.083C1045.61 706.383 1045.82 706.748 1046.07 706.898L1048.56 708.343C1048.81 708.493 1049.02 708.371 1049.02 708.075V707.811C1049.02 707.511 1048.81 707.15 1048.55 707L1046.08 705.6Z" fill="#364E56"/>
<path d="M1053 709.276L1050.52 707.877C1050.4 707.804 1050.28 707.795 1050.2 707.84V707.844C1050.18 707.848 1050.17 707.856 1050.16 707.864L1049.89 708.043L1050.05 708.189V708.359C1050.05 708.655 1050.26 709.025 1050.52 709.175L1052.31 710.218L1053.02 710.854L1053.32 710.656C1053.41 710.607 1053.47 710.502 1053.47 710.347V710.088C1053.47 709.787 1053.25 709.422 1053 709.276Z" fill="#848484"/>
<path d="M1050.2 708.087C1049.94 707.941 1049.72 708.063 1049.72 708.363V708.57C1049.72 708.871 1049.93 709.236 1050.19 709.386L1052.67 710.83C1052.93 710.98 1053.14 710.859 1053.14 710.558V710.299C1053.14 709.998 1052.93 709.633 1052.67 709.487L1050.2 708.087Z" fill="#364E56"/>
<path d="M1082.39 711.783H1082.12C1082.04 711.702 1081.93 711.625 1081.81 711.552C1081.04 711.11 1079.78 711.11 1079 711.552C1078.88 711.625 1078.78 711.702 1078.7 711.783H1078.43V712.331C1078.42 712.635 1078.61 712.944 1079.01 713.175C1079.79 713.621 1081.05 713.621 1081.82 713.175C1082.2 712.952 1082.39 712.66 1082.39 712.368V711.783Z" fill="#AFAFAF"/>
<path d="M1079 710.972C1078.23 711.414 1078.24 712.145 1079.01 712.595C1079.79 713.041 1081.05 713.041 1081.82 712.595C1082.59 712.145 1082.58 711.414 1081.81 710.972C1081.04 710.53 1079.78 710.53 1079 710.972Z" fill="#476370"/>
<path d="M1043.9 694.657C1043.7 694.77 1043.7 694.961 1043.9 695.075C1044.1 695.193 1044.43 695.193 1044.62 695.075C1044.82 694.961 1044.82 694.77 1044.62 694.657C1044.42 694.543 1044.1 694.543 1043.9 694.657Z" fill="#9B9B9B"/>
<path d="M1042.93 695.188C1042.73 695.302 1042.73 695.489 1042.93 695.606C1043.13 695.72 1043.46 695.72 1043.65 695.606C1043.85 695.489 1043.85 695.302 1043.65 695.188C1043.45 695.075 1043.13 695.075 1042.93 695.188Z" fill="#9B9B9B"/>
<path d="M1045.18 693.926C1044.95 694.064 1044.93 694.275 1045.14 694.401C1045.35 694.523 1045.72 694.511 1045.96 694.377L1049.02 692.604C1049.26 692.466 1049.27 692.251 1049.06 692.125C1048.84 692.003 1048.48 692.011 1048.24 692.149L1045.18 693.926Z" fill="#476370"/>
<path d="M1054.01 690.92C1054.01 690.92 1070.92 700.54 1074.56 713.329L1086.23 706.573L1056.42 689.536L1054.01 690.92Z" fill="#3B9BBC"/>
<path d="M436.202 806.68C436.202 806.68 439.801 812.37 436.88 816.88C436.88 816.88 435.906 818.74 432.896 818.39C432.896 818.39 413.245 815.29 407.313 807.321C407.313 807.321 403.239 802.363 409.703 800.062C409.703 800.062 416.341 797.494 422.626 801.746L436.202 806.68Z" fill="#C9C9C9"/>
<path d="M420.358 764.835C420.358 764.835 419.007 796.26 421.608 808.202C421.608 808.202 431.285 814.56 439.026 808.202C439.026 808.202 440.686 788.843 439.026 775.23L420.358 764.835Z" fill="#090D16"/>
<path d="M498.72 854.08L498.777 845.19L490.585 840.37V849.48L498.72 854.08Z" fill="#AFAFAF"/>
<path d="M498.729 854.08L498.72 845.41L506.669 840.55V849.65L498.729 854.08Z" fill="#999999"/>
<path d="M442.061 821.44L442.118 812.56L433.926 807.743V816.85L442.061 821.44Z" fill="#AFAFAF"/>
<path d="M442.07 821.44L442.065 812.77L450.01 807.914V817.02L442.07 821.44Z" fill="#999999"/>
<path d="M433.93 803.077L498.728 840.55L506.669 835.81L441.875 798.371L433.93 803.077Z" fill="#D6D6D6"/>
<path d="M433.926 803.09V808.06L498.72 845.41V840.56L433.926 803.09Z" fill="#BCBCBC"/>
<path d="M498.728 845.41L506.669 840.55V835.81L498.728 840.55V845.41Z" fill="#ADADAD"/>
<path d="M441.875 854.08L441.818 845.19L450.01 840.37V849.48L441.875 854.08Z" fill="#AFAFAF"/>
<path d="M441.867 854.08L441.875 845.41L433.926 840.55V849.65L441.867 854.08Z" fill="#999999"/>
<path d="M498.534 821.44L498.477 812.56L506.669 807.743V816.85L498.534 821.44Z" fill="#AFAFAF"/>
<path d="M498.526 821.44L498.53 812.77L490.585 807.914V817.02L498.526 821.44Z" fill="#999999"/>
<path d="M506.665 803.077L441.867 840.55L433.926 835.81L498.72 798.371L506.665 803.077Z" fill="#D6D6D6"/>
<path d="M506.669 803.09V808.06L441.875 845.41V840.56L506.669 803.09Z" fill="#BCBCBC"/>
<path d="M441.867 845.41L433.926 840.55V835.81L441.867 840.55V845.41Z" fill="#ADADAD"/>
<path d="M470.354 824.12L470.298 761.679L478.433 756.899V819.56L470.354 824.12Z" fill="#C6C6C6"/>
<path d="M470.354 824.12L470.298 761.679L462.162 756.899V819.56L470.354 824.12Z" fill="#DBDBDB"/>
<path d="M462.162 756.842L470.354 752.176L478.433 756.842L470.298 761.622L462.162 756.842Z" fill="#9B9B9B"/>
<path d="M410.462 759.073L461.051 788.535L512.22 759.073L461.339 729.608L410.462 759.073Z" fill="#F43838"/>
<path d="M410.462 759.073L461.051 788.535L512.22 759.073L461.339 729.608L410.462 759.073Z" fill="#D3D3D3"/>
<path d="M474.554 826.57L470.354 824.12L478.433 819.56L482.624 821.92L474.554 826.57Z" fill="#D6D6D6"/>
<path d="M498.72 854.08L498.777 845.19L490.585 840.37V849.48L498.72 854.08Z" fill="#AFAFAF"/>
<path d="M498.729 854.08L498.72 845.41L506.669 840.55V849.65L498.729 854.08Z" fill="#999999"/>
<path d="M442.061 821.44L442.118 812.56L433.926 807.743V816.85L442.061 821.44Z" fill="#AFAFAF"/>
<path d="M442.07 821.44L442.065 812.77L450.01 807.914V817.02L442.07 821.44Z" fill="#999999"/>
<path d="M433.93 803.077L498.728 840.55L506.669 835.81L441.875 798.371L433.93 803.077Z" fill="#D6D6D6"/>
<path d="M433.926 803.09V808.06L498.72 845.41V840.56L433.926 803.09Z" fill="#BCBCBC"/>
<path d="M498.728 845.41L506.669 840.55V835.81L498.728 840.55V845.41Z" fill="#ADADAD"/>
<path d="M441.875 854.08L441.818 845.19L450.01 840.37V849.48L441.875 854.08Z" fill="#AFAFAF"/>
<path d="M441.867 854.08L441.875 845.41L433.926 840.55V849.65L441.867 854.08Z" fill="#999999"/>
<path d="M498.534 821.44L498.477 812.56L506.669 807.743V816.85L498.534 821.44Z" fill="#AFAFAF"/>
<path d="M498.526 821.44L498.53 812.77L490.585 807.914V817.02L498.526 821.44Z" fill="#999999"/>
<path d="M506.665 803.077L441.867 840.55L433.926 835.81L498.72 798.371L506.665 803.077Z" fill="#D6D6D6"/>
<path d="M506.669 803.09V808.06L441.875 845.41V840.56L506.669 803.09Z" fill="#BCBCBC"/>
<path d="M441.867 845.41L433.926 840.55V835.81L441.867 840.55V845.41Z" fill="#ADADAD"/>
<path d="M470.354 824.12L470.298 761.679L478.433 756.899V819.56L470.354 824.12Z" fill="#C6C6C6"/>
<path d="M470.354 824.12L470.298 761.679L462.162 756.899V819.56L470.354 824.12Z" fill="#DBDBDB"/>
<path d="M462.162 756.842L470.354 752.176L478.433 756.842L470.298 761.622L462.162 756.842Z" fill="#9B9B9B"/>
<path d="M512.22 694.929L508.231 692.701L457.001 722.223L461.091 724.52L512.22 694.929Z" fill="#CE0F0F"/>
<path d="M461.091 724.52L457.001 722.223V786.17L461.051 789.022L461.091 724.52Z" fill="#F91C1C"/>
<path d="M410.462 763.119V759.074L461.051 788.535V792.581L410.462 763.119Z" fill="#F91C1C"/>
<path d="M512.22 694.928L461.091 724.394L461.051 788.535L512.22 759.073V694.928Z" fill="#EA1313"/>
<path d="M410.462 763.119V759.074L461.051 788.535V792.581L410.462 763.119Z" fill="#BCBCBC"/>
<path d="M461.051 792.581V788.535L512.22 759.074V763.119L461.051 792.581Z" fill="#AFAFAF"/>
<path d="M414.255 822.27C414.255 822.27 417.854 827.95 414.933 832.47C414.933 832.47 413.959 834.33 410.949 833.97C410.949 833.97 391.298 830.88 385.366 822.91C385.366 822.91 381.292 817.95 387.756 815.65C387.756 815.65 394.394 813.08 400.683 817.33L414.255 822.27Z" fill="#C9C9C9"/>
<path d="M437.334 767.972C437.334 767.972 422.062 762.531 416.751 757.487C416.751 757.487 421.044 811.87 416.751 820.63C416.751 820.63 407.143 829.28 396.342 818.04C396.342 818.04 392.536 762.478 398.115 746.743C398.115 746.743 411.756 730.343 430.83 731.743L437.334 767.972Z" fill="#090D16"/>
<path d="M452.866 664.266C452.866 664.266 446.715 665.508 443.705 671.878C443.705 671.878 419.936 696.004 416.085 705.563C416.085 705.563 412.697 709.613 409.378 709.945C409.378 709.945 384.392 709.771 377.312 713.22C377.312 713.22 374.033 714.461 373.327 719.42C373.327 719.42 372.97 729.243 380.586 730.131C380.586 730.131 421.575 729.332 424.939 727.032C424.939 727.032 430.071 724.82 431.045 721.542C431.045 721.542 432.287 720.215 432.198 722.694C432.198 722.694 426.444 753.369 432.287 763.46C432.287 763.46 438.661 771.563 453.93 775.543C453.93 775.543 470.066 779.264 486.698 769.534C486.698 769.534 494.298 765.72 496.156 750.711C496.156 750.711 503.48 702.212 492.123 667.013C492.123 667.013 486.166 656.646 477.638 658.821L452.866 664.266Z" fill="#121A31"/>
<path d="M456.717 660.481C456.717 660.481 453.995 660.878 452.867 664.266C452.867 664.266 465.084 669.314 472.253 665.727C472.253 665.727 478.141 662.672 478.672 659.84C478.672 659.84 477.654 657.892 474.647 658.29L456.717 660.481Z" fill="#E5E5E5"/>
<path d="M457.448 653.777C457.448 653.777 456.518 657.096 456.717 660.48C456.717 660.48 468.934 665.727 474.647 658.289C474.647 658.289 472.586 651.586 470.862 649.923L460.771 650.856L457.448 653.777Z" fill="#E5966E"/>
<path d="M455.52 677.068C455.52 677.068 447.486 723.145 442.118 731.657C442.118 731.657 434.316 747.847 442.93 771.388C442.93 771.388 438.239 769.331 436.722 767.525C436.722 767.525 430.599 764.957 430.132 756.144C430.132 756.144 427.771 735.09 432.108 723.181C432.108 723.181 432.66 721.075 431.346 721.302L449.414 685.114L455.52 677.068Z" fill="#0E1526"/>
<path d="M461.233 653.376C461.233 653.376 456.543 658.16 452.38 654.707C452.38 654.707 448.882 653.112 448.618 646.275C448.618 646.275 448.951 642.952 447.223 640.83C447.223 640.83 443.883 639.345 444.902 636.558C444.902 636.558 445.344 634.078 447.158 633.636C447.158 633.636 445.778 625.955 448.436 622.174C448.436 622.174 458.133 620.267 461.854 624.783C465.571 629.299 467.875 631.336 469.734 632.042C471.592 632.752 473.008 635.052 473.272 635.495C473.539 635.937 472.566 642.664 472.566 642.664C472.566 642.664 472.213 648.333 471.503 649.128C470.793 649.923 467.697 656.297 461.233 653.376Z" fill="#FFBF9B"/>
<path d="M454.153 626.556C454.153 626.556 450.874 621.196 444.326 622.015C444.326 622.015 440.783 622.571 441.226 619.118C441.226 619.118 441.895 612.391 447.669 610.975C447.669 610.975 462.296 603.537 474.777 610.443C474.777 610.443 485.489 615.665 487.968 626.556C487.968 626.556 491.421 635.673 486.641 641.958C486.641 641.958 477.966 655.441 470.882 655.956C470.882 655.956 463.359 658.691 464.155 652.58C464.155 652.58 467.875 645.232 467.076 641.605C467.076 641.605 465.66 637.089 462.738 636.736C462.738 636.736 458.843 637.178 457.249 635.494C457.249 635.494 453.93 629.388 454.153 626.556Z" fill="#211D1D"/>
<path d="M375.328 714.871C375.328 714.871 369.343 710.81 365.492 711.804C365.492 711.804 364.429 711.938 364.385 714.064C364.385 714.064 362.437 713.248 359.784 714.871C359.784 714.871 357.126 716.101 357.791 718.71C357.791 718.71 355.454 721.501 357.682 724.642C357.682 724.642 358.984 727.121 361.597 726.147C361.597 726.147 369.757 723.494 375.328 726.967C375.328 726.967 378.813 719.639 377.352 717.561C375.892 715.48 375.328 714.871 375.328 714.871Z" fill="#E5D8A3"/>
<path d="M428.233 675.408C428.233 675.408 421.141 674.004 417.984 676.422C417.984 676.422 417.059 676.962 417.846 678.934C417.846 678.934 415.736 678.946 413.927 681.478C413.927 681.478 411.959 683.645 413.59 685.787C413.59 685.787 412.527 689.269 415.809 691.289C415.809 691.289 417.976 693.066 419.997 691.147C419.997 691.147 426.477 685.519 432.96 686.542C432.96 686.542 433.309 678.435 431.151 677.088C428.992 675.745 428.233 675.408 428.233 675.408Z" fill="#E5D8A3"/>
<path d="M444.139 670.738C444.139 670.738 435.375 671.436 430.725 675.12C430.725 675.12 428.201 677.047 427.503 681.166C427.503 681.166 425.645 687.905 431.025 688.433L444.139 670.738Z" fill="#05070C"/>
<path d="M445.677 668.802C445.677 668.802 449.247 666.323 452.867 670.243C452.867 670.243 458.312 675.022 453.666 682.192C453.666 682.192 440.828 713.885 431.045 721.542C431.045 721.542 428.631 726.07 424.35 727.303C424.35 727.303 420.877 729.425 381.564 730.111C381.564 730.111 375.806 731.158 373.867 723.672C373.867 723.672 370.093 714.425 381.17 711.986C381.17 711.986 398.959 708.452 410.409 709.73C410.409 709.73 415.245 707.328 416.085 705.563C416.085 705.563 433.853 676.82 445.677 668.802Z" fill="#090D16"/>
<path d="M512.22 694.929L508.231 692.701L457.001 722.223L461.091 724.52L512.22 694.929Z" fill="#ADADAD"/>
<path d="M461.091 724.52L457.001 722.223V786.17L461.051 789.022L461.091 724.52Z" fill="#BCBCBC"/>
<path d="M512.22 694.928L461.091 724.394L461.051 788.535L512.22 759.073V694.928Z" fill="#D3D3D3"/>
<path d="M968.11 801.04C968.11 801.04 964.51 806.729 967.43 811.25C967.43 811.25 968.41 813.1 971.42 812.75C971.42 812.75 991.07 809.65 997 801.686C997 801.686 1001.08 796.727 994.61 794.423C994.61 794.423 987.97 791.858 981.69 796.106L968.11 801.04Z" fill="#C9C9C9"/>
<path d="M983.96 759.196C983.96 759.196 985.31 790.621 982.7 802.566C982.7 802.566 973.03 808.924 965.28 802.566C965.28 802.566 963.62 783.204 965.28 769.591L983.96 759.196Z" fill="#090D16"/>
<path d="M905.59 848.44L905.54 839.55L913.73 834.73V843.84L905.59 848.44Z" fill="#AFAFAF"/>
<path d="M905.59 848.44V839.77L897.65 834.91V844.01L905.59 848.44Z" fill="#999999"/>
<path d="M962.25 815.81L962.19 806.916L970.39 802.103V811.21L962.25 815.81Z" fill="#AFAFAF"/>
<path d="M962.25 815.81V807.135L954.3 802.278V811.38L962.25 815.81Z" fill="#999999"/>
<path d="M970.38 797.437L905.59 834.91L897.65 830.17L962.44 792.731L970.38 797.437Z" fill="#D6D6D6"/>
<path d="M970.39 797.454V802.42L905.59 839.77V834.92L970.39 797.454Z" fill="#BCBCBC"/>
<path d="M905.59 839.77L897.65 834.91V830.17L905.59 834.91V839.77Z" fill="#ADADAD"/>
<path d="M962.44 848.44L962.5 839.55L954.3 834.73V843.84L962.44 848.44Z" fill="#AFAFAF"/>
<path d="M962.45 848.44L962.44 839.77L970.39 834.91V844.01L962.45 848.44Z" fill="#999999"/>
<path d="M905.78 815.81L905.84 806.916L897.65 802.103V811.21L905.78 815.81Z" fill="#AFAFAF"/>
<path d="M905.79 815.81V807.135L913.73 802.278V811.38L905.79 815.81Z" fill="#999999"/>
<path d="M897.65 797.437L962.45 834.91L970.39 830.17L905.59 792.731L897.65 797.437Z" fill="#D6D6D6"/>
<path d="M897.65 797.454V802.42L962.44 839.77V834.92L897.65 797.454Z" fill="#BCBCBC"/>
<path d="M962.45 839.77L970.39 834.91V830.17L962.45 834.91V839.77Z" fill="#ADADAD"/>
<path d="M933.96 818.48L934.02 756.038L925.88 751.259V813.92L933.96 818.48Z" fill="#C6C6C6"/>
<path d="M933.96 818.48L934.02 756.038L942.15 751.259V813.92L933.96 818.48Z" fill="#DBDBDB"/>
<path d="M942.15 751.202L933.96 746.535L925.88 751.202L934.02 755.981L942.15 751.202Z" fill="#9B9B9B"/>
<path d="M993.85 753.433L943.26 782.895L892.09 753.433L942.98 723.968L993.85 753.433Z" fill="#F43838"/>
<path d="M993.85 753.433L943.26 782.895L892.09 753.433L942.98 723.968L993.85 753.433Z" fill="#D3D3D3"/>
<path d="M929.76 820.93L933.96 818.48L925.88 813.92L921.69 816.28L929.76 820.93Z" fill="#D6D6D6"/>
<path d="M905.59 848.44L905.54 839.55L913.73 834.73V843.84L905.59 848.44Z" fill="#AFAFAF"/>
<path d="M905.59 848.44V839.77L897.65 834.91V844.01L905.59 848.44Z" fill="#999999"/>
<path d="M962.25 815.81L962.19 806.916L970.39 802.103V811.21L962.25 815.81Z" fill="#AFAFAF"/>
<path d="M962.25 815.81V807.135L954.3 802.278V811.38L962.25 815.81Z" fill="#999999"/>
<path d="M970.38 797.437L905.59 834.91L897.65 830.17L962.44 792.731L970.38 797.437Z" fill="#D6D6D6"/>
<path d="M970.39 797.454V802.42L905.59 839.77V834.92L970.39 797.454Z" fill="#BCBCBC"/>
<path d="M905.59 839.77L897.65 834.91V830.17L905.59 834.91V839.77Z" fill="#ADADAD"/>
<path d="M962.44 848.44L962.5 839.55L954.3 834.73V843.84L962.44 848.44Z" fill="#AFAFAF"/>
<path d="M962.45 848.44L962.44 839.77L970.39 834.91V844.01L962.45 848.44Z" fill="#999999"/>
<path d="M905.78 815.81L905.84 806.916L897.65 802.103V811.21L905.78 815.81Z" fill="#AFAFAF"/>
<path d="M905.79 815.81V807.135L913.73 802.278V811.38L905.79 815.81Z" fill="#999999"/>
<path d="M897.65 797.437L962.45 834.91L970.39 830.17L905.59 792.731L897.65 797.437Z" fill="#D6D6D6"/>
<path d="M897.65 797.454V802.42L962.44 839.77V834.92L897.65 797.454Z" fill="#BCBCBC"/>
<path d="M962.45 839.77L970.39 834.91V830.17L962.45 834.91V839.77Z" fill="#ADADAD"/>
<path d="M933.96 818.48L934.02 756.038L925.88 751.259V813.92L933.96 818.48Z" fill="#C6C6C6"/>
<path d="M933.96 818.48L934.02 756.038L942.15 751.259V813.92L933.96 818.48Z" fill="#DBDBDB"/>
<path d="M942.15 751.202L933.96 746.535L925.88 751.202L934.02 755.981L942.15 751.202Z" fill="#9B9B9B"/>
<path d="M892.09 689.293L896.08 687.061L947.31 716.583L943.22 718.88L892.09 689.293Z" fill="#CE0F0F"/>
<path d="M943.22 718.884L947.31 716.584V780.53L943.26 783.386L943.22 718.884Z" fill="#F91C1C"/>
<path d="M993.85 757.479V753.434L943.26 782.895V786.94L993.85 757.479Z" fill="#F91C1C"/>
<path d="M892.09 689.292L943.22 718.754L943.26 782.895L892.09 753.433V689.292Z" fill="#EA1313"/>
<path d="M993.85 757.479V753.434L943.26 782.895V786.94L993.85 757.479Z" fill="#BCBCBC"/>
<path d="M943.26 786.94V782.895L892.09 753.434V757.479L943.26 786.94Z" fill="#AFAFAF"/>
<path d="M990.06 816.63C990.06 816.63 986.46 822.31 989.38 826.83C989.38 826.83 990.36 828.69 993.36 828.34C993.36 828.34 1013.02 825.24 1018.95 817.27C1018.95 817.27 1023.02 812.31 1016.56 810.01C1016.56 810.01 1009.92 807.439 1003.63 811.69L990.06 816.63Z" fill="#C9C9C9"/>
<path d="M966.98 762.336C966.98 762.336 982.25 756.891 987.56 751.847C987.56 751.847 983.27 806.234 987.56 815C987.56 815 997.17 823.64 1007.97 812.4C1007.97 812.4 1011.78 756.838 1006.2 741.103C1006.2 741.103 992.56 724.703 973.48 726.103L966.98 762.336Z" fill="#090D16"/>
<path d="M951.44 658.626C951.44 658.626 957.6 659.868 960.61 666.242C960.61 666.242 984.38 690.364 988.23 699.923C988.23 699.923 991.61 703.977 994.94 704.305C994.94 704.305 1019.92 704.131 1027 707.584C1027 707.584 1030.28 708.821 1030.99 713.78C1030.99 713.78 1031.34 723.607 1023.73 724.491C1023.73 724.491 982.74 723.696 979.38 721.392C979.38 721.392 974.24 719.18 973.27 715.906C973.27 715.906 972.03 714.575 972.12 717.054C972.12 717.054 977.87 747.729 972.03 757.82C972.03 757.82 965.65 765.923 950.39 769.907C950.39 769.907 934.25 773.624 917.62 763.898C917.62 763.898 910.02 760.08 908.15 745.075C908.15 745.075 900.83 696.572 912.19 661.373C912.19 661.373 918.15 651.01 926.67 653.181L951.44 658.626Z" fill="#121A31"/>
<path d="M947.59 654.845C947.59 654.845 950.32 655.242 951.44 658.626C951.44 658.626 939.23 663.674 932.06 660.087C932.06 660.087 926.17 657.036 925.64 654.199C925.64 654.199 926.66 652.252 929.67 652.654L947.59 654.845Z" fill="#E5E5E5"/>
<path d="M946.86 648.138C946.86 648.138 947.79 651.457 947.59 654.845C947.59 654.845 935.38 660.087 929.67 652.654C929.67 652.654 931.73 645.947 933.45 644.287L943.54 645.216L946.86 648.138Z" fill="#E5966E"/>
<path d="M948.79 671.428C948.79 671.428 956.83 717.505 962.19 726.017C962.19 726.017 969.99 742.207 961.38 765.752C961.38 765.752 966.08 763.691 967.59 761.886C967.59 761.886 973.72 759.317 974.18 750.504C974.18 750.504 976.54 729.45 972.21 717.541C972.21 717.541 971.65 715.435 972.97 715.663L954.9 679.474L948.79 671.428Z" fill="#0E1526"/>
<path d="M943.08 647.74C943.08 647.74 947.77 652.519 951.93 649.067C951.93 649.067 955.43 647.472 955.7 640.635C955.7 640.635 955.36 637.316 957.09 635.19C957.09 635.19 960.43 633.705 959.41 630.917C959.41 630.917 958.97 628.438 957.16 627.996C957.16 627.996 958.53 620.315 955.88 616.533C955.88 616.533 946.18 614.631 942.46 619.142C938.74 623.658 936.44 625.695 934.58 626.401C932.72 627.111 931.31 629.412 931.04 629.854C930.78 630.297 931.75 637.028 931.75 637.028C931.75 637.028 932.1 642.692 932.81 643.487C933.52 644.287 936.62 650.661 943.08 647.74Z" fill="#FFBF9B"/>
<path d="M950.16 620.916C950.16 620.916 953.44 615.556 959.99 616.375C959.99 616.375 963.53 616.931 963.09 613.478C963.09 613.478 962.42 606.751 956.65 605.335C956.65 605.335 942.02 597.898 929.54 604.803C929.54 604.803 918.83 610.025 916.35 620.916C916.35 620.916 912.89 630.033 917.67 636.318C917.67 636.318 926.35 649.801 933.43 650.321C933.43 650.321 940.96 653.051 940.16 646.941C940.16 646.941 936.44 639.592 937.24 635.965C937.24 635.965 938.65 631.449 941.58 631.096C941.58 631.096 945.47 631.538 947.07 629.854C947.07 629.854 950.38 623.748 950.16 620.916Z" fill="#211D1D"/>
<path d="M1028.99 709.231C1028.99 709.231 1034.97 705.169 1038.82 706.168C1038.82 706.168 1039.89 706.297 1039.93 708.424C1039.93 708.424 1041.88 707.608 1044.53 709.231C1044.53 709.231 1047.19 710.46 1046.52 713.069C1046.52 713.069 1048.86 715.861 1046.63 719.002C1046.63 719.002 1045.33 721.481 1042.72 720.507C1042.72 720.507 1034.56 717.857 1028.99 721.331C1028.99 721.331 1025.5 713.999 1026.96 711.921C1028.42 709.84 1028.99 709.231 1028.99 709.231Z" fill="#E5D8A3"/>
<path d="M976.08 669.768C976.08 669.768 983.17 668.364 986.33 670.786C986.33 670.786 987.26 671.322 986.47 673.294C986.47 673.294 988.58 673.306 990.39 675.838C990.39 675.838 992.36 678.005 990.72 680.151C990.72 680.151 991.79 683.628 988.51 685.653C988.51 685.653 986.34 687.426 984.31 685.507C984.31 685.507 977.84 679.879 971.35 680.902C971.35 680.902 971.01 672.795 973.16 671.448C975.32 670.105 976.08 669.768 976.08 669.768Z" fill="#E5D8A3"/>
<path d="M960.18 665.102C960.18 665.102 968.94 665.799 973.59 669.484C973.59 669.484 976.11 671.407 976.81 675.525C976.81 675.525 978.67 682.265 973.29 682.796L960.18 665.102Z" fill="#05070C"/>
<path d="M958.64 663.162C958.64 663.162 955.06 660.687 951.44 664.603C951.44 664.603 946 669.382 950.65 676.552C950.65 676.552 963.49 708.245 973.27 715.906C973.27 715.906 975.68 720.43 979.96 721.663C979.96 721.663 983.44 723.785 1022.75 724.471C1022.75 724.471 1028.51 725.522 1030.44 718.036C1030.44 718.036 1034.22 708.785 1023.14 706.346C1023.14 706.346 1005.36 702.816 993.9 704.09C993.9 704.09 989.07 701.688 988.23 699.923C988.23 699.923 970.46 671.18 958.64 663.162Z" fill="#090D16"/>
<path d="M892.09 689.293L896.08 687.061L947.31 716.583L943.22 718.88L892.09 689.293Z" fill="#ADADAD"/>
<path d="M943.22 718.884L947.31 716.584V780.53L943.26 783.386L943.22 718.884Z" fill="#BCBCBC"/>
<path d="M892.09 689.292L943.22 718.754L943.26 782.895L892.09 753.433V689.292Z" fill="#D3D3D3"/>
<path d="M786.714 575.253V391.286L686.185 448.586V634.565L786.714 575.253Z" fill="#CECECE"/>
<path d="M686.185 448.586L585.656 391.286V576.762L686.185 634.565V448.586Z" fill="#B5B5B5"/>
<path d="M585.656 391.285L686.185 332.444L786.714 391.285L686.185 448.585L585.656 391.285Z" fill="#A0A0A0"/>
<path d="M603.518 380.829L686.185 332.444L768.852 380.829L686.185 427.949L603.518 380.829Z" fill="#828282"/>
<path d="M603.518 373.624L686.185 325.238L768.852 373.624L686.185 420.743L603.518 373.624Z" fill="#828282"/>
<path d="M603.518 373.623V380.829L686.185 427.949V420.743L603.518 373.623Z" fill="#5B5B5B"/>
<path d="M768.852 373.623V380.829L686.185 427.949V420.743L768.852 373.623Z" fill="#6D6D6D"/>
<path d="M786.713 391.285L777.109 385.662L676.041 442.804L686.185 448.585L786.713 391.285Z" fill="#494949"/>
<path d="M780.68 393.002L773.851 389.002L701.961 429.645L709.175 433.76L780.68 393.002Z" fill="#A8A8A8"/>
<path d="M697.952 435.167L696.828 434.526L699.725 432.891L700.816 433.536L697.952 435.167Z" fill="#A8A8A8"/>
<path d="M699.627 436.153L698.504 435.508L701.401 433.877L702.492 434.522L699.627 436.153Z" fill="#A8A8A8"/>
<path d="M701.303 437.18L700.179 436.535L703.076 434.903L704.168 435.549L701.303 437.18Z" fill="#A8A8A8"/>
<path d="M694.284 437.314L693.156 436.669L696.057 435.038L697.144 435.679L694.284 437.314Z" fill="#A8A8A8"/>
<path d="M695.96 438.296L694.832 437.655L697.733 436.02L698.82 436.665L695.96 438.296Z" fill="#A8A8A8"/>
<path d="M697.635 439.322L696.507 438.681L699.408 437.046L700.496 437.691L697.635 439.322Z" fill="#A8A8A8"/>
<path d="M690.514 439.387L689.39 438.742L692.287 437.11L693.379 437.752L690.514 439.387Z" fill="#A8A8A8"/>
<path d="M692.19 440.369L691.066 439.728L693.963 438.093L695.055 438.738L692.19 440.369Z" fill="#A8A8A8"/>
<path d="M693.866 441.396L692.738 440.754L695.639 439.119L696.73 439.764L693.866 441.396Z" fill="#A8A8A8"/>
<path d="M751.117 401.851L750.33 410.303L780.68 393.002L773.851 389.001L751.117 401.851Z" fill="#BCBCBC"/>
<path d="M740.795 407.69L739.849 416.276L735.841 418.561L736.721 409.991L740.795 407.69Z" fill="#BCBCBC"/>
<path d="M710.197 506.194L762.348 536.057L814.353 506.064L762.275 476.225L710.197 506.194Z" fill="#BCBCBC"/>
<path d="M710.197 506.193V510.539L762.348 540.402V536.057L710.197 506.193Z" fill="#A0A0A0"/>
<path d="M814.353 506.064V510.409L762.348 540.402V536.057L814.353 506.064Z" fill="#8C8C8C"/>
<path d="M762.275 476.226V471.178L710.197 501.228V506.194L762.275 476.226Z" fill="#848484"/>
<path d="M762.275 476.226L757.633 473.856L710.197 501.228V506.194L762.275 476.226Z" fill="#6D6D6D"/>
<path d="M763.419 527.946L799.466 507.156L754.627 482.145L719.116 502.579L763.419 527.946Z" fill="#EAEAEA"/>
<path d="M763.419 526.388L799.466 505.601L754.627 480.586L719.116 501.024L763.419 526.388Z" fill="#D8D8D8"/>
<path d="M763.419 524.813L799.466 504.023L754.627 479.013L719.116 499.446L763.419 524.813Z" fill="#EAEAEA"/>
<path d="M763.419 523.256L799.466 502.469L754.627 477.455L719.116 497.892L763.419 523.256Z" fill="#D8D8D8"/>
<path d="M696.272 582.524V605.757L776.631 559.177V536.057L696.272 582.524Z" fill="#969696"/>
<path d="M731.203 572.424V575.459L741.696 569.373V566.355L731.203 572.424Z" fill="#6B6B6B"/>
<path d="M675.201 522.696V545.929L594.843 499.349V476.225L675.201 522.696Z" fill="#969696"/>
<path d="M640.27 512.597V515.632L629.774 509.546V506.527L640.27 512.597Z" fill="#6B6B6B"/>
<path d="M675.201 552.855V576.088L594.843 529.508V506.389L675.201 552.855Z" fill="#969696"/>
<path d="M640.27 542.756V545.791L629.774 539.709V536.686L640.27 542.756Z" fill="#6B6B6B"/>
<path d="M675.201 583.014V606.251L594.843 559.667V536.548L675.201 583.014Z" fill="#969696"/>
<path d="M640.27 572.915V575.95L629.774 569.868V566.845L640.27 572.915Z" fill="#6B6B6B"/>
<path d="M880.28 585.247V581.806H815.412V585.977H815.437C815.704 590.558 818.82 595.086 824.805 598.547C837.379 605.822 858.044 605.822 870.736 598.547C877.098 594.899 880.28 590.075 880.28 585.247Z" fill="#7F7F7F"/>
<path d="M824.915 568.553C812.284 575.885 812.235 587.835 824.805 595.106C837.38 602.381 858.044 602.381 870.736 595.106C883.42 587.835 883.47 575.885 870.846 568.553C858.215 561.217 837.546 561.217 824.915 568.553Z" fill="#A0A0A0"/>
<path d="M853.325 580.353V580.349V356.663H842.37V580.337H842.374C842.374 581.164 842.918 581.992 844.005 582.625C846.164 583.879 849.653 583.879 851.759 582.625C852.81 582 853.33 581.181 853.325 580.361V580.353Z" fill="#C6C6C6"/>
<path d="M843.957 354.387C841.823 355.629 841.847 357.67 844.006 358.927C846.164 360.181 849.654 360.181 851.759 358.927C853.865 357.67 853.845 355.629 851.711 354.387C849.581 353.145 846.087 353.145 843.957 354.387Z" fill="#A0A0A0"/>
<path d="M888.73 339.869H888.74L888.71 339.78C888.55 338.92 888.31 338.063 888 337.215L872.384 281.234L847.848 284.147L823.312 281.234L807.65 337.443C807.378 338.193 807.167 338.952 807.017 339.711L806.985 339.828H806.993C805.707 346.742 809.582 353.908 818.65 359.154C834.58 368.373 860.771 368.373 876.851 359.154C885.98 353.92 889.94 346.771 888.73 339.869Z" fill="#AF9452"/>
<path d="M830.34 272.543C820.695 278.142 820.658 287.268 830.254 292.818C839.854 298.373 855.634 298.373 865.323 292.818C875.013 287.268 875.049 278.142 865.405 272.543C855.76 266.944 839.98 266.944 830.34 272.543Z" fill="#7F6A39"/>
<path d="M836.54 276.125C830.311 279.745 830.287 285.636 836.487 289.223C842.687 292.806 852.875 292.806 859.132 289.223C865.392 285.636 865.413 279.745 859.189 276.125C852.96 272.51 842.768 272.51 836.54 276.125Z" fill="#CCAD66"/>
<path d="M471.754 1029.57L478.741 990.08H408.859L415.85 1029.6C415.493 1034.02 418.195 1038.5 423.961 1041.85C434.859 1048.19 452.688 1048.19 463.582 1041.85C467.741 1039.43 470.318 1036.43 471.312 1033.28H471.336L471.349 1033.17C471.71 1031.98 471.848 1030.77 471.754 1029.57Z" fill="#D6D6D6"/>
<path d="M418.946 1002.78C405.292 994.85 405.345 981.86 419.064 973.92C432.778 965.99 455.119 965.99 468.703 973.92C482.292 981.86 482.239 994.85 468.585 1002.78C454.936 1010.72 432.595 1010.72 418.946 1002.78Z" fill="#B2B2B2"/>
<path d="M422.395 984.03C434.263 977.16 453.593 977.16 465.347 984.03C469.429 986.41 472.087 989.32 473.324 992.39C475.641 986.63 472.988 980.33 465.347 975.87C453.593 969 434.263 969 422.395 975.87C414.649 980.35 411.943 986.7 414.28 992.47C415.533 989.37 418.24 986.43 422.395 984.03Z" fill="#939393"/>
<path d="M422.293 1000.84C434.105 1007.71 453.435 1007.71 465.246 1000.84C469.385 998.43 472.075 995.49 473.324 992.39C472.087 989.32 469.429 986.41 465.347 984.03C453.593 977.16 434.263 977.16 422.395 984.03C418.24 986.43 415.533 989.37 414.28 992.47C415.525 995.54 418.195 998.45 422.293 1000.84Z" fill="#4F3E2F"/>
<path d="M468.451 993.58C468.451 995.75 460.454 997.52 450.59 997.52C440.727 997.52 432.729 995.75 432.729 993.58C432.729 991.4 440.727 989.64 450.59 989.64C460.454 989.64 468.451 991.4 468.451 993.58Z" fill="#35281E"/>
<path d="M446.788 948.64C446.788 948.64 428.185 912.25 450.03 882.92C450.03 882.92 451.154 881.71 452.173 881.89C452.173 881.89 452.976 882.68 452.4 884.41C452.4 884.41 439.006 913.6 452.299 945.49C452.299 945.49 449.58 949.49 446.788 948.64Z" fill="#5A723B"/>
<path d="M452.173 881.89C452.173 881.89 432.737 911.26 449.702 948.02C449.702 948.02 451.004 947.26 451.13 946.88C451.13 946.88 433.946 917.76 452.173 881.89Z" fill="#95B76C"/>
<path d="M440.532 976.64C440.532 976.64 453.459 929.77 420.962 900.84C420.962 900.84 419.356 899.7 418.215 900.16C418.215 900.16 417.469 901.27 418.556 903.16C418.556 903.16 441.177 933.95 433.354 974.3C433.354 974.3 437.485 978.3 440.532 976.64Z" fill="#668444"/>
<path d="M418.216 900.16C418.216 900.16 447.92 929.71 436.985 976.62C436.985 976.62 435.285 976.04 435.05 975.63C435.05 975.63 448.071 937.58 418.216 900.16Z" fill="#95B76C"/>
<path d="M446.703 964.98C446.703 964.98 433.772 918.11 466.272 889.19C466.272 889.19 467.875 888.05 469.019 888.5C469.019 888.5 469.762 889.62 468.674 891.5C468.674 891.5 446.054 922.29 453.881 962.64C453.881 962.64 449.746 966.65 446.703 964.98Z" fill="#668444"/>
<path d="M469.019 888.5C469.019 888.5 439.311 918.05 450.246 964.96C450.246 964.96 451.95 964.38 452.181 963.98C452.181 963.98 439.16 925.92 469.019 888.5Z" fill="#95B76C"/>
<path d="M443.818 995.79C443.818 995.79 434.17 928.83 484.089 894.59C484.089 894.59 486.499 893.29 487.996 894.12C487.996 894.12 488.828 895.79 486.998 898.2C486.998 898.2 450.391 936.75 454.137 993.81C454.137 993.81 447.73 998.62 443.818 995.79Z" fill="#6C8C4D"/>
<path d="M487.996 894.12C487.996 894.12 441.826 929.72 448.716 996.38C448.716 996.38 451.162 995.88 451.56 995.36C451.56 995.36 440.244 940.55 487.996 894.12Z" fill="#82A35F"/>
<path d="M441.489 994.75C441.489 994.75 449.556 938.78 407.828 910.16C407.828 910.16 405.812 909.08 404.562 909.77C404.562 909.77 403.868 911.16 405.398 913.18C405.398 913.18 435.995 945.4 432.863 993.09C432.863 993.09 438.219 997.11 441.489 994.75Z" fill="#7EA555"/>
<path d="M404.562 909.77C404.562 909.77 443.157 939.52 437.395 995.24C437.395 995.24 435.35 994.83 435.022 994.39C435.022 994.39 444.48 948.58 404.562 909.77Z" fill="#95B76C"/>
<path d="M660.481 1145.21L667.468 1105.73H597.585L604.576 1145.25C604.219 1149.66 606.922 1154.15 612.687 1157.5C623.586 1163.83 641.414 1163.83 652.309 1157.5C656.468 1155.08 659.044 1152.07 660.038 1148.93H660.063L660.075 1148.82C660.436 1147.63 660.574 1146.42 660.481 1145.21Z" fill="#D6D6D6"/>
<path d="M607.672 1118.43C594.019 1110.49 594.072 1097.51 607.79 1089.57C621.504 1081.63 643.845 1081.63 657.433 1089.57C671.018 1097.51 670.965 1110.49 657.312 1118.43C643.662 1126.37 621.322 1126.37 607.672 1118.43Z" fill="#B2B2B2"/>
<path d="M611.121 1099.67C622.99 1092.8 642.319 1092.8 654.074 1099.67C658.156 1102.05 660.814 1104.96 662.051 1108.03C664.368 1102.28 661.714 1095.98 654.074 1091.51C642.319 1084.65 622.99 1084.65 611.121 1091.51C603.376 1096 600.669 1102.34 603.006 1108.12C604.26 1105.02 606.966 1102.07 611.121 1099.67Z" fill="#939393"/>
<path d="M611.02 1116.48C622.831 1123.35 642.161 1123.35 653.972 1116.48C658.111 1114.08 660.801 1111.14 662.051 1108.03C660.813 1104.96 658.156 1102.05 654.074 1099.67C642.319 1092.8 622.989 1092.8 611.121 1099.67C606.966 1102.07 604.26 1105.02 603.006 1108.12C604.252 1111.19 606.922 1114.1 611.02 1116.48Z" fill="#4F3E2F"/>
<path d="M657.178 1109.22C657.178 1111.4 649.181 1113.16 639.317 1113.16C629.453 1113.16 621.456 1111.4 621.456 1109.22C621.456 1107.05 629.453 1105.29 639.317 1105.29C649.181 1105.29 657.178 1107.05 657.178 1109.22Z" fill="#35281E"/>
<path d="M635.515 1064.29C635.515 1064.29 616.911 1027.9 638.757 998.56C638.757 998.56 639.881 997.35 640.899 997.54C640.899 997.54 641.703 998.32 641.127 1000.06C641.127 1000.06 627.733 1029.25 641.025 1061.14C641.025 1061.14 638.307 1065.14 635.515 1064.29Z" fill="#5A723B"/>
<path d="M640.899 997.54C640.899 997.54 621.464 1026.9 638.428 1063.67C638.428 1063.67 639.731 1062.9 639.857 1062.53C639.857 1062.53 622.673 1033.41 640.899 997.54Z" fill="#95B76C"/>
<path d="M629.258 1092.29C629.258 1092.29 642.185 1045.42 609.689 1016.49C609.689 1016.49 608.082 1015.35 606.942 1015.81C606.942 1015.81 606.199 1016.92 607.283 1018.8C607.283 1018.8 629.903 1049.59 622.081 1089.94C622.081 1089.94 626.211 1093.95 629.258 1092.29Z" fill="#668444"/>
<path d="M606.942 1015.81C606.942 1015.81 636.647 1045.35 625.712 1092.27C625.712 1092.27 624.012 1091.69 623.776 1091.28C623.776 1091.28 636.797 1053.22 606.942 1015.81Z" fill="#95B76C"/>
<path d="M635.43 1080.63C635.43 1080.63 622.498 1033.76 654.999 1004.83C654.999 1004.83 656.602 1003.69 657.746 1004.15C657.746 1004.15 658.489 1005.26 657.401 1007.15C657.401 1007.15 634.785 1037.94 642.607 1078.29C642.607 1078.29 638.473 1082.29 635.43 1080.63Z" fill="#668444"/>
<path d="M657.746 1004.15C657.746 1004.15 628.037 1033.7 638.972 1080.61C638.972 1080.61 640.676 1080.03 640.907 1079.62C640.907 1079.62 627.887 1041.57 657.746 1004.15Z" fill="#95B76C"/>
<path d="M632.545 1111.44C632.545 1111.44 622.896 1044.48 672.815 1010.23C672.815 1010.23 675.226 1008.94 676.723 1009.77C676.723 1009.77 677.555 1011.43 675.725 1013.85C675.725 1013.85 639.118 1052.39 642.863 1109.46C642.863 1109.46 636.456 1114.27 632.545 1111.44Z" fill="#6C8C4D"/>
<path d="M676.723 1009.77C676.723 1009.77 630.552 1045.36 637.442 1112.03C637.442 1112.03 639.889 1111.52 640.286 1111C640.286 1111 628.97 1056.2 676.723 1009.77Z" fill="#82A35F"/>
<path d="M630.216 1110.4C630.216 1110.4 638.282 1054.43 596.559 1025.81C596.559 1025.81 594.542 1024.73 593.289 1025.42C593.289 1025.42 592.595 1026.81 594.124 1028.83C594.124 1028.83 624.722 1061.04 621.594 1108.74C621.594 1108.74 626.945 1112.76 630.216 1110.4Z" fill="#7EA555"/>
<path d="M593.289 1025.42C593.289 1025.42 631.883 1055.17 626.122 1110.89C626.122 1110.89 624.077 1110.47 623.748 1110.04C623.748 1110.04 633.206 1064.22 593.289 1025.42Z" fill="#95B76C"/>
<path d="M917.56 1036.05L924.54 996.56H854.661L861.652 1036.08C861.295 1040.5 863.997 1044.98 869.762 1048.33C880.66 1054.67 898.49 1054.67 909.38 1048.33C913.54 1045.91 916.12 1042.91 917.11 1039.76H917.14L917.15 1039.65C917.51 1038.46 917.64 1037.25 917.56 1036.05Z" fill="#D6D6D6"/>
<path d="M864.747 1009.26C851.094 1001.33 851.147 988.34 864.865 980.4C878.58 972.47 900.92 972.47 914.5 980.4C928.09 988.34 928.04 1001.33 914.39 1009.26C900.74 1017.2 878.4 1017.2 864.747 1009.26Z" fill="#B2B2B2"/>
<path d="M868.196 990.51C880.06 983.64 899.39 983.64 911.15 990.51C915.23 992.89 917.89 995.8 919.13 998.87C921.44 993.11 918.79 986.81 911.15 982.35C899.39 975.48 880.06 975.48 868.196 982.35C860.45 986.83 857.74 993.18 860.081 998.95C861.335 995.85 864.041 992.91 868.196 990.51Z" fill="#939393"/>
<path d="M868.095 1007.32C879.91 1014.18 899.24 1014.18 911.05 1007.32C915.19 1004.91 917.88 1001.97 919.13 998.87C917.89 995.8 915.23 992.89 911.15 990.5C899.39 983.64 880.06 983.64 868.196 990.5C864.041 992.91 861.335 995.85 860.081 998.95C861.323 1002.02 863.993 1004.93 868.095 1007.32Z" fill="#4F3E2F"/>
<path d="M914.25 1000.06C914.25 1002.24 906.26 1004 896.39 1004C886.52 1004 878.53 1002.24 878.53 1000.06C878.53 997.89 886.52 996.12 896.39 996.12C906.26 996.12 914.25 997.89 914.25 1000.06Z" fill="#35281E"/>
<path d="M892.59 955.12C892.59 955.12 873.986 918.73 895.83 889.4C895.83 889.4 896.96 888.19 897.97 888.37C897.97 888.37 898.78 889.16 898.2 890.89C898.2 890.89 884.81 920.08 898.1 951.97C898.1 951.97 895.38 955.98 892.59 955.12Z" fill="#5A723B"/>
<path d="M897.97 888.37C897.97 888.37 878.53 917.74 895.5 954.5C895.5 954.5 896.81 953.74 896.93 953.36C896.93 953.36 879.75 924.24 897.97 888.37Z" fill="#95B76C"/>
<path d="M886.33 983.12C886.33 983.12 899.26 936.25 866.76 907.33C866.76 907.33 865.157 906.18 864.013 906.64C864.013 906.64 863.27 907.75 864.358 909.64C864.358 909.64 886.98 940.43 879.16 980.77C879.16 980.77 883.29 984.78 886.33 983.12Z" fill="#668444"/>
<path d="M864.013 906.64C864.013 906.64 893.72 936.19 882.79 983.1C882.79 983.1 881.09 982.52 880.85 982.11C880.85 982.11 893.87 944.06 864.013 906.64Z" fill="#95B76C"/>
<path d="M892.5 971.46C892.5 971.46 879.57 924.6 912.07 895.67C912.07 895.67 913.68 894.53 914.82 894.98C914.82 894.98 915.56 896.1 914.48 897.98C914.48 897.98 891.86 928.77 899.68 969.12C899.68 969.12 895.55 973.13 892.5 971.46Z" fill="#668444"/>
<path d="M914.82 894.98C914.82 894.98 885.11 924.53 896.05 971.44C896.05 971.44 897.75 970.86 897.98 970.46C897.98 970.46 884.96 932.4 914.82 894.98Z" fill="#95B76C"/>
<path d="M889.62 1002.27C889.62 1002.27 879.97 935.31 929.89 901.07C929.89 901.07 932.3 899.77 933.8 900.6C933.8 900.6 934.63 902.27 932.8 904.68C932.8 904.68 896.19 943.23 899.94 1000.29C899.94 1000.29 893.53 1005.1 889.62 1002.27Z" fill="#6C8C4D"/>
<path d="M933.8 900.6C933.8 900.6 887.62 936.2 894.51 1002.86C894.51 1002.86 896.96 1002.36 897.36 1001.84C897.36 1001.84 886.04 947.03 933.8 900.6Z" fill="#82A35F"/>
<path d="M887.29 1001.23C887.29 1001.23 895.36 945.26 853.63 916.64C853.63 916.64 851.613 915.56 850.364 916.25C850.364 916.25 849.666 917.64 851.195 919.66C851.195 919.66 881.79 951.88 878.66 999.57C878.66 999.57 884.02 1003.6 887.29 1001.23Z" fill="#7EA555"/>
<path d="M850.364 916.25C850.364 916.25 888.95 946 883.2 1001.73C883.2 1001.73 881.15 1001.31 880.82 1000.87C880.82 1000.87 890.28 955.06 850.364 916.25Z" fill="#95B76C"/>
<path d="M990.29 276.178V374.686L1075.44 423.165V324.653L990.29 276.178Z" fill="#AD8559"/>
<path d="M1001.32 295.22V368.203L1064.4 404.12V331.137L1001.32 295.22Z" fill="#E8E8E8"/>
<path d="M1034.48 353.032V327.689L1031.25 325.782L1031.32 352.675V354.72L1049.08 364.94V361.414L1034.48 353.032Z" fill="#606060"/>
<path d="M1032.03 316.202V321.813L1033.7 322.844V317.196L1032.03 316.202Z" fill="#A8A8A8"/>
<path d="M1032.03 377.733V383.345L1033.7 384.372V378.723L1032.03 377.733Z" fill="#A8A8A8"/>
<path d="M1003.34 335.941V338.29L1007.46 340.713V338.327L1003.34 335.941Z" fill="#A8A8A8"/>
<path d="M1057.89 365.346V367.695L1062.01 370.117V367.731L1057.89 365.346Z" fill="#A8A8A8"/>
<path d="M1075.44 324.653L1085.07 319.524V417.724L1075.44 423.165" fill="#9B734C"/>
<path d="M1085.07 319.525L999.46 270.583L990.29 276.178L1075.44 324.653L1085.07 319.525Z" fill="#BF946A"/>
</g>
<defs>
<clipPath id="clip0_49_892">
<rect width="1379" height="1243" fill="white"/>
</clipPath>
</defs>
</svg>
