<svg width="201" height="201" viewBox="0 0 201 201" fill="none" xmlns="http://www.w3.org/2000/svg">
<g clip-path="url(#clip0_27_3857)">
<path d="M132.62 0.54248H28.9696C26.0839 0.54248 23.7446 2.88177 23.7446 7.42105V196.971C23.7446 198.203 26.0839 200.542 28.9696 200.542H172.091C174.977 200.542 177.316 198.203 177.316 196.971V46.8925C177.316 44.4068 176.984 43.6068 176.398 43.0175L134.841 1.46034C134.252 0.874623 133.452 0.54248 132.62 0.54248Z" fill="#E9E9E0"/>
<path d="M134.459 1.08179V43.3996H176.777L134.459 1.08179Z" fill="#D9D7CA"/>
<path d="M172.091 200.542H28.9696C26.0839 200.542 23.7446 198.203 23.7446 195.317V139.828H177.316V195.317C177.316 198.203 174.977 200.542 172.091 200.542Z" fill="#EEAF4B"/>
<path d="M93.4623 153.11V181.139C93.4623 182.832 93.1516 184.257 92.5338 185.41C91.9123 186.564 91.0838 187.492 90.0445 188.192C89.0016 188.892 87.8052 189.382 86.4552 189.657C85.1052 189.932 83.7088 190.071 82.2802 190.071C81.5623 190.071 80.7231 189.996 79.7659 189.85C78.8088 189.703 77.8123 189.478 76.7873 189.167C75.7623 188.857 74.7766 188.507 73.8338 188.117C72.8873 187.728 72.0909 187.289 71.4409 186.8L73.9302 182.846C74.2552 183.071 74.7195 183.31 75.3231 183.553C75.9266 183.796 76.5838 184.025 77.3016 184.235C78.0159 184.45 78.7659 184.632 79.5481 184.796C80.3302 184.96 81.0623 185.039 81.7445 185.039C83.4659 185.039 84.8445 184.703 85.8695 184.039C86.8945 183.375 87.4374 182.239 87.5052 180.646V153.107H93.4623V153.11Z" fill="white"/>
<path d="M122.616 179.964C122.616 181.264 122.348 182.528 121.809 183.749C121.27 184.971 120.516 186.046 119.537 186.971C118.559 187.896 117.355 188.639 115.923 189.192C114.491 189.746 112.862 190.021 111.041 190.021C110.259 190.021 109.455 189.978 108.623 189.899C107.791 189.821 106.952 189.678 106.109 189.485C105.262 189.289 104.455 189.021 103.691 188.678C102.927 188.335 102.266 187.921 101.712 187.432L102.737 183.232C103.191 183.492 103.77 183.746 104.47 183.989C105.17 184.232 105.891 184.46 106.641 184.671C107.387 184.885 108.137 185.053 108.887 185.185C109.634 185.314 110.334 185.382 110.987 185.382C112.973 185.382 114.495 184.917 115.552 183.989C116.609 183.06 117.137 181.685 117.137 179.864C117.137 178.757 116.762 177.814 116.016 177.032C115.266 176.249 114.33 175.542 113.209 174.907C112.087 174.271 110.873 173.639 109.57 173.003C108.266 172.367 107.045 171.617 105.909 170.757C104.77 169.896 103.823 168.878 103.077 167.707C102.327 166.535 101.955 165.071 101.955 163.314C101.955 161.721 102.248 160.303 102.834 159.067C103.42 157.832 104.209 156.778 105.202 155.917C106.195 155.057 107.352 154.396 108.67 153.939C109.987 153.482 111.38 153.257 112.845 153.257C114.341 153.257 115.855 153.396 117.384 153.671C118.912 153.946 120.148 154.396 121.095 155.014C120.898 155.435 120.67 155.899 120.412 156.407C120.152 156.914 119.905 157.382 119.68 157.821C119.452 158.26 119.255 158.628 119.095 158.921C118.93 159.214 118.834 159.378 118.802 159.41C118.605 159.314 118.387 159.185 118.141 159.021C117.895 158.857 117.545 158.696 117.091 158.532C116.634 158.367 116.03 158.257 115.284 158.189C114.534 158.121 113.573 158.139 112.402 158.239C111.748 158.307 111.134 158.489 110.545 158.799C109.955 159.11 109.434 159.489 108.98 159.946C108.523 160.403 108.162 160.914 107.905 161.485C107.645 162.053 107.516 162.603 107.516 163.121C107.516 164.421 107.887 165.471 108.637 166.271C109.384 167.071 110.312 167.767 111.42 168.371C112.527 168.974 113.727 169.56 115.034 170.128C116.334 170.696 117.548 171.392 118.673 172.203C119.798 173.014 120.73 174.035 121.48 175.253C122.237 176.474 122.616 178.042 122.616 179.964Z" fill="white"/>
<path d="M70.1731 68.3997V54.1139C70.1731 52.1461 71.7731 50.5425 73.7445 50.5425C75.7195 50.5425 77.3159 48.9425 77.3159 46.9711C77.3159 44.9997 75.7195 43.3997 73.7445 43.3997C67.8374 43.3997 63.0302 48.2068 63.0302 54.1139V68.3997C63.0302 72.3389 59.8266 75.5425 55.8873 75.5425C53.9123 75.5425 52.3159 77.1425 52.3159 79.1139C52.3159 81.0854 53.9123 82.6854 55.8873 82.6854C59.8266 82.6854 63.0302 85.8889 63.0302 89.8282V104.114C63.0302 110.021 67.8374 114.828 73.7445 114.828C75.7195 114.828 77.3159 113.228 77.3159 111.257C77.3159 109.285 75.7195 107.685 73.7445 107.685C71.7731 107.685 70.1731 106.082 70.1731 104.114V89.8282C70.1731 85.5425 68.2374 81.7354 65.2374 79.1139C68.2374 76.4925 70.1731 72.6854 70.1731 68.3997Z" fill="#EEAF4B"/>
<path d="M98.7444 71.9711C101.703 71.9711 104.102 69.5726 104.102 66.614C104.102 63.6553 101.703 61.2568 98.7444 61.2568C95.7857 61.2568 93.3872 63.6553 93.3872 66.614C93.3872 69.5726 95.7857 71.9711 98.7444 71.9711Z" fill="#EEAF4B"/>
<path d="M141.601 75.5425C137.662 75.5425 134.459 72.3389 134.459 68.3997V54.1139C134.459 48.2068 129.651 43.3997 123.744 43.3997C121.769 43.3997 120.173 44.9997 120.173 46.9711C120.173 48.9425 121.769 50.5425 123.744 50.5425C125.716 50.5425 127.316 52.1461 127.316 54.1139V68.3997C127.316 72.6854 129.251 76.4925 132.251 79.1139C129.251 81.7354 127.316 85.5425 127.316 89.8282V104.114C127.316 106.082 125.716 107.685 123.744 107.685C121.769 107.685 120.173 109.285 120.173 111.257C120.173 113.228 121.769 114.828 123.744 114.828C129.651 114.828 134.459 110.021 134.459 104.114V89.8282C134.459 85.8889 137.662 82.6854 141.601 82.6854C143.576 82.6854 145.173 81.0854 145.173 79.1139C145.173 77.1425 143.576 75.5425 141.601 75.5425Z" fill="#EEAF4B"/>
<path d="M98.7443 86.2568C96.7693 86.2568 95.1729 87.8568 95.1729 89.8283V100.543C95.1729 102.514 96.7693 104.114 98.7443 104.114C100.719 104.114 102.316 102.514 102.316 100.543V89.8283C102.316 87.8568 100.719 86.2568 98.7443 86.2568Z" fill="#EEAF4B"/>
</g>
<defs>
<clipPath id="clip0_27_3857">
<rect width="200" height="200" fill="white" transform="translate(0.530273 0.54248)"/>
</clipPath>
</defs>
</svg>
