<svg width="201" height="200" viewBox="0 0 201 200" fill="none" xmlns="http://www.w3.org/2000/svg">
<g clip-path="url(#clip0_27_3843)">
<path d="M137.61 47.3001C136.635 47.3001 135.985 47.4314 135.329 47.5939V47.6939H135.429C135.885 48.5376 136.635 49.1939 137.217 49.9751C137.673 50.8564 138.06 51.7626 138.485 52.6439L138.617 52.5126C139.398 51.9564 139.792 51.0814 139.792 49.7439C139.467 49.3501 139.398 48.9314 139.11 48.5689C138.785 48.0126 138.067 47.7251 137.61 47.3001ZM48.9729 157.256H41.2604C40.9979 144.238 40.2167 131.994 39.0167 120.506H38.9542L27.2042 157.256H21.3104L9.6542 120.506H9.5542C8.71045 131.506 8.1542 143.781 7.9292 157.256H0.897949C1.3542 140.85 2.4917 125.488 4.3167 111.163H13.8854L25.0167 145.019H25.0792L36.3104 111.163H45.4229C47.4417 127.963 48.6479 143.325 49.0042 157.256H48.9729ZM82.4354 123.244C79.3104 140.3 75.1417 152.706 70.0354 160.419C65.9979 166.375 61.6042 169.369 56.8167 169.369C55.5479 169.369 53.9854 168.975 52.0979 168.194V164.094C53.0417 164.225 54.1167 164.319 55.3229 164.319C57.5667 164.319 59.3604 163.669 60.7292 162.463C62.3542 160.963 63.1729 159.275 63.1729 157.419C63.1729 156.119 62.5542 153.513 61.2542 149.544L52.8229 123.244H60.4104L66.4667 142.906C67.8354 147.4 68.4229 150.494 68.1604 152.281C71.5104 143.425 73.8229 133.725 75.1292 123.244H82.4354ZM185.167 157.256H163.229V111.163H170.617V151.594H185.167V157.256ZM157.498 158.369L149.035 154.2C149.785 153.581 150.498 152.9 151.154 152.119C154.767 147.919 156.56 141.638 156.56 133.369C156.56 118.1 150.573 110.488 138.592 110.488C132.729 110.488 128.142 112.406 124.854 116.281C121.273 120.513 119.448 126.763 119.448 135C119.448 143.106 121.042 149.031 124.235 152.838C127.167 156.225 131.56 157.95 137.454 157.95C139.635 157.95 141.654 157.688 143.479 157.138L154.517 163.581L157.542 158.375L157.498 158.369ZM130.06 148.013C128.173 145.019 127.26 140.2 127.26 133.556C127.26 121.938 130.779 116.144 137.842 116.144C141.523 116.144 144.254 117.544 145.979 120.313C147.835 123.338 148.779 128.094 148.779 134.669C148.779 146.356 145.229 152.25 138.198 152.25C134.485 152.25 131.785 150.85 130.029 148.081L130.06 148.013ZM116.254 144.5C116.254 148.406 114.823 151.631 111.923 154.1C109.06 156.606 105.248 157.875 100.398 157.875C95.8729 157.875 91.5417 156.444 87.2792 153.575L89.2667 149.606C92.9104 151.431 96.1979 152.344 99.1979 152.344C101.967 152.344 104.148 151.725 105.71 150.519C107.273 149.281 108.217 147.556 108.217 145.375C108.217 142.638 106.298 140.294 102.81 138.344C99.5854 136.556 93.1104 132.875 93.1104 132.875C89.5917 130.306 87.8667 127.569 87.8667 123.044C87.8667 119.3 89.1667 116.306 91.7729 114.025C94.4104 111.681 97.7604 110.544 101.929 110.544C106.192 110.544 110.098 111.681 113.617 113.963L111.829 117.931C108.835 116.663 105.873 116.013 102.973 116.013C100.598 116.013 98.7729 116.6 97.5042 117.738C96.2354 118.875 95.4542 120.306 95.4542 122.1C95.4542 124.838 97.4104 127.181 100.985 129.194C104.273 130.981 110.879 134.763 110.879 134.763C114.492 137.3 116.285 140.038 116.285 144.494L116.254 144.5ZM194.417 95.7064C189.954 95.6064 186.504 96.0626 183.61 97.3001C182.798 97.6251 181.46 97.6251 181.329 98.6689C181.785 99.1251 181.848 99.8439 182.242 100.456C182.923 101.563 184.067 103.063 185.142 103.844C186.317 104.756 187.485 105.669 188.692 106.45C190.873 107.788 193.317 108.569 195.46 109.9C196.667 110.681 197.904 111.688 199.104 112.506C199.723 112.931 200.11 113.681 200.892 113.938V113.775C200.498 113.288 200.404 112.569 200.01 111.988C199.454 111.431 198.904 110.944 198.348 110.394C196.723 108.213 194.735 106.325 192.554 104.763C190.767 103.556 186.86 101.863 186.142 99.8127L186.042 99.6814C187.248 99.5814 188.679 99.1251 189.848 98.8001C191.735 98.3126 193.492 98.4064 195.448 97.9189C196.329 97.6939 197.204 97.4314 198.117 97.1376V96.6501C197.11 95.6439 196.36 94.2751 195.317 93.3314C192.485 90.8876 189.36 88.4814 186.135 86.4939C184.379 85.3564 182.167 84.6376 180.31 83.6939C179.66 83.3689 178.523 83.2064 178.16 82.6501C177.154 81.4126 176.567 79.8189 175.848 78.3501C174.254 75.2876 172.692 71.9064 171.292 68.6501C170.285 66.4689 169.698 64.3189 168.46 62.3001C162.729 52.8251 156.479 47.1001 146.91 41.4689C144.86 40.2939 142.385 39.8064 139.779 39.1876C138.379 39.1251 137.01 39.0251 135.61 38.9626C134.698 38.5689 133.823 37.5314 133.042 37.0064C129.854 34.9876 121.648 30.6564 119.335 36.3876C117.835 40.0314 121.548 43.5814 122.854 45.4064C123.798 46.7064 125.004 48.1439 125.685 49.5751C126.079 50.5501 126.173 51.5626 126.567 52.5689C127.448 55.0126 128.292 57.7439 129.467 60.0251C130.085 61.2001 130.735 62.4314 131.517 63.4751C131.973 64.0939 132.754 64.3564 132.917 65.3626C132.135 66.5001 132.073 68.1626 131.648 69.5314C129.629 75.8439 130.41 83.6251 133.242 88.2814C134.154 89.6814 136.267 92.7439 139.104 91.5689C141.61 90.5627 141.06 87.4002 141.773 84.6002C141.935 83.9189 141.835 83.4939 142.167 83.0376V83.1689C142.979 84.7314 143.76 86.2314 144.479 87.7939C146.173 90.5314 149.198 93.3626 151.704 95.2501C153.042 96.2564 154.079 97.9877 155.742 98.6002V98.4376H155.61C155.254 97.9501 154.798 97.7189 154.342 97.3314C153.335 96.3251 152.223 95.0876 151.41 93.9814C149.098 90.8564 147.017 87.4064 145.192 83.8564C144.279 82.1001 143.498 80.2126 142.785 78.4876C142.46 77.8376 142.46 76.8251 141.904 76.5001C141.06 77.7064 139.823 78.7439 139.235 80.2751C138.16 82.6501 138.06 85.6126 137.642 88.6751C137.448 88.7376 137.542 88.6751 137.448 88.8064C135.66 88.3501 135.042 86.5251 134.385 84.9626C132.692 80.9939 132.429 74.6439 133.867 70.0876C134.26 68.9126 135.917 65.2376 135.267 64.1314C134.91 63.0564 133.804 62.4376 133.217 61.5939C132.467 60.5501 131.717 59.2189 131.198 58.0439C129.86 54.9189 129.21 51.4689 127.748 48.3439C127.098 46.9126 125.923 45.4126 124.979 44.0814C123.904 42.5814 122.735 41.5126 121.917 39.7501C121.623 39.1314 121.235 38.1251 121.692 37.4689C121.792 37.0126 122.017 36.8501 122.473 36.7189C123.192 36.1001 125.273 36.8814 125.992 37.2376C128.042 38.0501 129.767 38.8314 131.492 40.0064C132.273 40.5626 133.117 41.6001 134.129 41.8939H135.304C137.092 42.2876 139.079 41.9939 140.742 42.5126C143.704 43.4564 146.373 44.8251 148.779 46.3189C156.073 50.9751 162.06 57.5501 166.129 65.3939C166.81 66.6626 167.104 67.8376 167.723 69.1689C168.86 71.9376 170.329 74.7001 171.498 77.3376C172.667 79.9751 173.779 82.6439 175.467 84.8251C176.31 86.0001 179.635 86.6126 181.16 87.2001C182.267 87.7189 183.992 88.1751 184.967 88.7626C186.885 89.9376 188.773 91.2689 190.567 92.5689C191.479 93.1876 194.248 94.5876 194.41 95.6939L194.417 95.7064Z" fill="black"/>
</g>
<defs>
<clipPath id="clip0_27_3843">
<rect width="200" height="200" fill="white" transform="translate(0.891602)"/>
</clipPath>
</defs>
</svg>
