<svg width="250" height="212" viewBox="0 0 250 212" fill="none" xmlns="http://www.w3.org/2000/svg">
<g clip-path="url(#clip0_27_5258)">
<path d="M86.9743 38.0513H70.6666V16.3077L86.9743 10.8718V38.0513Z" fill="#FFD488"/>
<path d="M179.385 38.0513H163.077V10.8718L179.385 16.3077V38.0513Z" fill="#FFB739"/>
<path d="M125.026 0L114.154 8.15385L125.026 16.3077H179.385V0H125.026Z" fill="#233145"/>
<path d="M125.026 0H70.6666V16.3077H125.026V0Z" fill="#466289"/>
<path d="M114.154 108.718L125.026 212H250.051V70.6667L114.154 108.718Z" fill="#466289"/>
<path d="M250.051 32.6155V70.6668L146.769 114.154L114.154 119.59L125.026 32.6155H250.051Z" fill="#233145"/>
<path d="M0 70.6667V212H125.026V108.718L0 70.6667Z" fill="#6B81A1"/>
<path d="M125.026 32.6155V119.59L103.282 114.154L0 70.6668V32.6155H125.026Z" fill="#466289"/>
<path d="M146.769 130.462V146.769H125.026L119.59 130.462L132.364 125.026L146.769 130.462Z" fill="#FB992D"/>
<path d="M146.769 114.154V130.462H119.59L125.026 114.154H146.769Z" fill="#FFB739"/>
<path d="M125.026 130.462V146.769H103.282V130.462L114.154 125.026L125.026 130.462Z" fill="#FFB739"/>
<path d="M125.026 114.154H103.282V130.462H125.026V114.154Z" fill="#FFD488"/>
</g>
<defs>
<clipPath id="clip0_27_5258">
<rect width="250" height="212" rx="12" fill="white"/>
</clipPath>
</defs>
</svg>
