<svg width="201" height="201" viewBox="0 0 201 201" fill="none" xmlns="http://www.w3.org/2000/svg">
<path d="M100.627 116.005C109.256 116.005 116.252 109.009 116.252 100.38C116.252 91.7504 109.256 84.7549 100.627 84.7549C91.9975 84.7549 85.002 91.7504 85.002 100.38C85.002 109.009 91.9975 116.005 100.627 116.005Z" fill="#00D8FF"/>
<path d="M100.627 136.205C81.8465 136.659 63.1132 134.128 45.127 128.705C36.8183 126.071 29.069 121.922 22.2707 116.467C19.6765 114.604 17.5162 112.201 15.9378 109.425C14.3595 106.648 13.4006 103.562 13.127 100.38C13.127 90.0487 24.477 79.9237 43.4895 73.2987C61.9565 67.4284 81.2515 64.5833 100.627 64.8737C119.744 64.6066 138.78 67.4002 157.014 73.1487C165.016 75.6997 172.503 79.6482 179.127 84.8112C181.677 86.5877 183.805 88.9032 185.36 91.5937C186.915 94.2842 187.86 97.2838 188.127 100.38C188.127 111.117 175.439 121.999 155.002 128.761C137.364 134.007 119.026 136.518 100.627 136.205ZM100.627 72.3487C82.0902 72.1009 63.6321 74.8056 45.9457 80.3612C28.4457 86.4674 20.602 94.8174 20.602 100.361C20.602 106.161 29.0332 115.28 47.5457 121.611C64.7524 126.773 82.6683 129.175 100.627 128.73C118.229 129.045 135.776 126.663 152.658 121.667C171.877 115.299 180.627 106.167 180.627 100.38C180.312 98.3939 179.588 96.4948 178.501 94.8026C177.415 93.1104 175.989 91.662 174.314 90.5487C168.388 85.9683 161.7 82.4689 154.558 80.2112C137.115 74.7347 118.908 72.0804 100.627 72.3487Z" fill="#00D8FF"/>
<path d="M65.127 178.311C62.2113 178.378 59.3301 177.671 56.777 176.261C47.827 171.099 44.727 156.211 48.4832 136.43C52.6247 117.499 59.8007 99.3631 69.7332 82.7237C79.0503 66.0306 90.9781 50.9356 105.064 38.0112C111.272 32.3531 118.432 27.8396 126.214 24.6799C129.029 23.3608 132.1 22.677 135.208 22.677C138.317 22.677 141.387 23.3608 144.202 24.6799C153.508 30.0424 156.589 46.4674 152.246 67.5487C147.976 85.4522 140.987 102.595 131.521 118.38C122.532 134.876 110.979 149.839 97.2957 162.711C90.8631 168.591 83.3978 173.23 75.277 176.392C72.0258 177.599 68.5942 178.248 65.127 178.311ZM76.2082 86.4362C66.7338 102.369 59.8561 119.709 55.8332 137.805C52.377 156.024 55.6957 166.98 60.5207 169.767C65.5207 172.661 77.6582 169.917 92.3957 157.042C105.458 144.711 116.485 130.387 125.064 114.605C134.133 99.5144 140.838 83.1246 144.946 66.0049C149.033 46.1612 145.502 34.0112 140.489 31.1237C138.611 30.4039 136.603 30.0816 134.594 30.1774C132.584 30.2731 130.616 30.7847 128.814 31.6799C121.887 34.5384 115.519 38.5964 110.002 43.6674C96.5437 56.0474 85.15 70.4983 76.252 86.4737L76.2082 86.4362Z" fill="#00D8FF"/>
<path d="M136.108 178.393C127.639 178.393 116.883 173.268 105.683 163.636C91.3501 150.594 79.2206 135.32 69.7645 118.405C59.9566 101.995 52.8374 84.121 48.677 65.4613C46.8727 57.2519 46.5383 48.7875 47.6895 40.4613C47.9556 37.3726 48.8961 34.3799 50.4447 31.6942C51.9933 29.0086 54.1122 26.6953 56.652 24.9176C65.9457 19.5363 81.7145 25.0676 97.8082 39.3551C111.187 51.9938 122.548 66.6095 131.496 82.6926C141.298 98.7198 148.491 116.202 152.808 134.486C154.69 142.997 154.981 151.783 153.664 160.399C153.351 163.576 152.355 166.649 150.743 169.405C149.131 172.161 146.943 174.536 144.327 176.368C141.816 177.76 138.979 178.458 136.108 178.393ZM76.2332 114.643C85.3047 130.808 96.8913 145.426 110.558 157.949C124.614 170.043 135.764 172.643 140.558 169.824C145.558 166.918 149.246 155.055 145.446 135.861C141.282 118.405 134.383 101.717 125.002 86.4176C116.463 71.0246 105.619 57.0292 92.8457 44.9176C77.6957 31.4676 65.4082 28.4613 60.402 31.3613C58.8416 32.6294 57.5612 34.2071 56.6414 35.995C55.7216 37.7829 55.1826 39.7421 55.0582 41.7488C54.0645 49.1744 54.3882 56.717 56.0145 64.0301C60.0164 81.8747 66.8441 98.9652 76.2395 114.655L76.2332 114.643Z" fill="#00D8FF"/>
</svg>
